<svg width="428" height="926" viewBox="0 0 428 926" fill="none" xmlns="http://www.w3.org/2000/svg">
<rect width="428" height="926" fill="white"/>
<rect x="89" y="178" width="250" height="250" rx="25" fill="#E9EBF8"/>
<path d="M205.364 330.955V266.591H221.636V330.955H205.364ZM181.318 306.909V290.636H245.682V306.909H181.318Z" fill="white"/>
<path d="M23 83L30 74V79C41.953 79 43.332 88.678 43 94C42.498 91.315 42.265 87 30 87V92L23 83Z" stroke="black" stroke-width="2" stroke-linecap="round" stroke-linejoin="round"/>
<path d="M59.5362 94V73.6364H66.6555C68.0741 73.6364 69.2441 73.8816 70.1655 74.3722C71.0869 74.8561 71.773 75.509 72.2237 76.331C72.6745 77.1463 72.8999 78.0511 72.8999 79.0455C72.8999 79.9205 72.7441 80.643 72.4325 81.2131C72.1276 81.7831 71.7232 82.2339 71.2195 82.5653C70.7223 82.8968 70.1821 83.142 69.5987 83.3011V83.5C70.2218 83.5398 70.8482 83.7585 71.478 84.1562C72.1077 84.554 72.6347 85.1241 73.0589 85.8665C73.4832 86.6089 73.6953 87.517 73.6953 88.5909C73.6953 89.6117 73.4633 90.5298 72.9993 91.3452C72.5353 92.1605 71.8028 92.8068 70.8018 93.2841C69.8009 93.7614 68.4983 94 66.8942 94H59.5362ZM62.0021 91.8125H66.8942C68.505 91.8125 69.6484 91.5009 70.3246 90.8778C71.0073 90.2481 71.3487 89.4858 71.3487 88.5909C71.3487 87.9015 71.1731 87.2652 70.8217 86.6818C70.4704 86.0919 69.9699 85.6212 69.3203 85.2699C68.6707 84.9119 67.9018 84.733 67.0135 84.733H62.0021V91.8125ZM62.0021 82.5852H66.576C67.3184 82.5852 67.9879 82.4394 68.5845 82.1477C69.1877 81.8561 69.665 81.4451 70.0163 80.9148C70.3743 80.3845 70.5533 79.7614 70.5533 79.0455C70.5533 78.1506 70.2417 77.3916 69.6186 76.7685C68.9955 76.1387 68.0078 75.8239 66.6555 75.8239H62.0021V82.5852ZM81.9233 94.358C80.9555 94.358 80.0772 94.1757 79.2884 93.8111C78.4995 93.4399 77.8731 92.9062 77.4091 92.2102C76.9451 91.5076 76.7131 90.6591 76.7131 89.6648C76.7131 88.7898 76.8854 88.0805 77.2301 87.5369C77.5748 86.9867 78.0355 86.5559 78.6122 86.2443C79.1889 85.9328 79.8253 85.7008 80.5213 85.5483C81.224 85.3892 81.9299 85.2633 82.6392 85.1705C83.5672 85.0511 84.3196 84.9616 84.8963 84.902C85.4796 84.8357 85.9039 84.7263 86.169 84.5739C86.4408 84.4214 86.5767 84.1562 86.5767 83.7784V83.6989C86.5767 82.7178 86.3082 81.9555 85.7713 81.4119C85.241 80.8684 84.4356 80.5966 83.3551 80.5966C82.2348 80.5966 81.3565 80.8419 80.7202 81.3324C80.0838 81.8229 79.6364 82.3466 79.3778 82.9034L77.1506 82.108C77.5483 81.1799 78.0786 80.4574 78.7415 79.9403C79.411 79.4167 80.1402 79.0521 80.929 78.8466C81.7244 78.6345 82.5066 78.5284 83.2756 78.5284C83.7661 78.5284 84.3295 78.5881 84.9659 78.7074C85.6089 78.8201 86.2287 79.0554 86.8253 79.4134C87.4285 79.7713 87.929 80.3116 88.3267 81.0341C88.7244 81.7566 88.9233 82.7244 88.9233 83.9375V94H86.5767V91.9318H86.4574C86.2983 92.2633 86.0331 92.6179 85.6619 92.9957C85.2907 93.3736 84.7969 93.6951 84.1804 93.9602C83.5639 94.2254 82.8116 94.358 81.9233 94.358ZM82.2812 92.25C83.2093 92.25 83.9915 92.0677 84.6278 91.7031C85.2708 91.3385 85.7547 90.8679 86.0795 90.2912C86.411 89.7145 86.5767 89.108 86.5767 88.4716V86.3239C86.4773 86.4432 86.2585 86.5526 85.9205 86.652C85.589 86.7448 85.2045 86.8277 84.767 86.9006C84.3362 86.9669 83.9152 87.0265 83.5043 87.0795C83.0999 87.1259 82.7718 87.1657 82.5199 87.1989C81.91 87.2784 81.34 87.4077 80.8097 87.5866C80.286 87.759 79.8617 88.0208 79.5369 88.3722C79.2188 88.7169 79.0597 89.1875 79.0597 89.7841C79.0597 90.5994 79.3613 91.2159 79.9645 91.6335C80.5743 92.0445 81.3466 92.25 82.2812 92.25ZM99.4109 94.3182C97.979 94.3182 96.7461 93.9801 95.712 93.304C94.6779 92.6278 93.8825 91.6965 93.3256 90.5099C92.7688 89.3234 92.4904 87.9678 92.4904 86.4432C92.4904 84.892 92.7754 83.5232 93.3455 82.3366C93.9222 81.1435 94.7243 80.2121 95.7518 79.5426C96.7859 78.8665 97.9923 78.5284 99.3711 78.5284C100.445 78.5284 101.413 78.7273 102.275 79.125C103.136 79.5227 103.842 80.0795 104.392 80.7955C104.943 81.5114 105.284 82.3466 105.417 83.3011H103.07C102.891 82.6051 102.493 81.9886 101.877 81.4517C101.267 80.9081 100.445 80.6364 99.4109 80.6364C98.4961 80.6364 97.694 80.875 97.0046 81.3523C96.3219 81.8229 95.7882 82.4891 95.4038 83.3509C95.0259 84.206 94.837 85.2102 94.837 86.3636C94.837 87.5436 95.0226 88.571 95.3938 89.446C95.7717 90.321 96.302 91.0005 96.9847 91.4844C97.6741 91.9683 98.4828 92.2102 99.4109 92.2102C100.021 92.2102 100.574 92.1042 101.071 91.892C101.569 91.6799 101.989 91.375 102.334 90.9773C102.679 90.5795 102.924 90.1023 103.07 89.5455H105.417C105.284 90.447 104.956 91.259 104.432 91.9815C103.915 92.6974 103.229 93.2675 102.374 93.6918C101.525 94.1094 100.538 94.3182 99.4109 94.3182ZM111.034 88.4318L110.995 85.5284H111.472L118.154 78.7273H121.057L113.938 85.9261H113.739L111.034 88.4318ZM108.847 94V73.6364H111.194V94H108.847ZM118.551 94L112.586 86.4432L114.256 84.8125L121.534 94H118.551Z" fill="black"/>
<rect x="31.5" y="481.5" width="365" height="59" rx="14.5" fill="white" stroke="#C1C1C1"/>
<path d="M54.3914 502.455V517H52.63V502.455H54.3914ZM62.44 506.091V507.511H56.7866V506.091H62.44ZM58.4343 503.477H60.1105V513.875C60.1105 514.348 60.1791 514.704 60.3165 514.94C60.4585 515.172 60.6384 515.329 60.8562 515.409C61.0788 515.485 61.3131 515.523 61.5593 515.523C61.744 515.523 61.8955 515.513 62.0139 515.494C62.1323 515.471 62.227 515.452 62.298 515.438L62.6389 516.943C62.5253 516.986 62.3666 517.028 62.163 517.071C61.9594 517.118 61.7014 517.142 61.3889 517.142C60.9154 517.142 60.4514 517.04 59.9968 516.837C59.547 516.633 59.173 516.323 58.8747 515.906C58.5811 515.49 58.4343 514.964 58.4343 514.33V503.477ZM69.418 517.227C68.3669 517.227 67.4602 516.995 66.6978 516.531C65.9403 516.062 65.3555 515.409 64.9436 514.571C64.5364 513.728 64.3328 512.748 64.3328 511.631C64.3328 510.513 64.5364 509.528 64.9436 508.676C65.3555 507.819 65.9284 507.152 66.6623 506.673C67.401 506.19 68.2627 505.949 69.2476 505.949C69.8157 505.949 70.3768 506.044 70.9308 506.233C71.4848 506.422 71.989 506.73 72.4436 507.156C72.8981 507.578 73.2603 508.136 73.5302 508.832C73.8001 509.528 73.9351 510.385 73.9351 511.403V512.114H65.526V510.665H72.2305C72.2305 510.049 72.1074 509.5 71.8612 509.017C71.6197 508.534 71.2741 508.153 70.8243 507.874C70.3792 507.594 69.8536 507.455 69.2476 507.455C68.5799 507.455 68.0023 507.62 67.5146 507.952C67.0316 508.278 66.66 508.705 66.3995 509.23C66.1391 509.756 66.0089 510.319 66.0089 510.92V511.886C66.0089 512.71 66.151 513.409 66.4351 513.982C66.7239 514.55 67.124 514.983 67.6353 515.281C68.1467 515.575 68.7409 515.722 69.418 515.722C69.8584 515.722 70.2561 515.66 70.6112 515.537C70.971 515.409 71.2812 515.22 71.5416 514.969C71.802 514.713 72.0032 514.396 72.1453 514.017L73.7646 514.472C73.5941 515.021 73.3077 515.504 72.9052 515.92C72.5028 516.332 72.0056 516.654 71.4138 516.886C70.8219 517.114 70.1566 517.227 69.418 517.227ZM76.4848 517V506.091H78.1041V507.795H78.2461C78.4734 507.213 78.8404 506.761 79.347 506.439C79.8536 506.112 80.462 505.949 81.1723 505.949C81.892 505.949 82.4909 506.112 82.9691 506.439C83.4521 506.761 83.8285 507.213 84.0984 507.795H84.212C84.4914 507.232 84.9104 506.785 85.4691 506.453C86.0279 506.117 86.6978 505.949 87.4791 505.949C88.4545 505.949 89.2523 506.254 89.8726 506.865C90.4928 507.471 90.803 508.416 90.803 509.699V517H89.1268V509.699C89.1268 508.894 88.9066 508.319 88.4663 507.973C88.026 507.627 87.5075 507.455 86.9109 507.455C86.1439 507.455 85.5496 507.687 85.1282 508.151C84.7068 508.61 84.4961 509.192 84.4961 509.898V517H82.7916V509.528C82.7916 508.908 82.5904 508.409 82.1879 508.03C81.7854 507.646 81.267 507.455 80.6325 507.455C80.1969 507.455 79.7897 507.571 79.4109 507.803C79.0369 508.035 78.7338 508.357 78.5018 508.768C78.2745 509.176 78.1609 509.647 78.1609 510.182V517H76.4848ZM111.254 502.455V517H109.549L101.623 505.58H101.481V517H99.7199V502.455H101.424L109.379 513.903H109.521V502.455H111.254ZM117.761 517.256C117.07 517.256 116.443 517.125 115.879 516.865C115.316 516.6 114.868 516.219 114.537 515.722C114.206 515.22 114.04 514.614 114.04 513.903C114.04 513.278 114.163 512.772 114.409 512.384C114.655 511.991 114.984 511.683 115.396 511.46C115.808 511.238 116.263 511.072 116.76 510.963C117.262 510.849 117.766 510.759 118.273 510.693C118.936 510.608 119.473 510.544 119.885 510.501C120.302 510.454 120.605 510.376 120.794 510.267C120.988 510.158 121.085 509.969 121.085 509.699V509.642C121.085 508.941 120.894 508.397 120.51 508.009C120.131 507.62 119.556 507.426 118.784 507.426C117.984 507.426 117.357 507.601 116.902 507.952C116.447 508.302 116.128 508.676 115.943 509.074L114.352 508.506C114.636 507.843 115.015 507.327 115.489 506.957C115.967 506.583 116.488 506.323 117.051 506.176C117.619 506.025 118.178 505.949 118.727 505.949C119.078 505.949 119.48 505.991 119.935 506.077C120.394 506.157 120.837 506.325 121.263 506.581C121.694 506.837 122.051 507.223 122.335 507.739C122.619 508.255 122.761 508.946 122.761 509.812V517H121.085V515.523H121C120.886 515.759 120.697 516.013 120.432 516.283C120.167 516.553 119.814 516.782 119.374 516.972C118.933 517.161 118.396 517.256 117.761 517.256ZM118.017 515.75C118.68 515.75 119.239 515.62 119.693 515.359C120.153 515.099 120.498 514.763 120.73 514.351C120.967 513.939 121.085 513.506 121.085 513.051V511.517C121.014 511.602 120.858 511.68 120.617 511.751C120.38 511.818 120.105 511.877 119.793 511.929C119.485 511.976 119.184 512.019 118.891 512.057C118.602 512.09 118.367 512.118 118.188 512.142C117.752 512.199 117.345 512.291 116.966 512.419C116.592 512.542 116.289 512.729 116.057 512.98C115.83 513.226 115.716 513.562 115.716 513.989C115.716 514.571 115.931 515.011 116.362 515.31C116.798 515.603 117.349 515.75 118.017 515.75ZM125.821 517V506.091H127.44V507.795H127.582C127.809 507.213 128.176 506.761 128.683 506.439C129.19 506.112 129.798 505.949 130.508 505.949C131.228 505.949 131.827 506.112 132.305 506.439C132.788 506.761 133.164 507.213 133.434 507.795H133.548C133.827 507.232 134.246 506.785 134.805 506.453C135.364 506.117 136.034 505.949 136.815 505.949C137.79 505.949 138.588 506.254 139.208 506.865C139.829 507.471 140.139 508.416 140.139 509.699V517H138.463V509.699C138.463 508.894 138.243 508.319 137.802 507.973C137.362 507.627 136.843 507.455 136.247 507.455C135.48 507.455 134.886 507.687 134.464 508.151C134.043 508.61 133.832 509.192 133.832 509.898V517H132.128V509.528C132.128 508.908 131.926 508.409 131.524 508.03C131.121 507.646 130.603 507.455 129.968 507.455C129.533 507.455 129.126 507.571 128.747 507.803C128.373 508.035 128.07 508.357 127.838 508.768C127.61 509.176 127.497 509.647 127.497 510.182V517H125.821ZM147.777 517.227C146.726 517.227 145.82 516.995 145.057 516.531C144.3 516.062 143.715 515.409 143.303 514.571C142.896 513.728 142.692 512.748 142.692 511.631C142.692 510.513 142.896 509.528 143.303 508.676C143.715 507.819 144.288 507.152 145.022 506.673C145.76 506.19 146.622 505.949 147.607 505.949C148.175 505.949 148.736 506.044 149.29 506.233C149.844 506.422 150.348 506.73 150.803 507.156C151.258 507.578 151.62 508.136 151.89 508.832C152.159 509.528 152.294 510.385 152.294 511.403V512.114H143.885V510.665H150.59C150.59 510.049 150.467 509.5 150.221 509.017C149.979 508.534 149.633 508.153 149.184 507.874C148.739 507.594 148.213 507.455 147.607 507.455C146.939 507.455 146.362 507.62 145.874 507.952C145.391 508.278 145.019 508.705 144.759 509.23C144.499 509.756 144.368 510.319 144.368 510.92V511.886C144.368 512.71 144.51 513.409 144.794 513.982C145.083 514.55 145.483 514.983 145.995 515.281C146.506 515.575 147.1 515.722 147.777 515.722C148.218 515.722 148.615 515.66 148.971 515.537C149.33 515.409 149.641 515.22 149.901 514.969C150.161 514.713 150.363 514.396 150.505 514.017L152.124 514.472C151.954 515.021 151.667 515.504 151.265 515.92C150.862 516.332 150.365 516.654 149.773 516.886C149.181 517.114 148.516 517.227 147.777 517.227Z" fill="#888888"/>
<rect x="31.5" y="571.5" width="365" height="59" rx="14.5" fill="white" stroke="#C1C1C1"/>
<path d="M54.3914 592.455V607H52.63V592.455H54.3914ZM61.815 607.227C60.9059 607.227 60.1034 606.998 59.4074 606.538C58.7113 606.074 58.1668 605.421 57.7738 604.578C57.3808 603.731 57.1843 602.729 57.1843 601.574C57.1843 600.428 57.3808 599.434 57.7738 598.591C58.1668 597.748 58.7137 597.097 59.4145 596.638C60.1152 596.179 60.9249 595.949 61.8434 595.949C62.5537 595.949 63.1147 596.067 63.5267 596.304C63.9433 596.536 64.2606 596.801 64.4784 597.099C64.7009 597.393 64.8737 597.634 64.9968 597.824H65.1389V592.455H66.815V607H65.1957V605.324H64.9968C64.8737 605.523 64.6986 605.774 64.4713 606.077C64.244 606.375 63.9197 606.643 63.4983 606.879C63.0769 607.111 62.5158 607.227 61.815 607.227ZM62.0423 605.722C62.7147 605.722 63.2828 605.546 63.7468 605.196C64.2109 604.841 64.5636 604.351 64.8051 603.726C65.0466 603.096 65.1673 602.369 65.1673 601.545C65.1673 600.731 65.0489 600.018 64.8122 599.408C64.5754 598.792 64.2251 598.314 63.7611 597.973C63.297 597.627 62.7241 597.455 62.0423 597.455C61.3321 597.455 60.7402 597.637 60.2667 598.001C59.798 598.361 59.4452 598.851 59.2085 599.472C58.9765 600.087 58.8605 600.778 58.8605 601.545C58.8605 602.322 58.9789 603.027 59.2156 603.662C59.4571 604.292 59.8122 604.794 60.2809 605.168C60.7544 605.537 61.3415 605.722 62.0423 605.722ZM74.6915 607.227C73.6403 607.227 72.7336 606.995 71.9713 606.531C71.2137 606.062 70.629 605.409 70.217 604.571C69.8098 603.728 69.6062 602.748 69.6062 601.631C69.6062 600.513 69.8098 599.528 70.217 598.676C70.629 597.819 71.2019 597.152 71.9358 596.673C72.6744 596.19 73.5361 595.949 74.521 595.949C75.0892 595.949 75.6503 596.044 76.2042 596.233C76.7582 596.422 77.2625 596.73 77.717 597.156C78.1716 597.578 78.5338 598.136 78.8037 598.832C79.0736 599.528 79.2085 600.385 79.2085 601.403V602.114H70.7994V600.665H77.504C77.504 600.049 77.3808 599.5 77.1346 599.017C76.8932 598.534 76.5475 598.153 76.0977 597.874C75.6526 597.594 75.1271 597.455 74.521 597.455C73.8534 597.455 73.2757 597.62 72.788 597.952C72.3051 598.278 71.9334 598.705 71.673 599.23C71.4126 599.756 71.2824 600.319 71.2824 600.92V601.886C71.2824 602.71 71.4244 603.409 71.7085 603.982C71.9973 604.55 72.3974 604.983 72.9088 605.281C73.4201 605.575 74.0144 605.722 74.6915 605.722C75.1318 605.722 75.5295 605.66 75.8846 605.537C76.2445 605.409 76.5546 605.22 76.815 604.969C77.0754 604.713 77.2767 604.396 77.4187 604.017L79.038 604.472C78.8676 605.021 78.5811 605.504 78.1787 605.92C77.7762 606.332 77.279 606.654 76.6872 606.886C76.0953 607.114 75.4301 607.227 74.6915 607.227ZM84.9684 607.256C84.2772 607.256 83.6498 607.125 83.0863 606.865C82.5229 606.6 82.0754 606.219 81.744 605.722C81.4126 605.22 81.2468 604.614 81.2468 603.903C81.2468 603.278 81.37 602.772 81.6162 602.384C81.8624 601.991 82.1915 601.683 82.6034 601.46C83.0153 601.238 83.4699 601.072 83.967 600.963C84.4689 600.849 84.9732 600.759 85.4798 600.693C86.1427 600.608 86.6801 600.544 87.092 600.501C87.5087 600.454 87.8117 600.376 88.0011 600.267C88.1952 600.158 88.2923 599.969 88.2923 599.699V599.642C88.2923 598.941 88.1005 598.397 87.717 598.009C87.3382 597.62 86.7629 597.426 85.9912 597.426C85.191 597.426 84.5636 597.601 84.1091 597.952C83.6545 598.302 83.3349 598.676 83.1503 599.074L81.5593 598.506C81.8434 597.843 82.2222 597.327 82.6957 596.957C83.1739 596.583 83.6948 596.323 84.2582 596.176C84.8264 596.025 85.3851 595.949 85.9343 595.949C86.2847 595.949 86.6872 595.991 87.1417 596.077C87.601 596.157 88.0437 596.325 88.4699 596.581C88.9007 596.837 89.2582 597.223 89.5423 597.739C89.8264 598.255 89.9684 598.946 89.9684 599.812V607H88.2923V605.523H88.2071C88.0934 605.759 87.904 606.013 87.6389 606.283C87.3737 606.553 87.021 606.782 86.5807 606.972C86.1403 607.161 85.6029 607.256 84.9684 607.256ZM85.2241 605.75C85.887 605.75 86.4457 605.62 86.9003 605.359C87.3595 605.099 87.7052 604.763 87.9372 604.351C88.1739 603.939 88.2923 603.506 88.2923 603.051V601.517C88.2213 601.602 88.065 601.68 87.8236 601.751C87.5868 601.818 87.3122 601.877 86.9997 601.929C86.6919 601.976 86.3913 602.019 86.0977 602.057C85.8089 602.09 85.5745 602.118 85.3946 602.142C84.959 602.199 84.5518 602.291 84.173 602.419C83.7989 602.542 83.4959 602.729 83.2639 602.98C83.0366 603.226 82.923 603.562 82.923 603.989C82.923 604.571 83.1384 605.011 83.5693 605.31C84.0049 605.603 84.5565 605.75 85.2241 605.75ZM94.7039 592.455V607H93.0277V592.455H94.7039ZM115.331 597H113.569C113.465 596.493 113.283 596.048 113.022 595.665C112.767 595.281 112.454 594.959 112.085 594.699C111.72 594.434 111.316 594.235 110.87 594.102C110.425 593.97 109.961 593.903 109.478 593.903C108.598 593.903 107.8 594.126 107.085 594.571C106.375 595.016 105.809 595.672 105.387 596.538C104.971 597.405 104.762 598.468 104.762 599.727C104.762 600.987 104.971 602.05 105.387 602.916C105.809 603.783 106.375 604.438 107.085 604.884C107.8 605.329 108.598 605.551 109.478 605.551C109.961 605.551 110.425 605.485 110.87 605.352C111.316 605.22 111.72 605.023 112.085 604.763C112.454 604.498 112.767 604.173 113.022 603.79C113.283 603.402 113.465 602.956 113.569 602.455H115.331C115.198 603.198 114.957 603.863 114.606 604.45C114.256 605.037 113.82 605.537 113.299 605.949C112.779 606.356 112.194 606.666 111.545 606.879C110.901 607.092 110.212 607.199 109.478 607.199C108.238 607.199 107.135 606.896 106.169 606.29C105.203 605.684 104.443 604.822 103.889 603.705C103.335 602.587 103.058 601.261 103.058 599.727C103.058 598.193 103.335 596.867 103.889 595.75C104.443 594.633 105.203 593.771 106.169 593.165C107.135 592.559 108.238 592.256 109.478 592.256C110.212 592.256 110.901 592.362 111.545 592.575C112.194 592.788 112.779 593.101 113.299 593.513C113.82 593.92 114.256 594.417 114.606 595.004C114.957 595.587 115.198 596.252 115.331 597ZM122.381 607.227C121.397 607.227 120.532 606.993 119.789 606.524C119.05 606.055 118.473 605.4 118.056 604.557C117.644 603.714 117.438 602.729 117.438 601.602C117.438 600.466 117.644 599.474 118.056 598.626C118.473 597.779 119.05 597.121 119.789 596.652C120.532 596.183 121.397 595.949 122.381 595.949C123.366 595.949 124.228 596.183 124.967 596.652C125.71 597.121 126.288 597.779 126.7 598.626C127.116 599.474 127.325 600.466 127.325 601.602C127.325 602.729 127.116 603.714 126.7 604.557C126.288 605.4 125.71 606.055 124.967 606.524C124.228 606.993 123.366 607.227 122.381 607.227ZM122.381 605.722C123.13 605.722 123.745 605.53 124.228 605.146C124.711 604.763 125.068 604.259 125.3 603.634C125.532 603.009 125.648 602.331 125.648 601.602C125.648 600.873 125.532 600.194 125.3 599.564C125.068 598.934 124.711 598.425 124.228 598.037C123.745 597.649 123.13 597.455 122.381 597.455C121.633 597.455 121.018 597.649 120.535 598.037C120.052 598.425 119.694 598.934 119.462 599.564C119.23 600.194 119.114 600.873 119.114 601.602C119.114 602.331 119.23 603.009 119.462 603.634C119.694 604.259 120.052 604.763 120.535 605.146C121.018 605.53 121.633 605.722 122.381 605.722ZM131.559 600.438V607H129.883V596.091H131.503V597.795H131.645C131.9 597.241 132.289 596.796 132.809 596.46C133.33 596.119 134.003 595.949 134.826 595.949C135.565 595.949 136.211 596.1 136.765 596.403C137.319 596.702 137.75 597.156 138.058 597.767C138.366 598.373 138.52 599.14 138.52 600.068V607H136.843V600.182C136.843 599.325 136.621 598.657 136.176 598.179C135.731 597.696 135.12 597.455 134.343 597.455C133.808 597.455 133.33 597.571 132.909 597.803C132.492 598.035 132.163 598.373 131.922 598.818C131.68 599.263 131.559 599.803 131.559 600.438ZM149.31 598.534L147.804 598.96C147.709 598.709 147.57 598.465 147.385 598.229C147.205 597.987 146.959 597.788 146.646 597.632C146.334 597.476 145.934 597.398 145.446 597.398C144.778 597.398 144.222 597.552 143.777 597.859C143.337 598.162 143.117 598.548 143.117 599.017C143.117 599.434 143.268 599.763 143.571 600.004C143.874 600.246 144.348 600.447 144.992 600.608L146.611 601.006C147.586 601.242 148.313 601.605 148.791 602.092C149.269 602.575 149.509 603.198 149.509 603.96C149.509 604.585 149.329 605.144 148.969 605.636C148.614 606.129 148.117 606.517 147.477 606.801C146.838 607.085 146.095 607.227 145.247 607.227C144.135 607.227 143.214 606.986 142.484 606.503C141.755 606.02 141.294 605.314 141.099 604.386L142.69 603.989C142.842 604.576 143.128 605.016 143.55 605.31C143.976 605.603 144.532 605.75 145.219 605.75C146 605.75 146.62 605.584 147.08 605.253C147.544 604.917 147.776 604.514 147.776 604.045C147.776 603.667 147.643 603.349 147.378 603.094C147.113 602.833 146.706 602.639 146.156 602.511L144.338 602.085C143.339 601.848 142.605 601.482 142.136 600.984C141.672 600.482 141.44 599.855 141.44 599.102C141.44 598.487 141.613 597.942 141.959 597.469C142.309 596.995 142.785 596.624 143.386 596.354C143.992 596.084 144.679 595.949 145.446 595.949C146.526 595.949 147.373 596.186 147.989 596.659C148.609 597.133 149.049 597.758 149.31 598.534ZM158.907 602.54V596.091H160.583V607H158.907V605.153H158.793C158.537 605.707 158.14 606.179 157.6 606.567C157.06 606.95 156.378 607.142 155.554 607.142C154.873 607.142 154.266 606.993 153.736 606.695C153.206 606.392 152.789 605.937 152.486 605.331C152.183 604.72 152.032 603.951 152.032 603.023V596.091H153.708V602.909C153.708 603.705 153.93 604.339 154.375 604.812C154.825 605.286 155.398 605.523 156.094 605.523C156.511 605.523 156.935 605.416 157.365 605.203C157.801 604.99 158.166 604.663 158.459 604.223C158.758 603.783 158.907 603.222 158.907 602.54ZM163.653 607V596.091H165.272V597.795H165.414C165.641 597.213 166.008 596.761 166.515 596.439C167.022 596.112 167.63 595.949 168.34 595.949C169.06 595.949 169.659 596.112 170.137 596.439C170.62 596.761 170.996 597.213 171.266 597.795H171.38C171.659 597.232 172.078 596.785 172.637 596.453C173.196 596.117 173.866 595.949 174.647 595.949C175.622 595.949 176.42 596.254 177.041 596.865C177.661 597.471 177.971 598.416 177.971 599.699V607H176.295V599.699C176.295 598.894 176.075 598.319 175.634 597.973C175.194 597.627 174.675 597.455 174.079 597.455C173.312 597.455 172.718 597.687 172.296 598.151C171.875 598.61 171.664 599.192 171.664 599.898V607H169.96V599.528C169.96 598.908 169.758 598.409 169.356 598.03C168.953 597.646 168.435 597.455 167.8 597.455C167.365 597.455 166.958 597.571 166.579 597.803C166.205 598.035 165.902 598.357 165.67 598.768C165.443 599.176 165.329 599.647 165.329 600.182V607H163.653ZM181.036 611.091V596.091H182.655V597.824H182.854C182.977 597.634 183.147 597.393 183.365 597.099C183.588 596.801 183.905 596.536 184.317 596.304C184.733 596.067 185.297 595.949 186.007 595.949C186.926 595.949 187.735 596.179 188.436 596.638C189.137 597.097 189.684 597.748 190.077 598.591C190.47 599.434 190.666 600.428 190.666 601.574C190.666 602.729 190.47 603.731 190.077 604.578C189.684 605.421 189.139 606.074 188.443 606.538C187.747 606.998 186.945 607.227 186.036 607.227C185.335 607.227 184.774 607.111 184.352 606.879C183.931 606.643 183.607 606.375 183.379 606.077C183.152 605.774 182.977 605.523 182.854 605.324H182.712V611.091H181.036ZM182.683 601.545C182.683 602.369 182.804 603.096 183.045 603.726C183.287 604.351 183.64 604.841 184.104 605.196C184.568 605.546 185.136 605.722 185.808 605.722C186.509 605.722 187.094 605.537 187.563 605.168C188.036 604.794 188.391 604.292 188.628 603.662C188.869 603.027 188.99 602.322 188.99 601.545C188.99 600.778 188.872 600.087 188.635 599.472C188.403 598.851 188.05 598.361 187.577 598.001C187.108 597.637 186.519 597.455 185.808 597.455C185.126 597.455 184.554 597.627 184.09 597.973C183.626 598.314 183.275 598.792 183.038 599.408C182.802 600.018 182.683 600.731 182.683 601.545ZM197.967 596.091V597.511H192.314V596.091H197.967ZM193.962 593.477H195.638V603.875C195.638 604.348 195.706 604.704 195.844 604.94C195.986 605.172 196.166 605.329 196.384 605.409C196.606 605.485 196.84 605.523 197.087 605.523C197.271 605.523 197.423 605.513 197.541 605.494C197.66 605.471 197.754 605.452 197.825 605.438L198.166 606.943C198.053 606.986 197.894 607.028 197.69 607.071C197.487 607.118 197.229 607.142 196.916 607.142C196.443 607.142 195.979 607.04 195.524 606.837C195.074 606.633 194.7 606.323 194.402 605.906C194.108 605.49 193.962 604.964 193.962 604.33V593.477ZM200.489 607V596.091H202.165V607H200.489ZM201.341 594.273C201.014 594.273 200.733 594.161 200.496 593.939C200.264 593.716 200.148 593.449 200.148 593.136C200.148 592.824 200.264 592.556 200.496 592.334C200.733 592.111 201.014 592 201.341 592C201.668 592 201.947 592.111 202.179 592.334C202.416 592.556 202.534 592.824 202.534 593.136C202.534 593.449 202.416 593.716 202.179 593.939C201.947 594.161 201.668 594.273 201.341 594.273ZM209.667 607.227C208.682 607.227 207.818 606.993 207.074 606.524C206.336 606.055 205.758 605.4 205.341 604.557C204.929 603.714 204.723 602.729 204.723 601.602C204.723 600.466 204.929 599.474 205.341 598.626C205.758 597.779 206.336 597.121 207.074 596.652C207.818 596.183 208.682 595.949 209.667 595.949C210.651 595.949 211.513 596.183 212.252 596.652C212.995 597.121 213.573 597.779 213.985 598.626C214.401 599.474 214.61 600.466 214.61 601.602C214.61 602.729 214.401 603.714 213.985 604.557C213.573 605.4 212.995 606.055 212.252 606.524C211.513 606.993 210.651 607.227 209.667 607.227ZM209.667 605.722C210.415 605.722 211.03 605.53 211.513 605.146C211.996 604.763 212.354 604.259 212.586 603.634C212.818 603.009 212.934 602.331 212.934 601.602C212.934 600.873 212.818 600.194 212.586 599.564C212.354 598.934 211.996 598.425 211.513 598.037C211.03 597.649 210.415 597.455 209.667 597.455C208.918 597.455 208.303 597.649 207.82 598.037C207.337 598.425 206.98 598.934 206.748 599.564C206.516 600.194 206.4 600.873 206.4 601.602C206.4 602.331 206.516 603.009 206.748 603.634C206.98 604.259 207.337 604.763 207.82 605.146C208.303 605.53 208.918 605.722 209.667 605.722ZM218.845 600.438V607H217.168V596.091H218.788V597.795H218.93C219.185 597.241 219.574 596.796 220.095 596.46C220.615 596.119 221.288 595.949 222.112 595.949C222.85 595.949 223.496 596.1 224.05 596.403C224.604 596.702 225.035 597.156 225.343 597.767C225.651 598.373 225.805 599.14 225.805 600.068V607H224.129V600.182C224.129 599.325 223.906 598.657 223.461 598.179C223.016 597.696 222.405 597.455 221.629 597.455C221.094 597.455 220.615 597.571 220.194 597.803C219.777 598.035 219.448 598.373 219.207 598.818C218.965 599.263 218.845 599.803 218.845 600.438Z" fill="#888888"/>
<rect x="31.5" y="661.5" width="365" height="59" rx="14.5" fill="white" stroke="#C1C1C1"/>
<path d="M64.3346 687H62.5732C62.469 686.493 62.2867 686.048 62.0263 685.665C61.7706 685.281 61.4581 684.959 61.0888 684.699C60.7242 684.434 60.3194 684.235 59.8743 684.102C59.4293 683.97 58.9652 683.903 58.4823 683.903C57.6016 683.903 56.8038 684.126 56.0888 684.571C55.3786 685.016 54.8128 685.672 54.3914 686.538C53.9747 687.405 53.7664 688.468 53.7664 689.727C53.7664 690.987 53.9747 692.05 54.3914 692.916C54.8128 693.783 55.3786 694.438 56.0888 694.884C56.8038 695.329 57.6016 695.551 58.4823 695.551C58.9652 695.551 59.4293 695.485 59.8743 695.352C60.3194 695.22 60.7242 695.023 61.0888 694.763C61.4581 694.498 61.7706 694.173 62.0263 693.79C62.2867 693.402 62.469 692.956 62.5732 692.455H64.3346C64.202 693.198 63.9605 693.863 63.6101 694.45C63.2598 695.037 62.8241 695.537 62.3033 695.949C61.7825 696.356 61.1977 696.666 60.5491 696.879C59.9051 697.092 59.2162 697.199 58.4823 697.199C57.2418 697.199 56.1385 696.896 55.1726 696.29C54.2067 695.684 53.4468 694.822 52.8928 693.705C52.3388 692.587 52.0618 691.261 52.0618 689.727C52.0618 688.193 52.3388 686.867 52.8928 685.75C53.4468 684.633 54.2067 683.771 55.1726 683.165C56.1385 682.559 57.2418 682.256 58.4823 682.256C59.2162 682.256 59.9051 682.362 60.5491 682.575C61.1977 682.788 61.7825 683.101 62.3033 683.513C62.8241 683.92 63.2598 684.417 63.6101 685.004C63.9605 685.587 64.202 686.252 64.3346 687ZM71.3853 697.227C70.4005 697.227 69.5364 696.993 68.793 696.524C68.0544 696.055 67.4767 695.4 67.0601 694.557C66.6481 693.714 66.4422 692.729 66.4422 691.602C66.4422 690.466 66.6481 689.474 67.0601 688.626C67.4767 687.779 68.0544 687.121 68.793 686.652C69.5364 686.183 70.4005 685.949 71.3853 685.949C72.3702 685.949 73.2319 686.183 73.9706 686.652C74.7139 687.121 75.2916 687.779 75.7035 688.626C76.1202 689.474 76.3285 690.466 76.3285 691.602C76.3285 692.729 76.1202 693.714 75.7035 694.557C75.2916 695.4 74.7139 696.055 73.9706 696.524C73.2319 696.993 72.3702 697.227 71.3853 697.227ZM71.3853 695.722C72.1334 695.722 72.749 695.53 73.2319 695.146C73.7149 694.763 74.0724 694.259 74.3044 693.634C74.5364 693.009 74.6524 692.331 74.6524 691.602C74.6524 690.873 74.5364 690.194 74.3044 689.564C74.0724 688.934 73.7149 688.425 73.2319 688.037C72.749 687.649 72.1334 687.455 71.3853 687.455C70.6372 687.455 70.0217 687.649 69.5388 688.037C69.0558 688.425 68.6983 688.934 68.4663 689.564C68.2343 690.194 68.1183 690.873 68.1183 691.602C68.1183 692.331 68.2343 693.009 68.4663 693.634C68.6983 694.259 69.0558 694.763 69.5388 695.146C70.0217 695.53 70.6372 695.722 71.3853 695.722ZM80.5633 690.438V697H78.8871V686.091H80.5064V687.795H80.6485C80.9042 687.241 81.2924 686.796 81.8133 686.46C82.3341 686.119 83.0064 685.949 83.8303 685.949C84.5689 685.949 85.2152 686.1 85.7692 686.403C86.3232 686.702 86.7541 687.156 87.0618 687.767C87.3696 688.373 87.5235 689.14 87.5235 690.068V697H85.8473V690.182C85.8473 689.325 85.6248 688.657 85.1797 688.179C84.7347 687.696 84.1239 687.455 83.3473 687.455C82.8123 687.455 82.3341 687.571 81.9127 687.803C81.496 688.035 81.1669 688.373 80.9255 688.818C80.684 689.263 80.5633 689.803 80.5633 690.438ZM92.2625 690.438V697H90.5863V686.091H92.2057V687.795H92.3477C92.6034 687.241 92.9916 686.796 93.5125 686.46C94.0333 686.119 94.7057 685.949 95.5295 685.949C96.2682 685.949 96.9145 686.1 97.4684 686.403C98.0224 686.702 98.4533 687.156 98.7611 687.767C99.0688 688.373 99.2227 689.14 99.2227 690.068V697H97.5466V690.182C97.5466 689.325 97.324 688.657 96.879 688.179C96.4339 687.696 95.8231 687.455 95.0466 687.455C94.5115 687.455 94.0333 687.571 93.6119 687.803C93.1952 688.035 92.8662 688.373 92.6247 688.818C92.3832 689.263 92.2625 689.803 92.2625 690.438ZM106.859 697.227C105.808 697.227 104.902 696.995 104.139 696.531C103.382 696.062 102.797 695.409 102.385 694.571C101.978 693.728 101.774 692.748 101.774 691.631C101.774 690.513 101.978 689.528 102.385 688.676C102.797 687.819 103.37 687.152 104.104 686.673C104.842 686.19 105.704 685.949 106.689 685.949C107.257 685.949 107.818 686.044 108.372 686.233C108.926 686.422 109.43 686.73 109.885 687.156C110.34 687.578 110.702 688.136 110.972 688.832C111.242 689.528 111.376 690.385 111.376 691.403V692.114H102.967V690.665H109.672C109.672 690.049 109.549 689.5 109.303 689.017C109.061 688.534 108.715 688.153 108.266 687.874C107.821 687.594 107.295 687.455 106.689 687.455C106.021 687.455 105.444 687.62 104.956 687.952C104.473 688.278 104.101 688.705 103.841 689.23C103.581 689.756 103.45 690.319 103.45 690.92V691.886C103.45 692.71 103.592 693.409 103.876 693.982C104.165 694.55 104.565 694.983 105.077 695.281C105.588 695.575 106.182 695.722 106.859 695.722C107.3 695.722 107.697 695.66 108.053 695.537C108.412 695.409 108.723 695.22 108.983 694.969C109.243 694.713 109.445 694.396 109.587 694.017L111.206 694.472C111.036 695.021 110.749 695.504 110.347 695.92C109.944 696.332 109.447 696.654 108.855 696.886C108.263 697.114 107.598 697.227 106.859 697.227ZM118.358 697.227C117.335 697.227 116.455 696.986 115.716 696.503C114.977 696.02 114.409 695.355 114.011 694.507C113.614 693.66 113.415 692.691 113.415 691.602C113.415 690.494 113.618 689.517 114.026 688.669C114.438 687.817 115.01 687.152 115.744 686.673C116.483 686.19 117.345 685.949 118.33 685.949C119.097 685.949 119.788 686.091 120.403 686.375C121.019 686.659 121.523 687.057 121.916 687.568C122.309 688.08 122.553 688.676 122.648 689.358H120.972C120.844 688.861 120.56 688.42 120.119 688.037C119.684 687.649 119.097 687.455 118.358 687.455C117.705 687.455 117.132 687.625 116.639 687.966C116.152 688.302 115.77 688.778 115.496 689.393C115.226 690.004 115.091 690.722 115.091 691.545C115.091 692.388 115.224 693.122 115.489 693.747C115.759 694.372 116.137 694.857 116.625 695.203C117.117 695.549 117.695 695.722 118.358 695.722C118.794 695.722 119.189 695.646 119.544 695.494C119.899 695.343 120.2 695.125 120.446 694.841C120.692 694.557 120.867 694.216 120.972 693.818H122.648C122.553 694.462 122.319 695.042 121.945 695.558C121.575 696.07 121.085 696.477 120.474 696.78C119.868 697.078 119.163 697.227 118.358 697.227ZM129.842 686.091V687.511H124.189V686.091H129.842ZM125.837 683.477H127.513V693.875C127.513 694.348 127.581 694.704 127.719 694.94C127.861 695.172 128.041 695.329 128.259 695.409C128.481 695.485 128.715 695.523 128.962 695.523C129.146 695.523 129.298 695.513 129.416 695.494C129.535 695.471 129.629 695.452 129.7 695.438L130.041 696.943C129.928 696.986 129.769 697.028 129.565 697.071C129.362 697.118 129.104 697.142 128.791 697.142C128.318 697.142 127.854 697.04 127.399 696.837C126.949 696.633 126.575 696.323 126.277 695.906C125.983 695.49 125.837 694.964 125.837 694.33V683.477ZM132.364 697V686.091H134.04V697H132.364ZM133.216 684.273C132.889 684.273 132.608 684.161 132.371 683.939C132.139 683.716 132.023 683.449 132.023 683.136C132.023 682.824 132.139 682.556 132.371 682.334C132.608 682.111 132.889 682 133.216 682C133.543 682 133.822 682.111 134.054 682.334C134.291 682.556 134.409 682.824 134.409 683.136C134.409 683.449 134.291 683.716 134.054 683.939C133.822 684.161 133.543 684.273 133.216 684.273ZM141.542 697.227C140.557 697.227 139.693 696.993 138.949 696.524C138.211 696.055 137.633 695.4 137.216 694.557C136.804 693.714 136.598 692.729 136.598 691.602C136.598 690.466 136.804 689.474 137.216 688.626C137.633 687.779 138.211 687.121 138.949 686.652C139.693 686.183 140.557 685.949 141.542 685.949C142.526 685.949 143.388 686.183 144.127 686.652C144.87 687.121 145.448 687.779 145.86 688.626C146.276 689.474 146.485 690.466 146.485 691.602C146.485 692.729 146.276 693.714 145.86 694.557C145.448 695.4 144.87 696.055 144.127 696.524C143.388 696.993 142.526 697.227 141.542 697.227ZM141.542 695.722C142.29 695.722 142.905 695.53 143.388 695.146C143.871 694.763 144.229 694.259 144.461 693.634C144.693 693.009 144.809 692.331 144.809 691.602C144.809 690.873 144.693 690.194 144.461 689.564C144.229 688.934 143.871 688.425 143.388 688.037C142.905 687.649 142.29 687.455 141.542 687.455C140.793 687.455 140.178 687.649 139.695 688.037C139.212 688.425 138.855 688.934 138.623 689.564C138.391 690.194 138.275 690.873 138.275 691.602C138.275 692.331 138.391 693.009 138.623 693.634C138.855 694.259 139.212 694.763 139.695 695.146C140.178 695.53 140.793 695.722 141.542 695.722ZM150.72 690.438V697H149.043V686.091H150.663V687.795H150.805C151.06 687.241 151.449 686.796 151.97 686.46C152.49 686.119 153.163 685.949 153.987 685.949C154.725 685.949 155.371 686.1 155.925 686.403C156.479 686.702 156.91 687.156 157.218 687.767C157.526 688.373 157.68 689.14 157.68 690.068V697H156.004V690.182C156.004 689.325 155.781 688.657 155.336 688.179C154.891 687.696 154.28 687.455 153.504 687.455C152.969 687.455 152.49 687.571 152.069 687.803C151.652 688.035 151.323 688.373 151.082 688.818C150.84 689.263 150.72 689.803 150.72 690.438Z" fill="#888888"/>
<rect x="31" y="788" width="366" height="60" rx="15" fill="#0072BB"/>
<path d="M192.125 826H188.171L194.196 808.545H198.952L204.969 826H201.014L196.642 812.534H196.506L192.125 826ZM191.878 819.139H201.219V822.02H191.878V819.139ZM213.257 826H207.07V808.545H213.308C215.064 808.545 216.575 808.895 217.843 809.594C219.11 810.287 220.084 811.284 220.766 812.585C221.453 813.886 221.797 815.443 221.797 817.256C221.797 819.074 221.453 820.636 220.766 821.943C220.084 823.25 219.104 824.253 217.825 824.952C216.553 825.651 215.03 826 213.257 826ZM210.76 822.838H213.104C214.195 822.838 215.112 822.645 215.857 822.259C216.607 821.866 217.169 821.261 217.544 820.443C217.925 819.619 218.115 818.557 218.115 817.256C218.115 815.966 217.925 814.912 217.544 814.094C217.169 813.276 216.61 812.673 215.865 812.287C215.121 811.901 214.203 811.707 213.112 811.707H210.76V822.838ZM230.718 826H224.531V808.545H230.769C232.525 808.545 234.036 808.895 235.303 809.594C236.57 810.287 237.545 811.284 238.227 812.585C238.914 813.886 239.258 815.443 239.258 817.256C239.258 819.074 238.914 820.636 238.227 821.943C237.545 823.25 236.565 824.253 235.286 824.952C234.014 825.651 232.491 826 230.718 826ZM228.221 822.838H230.565C231.656 822.838 232.573 822.645 233.318 822.259C234.068 821.866 234.63 821.261 235.005 820.443C235.386 819.619 235.576 818.557 235.576 817.256C235.576 815.966 235.386 814.912 235.005 814.094C234.63 813.276 234.07 812.673 233.326 812.287C232.582 811.901 231.664 811.707 230.573 811.707H228.221V822.838Z" fill="white"/>
</svg>
