<svg width="428" height="1163" viewBox="0 0 428 1163" fill="none" xmlns="http://www.w3.org/2000/svg">
<rect width="428" height="1163" fill="white"/>
<rect x="31" y="143" width="366" height="150" rx="25" fill="#E9EBF8"/>
<g filter="url(#filter0_d_1_88)">
<rect x="47.4231" y="159" width="130.212" height="117" rx="25" fill="white"/>
</g>
<path d="M210.457 178C210.317 177.57 210.131 177.184 209.901 176.843C209.675 176.498 209.405 176.204 209.089 175.961C208.778 175.718 208.425 175.533 208.028 175.405C207.632 175.277 207.197 175.213 206.724 175.213C205.949 175.213 205.243 175.413 204.608 175.814C203.974 176.214 203.469 176.805 203.094 177.585C202.719 178.364 202.531 179.321 202.531 180.455C202.531 181.588 202.721 182.545 203.1 183.325C203.479 184.104 203.993 184.695 204.64 185.095C205.288 185.496 206.017 185.696 206.827 185.696C207.577 185.696 208.237 185.536 208.808 185.217C209.383 184.893 209.831 184.437 210.15 183.849C210.474 183.256 210.636 182.56 210.636 181.759L211.122 181.861H207.184V180.455H212.17V181.861C212.17 182.939 211.94 183.876 211.48 184.673C211.024 185.47 210.393 186.088 209.588 186.527C208.787 186.962 207.866 187.179 206.827 187.179C205.667 187.179 204.649 186.906 203.771 186.361C202.898 185.815 202.216 185.04 201.726 184.034C201.24 183.028 200.997 181.835 200.997 180.455C200.997 179.419 201.135 178.488 201.412 177.661C201.694 176.83 202.09 176.123 202.601 175.539C203.113 174.955 203.718 174.508 204.417 174.197C205.116 173.886 205.885 173.73 206.724 173.73C207.415 173.73 208.058 173.835 208.655 174.043C209.255 174.248 209.79 174.54 210.259 174.919C210.732 175.294 211.126 175.744 211.442 176.268C211.757 176.788 211.974 177.365 212.094 178H210.457ZM217.57 187.23C216.948 187.23 216.383 187.113 215.876 186.879C215.369 186.64 214.966 186.297 214.668 185.849C214.37 185.398 214.221 184.852 214.221 184.213C214.221 183.651 214.331 183.195 214.553 182.845C214.774 182.491 215.071 182.214 215.441 182.014C215.812 181.814 216.221 181.665 216.669 181.567C217.12 181.464 217.574 181.384 218.03 181.324C218.627 181.247 219.11 181.19 219.481 181.151C219.856 181.109 220.129 181.038 220.299 180.94C220.474 180.842 220.561 180.672 220.561 180.429V180.378C220.561 179.747 220.389 179.257 220.044 178.908C219.703 178.558 219.185 178.384 218.49 178.384C217.77 178.384 217.206 178.541 216.796 178.857C216.387 179.172 216.1 179.509 215.934 179.866L214.502 179.355C214.757 178.759 215.098 178.294 215.524 177.962C215.955 177.625 216.424 177.391 216.931 177.259C217.442 177.122 217.945 177.054 218.439 177.054C218.755 177.054 219.117 177.092 219.526 177.169C219.939 177.241 220.338 177.393 220.721 177.623C221.109 177.853 221.431 178.2 221.686 178.665C221.942 179.129 222.07 179.751 222.07 180.531V187H220.561V185.67H220.485C220.382 185.884 220.212 186.112 219.973 186.354C219.735 186.597 219.417 186.804 219.021 186.974C218.625 187.145 218.141 187.23 217.57 187.23ZM217.8 185.875C218.397 185.875 218.899 185.758 219.309 185.523C219.722 185.289 220.033 184.987 220.242 184.616C220.455 184.245 220.561 183.855 220.561 183.446V182.065C220.497 182.142 220.357 182.212 220.14 182.276C219.926 182.336 219.679 182.389 219.398 182.436C219.121 182.479 218.85 182.517 218.586 182.551C218.326 182.581 218.115 182.607 217.953 182.628C217.561 182.679 217.195 182.762 216.854 182.877C216.517 182.988 216.245 183.156 216.036 183.382C215.831 183.604 215.729 183.906 215.729 184.29C215.729 184.814 215.923 185.21 216.311 185.479C216.703 185.743 217.199 185.875 217.8 185.875ZM228.531 187.205C227.713 187.205 226.99 186.998 226.364 186.585C225.737 186.167 225.247 185.579 224.894 184.82C224.54 184.058 224.363 183.156 224.363 182.116C224.363 181.085 224.54 180.19 224.894 179.432C225.247 178.673 225.74 178.087 226.37 177.674C227.001 177.261 227.73 177.054 228.556 177.054C229.195 177.054 229.7 177.161 230.071 177.374C230.446 177.582 230.732 177.821 230.928 178.089C231.128 178.354 231.284 178.571 231.394 178.741H231.522V173.909H233.031V187H231.573V185.491H231.394C231.284 185.67 231.126 185.896 230.921 186.169C230.717 186.437 230.425 186.678 230.046 186.891C229.666 187.1 229.161 187.205 228.531 187.205ZM228.735 185.849C229.34 185.849 229.852 185.692 230.269 185.376C230.687 185.057 231.004 184.616 231.222 184.053C231.439 183.487 231.548 182.832 231.548 182.091C231.548 181.358 231.441 180.717 231.228 180.167C231.015 179.613 230.7 179.183 230.282 178.876C229.865 178.565 229.349 178.409 228.735 178.409C228.096 178.409 227.563 178.573 227.137 178.901C226.715 179.225 226.398 179.666 226.185 180.224C225.976 180.778 225.872 181.401 225.872 182.091C225.872 182.79 225.978 183.425 226.191 183.996C226.409 184.562 226.728 185.014 227.15 185.351C227.576 185.683 228.105 185.849 228.735 185.849ZM239.966 190.886C239.237 190.886 238.611 190.793 238.087 190.605C237.563 190.422 237.126 190.179 236.776 189.876C236.431 189.578 236.156 189.259 235.952 188.918L237.154 188.074C237.29 188.253 237.463 188.457 237.671 188.688C237.88 188.922 238.166 189.124 238.528 189.295C238.894 189.469 239.374 189.557 239.966 189.557C240.759 189.557 241.413 189.365 241.928 188.982C242.444 188.598 242.702 187.997 242.702 187.179V185.185H242.574C242.463 185.364 242.306 185.585 242.101 185.849C241.901 186.109 241.611 186.342 241.232 186.546C240.857 186.746 240.35 186.847 239.71 186.847C238.918 186.847 238.206 186.659 237.575 186.284C236.949 185.909 236.453 185.364 236.086 184.648C235.724 183.932 235.543 183.062 235.543 182.04C235.543 181.034 235.72 180.158 236.073 179.413C236.427 178.663 236.919 178.083 237.55 177.674C238.181 177.261 238.909 177.054 239.736 177.054C240.375 177.054 240.882 177.161 241.257 177.374C241.637 177.582 241.926 177.821 242.127 178.089C242.331 178.354 242.489 178.571 242.6 178.741H242.753V177.182H244.21V187.281C244.21 188.125 244.019 188.811 243.635 189.339C243.256 189.872 242.744 190.262 242.101 190.509C241.462 190.761 240.75 190.886 239.966 190.886ZM239.915 185.491C240.52 185.491 241.031 185.353 241.449 185.076C241.867 184.799 242.184 184.401 242.401 183.881C242.619 183.361 242.727 182.739 242.727 182.014C242.727 181.307 242.621 180.683 242.408 180.141C242.195 179.6 241.879 179.176 241.462 178.869C241.044 178.562 240.529 178.409 239.915 178.409C239.276 178.409 238.743 178.571 238.317 178.895C237.895 179.219 237.578 179.653 237.365 180.199C237.156 180.744 237.051 181.349 237.051 182.014C237.051 182.696 237.158 183.299 237.371 183.823C237.588 184.343 237.908 184.752 238.33 185.05C238.756 185.344 239.284 185.491 239.915 185.491ZM251.088 187.205C250.142 187.205 249.326 186.996 248.64 186.578C247.958 186.156 247.432 185.568 247.061 184.814C246.695 184.055 246.512 183.173 246.512 182.168C246.512 181.162 246.695 180.276 247.061 179.509C247.432 178.737 247.948 178.136 248.608 177.706C249.273 177.271 250.048 177.054 250.935 177.054C251.446 177.054 251.951 177.139 252.45 177.31C252.948 177.48 253.402 177.757 253.811 178.141C254.22 178.52 254.546 179.023 254.789 179.649C255.032 180.276 255.154 181.047 255.154 181.963V182.602H247.585V181.298H253.619C253.619 180.744 253.509 180.25 253.287 179.815C253.07 179.381 252.759 179.038 252.354 178.786C251.953 178.535 251.48 178.409 250.935 178.409C250.334 178.409 249.814 178.558 249.375 178.857C248.94 179.151 248.606 179.534 248.372 180.007C248.137 180.48 248.02 180.987 248.02 181.528V182.398C248.02 183.139 248.148 183.768 248.404 184.283C248.664 184.795 249.024 185.185 249.484 185.453C249.944 185.717 250.479 185.849 251.088 185.849C251.485 185.849 251.842 185.794 252.162 185.683C252.486 185.568 252.765 185.398 252.999 185.172C253.234 184.942 253.415 184.656 253.543 184.315L255 184.724C254.847 185.219 254.589 185.653 254.227 186.028C253.865 186.399 253.417 186.689 252.884 186.898C252.352 187.102 251.753 187.205 251.088 187.205ZM261.718 177.182V178.46H256.63V177.182H261.718ZM258.113 174.83H259.622V184.188C259.622 184.614 259.683 184.933 259.807 185.146C259.935 185.355 260.097 185.496 260.293 185.568C260.493 185.636 260.704 185.67 260.926 185.67C261.092 185.67 261.228 185.662 261.335 185.645C261.441 185.624 261.526 185.607 261.59 185.594L261.897 186.949C261.795 186.987 261.652 187.026 261.469 187.064C261.286 187.107 261.053 187.128 260.772 187.128C260.346 187.128 259.928 187.036 259.519 186.853C259.115 186.67 258.778 186.391 258.509 186.016C258.245 185.641 258.113 185.168 258.113 184.597V174.83ZM279.635 173.909V187H278.101L270.967 176.722H270.84V187H269.254V173.909H270.789L277.948 184.213H278.075V173.909H279.635ZM285.492 187.23C284.87 187.23 284.305 187.113 283.798 186.879C283.291 186.64 282.888 186.297 282.59 185.849C282.292 185.398 282.142 184.852 282.142 184.213C282.142 183.651 282.253 183.195 282.475 182.845C282.696 182.491 282.993 182.214 283.363 182.014C283.734 181.814 284.143 181.665 284.591 181.567C285.042 181.464 285.496 181.384 285.952 181.324C286.549 181.247 287.032 181.19 287.403 181.151C287.778 181.109 288.051 181.038 288.221 180.94C288.396 180.842 288.483 180.672 288.483 180.429V180.378C288.483 179.747 288.311 179.257 287.966 178.908C287.625 178.558 287.107 178.384 286.412 178.384C285.692 178.384 285.127 178.541 284.718 178.857C284.309 179.172 284.022 179.509 283.855 179.866L282.424 179.355C282.679 178.759 283.02 178.294 283.446 177.962C283.877 177.625 284.346 177.391 284.853 177.259C285.364 177.122 285.867 177.054 286.361 177.054C286.676 177.054 287.039 177.092 287.448 177.169C287.861 177.241 288.26 177.393 288.643 177.623C289.031 177.853 289.353 178.2 289.608 178.665C289.864 179.129 289.992 179.751 289.992 180.531V187H288.483V185.67H288.407C288.304 185.884 288.134 186.112 287.895 186.354C287.657 186.597 287.339 186.804 286.943 186.974C286.546 187.145 286.063 187.23 285.492 187.23ZM285.722 185.875C286.319 185.875 286.821 185.758 287.23 185.523C287.644 185.289 287.955 184.987 288.164 184.616C288.377 184.245 288.483 183.855 288.483 183.446V182.065C288.419 182.142 288.279 182.212 288.061 182.276C287.848 182.336 287.601 182.389 287.32 182.436C287.043 182.479 286.772 182.517 286.508 182.551C286.248 182.581 286.037 182.607 285.875 182.628C285.483 182.679 285.117 182.762 284.776 182.877C284.439 182.988 284.167 183.156 283.958 183.382C283.753 183.604 283.651 183.906 283.651 184.29C283.651 184.814 283.845 185.21 284.233 185.479C284.625 185.743 285.121 185.875 285.722 185.875ZM292.745 187V177.182H294.203V178.716H294.33C294.535 178.192 294.865 177.785 295.321 177.495C295.777 177.201 296.325 177.054 296.964 177.054C297.612 177.054 298.151 177.201 298.581 177.495C299.016 177.785 299.355 178.192 299.597 178.716H299.7C299.951 178.209 300.328 177.806 300.831 177.508C301.334 177.205 301.937 177.054 302.64 177.054C303.518 177.054 304.236 177.329 304.794 177.879C305.352 178.424 305.632 179.274 305.632 180.429V187H304.123V180.429C304.123 179.705 303.925 179.187 303.529 178.876C303.132 178.565 302.666 178.409 302.129 178.409C301.438 178.409 300.904 178.618 300.524 179.036C300.145 179.449 299.955 179.973 299.955 180.608V187H298.421V180.276C298.421 179.717 298.24 179.268 297.878 178.927C297.516 178.582 297.049 178.409 296.478 178.409C296.086 178.409 295.72 178.513 295.379 178.722C295.042 178.931 294.769 179.221 294.561 179.592C294.356 179.958 294.254 180.382 294.254 180.864V187H292.745ZM312.506 187.205C311.56 187.205 310.744 186.996 310.058 186.578C309.376 186.156 308.85 185.568 308.479 184.814C308.113 184.055 307.929 183.173 307.929 182.168C307.929 181.162 308.113 180.276 308.479 179.509C308.85 178.737 309.366 178.136 310.026 177.706C310.691 177.271 311.466 177.054 312.353 177.054C312.864 177.054 313.369 177.139 313.868 177.31C314.366 177.48 314.82 177.757 315.229 178.141C315.638 178.52 315.964 179.023 316.207 179.649C316.45 180.276 316.572 181.047 316.572 181.963V182.602H309.003V181.298H315.037C315.037 180.744 314.927 180.25 314.705 179.815C314.488 179.381 314.177 179.038 313.772 178.786C313.371 178.535 312.898 178.409 312.353 178.409C311.752 178.409 311.232 178.558 310.793 178.857C310.358 179.151 310.024 179.534 309.79 180.007C309.555 180.48 309.438 180.987 309.438 181.528V182.398C309.438 183.139 309.566 183.768 309.822 184.283C310.081 184.795 310.442 185.185 310.902 185.453C311.362 185.717 311.897 185.849 312.506 185.849C312.902 185.849 313.26 185.794 313.58 185.683C313.904 185.568 314.183 185.398 314.417 185.172C314.652 184.942 314.833 184.656 314.961 184.315L316.418 184.724C316.265 185.219 316.007 185.653 315.645 186.028C315.282 186.399 314.835 186.689 314.302 186.898C313.77 187.102 313.171 187.205 312.506 187.205Z" fill="black"/>
<rect x="199.923" y="226" width="178.308" height="50" rx="15" fill="#0072BB"/>
<path d="M264.476 242.955L267.992 254.006H268.126L271.649 242.955H275.058L270.044 257.5H266.081L261.06 242.955H264.476ZM279.884 242.955V257.5H276.809V242.955H279.884ZM282.414 257.5V242.955H292.216V245.49H285.49V248.956H291.711V251.491H285.49V254.964H292.244V257.5H282.414ZM297.935 257.5L293.773 242.955H297.132L299.54 253.061H299.661L302.317 242.955H305.193L307.842 253.082H307.97L310.378 242.955H313.737L309.575 257.5H306.578L303.808 247.99H303.695L300.932 257.5H297.935Z" fill="white"/>
<rect x="31" y="313" width="366" height="150" rx="25" fill="#E9EBF8"/>
<g filter="url(#filter1_d_1_88)">
<rect x="47.4231" y="329" width="130.212" height="117" rx="25" fill="white"/>
</g>
<path d="M210.457 348C210.317 347.57 210.131 347.184 209.901 346.843C209.675 346.498 209.405 346.204 209.089 345.961C208.778 345.718 208.425 345.533 208.028 345.405C207.632 345.277 207.197 345.213 206.724 345.213C205.949 345.213 205.243 345.413 204.608 345.814C203.974 346.214 203.469 346.805 203.094 347.585C202.719 348.364 202.531 349.321 202.531 350.455C202.531 351.588 202.721 352.545 203.1 353.325C203.479 354.104 203.993 354.695 204.64 355.095C205.288 355.496 206.017 355.696 206.827 355.696C207.577 355.696 208.237 355.536 208.808 355.217C209.383 354.893 209.831 354.437 210.15 353.849C210.474 353.256 210.636 352.56 210.636 351.759L211.122 351.861H207.184V350.455H212.17V351.861C212.17 352.939 211.94 353.876 211.48 354.673C211.024 355.47 210.393 356.088 209.588 356.527C208.787 356.962 207.866 357.179 206.827 357.179C205.667 357.179 204.649 356.906 203.771 356.361C202.898 355.815 202.216 355.04 201.726 354.034C201.24 353.028 200.997 351.835 200.997 350.455C200.997 349.419 201.135 348.488 201.412 347.661C201.694 346.83 202.09 346.123 202.601 345.539C203.113 344.955 203.718 344.508 204.417 344.197C205.116 343.886 205.885 343.73 206.724 343.73C207.415 343.73 208.058 343.835 208.655 344.043C209.255 344.248 209.79 344.54 210.259 344.919C210.732 345.294 211.126 345.744 211.442 346.268C211.757 346.788 211.974 347.365 212.094 348H210.457ZM217.57 357.23C216.948 357.23 216.383 357.113 215.876 356.879C215.369 356.64 214.966 356.297 214.668 355.849C214.37 355.398 214.221 354.852 214.221 354.213C214.221 353.651 214.331 353.195 214.553 352.845C214.774 352.491 215.071 352.214 215.441 352.014C215.812 351.814 216.221 351.665 216.669 351.567C217.12 351.464 217.574 351.384 218.03 351.324C218.627 351.247 219.11 351.19 219.481 351.151C219.856 351.109 220.129 351.038 220.299 350.94C220.474 350.842 220.561 350.672 220.561 350.429V350.378C220.561 349.747 220.389 349.257 220.044 348.908C219.703 348.558 219.185 348.384 218.49 348.384C217.77 348.384 217.206 348.541 216.796 348.857C216.387 349.172 216.1 349.509 215.934 349.866L214.502 349.355C214.757 348.759 215.098 348.294 215.524 347.962C215.955 347.625 216.424 347.391 216.931 347.259C217.442 347.122 217.945 347.054 218.439 347.054C218.755 347.054 219.117 347.092 219.526 347.169C219.939 347.241 220.338 347.393 220.721 347.623C221.109 347.853 221.431 348.2 221.686 348.665C221.942 349.129 222.07 349.751 222.07 350.531V357H220.561V355.67H220.485C220.382 355.884 220.212 356.112 219.973 356.354C219.735 356.597 219.417 356.804 219.021 356.974C218.625 357.145 218.141 357.23 217.57 357.23ZM217.8 355.875C218.397 355.875 218.899 355.758 219.309 355.523C219.722 355.289 220.033 354.987 220.242 354.616C220.455 354.245 220.561 353.855 220.561 353.446V352.065C220.497 352.142 220.357 352.212 220.14 352.276C219.926 352.336 219.679 352.389 219.398 352.436C219.121 352.479 218.85 352.517 218.586 352.551C218.326 352.581 218.115 352.607 217.953 352.628C217.561 352.679 217.195 352.762 216.854 352.877C216.517 352.988 216.245 353.156 216.036 353.382C215.831 353.604 215.729 353.906 215.729 354.29C215.729 354.814 215.923 355.21 216.311 355.479C216.703 355.743 217.199 355.875 217.8 355.875ZM228.531 357.205C227.713 357.205 226.99 356.998 226.364 356.585C225.737 356.167 225.247 355.579 224.894 354.82C224.54 354.058 224.363 353.156 224.363 352.116C224.363 351.085 224.54 350.19 224.894 349.432C225.247 348.673 225.74 348.087 226.37 347.674C227.001 347.261 227.73 347.054 228.556 347.054C229.195 347.054 229.7 347.161 230.071 347.374C230.446 347.582 230.732 347.821 230.928 348.089C231.128 348.354 231.284 348.571 231.394 348.741H231.522V343.909H233.031V357H231.573V355.491H231.394C231.284 355.67 231.126 355.896 230.921 356.169C230.717 356.437 230.425 356.678 230.046 356.891C229.666 357.1 229.161 357.205 228.531 357.205ZM228.735 355.849C229.34 355.849 229.852 355.692 230.269 355.376C230.687 355.057 231.004 354.616 231.222 354.053C231.439 353.487 231.548 352.832 231.548 352.091C231.548 351.358 231.441 350.717 231.228 350.167C231.015 349.613 230.7 349.183 230.282 348.876C229.865 348.565 229.349 348.409 228.735 348.409C228.096 348.409 227.563 348.573 227.137 348.901C226.715 349.225 226.398 349.666 226.185 350.224C225.976 350.778 225.872 351.401 225.872 352.091C225.872 352.79 225.978 353.425 226.191 353.996C226.409 354.562 226.728 355.014 227.15 355.351C227.576 355.683 228.105 355.849 228.735 355.849ZM239.966 360.886C239.237 360.886 238.611 360.793 238.087 360.605C237.563 360.422 237.126 360.179 236.776 359.876C236.431 359.578 236.156 359.259 235.952 358.918L237.154 358.074C237.29 358.253 237.463 358.457 237.671 358.688C237.88 358.922 238.166 359.124 238.528 359.295C238.894 359.469 239.374 359.557 239.966 359.557C240.759 359.557 241.413 359.365 241.928 358.982C242.444 358.598 242.702 357.997 242.702 357.179V355.185H242.574C242.463 355.364 242.306 355.585 242.101 355.849C241.901 356.109 241.611 356.342 241.232 356.546C240.857 356.746 240.35 356.847 239.71 356.847C238.918 356.847 238.206 356.659 237.575 356.284C236.949 355.909 236.453 355.364 236.086 354.648C235.724 353.932 235.543 353.062 235.543 352.04C235.543 351.034 235.72 350.158 236.073 349.413C236.427 348.663 236.919 348.083 237.55 347.674C238.181 347.261 238.909 347.054 239.736 347.054C240.375 347.054 240.882 347.161 241.257 347.374C241.637 347.582 241.926 347.821 242.127 348.089C242.331 348.354 242.489 348.571 242.6 348.741H242.753V347.182H244.21V357.281C244.21 358.125 244.019 358.811 243.635 359.339C243.256 359.872 242.744 360.262 242.101 360.509C241.462 360.761 240.75 360.886 239.966 360.886ZM239.915 355.491C240.52 355.491 241.031 355.353 241.449 355.076C241.867 354.799 242.184 354.401 242.401 353.881C242.619 353.361 242.727 352.739 242.727 352.014C242.727 351.307 242.621 350.683 242.408 350.141C242.195 349.6 241.879 349.176 241.462 348.869C241.044 348.562 240.529 348.409 239.915 348.409C239.276 348.409 238.743 348.571 238.317 348.895C237.895 349.219 237.578 349.653 237.365 350.199C237.156 350.744 237.051 351.349 237.051 352.014C237.051 352.696 237.158 353.299 237.371 353.823C237.588 354.343 237.908 354.752 238.33 355.05C238.756 355.344 239.284 355.491 239.915 355.491ZM251.088 357.205C250.142 357.205 249.326 356.996 248.64 356.578C247.958 356.156 247.432 355.568 247.061 354.814C246.695 354.055 246.512 353.173 246.512 352.168C246.512 351.162 246.695 350.276 247.061 349.509C247.432 348.737 247.948 348.136 248.608 347.706C249.273 347.271 250.048 347.054 250.935 347.054C251.446 347.054 251.951 347.139 252.45 347.31C252.948 347.48 253.402 347.757 253.811 348.141C254.22 348.52 254.546 349.023 254.789 349.649C255.032 350.276 255.154 351.047 255.154 351.963V352.602H247.585V351.298H253.619C253.619 350.744 253.509 350.25 253.287 349.815C253.07 349.381 252.759 349.038 252.354 348.786C251.953 348.535 251.48 348.409 250.935 348.409C250.334 348.409 249.814 348.558 249.375 348.857C248.94 349.151 248.606 349.534 248.372 350.007C248.137 350.48 248.02 350.987 248.02 351.528V352.398C248.02 353.139 248.148 353.768 248.404 354.283C248.664 354.795 249.024 355.185 249.484 355.453C249.944 355.717 250.479 355.849 251.088 355.849C251.485 355.849 251.842 355.794 252.162 355.683C252.486 355.568 252.765 355.398 252.999 355.172C253.234 354.942 253.415 354.656 253.543 354.315L255 354.724C254.847 355.219 254.589 355.653 254.227 356.028C253.865 356.399 253.417 356.689 252.884 356.898C252.352 357.102 251.753 357.205 251.088 357.205ZM261.718 347.182V348.46H256.63V347.182H261.718ZM258.113 344.83H259.622V354.188C259.622 354.614 259.683 354.933 259.807 355.146C259.935 355.355 260.097 355.496 260.293 355.568C260.493 355.636 260.704 355.67 260.926 355.67C261.092 355.67 261.228 355.662 261.335 355.645C261.441 355.624 261.526 355.607 261.59 355.594L261.897 356.949C261.795 356.987 261.652 357.026 261.469 357.064C261.286 357.107 261.053 357.128 260.772 357.128C260.346 357.128 259.928 357.036 259.519 356.853C259.115 356.67 258.778 356.391 258.509 356.016C258.245 355.641 258.113 355.168 258.113 354.597V344.83ZM279.635 343.909V357H278.101L270.967 346.722H270.84V357H269.254V343.909H270.789L277.948 354.213H278.075V343.909H279.635ZM285.492 357.23C284.87 357.23 284.305 357.113 283.798 356.879C283.291 356.64 282.888 356.297 282.59 355.849C282.292 355.398 282.142 354.852 282.142 354.213C282.142 353.651 282.253 353.195 282.475 352.845C282.696 352.491 282.993 352.214 283.363 352.014C283.734 351.814 284.143 351.665 284.591 351.567C285.042 351.464 285.496 351.384 285.952 351.324C286.549 351.247 287.032 351.19 287.403 351.151C287.778 351.109 288.051 351.038 288.221 350.94C288.396 350.842 288.483 350.672 288.483 350.429V350.378C288.483 349.747 288.311 349.257 287.966 348.908C287.625 348.558 287.107 348.384 286.412 348.384C285.692 348.384 285.127 348.541 284.718 348.857C284.309 349.172 284.022 349.509 283.855 349.866L282.424 349.355C282.679 348.759 283.02 348.294 283.446 347.962C283.877 347.625 284.346 347.391 284.853 347.259C285.364 347.122 285.867 347.054 286.361 347.054C286.676 347.054 287.039 347.092 287.448 347.169C287.861 347.241 288.26 347.393 288.643 347.623C289.031 347.853 289.353 348.2 289.608 348.665C289.864 349.129 289.992 349.751 289.992 350.531V357H288.483V355.67H288.407C288.304 355.884 288.134 356.112 287.895 356.354C287.657 356.597 287.339 356.804 286.943 356.974C286.546 357.145 286.063 357.23 285.492 357.23ZM285.722 355.875C286.319 355.875 286.821 355.758 287.23 355.523C287.644 355.289 287.955 354.987 288.164 354.616C288.377 354.245 288.483 353.855 288.483 353.446V352.065C288.419 352.142 288.279 352.212 288.061 352.276C287.848 352.336 287.601 352.389 287.32 352.436C287.043 352.479 286.772 352.517 286.508 352.551C286.248 352.581 286.037 352.607 285.875 352.628C285.483 352.679 285.117 352.762 284.776 352.877C284.439 352.988 284.167 353.156 283.958 353.382C283.753 353.604 283.651 353.906 283.651 354.29C283.651 354.814 283.845 355.21 284.233 355.479C284.625 355.743 285.121 355.875 285.722 355.875ZM292.745 357V347.182H294.203V348.716H294.33C294.535 348.192 294.865 347.785 295.321 347.495C295.777 347.201 296.325 347.054 296.964 347.054C297.612 347.054 298.151 347.201 298.581 347.495C299.016 347.785 299.355 348.192 299.597 348.716H299.7C299.951 348.209 300.328 347.806 300.831 347.508C301.334 347.205 301.937 347.054 302.64 347.054C303.518 347.054 304.236 347.329 304.794 347.879C305.352 348.424 305.632 349.274 305.632 350.429V357H304.123V350.429C304.123 349.705 303.925 349.187 303.529 348.876C303.132 348.565 302.666 348.409 302.129 348.409C301.438 348.409 300.904 348.618 300.524 349.036C300.145 349.449 299.955 349.973 299.955 350.608V357H298.421V350.276C298.421 349.717 298.24 349.268 297.878 348.927C297.516 348.582 297.049 348.409 296.478 348.409C296.086 348.409 295.72 348.513 295.379 348.722C295.042 348.931 294.769 349.221 294.561 349.592C294.356 349.958 294.254 350.382 294.254 350.864V357H292.745ZM312.506 357.205C311.56 357.205 310.744 356.996 310.058 356.578C309.376 356.156 308.85 355.568 308.479 354.814C308.113 354.055 307.929 353.173 307.929 352.168C307.929 351.162 308.113 350.276 308.479 349.509C308.85 348.737 309.366 348.136 310.026 347.706C310.691 347.271 311.466 347.054 312.353 347.054C312.864 347.054 313.369 347.139 313.868 347.31C314.366 347.48 314.82 347.757 315.229 348.141C315.638 348.52 315.964 349.023 316.207 349.649C316.45 350.276 316.572 351.047 316.572 351.963V352.602H309.003V351.298H315.037C315.037 350.744 314.927 350.25 314.705 349.815C314.488 349.381 314.177 349.038 313.772 348.786C313.371 348.535 312.898 348.409 312.353 348.409C311.752 348.409 311.232 348.558 310.793 348.857C310.358 349.151 310.024 349.534 309.79 350.007C309.555 350.48 309.438 350.987 309.438 351.528V352.398C309.438 353.139 309.566 353.768 309.822 354.283C310.081 354.795 310.442 355.185 310.902 355.453C311.362 355.717 311.897 355.849 312.506 355.849C312.902 355.849 313.26 355.794 313.58 355.683C313.904 355.568 314.183 355.398 314.417 355.172C314.652 354.942 314.833 354.656 314.961 354.315L316.418 354.724C316.265 355.219 316.007 355.653 315.645 356.028C315.282 356.399 314.835 356.689 314.302 356.898C313.77 357.102 313.171 357.205 312.506 357.205Z" fill="black"/>
<rect x="199.923" y="396" width="178.308" height="50" rx="15" fill="#0072BB"/>
<path d="M264.476 412.955L267.992 424.006H268.126L271.649 412.955H275.058L270.044 427.5H266.081L261.06 412.955H264.476ZM279.884 412.955V427.5H276.809V412.955H279.884ZM282.414 427.5V412.955H292.216V415.49H285.49V418.956H291.711V421.491H285.49V424.964H292.244V427.5H282.414ZM297.935 427.5L293.773 412.955H297.132L299.54 423.061H299.661L302.317 412.955H305.193L307.842 423.082H307.97L310.378 412.955H313.737L309.575 427.5H306.578L303.808 417.99H303.695L300.932 427.5H297.935Z" fill="white"/>
<rect x="31" y="483" width="366" height="150" rx="25" fill="#E9EBF8"/>
<g filter="url(#filter2_d_1_88)">
<rect x="47.4231" y="499" width="130.212" height="117" rx="25" fill="white"/>
</g>
<path d="M210.457 518C210.317 517.57 210.131 517.184 209.901 516.843C209.675 516.498 209.405 516.204 209.089 515.961C208.778 515.718 208.425 515.533 208.028 515.405C207.632 515.277 207.197 515.213 206.724 515.213C205.949 515.213 205.243 515.413 204.608 515.814C203.974 516.214 203.469 516.805 203.094 517.585C202.719 518.364 202.531 519.321 202.531 520.455C202.531 521.588 202.721 522.545 203.1 523.325C203.479 524.104 203.993 524.695 204.64 525.095C205.288 525.496 206.017 525.696 206.827 525.696C207.577 525.696 208.237 525.536 208.808 525.217C209.383 524.893 209.831 524.437 210.15 523.849C210.474 523.256 210.636 522.56 210.636 521.759L211.122 521.861H207.184V520.455H212.17V521.861C212.17 522.939 211.94 523.876 211.48 524.673C211.024 525.47 210.393 526.088 209.588 526.527C208.787 526.962 207.866 527.179 206.827 527.179C205.667 527.179 204.649 526.906 203.771 526.361C202.898 525.815 202.216 525.04 201.726 524.034C201.24 523.028 200.997 521.835 200.997 520.455C200.997 519.419 201.135 518.488 201.412 517.661C201.694 516.83 202.09 516.123 202.601 515.539C203.113 514.955 203.718 514.508 204.417 514.197C205.116 513.886 205.885 513.73 206.724 513.73C207.415 513.73 208.058 513.835 208.655 514.043C209.255 514.248 209.79 514.54 210.259 514.919C210.732 515.294 211.126 515.744 211.442 516.268C211.757 516.788 211.974 517.365 212.094 518H210.457ZM217.57 527.23C216.948 527.23 216.383 527.113 215.876 526.879C215.369 526.64 214.966 526.297 214.668 525.849C214.37 525.398 214.221 524.852 214.221 524.213C214.221 523.651 214.331 523.195 214.553 522.845C214.774 522.491 215.071 522.214 215.441 522.014C215.812 521.814 216.221 521.665 216.669 521.567C217.12 521.464 217.574 521.384 218.03 521.324C218.627 521.247 219.11 521.19 219.481 521.151C219.856 521.109 220.129 521.038 220.299 520.94C220.474 520.842 220.561 520.672 220.561 520.429V520.378C220.561 519.747 220.389 519.257 220.044 518.908C219.703 518.558 219.185 518.384 218.49 518.384C217.77 518.384 217.206 518.541 216.796 518.857C216.387 519.172 216.1 519.509 215.934 519.866L214.502 519.355C214.757 518.759 215.098 518.294 215.524 517.962C215.955 517.625 216.424 517.391 216.931 517.259C217.442 517.122 217.945 517.054 218.439 517.054C218.755 517.054 219.117 517.092 219.526 517.169C219.939 517.241 220.338 517.393 220.721 517.623C221.109 517.853 221.431 518.2 221.686 518.665C221.942 519.129 222.07 519.751 222.07 520.531V527H220.561V525.67H220.485C220.382 525.884 220.212 526.112 219.973 526.354C219.735 526.597 219.417 526.804 219.021 526.974C218.625 527.145 218.141 527.23 217.57 527.23ZM217.8 525.875C218.397 525.875 218.899 525.758 219.309 525.523C219.722 525.289 220.033 524.987 220.242 524.616C220.455 524.245 220.561 523.855 220.561 523.446V522.065C220.497 522.142 220.357 522.212 220.14 522.276C219.926 522.336 219.679 522.389 219.398 522.436C219.121 522.479 218.85 522.517 218.586 522.551C218.326 522.581 218.115 522.607 217.953 522.628C217.561 522.679 217.195 522.762 216.854 522.877C216.517 522.988 216.245 523.156 216.036 523.382C215.831 523.604 215.729 523.906 215.729 524.29C215.729 524.814 215.923 525.21 216.311 525.479C216.703 525.743 217.199 525.875 217.8 525.875ZM228.531 527.205C227.713 527.205 226.99 526.998 226.364 526.585C225.737 526.167 225.247 525.579 224.894 524.82C224.54 524.058 224.363 523.156 224.363 522.116C224.363 521.085 224.54 520.19 224.894 519.432C225.247 518.673 225.74 518.087 226.37 517.674C227.001 517.261 227.73 517.054 228.556 517.054C229.195 517.054 229.7 517.161 230.071 517.374C230.446 517.582 230.732 517.821 230.928 518.089C231.128 518.354 231.284 518.571 231.394 518.741H231.522V513.909H233.031V527H231.573V525.491H231.394C231.284 525.67 231.126 525.896 230.921 526.169C230.717 526.437 230.425 526.678 230.046 526.891C229.666 527.1 229.161 527.205 228.531 527.205ZM228.735 525.849C229.34 525.849 229.852 525.692 230.269 525.376C230.687 525.057 231.004 524.616 231.222 524.053C231.439 523.487 231.548 522.832 231.548 522.091C231.548 521.358 231.441 520.717 231.228 520.167C231.015 519.613 230.7 519.183 230.282 518.876C229.865 518.565 229.349 518.409 228.735 518.409C228.096 518.409 227.563 518.573 227.137 518.901C226.715 519.225 226.398 519.666 226.185 520.224C225.976 520.778 225.872 521.401 225.872 522.091C225.872 522.79 225.978 523.425 226.191 523.996C226.409 524.562 226.728 525.014 227.15 525.351C227.576 525.683 228.105 525.849 228.735 525.849ZM239.966 530.886C239.237 530.886 238.611 530.793 238.087 530.605C237.563 530.422 237.126 530.179 236.776 529.876C236.431 529.578 236.156 529.259 235.952 528.918L237.154 528.074C237.29 528.253 237.463 528.457 237.671 528.688C237.88 528.922 238.166 529.124 238.528 529.295C238.894 529.469 239.374 529.557 239.966 529.557C240.759 529.557 241.413 529.365 241.928 528.982C242.444 528.598 242.702 527.997 242.702 527.179V525.185H242.574C242.463 525.364 242.306 525.585 242.101 525.849C241.901 526.109 241.611 526.342 241.232 526.546C240.857 526.746 240.35 526.847 239.71 526.847C238.918 526.847 238.206 526.659 237.575 526.284C236.949 525.909 236.453 525.364 236.086 524.648C235.724 523.932 235.543 523.062 235.543 522.04C235.543 521.034 235.72 520.158 236.073 519.413C236.427 518.663 236.919 518.083 237.55 517.674C238.181 517.261 238.909 517.054 239.736 517.054C240.375 517.054 240.882 517.161 241.257 517.374C241.637 517.582 241.926 517.821 242.127 518.089C242.331 518.354 242.489 518.571 242.6 518.741H242.753V517.182H244.21V527.281C244.21 528.125 244.019 528.811 243.635 529.339C243.256 529.872 242.744 530.262 242.101 530.509C241.462 530.761 240.75 530.886 239.966 530.886ZM239.915 525.491C240.52 525.491 241.031 525.353 241.449 525.076C241.867 524.799 242.184 524.401 242.401 523.881C242.619 523.361 242.727 522.739 242.727 522.014C242.727 521.307 242.621 520.683 242.408 520.141C242.195 519.6 241.879 519.176 241.462 518.869C241.044 518.562 240.529 518.409 239.915 518.409C239.276 518.409 238.743 518.571 238.317 518.895C237.895 519.219 237.578 519.653 237.365 520.199C237.156 520.744 237.051 521.349 237.051 522.014C237.051 522.696 237.158 523.299 237.371 523.823C237.588 524.343 237.908 524.752 238.33 525.05C238.756 525.344 239.284 525.491 239.915 525.491ZM251.088 527.205C250.142 527.205 249.326 526.996 248.64 526.578C247.958 526.156 247.432 525.568 247.061 524.814C246.695 524.055 246.512 523.173 246.512 522.168C246.512 521.162 246.695 520.276 247.061 519.509C247.432 518.737 247.948 518.136 248.608 517.706C249.273 517.271 250.048 517.054 250.935 517.054C251.446 517.054 251.951 517.139 252.45 517.31C252.948 517.48 253.402 517.757 253.811 518.141C254.22 518.52 254.546 519.023 254.789 519.649C255.032 520.276 255.154 521.047 255.154 521.963V522.602H247.585V521.298H253.619C253.619 520.744 253.509 520.25 253.287 519.815C253.07 519.381 252.759 519.038 252.354 518.786C251.953 518.535 251.48 518.409 250.935 518.409C250.334 518.409 249.814 518.558 249.375 518.857C248.94 519.151 248.606 519.534 248.372 520.007C248.137 520.48 248.02 520.987 248.02 521.528V522.398C248.02 523.139 248.148 523.768 248.404 524.283C248.664 524.795 249.024 525.185 249.484 525.453C249.944 525.717 250.479 525.849 251.088 525.849C251.485 525.849 251.842 525.794 252.162 525.683C252.486 525.568 252.765 525.398 252.999 525.172C253.234 524.942 253.415 524.656 253.543 524.315L255 524.724C254.847 525.219 254.589 525.653 254.227 526.028C253.865 526.399 253.417 526.689 252.884 526.898C252.352 527.102 251.753 527.205 251.088 527.205ZM261.718 517.182V518.46H256.63V517.182H261.718ZM258.113 514.83H259.622V524.188C259.622 524.614 259.683 524.933 259.807 525.146C259.935 525.355 260.097 525.496 260.293 525.568C260.493 525.636 260.704 525.67 260.926 525.67C261.092 525.67 261.228 525.662 261.335 525.645C261.441 525.624 261.526 525.607 261.59 525.594L261.897 526.949C261.795 526.987 261.652 527.026 261.469 527.064C261.286 527.107 261.053 527.128 260.772 527.128C260.346 527.128 259.928 527.036 259.519 526.853C259.115 526.67 258.778 526.391 258.509 526.016C258.245 525.641 258.113 525.168 258.113 524.597V514.83ZM279.635 513.909V527H278.101L270.967 516.722H270.84V527H269.254V513.909H270.789L277.948 524.213H278.075V513.909H279.635ZM285.492 527.23C284.87 527.23 284.305 527.113 283.798 526.879C283.291 526.64 282.888 526.297 282.59 525.849C282.292 525.398 282.142 524.852 282.142 524.213C282.142 523.651 282.253 523.195 282.475 522.845C282.696 522.491 282.993 522.214 283.363 522.014C283.734 521.814 284.143 521.665 284.591 521.567C285.042 521.464 285.496 521.384 285.952 521.324C286.549 521.247 287.032 521.19 287.403 521.151C287.778 521.109 288.051 521.038 288.221 520.94C288.396 520.842 288.483 520.672 288.483 520.429V520.378C288.483 519.747 288.311 519.257 287.966 518.908C287.625 518.558 287.107 518.384 286.412 518.384C285.692 518.384 285.127 518.541 284.718 518.857C284.309 519.172 284.022 519.509 283.855 519.866L282.424 519.355C282.679 518.759 283.02 518.294 283.446 517.962C283.877 517.625 284.346 517.391 284.853 517.259C285.364 517.122 285.867 517.054 286.361 517.054C286.676 517.054 287.039 517.092 287.448 517.169C287.861 517.241 288.26 517.393 288.643 517.623C289.031 517.853 289.353 518.2 289.608 518.665C289.864 519.129 289.992 519.751 289.992 520.531V527H288.483V525.67H288.407C288.304 525.884 288.134 526.112 287.895 526.354C287.657 526.597 287.339 526.804 286.943 526.974C286.546 527.145 286.063 527.23 285.492 527.23ZM285.722 525.875C286.319 525.875 286.821 525.758 287.23 525.523C287.644 525.289 287.955 524.987 288.164 524.616C288.377 524.245 288.483 523.855 288.483 523.446V522.065C288.419 522.142 288.279 522.212 288.061 522.276C287.848 522.336 287.601 522.389 287.32 522.436C287.043 522.479 286.772 522.517 286.508 522.551C286.248 522.581 286.037 522.607 285.875 522.628C285.483 522.679 285.117 522.762 284.776 522.877C284.439 522.988 284.167 523.156 283.958 523.382C283.753 523.604 283.651 523.906 283.651 524.29C283.651 524.814 283.845 525.21 284.233 525.479C284.625 525.743 285.121 525.875 285.722 525.875ZM292.745 527V517.182H294.203V518.716H294.33C294.535 518.192 294.865 517.785 295.321 517.495C295.777 517.201 296.325 517.054 296.964 517.054C297.612 517.054 298.151 517.201 298.581 517.495C299.016 517.785 299.355 518.192 299.597 518.716H299.7C299.951 518.209 300.328 517.806 300.831 517.508C301.334 517.205 301.937 517.054 302.64 517.054C303.518 517.054 304.236 517.329 304.794 517.879C305.352 518.424 305.632 519.274 305.632 520.429V527H304.123V520.429C304.123 519.705 303.925 519.187 303.529 518.876C303.132 518.565 302.666 518.409 302.129 518.409C301.438 518.409 300.904 518.618 300.524 519.036C300.145 519.449 299.955 519.973 299.955 520.608V527H298.421V520.276C298.421 519.717 298.24 519.268 297.878 518.927C297.516 518.582 297.049 518.409 296.478 518.409C296.086 518.409 295.72 518.513 295.379 518.722C295.042 518.931 294.769 519.221 294.561 519.592C294.356 519.958 294.254 520.382 294.254 520.864V527H292.745ZM312.506 527.205C311.56 527.205 310.744 526.996 310.058 526.578C309.376 526.156 308.85 525.568 308.479 524.814C308.113 524.055 307.929 523.173 307.929 522.168C307.929 521.162 308.113 520.276 308.479 519.509C308.85 518.737 309.366 518.136 310.026 517.706C310.691 517.271 311.466 517.054 312.353 517.054C312.864 517.054 313.369 517.139 313.868 517.31C314.366 517.48 314.82 517.757 315.229 518.141C315.638 518.52 315.964 519.023 316.207 519.649C316.45 520.276 316.572 521.047 316.572 521.963V522.602H309.003V521.298H315.037C315.037 520.744 314.927 520.25 314.705 519.815C314.488 519.381 314.177 519.038 313.772 518.786C313.371 518.535 312.898 518.409 312.353 518.409C311.752 518.409 311.232 518.558 310.793 518.857C310.358 519.151 310.024 519.534 309.79 520.007C309.555 520.48 309.438 520.987 309.438 521.528V522.398C309.438 523.139 309.566 523.768 309.822 524.283C310.081 524.795 310.442 525.185 310.902 525.453C311.362 525.717 311.897 525.849 312.506 525.849C312.902 525.849 313.26 525.794 313.58 525.683C313.904 525.568 314.183 525.398 314.417 525.172C314.652 524.942 314.833 524.656 314.961 524.315L316.418 524.724C316.265 525.219 316.007 525.653 315.645 526.028C315.282 526.399 314.835 526.689 314.302 526.898C313.77 527.102 313.171 527.205 312.506 527.205Z" fill="black"/>
<rect x="199.923" y="566" width="178.308" height="50" rx="15" fill="#0072BB"/>
<path d="M264.476 582.955L267.992 594.006H268.126L271.649 582.955H275.058L270.044 597.5H266.081L261.06 582.955H264.476ZM279.884 582.955V597.5H276.809V582.955H279.884ZM282.414 597.5V582.955H292.216V585.49H285.49V588.956H291.711V591.491H285.49V594.964H292.244V597.5H282.414ZM297.935 597.5L293.773 582.955H297.132L299.54 593.061H299.661L302.317 582.955H305.193L307.842 593.082H307.97L310.378 582.955H313.737L309.575 597.5H306.578L303.808 587.99H303.695L300.932 597.5H297.935Z" fill="white"/>
<rect x="31" y="653" width="366" height="150" rx="25" fill="#E9EBF8"/>
<g filter="url(#filter3_d_1_88)">
<rect x="47.4231" y="669" width="130.212" height="117" rx="25" fill="white"/>
</g>
<path d="M210.457 688C210.317 687.57 210.131 687.184 209.901 686.843C209.675 686.498 209.405 686.204 209.089 685.961C208.778 685.718 208.425 685.533 208.028 685.405C207.632 685.277 207.197 685.213 206.724 685.213C205.949 685.213 205.243 685.413 204.608 685.814C203.974 686.214 203.469 686.805 203.094 687.585C202.719 688.364 202.531 689.321 202.531 690.455C202.531 691.588 202.721 692.545 203.1 693.325C203.479 694.104 203.993 694.695 204.64 695.095C205.288 695.496 206.017 695.696 206.827 695.696C207.577 695.696 208.237 695.536 208.808 695.217C209.383 694.893 209.831 694.437 210.15 693.849C210.474 693.256 210.636 692.56 210.636 691.759L211.122 691.861H207.184V690.455H212.17V691.861C212.17 692.939 211.94 693.876 211.48 694.673C211.024 695.47 210.393 696.088 209.588 696.527C208.787 696.962 207.866 697.179 206.827 697.179C205.667 697.179 204.649 696.906 203.771 696.361C202.898 695.815 202.216 695.04 201.726 694.034C201.24 693.028 200.997 691.835 200.997 690.455C200.997 689.419 201.135 688.488 201.412 687.661C201.694 686.83 202.09 686.123 202.601 685.539C203.113 684.955 203.718 684.508 204.417 684.197C205.116 683.886 205.885 683.73 206.724 683.73C207.415 683.73 208.058 683.835 208.655 684.043C209.255 684.248 209.79 684.54 210.259 684.919C210.732 685.294 211.126 685.744 211.442 686.268C211.757 686.788 211.974 687.365 212.094 688H210.457ZM217.57 697.23C216.948 697.23 216.383 697.113 215.876 696.879C215.369 696.64 214.966 696.297 214.668 695.849C214.37 695.398 214.221 694.852 214.221 694.213C214.221 693.651 214.331 693.195 214.553 692.845C214.774 692.491 215.071 692.214 215.441 692.014C215.812 691.814 216.221 691.665 216.669 691.567C217.12 691.464 217.574 691.384 218.03 691.324C218.627 691.247 219.11 691.19 219.481 691.151C219.856 691.109 220.129 691.038 220.299 690.94C220.474 690.842 220.561 690.672 220.561 690.429V690.378C220.561 689.747 220.389 689.257 220.044 688.908C219.703 688.558 219.185 688.384 218.49 688.384C217.77 688.384 217.206 688.541 216.796 688.857C216.387 689.172 216.1 689.509 215.934 689.866L214.502 689.355C214.757 688.759 215.098 688.294 215.524 687.962C215.955 687.625 216.424 687.391 216.931 687.259C217.442 687.122 217.945 687.054 218.439 687.054C218.755 687.054 219.117 687.092 219.526 687.169C219.939 687.241 220.338 687.393 220.721 687.623C221.109 687.853 221.431 688.2 221.686 688.665C221.942 689.129 222.07 689.751 222.07 690.531V697H220.561V695.67H220.485C220.382 695.884 220.212 696.112 219.973 696.354C219.735 696.597 219.417 696.804 219.021 696.974C218.625 697.145 218.141 697.23 217.57 697.23ZM217.8 695.875C218.397 695.875 218.899 695.758 219.309 695.523C219.722 695.289 220.033 694.987 220.242 694.616C220.455 694.245 220.561 693.855 220.561 693.446V692.065C220.497 692.142 220.357 692.212 220.14 692.276C219.926 692.336 219.679 692.389 219.398 692.436C219.121 692.479 218.85 692.517 218.586 692.551C218.326 692.581 218.115 692.607 217.953 692.628C217.561 692.679 217.195 692.762 216.854 692.877C216.517 692.988 216.245 693.156 216.036 693.382C215.831 693.604 215.729 693.906 215.729 694.29C215.729 694.814 215.923 695.21 216.311 695.479C216.703 695.743 217.199 695.875 217.8 695.875ZM228.531 697.205C227.713 697.205 226.99 696.998 226.364 696.585C225.737 696.167 225.247 695.579 224.894 694.82C224.54 694.058 224.363 693.156 224.363 692.116C224.363 691.085 224.54 690.19 224.894 689.432C225.247 688.673 225.74 688.087 226.37 687.674C227.001 687.261 227.73 687.054 228.556 687.054C229.195 687.054 229.7 687.161 230.071 687.374C230.446 687.582 230.732 687.821 230.928 688.089C231.128 688.354 231.284 688.571 231.394 688.741H231.522V683.909H233.031V697H231.573V695.491H231.394C231.284 695.67 231.126 695.896 230.921 696.169C230.717 696.437 230.425 696.678 230.046 696.891C229.666 697.1 229.161 697.205 228.531 697.205ZM228.735 695.849C229.34 695.849 229.852 695.692 230.269 695.376C230.687 695.057 231.004 694.616 231.222 694.053C231.439 693.487 231.548 692.832 231.548 692.091C231.548 691.358 231.441 690.717 231.228 690.167C231.015 689.613 230.7 689.183 230.282 688.876C229.865 688.565 229.349 688.409 228.735 688.409C228.096 688.409 227.563 688.573 227.137 688.901C226.715 689.225 226.398 689.666 226.185 690.224C225.976 690.778 225.872 691.401 225.872 692.091C225.872 692.79 225.978 693.425 226.191 693.996C226.409 694.562 226.728 695.014 227.15 695.351C227.576 695.683 228.105 695.849 228.735 695.849ZM239.966 700.886C239.237 700.886 238.611 700.793 238.087 700.605C237.563 700.422 237.126 700.179 236.776 699.876C236.431 699.578 236.156 699.259 235.952 698.918L237.154 698.074C237.29 698.253 237.463 698.457 237.671 698.688C237.88 698.922 238.166 699.124 238.528 699.295C238.894 699.469 239.374 699.557 239.966 699.557C240.759 699.557 241.413 699.365 241.928 698.982C242.444 698.598 242.702 697.997 242.702 697.179V695.185H242.574C242.463 695.364 242.306 695.585 242.101 695.849C241.901 696.109 241.611 696.342 241.232 696.546C240.857 696.746 240.35 696.847 239.71 696.847C238.918 696.847 238.206 696.659 237.575 696.284C236.949 695.909 236.453 695.364 236.086 694.648C235.724 693.932 235.543 693.062 235.543 692.04C235.543 691.034 235.72 690.158 236.073 689.413C236.427 688.663 236.919 688.083 237.55 687.674C238.181 687.261 238.909 687.054 239.736 687.054C240.375 687.054 240.882 687.161 241.257 687.374C241.637 687.582 241.926 687.821 242.127 688.089C242.331 688.354 242.489 688.571 242.6 688.741H242.753V687.182H244.21V697.281C244.21 698.125 244.019 698.811 243.635 699.339C243.256 699.872 242.744 700.262 242.101 700.509C241.462 700.761 240.75 700.886 239.966 700.886ZM239.915 695.491C240.52 695.491 241.031 695.353 241.449 695.076C241.867 694.799 242.184 694.401 242.401 693.881C242.619 693.361 242.727 692.739 242.727 692.014C242.727 691.307 242.621 690.683 242.408 690.141C242.195 689.6 241.879 689.176 241.462 688.869C241.044 688.562 240.529 688.409 239.915 688.409C239.276 688.409 238.743 688.571 238.317 688.895C237.895 689.219 237.578 689.653 237.365 690.199C237.156 690.744 237.051 691.349 237.051 692.014C237.051 692.696 237.158 693.299 237.371 693.823C237.588 694.343 237.908 694.752 238.33 695.05C238.756 695.344 239.284 695.491 239.915 695.491ZM251.088 697.205C250.142 697.205 249.326 696.996 248.64 696.578C247.958 696.156 247.432 695.568 247.061 694.814C246.695 694.055 246.512 693.173 246.512 692.168C246.512 691.162 246.695 690.276 247.061 689.509C247.432 688.737 247.948 688.136 248.608 687.706C249.273 687.271 250.048 687.054 250.935 687.054C251.446 687.054 251.951 687.139 252.45 687.31C252.948 687.48 253.402 687.757 253.811 688.141C254.22 688.52 254.546 689.023 254.789 689.649C255.032 690.276 255.154 691.047 255.154 691.963V692.602H247.585V691.298H253.619C253.619 690.744 253.509 690.25 253.287 689.815C253.07 689.381 252.759 689.038 252.354 688.786C251.953 688.535 251.48 688.409 250.935 688.409C250.334 688.409 249.814 688.558 249.375 688.857C248.94 689.151 248.606 689.534 248.372 690.007C248.137 690.48 248.02 690.987 248.02 691.528V692.398C248.02 693.139 248.148 693.768 248.404 694.283C248.664 694.795 249.024 695.185 249.484 695.453C249.944 695.717 250.479 695.849 251.088 695.849C251.485 695.849 251.842 695.794 252.162 695.683C252.486 695.568 252.765 695.398 252.999 695.172C253.234 694.942 253.415 694.656 253.543 694.315L255 694.724C254.847 695.219 254.589 695.653 254.227 696.028C253.865 696.399 253.417 696.689 252.884 696.898C252.352 697.102 251.753 697.205 251.088 697.205ZM261.718 687.182V688.46H256.63V687.182H261.718ZM258.113 684.83H259.622V694.188C259.622 694.614 259.683 694.933 259.807 695.146C259.935 695.355 260.097 695.496 260.293 695.568C260.493 695.636 260.704 695.67 260.926 695.67C261.092 695.67 261.228 695.662 261.335 695.645C261.441 695.624 261.526 695.607 261.59 695.594L261.897 696.949C261.795 696.987 261.652 697.026 261.469 697.064C261.286 697.107 261.053 697.128 260.772 697.128C260.346 697.128 259.928 697.036 259.519 696.853C259.115 696.67 258.778 696.391 258.509 696.016C258.245 695.641 258.113 695.168 258.113 694.597V684.83ZM279.635 683.909V697H278.101L270.967 686.722H270.84V697H269.254V683.909H270.789L277.948 694.213H278.075V683.909H279.635ZM285.492 697.23C284.87 697.23 284.305 697.113 283.798 696.879C283.291 696.64 282.888 696.297 282.59 695.849C282.292 695.398 282.142 694.852 282.142 694.213C282.142 693.651 282.253 693.195 282.475 692.845C282.696 692.491 282.993 692.214 283.363 692.014C283.734 691.814 284.143 691.665 284.591 691.567C285.042 691.464 285.496 691.384 285.952 691.324C286.549 691.247 287.032 691.19 287.403 691.151C287.778 691.109 288.051 691.038 288.221 690.94C288.396 690.842 288.483 690.672 288.483 690.429V690.378C288.483 689.747 288.311 689.257 287.966 688.908C287.625 688.558 287.107 688.384 286.412 688.384C285.692 688.384 285.127 688.541 284.718 688.857C284.309 689.172 284.022 689.509 283.855 689.866L282.424 689.355C282.679 688.759 283.02 688.294 283.446 687.962C283.877 687.625 284.346 687.391 284.853 687.259C285.364 687.122 285.867 687.054 286.361 687.054C286.676 687.054 287.039 687.092 287.448 687.169C287.861 687.241 288.26 687.393 288.643 687.623C289.031 687.853 289.353 688.2 289.608 688.665C289.864 689.129 289.992 689.751 289.992 690.531V697H288.483V695.67H288.407C288.304 695.884 288.134 696.112 287.895 696.354C287.657 696.597 287.339 696.804 286.943 696.974C286.546 697.145 286.063 697.23 285.492 697.23ZM285.722 695.875C286.319 695.875 286.821 695.758 287.23 695.523C287.644 695.289 287.955 694.987 288.164 694.616C288.377 694.245 288.483 693.855 288.483 693.446V692.065C288.419 692.142 288.279 692.212 288.061 692.276C287.848 692.336 287.601 692.389 287.32 692.436C287.043 692.479 286.772 692.517 286.508 692.551C286.248 692.581 286.037 692.607 285.875 692.628C285.483 692.679 285.117 692.762 284.776 692.877C284.439 692.988 284.167 693.156 283.958 693.382C283.753 693.604 283.651 693.906 283.651 694.29C283.651 694.814 283.845 695.21 284.233 695.479C284.625 695.743 285.121 695.875 285.722 695.875ZM292.745 697V687.182H294.203V688.716H294.33C294.535 688.192 294.865 687.785 295.321 687.495C295.777 687.201 296.325 687.054 296.964 687.054C297.612 687.054 298.151 687.201 298.581 687.495C299.016 687.785 299.355 688.192 299.597 688.716H299.7C299.951 688.209 300.328 687.806 300.831 687.508C301.334 687.205 301.937 687.054 302.64 687.054C303.518 687.054 304.236 687.329 304.794 687.879C305.352 688.424 305.632 689.274 305.632 690.429V697H304.123V690.429C304.123 689.705 303.925 689.187 303.529 688.876C303.132 688.565 302.666 688.409 302.129 688.409C301.438 688.409 300.904 688.618 300.524 689.036C300.145 689.449 299.955 689.973 299.955 690.608V697H298.421V690.276C298.421 689.717 298.24 689.268 297.878 688.927C297.516 688.582 297.049 688.409 296.478 688.409C296.086 688.409 295.72 688.513 295.379 688.722C295.042 688.931 294.769 689.221 294.561 689.592C294.356 689.958 294.254 690.382 294.254 690.864V697H292.745ZM312.506 697.205C311.56 697.205 310.744 696.996 310.058 696.578C309.376 696.156 308.85 695.568 308.479 694.814C308.113 694.055 307.929 693.173 307.929 692.168C307.929 691.162 308.113 690.276 308.479 689.509C308.85 688.737 309.366 688.136 310.026 687.706C310.691 687.271 311.466 687.054 312.353 687.054C312.864 687.054 313.369 687.139 313.868 687.31C314.366 687.48 314.82 687.757 315.229 688.141C315.638 688.52 315.964 689.023 316.207 689.649C316.45 690.276 316.572 691.047 316.572 691.963V692.602H309.003V691.298H315.037C315.037 690.744 314.927 690.25 314.705 689.815C314.488 689.381 314.177 689.038 313.772 688.786C313.371 688.535 312.898 688.409 312.353 688.409C311.752 688.409 311.232 688.558 310.793 688.857C310.358 689.151 310.024 689.534 309.79 690.007C309.555 690.48 309.438 690.987 309.438 691.528V692.398C309.438 693.139 309.566 693.768 309.822 694.283C310.081 694.795 310.442 695.185 310.902 695.453C311.362 695.717 311.897 695.849 312.506 695.849C312.902 695.849 313.26 695.794 313.58 695.683C313.904 695.568 314.183 695.398 314.417 695.172C314.652 694.942 314.833 694.656 314.961 694.315L316.418 694.724C316.265 695.219 316.007 695.653 315.645 696.028C315.282 696.399 314.835 696.689 314.302 696.898C313.77 697.102 313.171 697.205 312.506 697.205Z" fill="black"/>
<rect x="199.923" y="736" width="178.308" height="50" rx="15" fill="#0072BB"/>
<path d="M264.476 752.955L267.992 764.006H268.126L271.649 752.955H275.058L270.044 767.5H266.081L261.06 752.955H264.476ZM279.884 752.955V767.5H276.809V752.955H279.884ZM282.414 767.5V752.955H292.216V755.49H285.49V758.956H291.711V761.491H285.49V764.964H292.244V767.5H282.414ZM297.935 767.5L293.773 752.955H297.132L299.54 763.061H299.661L302.317 752.955H305.193L307.842 763.082H307.97L310.378 752.955H313.737L309.575 767.5H306.578L303.808 757.99H303.695L300.932 767.5H297.935Z" fill="white"/>
<rect x="31" y="823" width="366" height="150" rx="25" fill="#E9EBF8"/>
<g filter="url(#filter4_d_1_88)">
<rect x="47.4231" y="839" width="130.212" height="117" rx="25" fill="white"/>
</g>
<path d="M210.457 858C210.317 857.57 210.131 857.184 209.901 856.843C209.675 856.498 209.405 856.204 209.089 855.961C208.778 855.718 208.425 855.533 208.028 855.405C207.632 855.277 207.197 855.213 206.724 855.213C205.949 855.213 205.243 855.413 204.608 855.814C203.974 856.214 203.469 856.805 203.094 857.585C202.719 858.364 202.531 859.321 202.531 860.455C202.531 861.588 202.721 862.545 203.1 863.325C203.479 864.104 203.993 864.695 204.64 865.095C205.288 865.496 206.017 865.696 206.827 865.696C207.577 865.696 208.237 865.536 208.808 865.217C209.383 864.893 209.831 864.437 210.15 863.849C210.474 863.256 210.636 862.56 210.636 861.759L211.122 861.861H207.184V860.455H212.17V861.861C212.17 862.939 211.94 863.876 211.48 864.673C211.024 865.47 210.393 866.088 209.588 866.527C208.787 866.962 207.866 867.179 206.827 867.179C205.667 867.179 204.649 866.906 203.771 866.361C202.898 865.815 202.216 865.04 201.726 864.034C201.24 863.028 200.997 861.835 200.997 860.455C200.997 859.419 201.135 858.488 201.412 857.661C201.694 856.83 202.09 856.123 202.601 855.539C203.113 854.955 203.718 854.508 204.417 854.197C205.116 853.886 205.885 853.73 206.724 853.73C207.415 853.73 208.058 853.835 208.655 854.043C209.255 854.248 209.79 854.54 210.259 854.919C210.732 855.294 211.126 855.744 211.442 856.268C211.757 856.788 211.974 857.365 212.094 858H210.457ZM217.57 867.23C216.948 867.23 216.383 867.113 215.876 866.879C215.369 866.64 214.966 866.297 214.668 865.849C214.37 865.398 214.221 864.852 214.221 864.213C214.221 863.651 214.331 863.195 214.553 862.845C214.774 862.491 215.071 862.214 215.441 862.014C215.812 861.814 216.221 861.665 216.669 861.567C217.12 861.464 217.574 861.384 218.03 861.324C218.627 861.247 219.11 861.19 219.481 861.151C219.856 861.109 220.129 861.038 220.299 860.94C220.474 860.842 220.561 860.672 220.561 860.429V860.378C220.561 859.747 220.389 859.257 220.044 858.908C219.703 858.558 219.185 858.384 218.49 858.384C217.77 858.384 217.206 858.541 216.796 858.857C216.387 859.172 216.1 859.509 215.934 859.866L214.502 859.355C214.757 858.759 215.098 858.294 215.524 857.962C215.955 857.625 216.424 857.391 216.931 857.259C217.442 857.122 217.945 857.054 218.439 857.054C218.755 857.054 219.117 857.092 219.526 857.169C219.939 857.241 220.338 857.393 220.721 857.623C221.109 857.853 221.431 858.2 221.686 858.665C221.942 859.129 222.07 859.751 222.07 860.531V867H220.561V865.67H220.485C220.382 865.884 220.212 866.112 219.973 866.354C219.735 866.597 219.417 866.804 219.021 866.974C218.625 867.145 218.141 867.23 217.57 867.23ZM217.8 865.875C218.397 865.875 218.899 865.758 219.309 865.523C219.722 865.289 220.033 864.987 220.242 864.616C220.455 864.245 220.561 863.855 220.561 863.446V862.065C220.497 862.142 220.357 862.212 220.14 862.276C219.926 862.336 219.679 862.389 219.398 862.436C219.121 862.479 218.85 862.517 218.586 862.551C218.326 862.581 218.115 862.607 217.953 862.628C217.561 862.679 217.195 862.762 216.854 862.877C216.517 862.988 216.245 863.156 216.036 863.382C215.831 863.604 215.729 863.906 215.729 864.29C215.729 864.814 215.923 865.21 216.311 865.479C216.703 865.743 217.199 865.875 217.8 865.875ZM228.531 867.205C227.713 867.205 226.99 866.998 226.364 866.585C225.737 866.167 225.247 865.579 224.894 864.82C224.54 864.058 224.363 863.156 224.363 862.116C224.363 861.085 224.54 860.19 224.894 859.432C225.247 858.673 225.74 858.087 226.37 857.674C227.001 857.261 227.73 857.054 228.556 857.054C229.195 857.054 229.7 857.161 230.071 857.374C230.446 857.582 230.732 857.821 230.928 858.089C231.128 858.354 231.284 858.571 231.394 858.741H231.522V853.909H233.031V867H231.573V865.491H231.394C231.284 865.67 231.126 865.896 230.921 866.169C230.717 866.437 230.425 866.678 230.046 866.891C229.666 867.1 229.161 867.205 228.531 867.205ZM228.735 865.849C229.34 865.849 229.852 865.692 230.269 865.376C230.687 865.057 231.004 864.616 231.222 864.053C231.439 863.487 231.548 862.832 231.548 862.091C231.548 861.358 231.441 860.717 231.228 860.167C231.015 859.613 230.7 859.183 230.282 858.876C229.865 858.565 229.349 858.409 228.735 858.409C228.096 858.409 227.563 858.573 227.137 858.901C226.715 859.225 226.398 859.666 226.185 860.224C225.976 860.778 225.872 861.401 225.872 862.091C225.872 862.79 225.978 863.425 226.191 863.996C226.409 864.562 226.728 865.014 227.15 865.351C227.576 865.683 228.105 865.849 228.735 865.849ZM239.966 870.886C239.237 870.886 238.611 870.793 238.087 870.605C237.563 870.422 237.126 870.179 236.776 869.876C236.431 869.578 236.156 869.259 235.952 868.918L237.154 868.074C237.29 868.253 237.463 868.457 237.671 868.688C237.88 868.922 238.166 869.124 238.528 869.295C238.894 869.469 239.374 869.557 239.966 869.557C240.759 869.557 241.413 869.365 241.928 868.982C242.444 868.598 242.702 867.997 242.702 867.179V865.185H242.574C242.463 865.364 242.306 865.585 242.101 865.849C241.901 866.109 241.611 866.342 241.232 866.546C240.857 866.746 240.35 866.847 239.71 866.847C238.918 866.847 238.206 866.659 237.575 866.284C236.949 865.909 236.453 865.364 236.086 864.648C235.724 863.932 235.543 863.062 235.543 862.04C235.543 861.034 235.72 860.158 236.073 859.413C236.427 858.663 236.919 858.083 237.55 857.674C238.181 857.261 238.909 857.054 239.736 857.054C240.375 857.054 240.882 857.161 241.257 857.374C241.637 857.582 241.926 857.821 242.127 858.089C242.331 858.354 242.489 858.571 242.6 858.741H242.753V857.182H244.21V867.281C244.21 868.125 244.019 868.811 243.635 869.339C243.256 869.872 242.744 870.262 242.101 870.509C241.462 870.761 240.75 870.886 239.966 870.886ZM239.915 865.491C240.52 865.491 241.031 865.353 241.449 865.076C241.867 864.799 242.184 864.401 242.401 863.881C242.619 863.361 242.727 862.739 242.727 862.014C242.727 861.307 242.621 860.683 242.408 860.141C242.195 859.6 241.879 859.176 241.462 858.869C241.044 858.562 240.529 858.409 239.915 858.409C239.276 858.409 238.743 858.571 238.317 858.895C237.895 859.219 237.578 859.653 237.365 860.199C237.156 860.744 237.051 861.349 237.051 862.014C237.051 862.696 237.158 863.299 237.371 863.823C237.588 864.343 237.908 864.752 238.33 865.05C238.756 865.344 239.284 865.491 239.915 865.491ZM251.088 867.205C250.142 867.205 249.326 866.996 248.64 866.578C247.958 866.156 247.432 865.568 247.061 864.814C246.695 864.055 246.512 863.173 246.512 862.168C246.512 861.162 246.695 860.276 247.061 859.509C247.432 858.737 247.948 858.136 248.608 857.706C249.273 857.271 250.048 857.054 250.935 857.054C251.446 857.054 251.951 857.139 252.45 857.31C252.948 857.48 253.402 857.757 253.811 858.141C254.22 858.52 254.546 859.023 254.789 859.649C255.032 860.276 255.154 861.047 255.154 861.963V862.602H247.585V861.298H253.619C253.619 860.744 253.509 860.25 253.287 859.815C253.07 859.381 252.759 859.038 252.354 858.786C251.953 858.535 251.48 858.409 250.935 858.409C250.334 858.409 249.814 858.558 249.375 858.857C248.94 859.151 248.606 859.534 248.372 860.007C248.137 860.48 248.02 860.987 248.02 861.528V862.398C248.02 863.139 248.148 863.768 248.404 864.283C248.664 864.795 249.024 865.185 249.484 865.453C249.944 865.717 250.479 865.849 251.088 865.849C251.485 865.849 251.842 865.794 252.162 865.683C252.486 865.568 252.765 865.398 252.999 865.172C253.234 864.942 253.415 864.656 253.543 864.315L255 864.724C254.847 865.219 254.589 865.653 254.227 866.028C253.865 866.399 253.417 866.689 252.884 866.898C252.352 867.102 251.753 867.205 251.088 867.205ZM261.718 857.182V858.46H256.63V857.182H261.718ZM258.113 854.83H259.622V864.188C259.622 864.614 259.683 864.933 259.807 865.146C259.935 865.355 260.097 865.496 260.293 865.568C260.493 865.636 260.704 865.67 260.926 865.67C261.092 865.67 261.228 865.662 261.335 865.645C261.441 865.624 261.526 865.607 261.59 865.594L261.897 866.949C261.795 866.987 261.652 867.026 261.469 867.064C261.286 867.107 261.053 867.128 260.772 867.128C260.346 867.128 259.928 867.036 259.519 866.853C259.115 866.67 258.778 866.391 258.509 866.016C258.245 865.641 258.113 865.168 258.113 864.597V854.83ZM279.635 853.909V867H278.101L270.967 856.722H270.84V867H269.254V853.909H270.789L277.948 864.213H278.075V853.909H279.635ZM285.492 867.23C284.87 867.23 284.305 867.113 283.798 866.879C283.291 866.64 282.888 866.297 282.59 865.849C282.292 865.398 282.142 864.852 282.142 864.213C282.142 863.651 282.253 863.195 282.475 862.845C282.696 862.491 282.993 862.214 283.363 862.014C283.734 861.814 284.143 861.665 284.591 861.567C285.042 861.464 285.496 861.384 285.952 861.324C286.549 861.247 287.032 861.19 287.403 861.151C287.778 861.109 288.051 861.038 288.221 860.94C288.396 860.842 288.483 860.672 288.483 860.429V860.378C288.483 859.747 288.311 859.257 287.966 858.908C287.625 858.558 287.107 858.384 286.412 858.384C285.692 858.384 285.127 858.541 284.718 858.857C284.309 859.172 284.022 859.509 283.855 859.866L282.424 859.355C282.679 858.759 283.02 858.294 283.446 857.962C283.877 857.625 284.346 857.391 284.853 857.259C285.364 857.122 285.867 857.054 286.361 857.054C286.676 857.054 287.039 857.092 287.448 857.169C287.861 857.241 288.26 857.393 288.643 857.623C289.031 857.853 289.353 858.2 289.608 858.665C289.864 859.129 289.992 859.751 289.992 860.531V867H288.483V865.67H288.407C288.304 865.884 288.134 866.112 287.895 866.354C287.657 866.597 287.339 866.804 286.943 866.974C286.546 867.145 286.063 867.23 285.492 867.23ZM285.722 865.875C286.319 865.875 286.821 865.758 287.23 865.523C287.644 865.289 287.955 864.987 288.164 864.616C288.377 864.245 288.483 863.855 288.483 863.446V862.065C288.419 862.142 288.279 862.212 288.061 862.276C287.848 862.336 287.601 862.389 287.32 862.436C287.043 862.479 286.772 862.517 286.508 862.551C286.248 862.581 286.037 862.607 285.875 862.628C285.483 862.679 285.117 862.762 284.776 862.877C284.439 862.988 284.167 863.156 283.958 863.382C283.753 863.604 283.651 863.906 283.651 864.29C283.651 864.814 283.845 865.21 284.233 865.479C284.625 865.743 285.121 865.875 285.722 865.875ZM292.745 867V857.182H294.203V858.716H294.33C294.535 858.192 294.865 857.785 295.321 857.495C295.777 857.201 296.325 857.054 296.964 857.054C297.612 857.054 298.151 857.201 298.581 857.495C299.016 857.785 299.355 858.192 299.597 858.716H299.7C299.951 858.209 300.328 857.806 300.831 857.508C301.334 857.205 301.937 857.054 302.64 857.054C303.518 857.054 304.236 857.329 304.794 857.879C305.352 858.424 305.632 859.274 305.632 860.429V867H304.123V860.429C304.123 859.705 303.925 859.187 303.529 858.876C303.132 858.565 302.666 858.409 302.129 858.409C301.438 858.409 300.904 858.618 300.524 859.036C300.145 859.449 299.955 859.973 299.955 860.608V867H298.421V860.276C298.421 859.717 298.24 859.268 297.878 858.927C297.516 858.582 297.049 858.409 296.478 858.409C296.086 858.409 295.72 858.513 295.379 858.722C295.042 858.931 294.769 859.221 294.561 859.592C294.356 859.958 294.254 860.382 294.254 860.864V867H292.745ZM312.506 867.205C311.56 867.205 310.744 866.996 310.058 866.578C309.376 866.156 308.85 865.568 308.479 864.814C308.113 864.055 307.929 863.173 307.929 862.168C307.929 861.162 308.113 860.276 308.479 859.509C308.85 858.737 309.366 858.136 310.026 857.706C310.691 857.271 311.466 857.054 312.353 857.054C312.864 857.054 313.369 857.139 313.868 857.31C314.366 857.48 314.82 857.757 315.229 858.141C315.638 858.52 315.964 859.023 316.207 859.649C316.45 860.276 316.572 861.047 316.572 861.963V862.602H309.003V861.298H315.037C315.037 860.744 314.927 860.25 314.705 859.815C314.488 859.381 314.177 859.038 313.772 858.786C313.371 858.535 312.898 858.409 312.353 858.409C311.752 858.409 311.232 858.558 310.793 858.857C310.358 859.151 310.024 859.534 309.79 860.007C309.555 860.48 309.438 860.987 309.438 861.528V862.398C309.438 863.139 309.566 863.768 309.822 864.283C310.081 864.795 310.442 865.185 310.902 865.453C311.362 865.717 311.897 865.849 312.506 865.849C312.902 865.849 313.26 865.794 313.58 865.683C313.904 865.568 314.183 865.398 314.417 865.172C314.652 864.942 314.833 864.656 314.961 864.315L316.418 864.724C316.265 865.219 316.007 865.653 315.645 866.028C315.282 866.399 314.835 866.689 314.302 866.898C313.77 867.102 313.171 867.205 312.506 867.205Z" fill="black"/>
<rect x="199.923" y="906" width="178.308" height="50" rx="15" fill="#0072BB"/>
<path d="M264.476 922.955L267.992 934.006H268.126L271.649 922.955H275.058L270.044 937.5H266.081L261.06 922.955H264.476ZM279.884 922.955V937.5H276.809V922.955H279.884ZM282.414 937.5V922.955H292.216V925.49H285.49V928.956H291.711V931.491H285.49V934.964H292.244V937.5H282.414ZM297.935 937.5L293.773 922.955H297.132L299.54 933.061H299.661L302.317 922.955H305.193L307.842 933.082H307.97L310.378 922.955H313.737L309.575 937.5H306.578L303.808 927.99H303.695L300.932 937.5H297.935Z" fill="white"/>
<rect x="31" y="993" width="366" height="150" rx="25" fill="#E9EBF8"/>
<g filter="url(#filter5_d_1_88)">
<rect x="47.4231" y="1009" width="130.212" height="117" rx="25" fill="white"/>
</g>
<path d="M210.457 1028C210.317 1027.57 210.131 1027.18 209.901 1026.84C209.675 1026.5 209.405 1026.2 209.089 1025.96C208.778 1025.72 208.425 1025.53 208.028 1025.4C207.632 1025.28 207.197 1025.21 206.724 1025.21C205.949 1025.21 205.243 1025.41 204.608 1025.81C203.974 1026.21 203.469 1026.8 203.094 1027.58C202.719 1028.36 202.531 1029.32 202.531 1030.45C202.531 1031.59 202.721 1032.54 203.1 1033.32C203.479 1034.1 203.993 1034.69 204.64 1035.1C205.288 1035.5 206.017 1035.7 206.827 1035.7C207.577 1035.7 208.237 1035.54 208.808 1035.22C209.383 1034.89 209.831 1034.44 210.15 1033.85C210.474 1033.26 210.636 1032.56 210.636 1031.76L211.122 1031.86H207.184V1030.45H212.17V1031.86C212.17 1032.94 211.94 1033.88 211.48 1034.67C211.024 1035.47 210.393 1036.09 209.588 1036.53C208.787 1036.96 207.866 1037.18 206.827 1037.18C205.667 1037.18 204.649 1036.91 203.771 1036.36C202.898 1035.82 202.216 1035.04 201.726 1034.03C201.24 1033.03 200.997 1031.84 200.997 1030.45C200.997 1029.42 201.135 1028.49 201.412 1027.66C201.694 1026.83 202.09 1026.12 202.601 1025.54C203.113 1024.96 203.718 1024.51 204.417 1024.2C205.116 1023.89 205.885 1023.73 206.724 1023.73C207.415 1023.73 208.058 1023.83 208.655 1024.04C209.255 1024.25 209.79 1024.54 210.259 1024.92C210.732 1025.29 211.126 1025.74 211.442 1026.27C211.757 1026.79 211.974 1027.37 212.094 1028H210.457ZM217.57 1037.23C216.948 1037.23 216.383 1037.11 215.876 1036.88C215.369 1036.64 214.966 1036.3 214.668 1035.85C214.37 1035.4 214.221 1034.85 214.221 1034.21C214.221 1033.65 214.331 1033.19 214.553 1032.85C214.774 1032.49 215.071 1032.21 215.441 1032.01C215.812 1031.81 216.221 1031.66 216.669 1031.57C217.12 1031.46 217.574 1031.38 218.03 1031.32C218.627 1031.25 219.11 1031.19 219.481 1031.15C219.856 1031.11 220.129 1031.04 220.299 1030.94C220.474 1030.84 220.561 1030.67 220.561 1030.43V1030.38C220.561 1029.75 220.389 1029.26 220.044 1028.91C219.703 1028.56 219.185 1028.38 218.49 1028.38C217.77 1028.38 217.206 1028.54 216.796 1028.86C216.387 1029.17 216.1 1029.51 215.934 1029.87L214.502 1029.36C214.757 1028.76 215.098 1028.29 215.524 1027.96C215.955 1027.62 216.424 1027.39 216.931 1027.26C217.442 1027.12 217.945 1027.05 218.439 1027.05C218.755 1027.05 219.117 1027.09 219.526 1027.17C219.939 1027.24 220.338 1027.39 220.721 1027.62C221.109 1027.85 221.431 1028.2 221.686 1028.66C221.942 1029.13 222.07 1029.75 222.07 1030.53V1037H220.561V1035.67H220.485C220.382 1035.88 220.212 1036.11 219.973 1036.35C219.735 1036.6 219.417 1036.8 219.021 1036.97C218.625 1037.14 218.141 1037.23 217.57 1037.23ZM217.8 1035.88C218.397 1035.88 218.899 1035.76 219.309 1035.52C219.722 1035.29 220.033 1034.99 220.242 1034.62C220.455 1034.25 220.561 1033.86 220.561 1033.45V1032.07C220.497 1032.14 220.357 1032.21 220.14 1032.28C219.926 1032.34 219.679 1032.39 219.398 1032.44C219.121 1032.48 218.85 1032.52 218.586 1032.55C218.326 1032.58 218.115 1032.61 217.953 1032.63C217.561 1032.68 217.195 1032.76 216.854 1032.88C216.517 1032.99 216.245 1033.16 216.036 1033.38C215.831 1033.6 215.729 1033.91 215.729 1034.29C215.729 1034.81 215.923 1035.21 216.311 1035.48C216.703 1035.74 217.199 1035.88 217.8 1035.88ZM228.531 1037.2C227.713 1037.2 226.99 1037 226.364 1036.58C225.737 1036.17 225.247 1035.58 224.894 1034.82C224.54 1034.06 224.363 1033.16 224.363 1032.12C224.363 1031.09 224.54 1030.19 224.894 1029.43C225.247 1028.67 225.74 1028.09 226.37 1027.67C227.001 1027.26 227.73 1027.05 228.556 1027.05C229.195 1027.05 229.7 1027.16 230.071 1027.37C230.446 1027.58 230.732 1027.82 230.928 1028.09C231.128 1028.35 231.284 1028.57 231.394 1028.74H231.522V1023.91H233.031V1037H231.573V1035.49H231.394C231.284 1035.67 231.126 1035.9 230.921 1036.17C230.717 1036.44 230.425 1036.68 230.046 1036.89C229.666 1037.1 229.161 1037.2 228.531 1037.2ZM228.735 1035.85C229.34 1035.85 229.852 1035.69 230.269 1035.38C230.687 1035.06 231.004 1034.62 231.222 1034.05C231.439 1033.49 231.548 1032.83 231.548 1032.09C231.548 1031.36 231.441 1030.72 231.228 1030.17C231.015 1029.61 230.7 1029.18 230.282 1028.88C229.865 1028.56 229.349 1028.41 228.735 1028.41C228.096 1028.41 227.563 1028.57 227.137 1028.9C226.715 1029.23 226.398 1029.67 226.185 1030.22C225.976 1030.78 225.872 1031.4 225.872 1032.09C225.872 1032.79 225.978 1033.42 226.191 1034C226.409 1034.56 226.728 1035.01 227.15 1035.35C227.576 1035.68 228.105 1035.85 228.735 1035.85ZM239.966 1040.89C239.237 1040.89 238.611 1040.79 238.087 1040.61C237.563 1040.42 237.126 1040.18 236.776 1039.88C236.431 1039.58 236.156 1039.26 235.952 1038.92L237.154 1038.07C237.29 1038.25 237.463 1038.46 237.671 1038.69C237.88 1038.92 238.166 1039.12 238.528 1039.29C238.894 1039.47 239.374 1039.56 239.966 1039.56C240.759 1039.56 241.413 1039.37 241.928 1038.98C242.444 1038.6 242.702 1038 242.702 1037.18V1035.18H242.574C242.463 1035.36 242.306 1035.59 242.101 1035.85C241.901 1036.11 241.611 1036.34 241.232 1036.55C240.857 1036.75 240.35 1036.85 239.71 1036.85C238.918 1036.85 238.206 1036.66 237.575 1036.28C236.949 1035.91 236.453 1035.36 236.086 1034.65C235.724 1033.93 235.543 1033.06 235.543 1032.04C235.543 1031.03 235.72 1030.16 236.073 1029.41C236.427 1028.66 236.919 1028.08 237.55 1027.67C238.181 1027.26 238.909 1027.05 239.736 1027.05C240.375 1027.05 240.882 1027.16 241.257 1027.37C241.637 1027.58 241.926 1027.82 242.127 1028.09C242.331 1028.35 242.489 1028.57 242.6 1028.74H242.753V1027.18H244.21V1037.28C244.21 1038.12 244.019 1038.81 243.635 1039.34C243.256 1039.87 242.744 1040.26 242.101 1040.51C241.462 1040.76 240.75 1040.89 239.966 1040.89ZM239.915 1035.49C240.52 1035.49 241.031 1035.35 241.449 1035.08C241.867 1034.8 242.184 1034.4 242.401 1033.88C242.619 1033.36 242.727 1032.74 242.727 1032.01C242.727 1031.31 242.621 1030.68 242.408 1030.14C242.195 1029.6 241.879 1029.18 241.462 1028.87C241.044 1028.56 240.529 1028.41 239.915 1028.41C239.276 1028.41 238.743 1028.57 238.317 1028.89C237.895 1029.22 237.578 1029.65 237.365 1030.2C237.156 1030.74 237.051 1031.35 237.051 1032.01C237.051 1032.7 237.158 1033.3 237.371 1033.82C237.588 1034.34 237.908 1034.75 238.33 1035.05C238.756 1035.34 239.284 1035.49 239.915 1035.49ZM251.088 1037.2C250.142 1037.2 249.326 1037 248.64 1036.58C247.958 1036.16 247.432 1035.57 247.061 1034.81C246.695 1034.06 246.512 1033.17 246.512 1032.17C246.512 1031.16 246.695 1030.28 247.061 1029.51C247.432 1028.74 247.948 1028.14 248.608 1027.71C249.273 1027.27 250.048 1027.05 250.935 1027.05C251.446 1027.05 251.951 1027.14 252.45 1027.31C252.948 1027.48 253.402 1027.76 253.811 1028.14C254.22 1028.52 254.546 1029.02 254.789 1029.65C255.032 1030.28 255.154 1031.05 255.154 1031.96V1032.6H247.585V1031.3H253.619C253.619 1030.74 253.509 1030.25 253.287 1029.82C253.07 1029.38 252.759 1029.04 252.354 1028.79C251.953 1028.53 251.48 1028.41 250.935 1028.41C250.334 1028.41 249.814 1028.56 249.375 1028.86C248.94 1029.15 248.606 1029.53 248.372 1030.01C248.137 1030.48 248.02 1030.99 248.02 1031.53V1032.4C248.02 1033.14 248.148 1033.77 248.404 1034.28C248.664 1034.79 249.024 1035.18 249.484 1035.45C249.944 1035.72 250.479 1035.85 251.088 1035.85C251.485 1035.85 251.842 1035.79 252.162 1035.68C252.486 1035.57 252.765 1035.4 252.999 1035.17C253.234 1034.94 253.415 1034.66 253.543 1034.32L255 1034.72C254.847 1035.22 254.589 1035.65 254.227 1036.03C253.865 1036.4 253.417 1036.69 252.884 1036.9C252.352 1037.1 251.753 1037.2 251.088 1037.2ZM261.718 1027.18V1028.46H256.63V1027.18H261.718ZM258.113 1024.83H259.622V1034.19C259.622 1034.61 259.683 1034.93 259.807 1035.15C259.935 1035.36 260.097 1035.5 260.293 1035.57C260.493 1035.64 260.704 1035.67 260.926 1035.67C261.092 1035.67 261.228 1035.66 261.335 1035.64C261.441 1035.62 261.526 1035.61 261.59 1035.59L261.897 1036.95C261.795 1036.99 261.652 1037.03 261.469 1037.06C261.286 1037.11 261.053 1037.13 260.772 1037.13C260.346 1037.13 259.928 1037.04 259.519 1036.85C259.115 1036.67 258.778 1036.39 258.509 1036.02C258.245 1035.64 258.113 1035.17 258.113 1034.6V1024.83ZM279.635 1023.91V1037H278.101L270.967 1026.72H270.84V1037H269.254V1023.91H270.789L277.948 1034.21H278.075V1023.91H279.635ZM285.492 1037.23C284.87 1037.23 284.305 1037.11 283.798 1036.88C283.291 1036.64 282.888 1036.3 282.59 1035.85C282.292 1035.4 282.142 1034.85 282.142 1034.21C282.142 1033.65 282.253 1033.19 282.475 1032.85C282.696 1032.49 282.993 1032.21 283.363 1032.01C283.734 1031.81 284.143 1031.66 284.591 1031.57C285.042 1031.46 285.496 1031.38 285.952 1031.32C286.549 1031.25 287.032 1031.19 287.403 1031.15C287.778 1031.11 288.051 1031.04 288.221 1030.94C288.396 1030.84 288.483 1030.67 288.483 1030.43V1030.38C288.483 1029.75 288.311 1029.26 287.966 1028.91C287.625 1028.56 287.107 1028.38 286.412 1028.38C285.692 1028.38 285.127 1028.54 284.718 1028.86C284.309 1029.17 284.022 1029.51 283.855 1029.87L282.424 1029.36C282.679 1028.76 283.02 1028.29 283.446 1027.96C283.877 1027.62 284.346 1027.39 284.853 1027.26C285.364 1027.12 285.867 1027.05 286.361 1027.05C286.676 1027.05 287.039 1027.09 287.448 1027.17C287.861 1027.24 288.26 1027.39 288.643 1027.62C289.031 1027.85 289.353 1028.2 289.608 1028.66C289.864 1029.13 289.992 1029.75 289.992 1030.53V1037H288.483V1035.67H288.407C288.304 1035.88 288.134 1036.11 287.895 1036.35C287.657 1036.6 287.339 1036.8 286.943 1036.97C286.546 1037.14 286.063 1037.23 285.492 1037.23ZM285.722 1035.88C286.319 1035.88 286.821 1035.76 287.23 1035.52C287.644 1035.29 287.955 1034.99 288.164 1034.62C288.377 1034.25 288.483 1033.86 288.483 1033.45V1032.07C288.419 1032.14 288.279 1032.21 288.061 1032.28C287.848 1032.34 287.601 1032.39 287.32 1032.44C287.043 1032.48 286.772 1032.52 286.508 1032.55C286.248 1032.58 286.037 1032.61 285.875 1032.63C285.483 1032.68 285.117 1032.76 284.776 1032.88C284.439 1032.99 284.167 1033.16 283.958 1033.38C283.753 1033.6 283.651 1033.91 283.651 1034.29C283.651 1034.81 283.845 1035.21 284.233 1035.48C284.625 1035.74 285.121 1035.88 285.722 1035.88ZM292.745 1037V1027.18H294.203V1028.72H294.33C294.535 1028.19 294.865 1027.78 295.321 1027.5C295.777 1027.2 296.325 1027.05 296.964 1027.05C297.612 1027.05 298.151 1027.2 298.581 1027.5C299.016 1027.78 299.355 1028.19 299.597 1028.72H299.7C299.951 1028.21 300.328 1027.81 300.831 1027.51C301.334 1027.21 301.937 1027.05 302.64 1027.05C303.518 1027.05 304.236 1027.33 304.794 1027.88C305.352 1028.42 305.632 1029.27 305.632 1030.43V1037H304.123V1030.43C304.123 1029.7 303.925 1029.19 303.529 1028.88C303.132 1028.56 302.666 1028.41 302.129 1028.41C301.438 1028.41 300.904 1028.62 300.524 1029.04C300.145 1029.45 299.955 1029.97 299.955 1030.61V1037H298.421V1030.28C298.421 1029.72 298.24 1029.27 297.878 1028.93C297.516 1028.58 297.049 1028.41 296.478 1028.41C296.086 1028.41 295.72 1028.51 295.379 1028.72C295.042 1028.93 294.769 1029.22 294.561 1029.59C294.356 1029.96 294.254 1030.38 294.254 1030.86V1037H292.745ZM312.506 1037.2C311.56 1037.2 310.744 1037 310.058 1036.58C309.376 1036.16 308.85 1035.57 308.479 1034.81C308.113 1034.06 307.929 1033.17 307.929 1032.17C307.929 1031.16 308.113 1030.28 308.479 1029.51C308.85 1028.74 309.366 1028.14 310.026 1027.71C310.691 1027.27 311.466 1027.05 312.353 1027.05C312.864 1027.05 313.369 1027.14 313.868 1027.31C314.366 1027.48 314.82 1027.76 315.229 1028.14C315.638 1028.52 315.964 1029.02 316.207 1029.65C316.45 1030.28 316.572 1031.05 316.572 1031.96V1032.6H309.003V1031.3H315.037C315.037 1030.74 314.927 1030.25 314.705 1029.82C314.488 1029.38 314.177 1029.04 313.772 1028.79C313.371 1028.53 312.898 1028.41 312.353 1028.41C311.752 1028.41 311.232 1028.56 310.793 1028.86C310.358 1029.15 310.024 1029.53 309.79 1030.01C309.555 1030.48 309.438 1030.99 309.438 1031.53V1032.4C309.438 1033.14 309.566 1033.77 309.822 1034.28C310.081 1034.79 310.442 1035.18 310.902 1035.45C311.362 1035.72 311.897 1035.85 312.506 1035.85C312.902 1035.85 313.26 1035.79 313.58 1035.68C313.904 1035.57 314.183 1035.4 314.417 1035.17C314.652 1034.94 314.833 1034.66 314.961 1034.32L316.418 1034.72C316.265 1035.22 316.007 1035.65 315.645 1036.03C315.282 1036.4 314.835 1036.69 314.302 1036.9C313.77 1037.1 313.171 1037.2 312.506 1037.2Z" fill="black"/>
<rect x="199.923" y="1076" width="178.308" height="50" rx="15" fill="#0072BB"/>
<path d="M264.476 1092.95L267.992 1104.01H268.126L271.649 1092.95H275.058L270.044 1107.5H266.081L261.06 1092.95H264.476ZM279.884 1092.95V1107.5H276.809V1092.95H279.884ZM282.414 1107.5V1092.95H292.216V1095.49H285.49V1098.96H291.711V1101.49H285.49V1104.96H292.244V1107.5H282.414ZM297.935 1107.5L293.773 1092.95H297.132L299.54 1103.06H299.661L302.317 1092.95H305.193L307.842 1103.08H307.97L310.378 1092.95H313.737L309.575 1107.5H306.578L303.808 1097.99H303.695L300.932 1107.5H297.935Z" fill="white"/>
<path d="M23 83L30 74V79C41.953 79 43.332 88.678 43 94C42.498 91.315 42.265 87 30 87V92L23 83Z" stroke="black" stroke-width="2" stroke-linecap="round" stroke-linejoin="round"/>
<path d="M59.5362 94V73.6364H66.6555C68.0741 73.6364 69.2441 73.8816 70.1655 74.3722C71.0869 74.8561 71.773 75.509 72.2237 76.331C72.6745 77.1463 72.8999 78.0511 72.8999 79.0455C72.8999 79.9205 72.7441 80.643 72.4325 81.2131C72.1276 81.7831 71.7232 82.2339 71.2195 82.5653C70.7223 82.8968 70.1821 83.142 69.5987 83.3011V83.5C70.2218 83.5398 70.8482 83.7585 71.478 84.1562C72.1077 84.554 72.6347 85.1241 73.0589 85.8665C73.4832 86.6089 73.6953 87.517 73.6953 88.5909C73.6953 89.6117 73.4633 90.5298 72.9993 91.3452C72.5353 92.1605 71.8028 92.8068 70.8018 93.2841C69.8009 93.7614 68.4983 94 66.8942 94H59.5362ZM62.0021 91.8125H66.8942C68.505 91.8125 69.6484 91.5009 70.3246 90.8778C71.0073 90.2481 71.3487 89.4858 71.3487 88.5909C71.3487 87.9015 71.1731 87.2652 70.8217 86.6818C70.4704 86.0919 69.9699 85.6212 69.3203 85.2699C68.6707 84.9119 67.9018 84.733 67.0135 84.733H62.0021V91.8125ZM62.0021 82.5852H66.576C67.3184 82.5852 67.9879 82.4394 68.5845 82.1477C69.1877 81.8561 69.665 81.4451 70.0163 80.9148C70.3743 80.3845 70.5533 79.7614 70.5533 79.0455C70.5533 78.1506 70.2417 77.3916 69.6186 76.7685C68.9955 76.1387 68.0078 75.8239 66.6555 75.8239H62.0021V82.5852ZM81.9233 94.358C80.9555 94.358 80.0772 94.1757 79.2884 93.8111C78.4995 93.4399 77.8731 92.9062 77.4091 92.2102C76.9451 91.5076 76.7131 90.6591 76.7131 89.6648C76.7131 88.7898 76.8854 88.0805 77.2301 87.5369C77.5748 86.9867 78.0355 86.5559 78.6122 86.2443C79.1889 85.9328 79.8253 85.7008 80.5213 85.5483C81.224 85.3892 81.9299 85.2633 82.6392 85.1705C83.5672 85.0511 84.3196 84.9616 84.8963 84.902C85.4796 84.8357 85.9039 84.7263 86.169 84.5739C86.4408 84.4214 86.5767 84.1562 86.5767 83.7784V83.6989C86.5767 82.7178 86.3082 81.9555 85.7713 81.4119C85.241 80.8684 84.4356 80.5966 83.3551 80.5966C82.2348 80.5966 81.3565 80.8419 80.7202 81.3324C80.0838 81.8229 79.6364 82.3466 79.3778 82.9034L77.1506 82.108C77.5483 81.1799 78.0786 80.4574 78.7415 79.9403C79.411 79.4167 80.1402 79.0521 80.929 78.8466C81.7244 78.6345 82.5066 78.5284 83.2756 78.5284C83.7661 78.5284 84.3295 78.5881 84.9659 78.7074C85.6089 78.8201 86.2287 79.0554 86.8253 79.4134C87.4285 79.7713 87.929 80.3116 88.3267 81.0341C88.7244 81.7566 88.9233 82.7244 88.9233 83.9375V94H86.5767V91.9318H86.4574C86.2983 92.2633 86.0331 92.6179 85.6619 92.9957C85.2907 93.3736 84.7969 93.6951 84.1804 93.9602C83.5639 94.2254 82.8116 94.358 81.9233 94.358ZM82.2812 92.25C83.2093 92.25 83.9915 92.0677 84.6278 91.7031C85.2708 91.3385 85.7547 90.8679 86.0795 90.2912C86.411 89.7145 86.5767 89.108 86.5767 88.4716V86.3239C86.4773 86.4432 86.2585 86.5526 85.9205 86.652C85.589 86.7448 85.2045 86.8277 84.767 86.9006C84.3362 86.9669 83.9152 87.0265 83.5043 87.0795C83.0999 87.1259 82.7718 87.1657 82.5199 87.1989C81.91 87.2784 81.34 87.4077 80.8097 87.5866C80.286 87.759 79.8617 88.0208 79.5369 88.3722C79.2188 88.7169 79.0597 89.1875 79.0597 89.7841C79.0597 90.5994 79.3613 91.2159 79.9645 91.6335C80.5743 92.0445 81.3466 92.25 82.2812 92.25ZM99.4109 94.3182C97.979 94.3182 96.7461 93.9801 95.712 93.304C94.6779 92.6278 93.8825 91.6965 93.3256 90.5099C92.7688 89.3234 92.4904 87.9678 92.4904 86.4432C92.4904 84.892 92.7754 83.5232 93.3455 82.3366C93.9222 81.1435 94.7243 80.2121 95.7518 79.5426C96.7859 78.8665 97.9923 78.5284 99.3711 78.5284C100.445 78.5284 101.413 78.7273 102.275 79.125C103.136 79.5227 103.842 80.0795 104.392 80.7955C104.943 81.5114 105.284 82.3466 105.417 83.3011H103.07C102.891 82.6051 102.493 81.9886 101.877 81.4517C101.267 80.9081 100.445 80.6364 99.4109 80.6364C98.4961 80.6364 97.694 80.875 97.0046 81.3523C96.3219 81.8229 95.7882 82.4891 95.4038 83.3509C95.0259 84.206 94.837 85.2102 94.837 86.3636C94.837 87.5436 95.0226 88.571 95.3938 89.446C95.7717 90.321 96.302 91.0005 96.9847 91.4844C97.6741 91.9683 98.4828 92.2102 99.4109 92.2102C100.021 92.2102 100.574 92.1042 101.071 91.892C101.569 91.6799 101.989 91.375 102.334 90.9773C102.679 90.5795 102.924 90.1023 103.07 89.5455H105.417C105.284 90.447 104.956 91.259 104.432 91.9815C103.915 92.6974 103.229 93.2675 102.374 93.6918C101.525 94.1094 100.538 94.3182 99.4109 94.3182ZM111.034 88.4318L110.995 85.5284H111.472L118.154 78.7273H121.057L113.938 85.9261H113.739L111.034 88.4318ZM108.847 94V73.6364H111.194V94H108.847ZM118.551 94L112.586 86.4432L114.256 84.8125L121.534 94H118.551Z" fill="black"/>
<rect x="235" y="54" width="162" height="60" rx="15" fill="#FFBA49"/>
<path d="M293.777 92H289.822L295.848 74.5455H300.603L306.62 92H302.666L298.294 78.5341H298.157L293.777 92ZM293.53 85.1392H302.87V88.0199H293.53V85.1392ZM314.909 92H308.721V74.5455H314.96C316.716 74.5455 318.227 74.8949 319.494 75.5938C320.761 76.2869 321.735 77.2841 322.417 78.5852C323.105 79.8864 323.449 81.4432 323.449 83.2557C323.449 85.0739 323.105 86.6364 322.417 87.9432C321.735 89.25 320.755 90.2528 319.477 90.9517C318.204 91.6506 316.681 92 314.909 92ZM312.412 88.8381H314.755C315.846 88.8381 316.764 88.6449 317.508 88.2585C318.258 87.8665 318.821 87.2614 319.196 86.4432C319.576 85.6193 319.767 84.5568 319.767 83.2557C319.767 81.9659 319.576 80.9119 319.196 80.0938C318.821 79.2756 318.261 78.6733 317.517 78.2869C316.772 77.9006 315.855 77.7074 314.764 77.7074H312.412V88.8381ZM332.37 92H326.182V74.5455H332.421C334.177 74.5455 335.688 74.8949 336.955 75.5938C338.222 76.2869 339.196 77.2841 339.878 78.5852C340.566 79.8864 340.909 81.4432 340.909 83.2557C340.909 85.0739 340.566 86.6364 339.878 87.9432C339.196 89.25 338.216 90.2528 336.938 90.9517C335.665 91.6506 334.142 92 332.37 92ZM329.873 88.8381H332.216C333.307 88.8381 334.225 88.6449 334.969 88.2585C335.719 87.8665 336.282 87.2614 336.657 86.4432C337.037 85.6193 337.228 84.5568 337.228 83.2557C337.228 81.9659 337.037 80.9119 336.657 80.0938C336.282 79.2756 335.722 78.6733 334.978 78.2869C334.233 77.9006 333.316 77.7074 332.225 77.7074H329.873V88.8381Z" fill="white"/>
<defs>
<filter id="filter0_d_1_88" x="43.4231" y="159" width="138.212" height="125" filterUnits="userSpaceOnUse" color-interpolation-filters="sRGB">
<feFlood flood-opacity="0" result="BackgroundImageFix"/>
<feColorMatrix in="SourceAlpha" type="matrix" values="0 0 0 0 0 0 0 0 0 0 0 0 0 0 0 0 0 0 127 0" result="hardAlpha"/>
<feOffset dy="4"/>
<feGaussianBlur stdDeviation="2"/>
<feComposite in2="hardAlpha" operator="out"/>
<feColorMatrix type="matrix" values="0 0 0 0 0 0 0 0 0 0 0 0 0 0 0 0 0 0 0.25 0"/>
<feBlend mode="normal" in2="BackgroundImageFix" result="effect1_dropShadow_1_88"/>
<feBlend mode="normal" in="SourceGraphic" in2="effect1_dropShadow_1_88" result="shape"/>
</filter>
<filter id="filter1_d_1_88" x="43.4231" y="329" width="138.212" height="125" filterUnits="userSpaceOnUse" color-interpolation-filters="sRGB">
<feFlood flood-opacity="0" result="BackgroundImageFix"/>
<feColorMatrix in="SourceAlpha" type="matrix" values="0 0 0 0 0 0 0 0 0 0 0 0 0 0 0 0 0 0 127 0" result="hardAlpha"/>
<feOffset dy="4"/>
<feGaussianBlur stdDeviation="2"/>
<feComposite in2="hardAlpha" operator="out"/>
<feColorMatrix type="matrix" values="0 0 0 0 0 0 0 0 0 0 0 0 0 0 0 0 0 0 0.25 0"/>
<feBlend mode="normal" in2="BackgroundImageFix" result="effect1_dropShadow_1_88"/>
<feBlend mode="normal" in="SourceGraphic" in2="effect1_dropShadow_1_88" result="shape"/>
</filter>
<filter id="filter2_d_1_88" x="43.4231" y="499" width="138.212" height="125" filterUnits="userSpaceOnUse" color-interpolation-filters="sRGB">
<feFlood flood-opacity="0" result="BackgroundImageFix"/>
<feColorMatrix in="SourceAlpha" type="matrix" values="0 0 0 0 0 0 0 0 0 0 0 0 0 0 0 0 0 0 127 0" result="hardAlpha"/>
<feOffset dy="4"/>
<feGaussianBlur stdDeviation="2"/>
<feComposite in2="hardAlpha" operator="out"/>
<feColorMatrix type="matrix" values="0 0 0 0 0 0 0 0 0 0 0 0 0 0 0 0 0 0 0.25 0"/>
<feBlend mode="normal" in2="BackgroundImageFix" result="effect1_dropShadow_1_88"/>
<feBlend mode="normal" in="SourceGraphic" in2="effect1_dropShadow_1_88" result="shape"/>
</filter>
<filter id="filter3_d_1_88" x="43.4231" y="669" width="138.212" height="125" filterUnits="userSpaceOnUse" color-interpolation-filters="sRGB">
<feFlood flood-opacity="0" result="BackgroundImageFix"/>
<feColorMatrix in="SourceAlpha" type="matrix" values="0 0 0 0 0 0 0 0 0 0 0 0 0 0 0 0 0 0 127 0" result="hardAlpha"/>
<feOffset dy="4"/>
<feGaussianBlur stdDeviation="2"/>
<feComposite in2="hardAlpha" operator="out"/>
<feColorMatrix type="matrix" values="0 0 0 0 0 0 0 0 0 0 0 0 0 0 0 0 0 0 0.25 0"/>
<feBlend mode="normal" in2="BackgroundImageFix" result="effect1_dropShadow_1_88"/>
<feBlend mode="normal" in="SourceGraphic" in2="effect1_dropShadow_1_88" result="shape"/>
</filter>
<filter id="filter4_d_1_88" x="43.4231" y="839" width="138.212" height="125" filterUnits="userSpaceOnUse" color-interpolation-filters="sRGB">
<feFlood flood-opacity="0" result="BackgroundImageFix"/>
<feColorMatrix in="SourceAlpha" type="matrix" values="0 0 0 0 0 0 0 0 0 0 0 0 0 0 0 0 0 0 127 0" result="hardAlpha"/>
<feOffset dy="4"/>
<feGaussianBlur stdDeviation="2"/>
<feComposite in2="hardAlpha" operator="out"/>
<feColorMatrix type="matrix" values="0 0 0 0 0 0 0 0 0 0 0 0 0 0 0 0 0 0 0.25 0"/>
<feBlend mode="normal" in2="BackgroundImageFix" result="effect1_dropShadow_1_88"/>
<feBlend mode="normal" in="SourceGraphic" in2="effect1_dropShadow_1_88" result="shape"/>
</filter>
<filter id="filter5_d_1_88" x="43.4231" y="1009" width="138.212" height="125" filterUnits="userSpaceOnUse" color-interpolation-filters="sRGB">
<feFlood flood-opacity="0" result="BackgroundImageFix"/>
<feColorMatrix in="SourceAlpha" type="matrix" values="0 0 0 0 0 0 0 0 0 0 0 0 0 0 0 0 0 0 127 0" result="hardAlpha"/>
<feOffset dy="4"/>
<feGaussianBlur stdDeviation="2"/>
<feComposite in2="hardAlpha" operator="out"/>
<feColorMatrix type="matrix" values="0 0 0 0 0 0 0 0 0 0 0 0 0 0 0 0 0 0 0.25 0"/>
<feBlend mode="normal" in2="BackgroundImageFix" result="effect1_dropShadow_1_88"/>
<feBlend mode="normal" in="SourceGraphic" in2="effect1_dropShadow_1_88" result="shape"/>
</filter>
</defs>
</svg>
