<svg width="428" height="926" viewBox="0 0 428 926" fill="none" xmlns="http://www.w3.org/2000/svg">
<rect width="428" height="926" fill="white"/>
<mask id="path-1-inside-1_216_276" fill="white">
<path d="M0 429H428V567H0V429Z"/>
</mask>
<path d="M0 429H428V567H0V429Z" fill="white"/>
<path d="M0 430H428V428H0V430ZM428 566H0V568H428V566Z" fill="#E7E7E7" mask="url(#path-1-inside-1_216_276)"/>
<rect x="26.8229" y="461" width="75" height="73" rx="10" fill="#557CB1"/>
<path d="M51.9633 515L44.4633 482.8H49.8133L55.2633 506.95L61.3633 486.7V482.8H65.8133L72.6633 506.95L78.2133 482.8H83.5133L76.0633 515H70.7133L64.2633 492.45L57.4133 515H51.9633Z" fill="white"/>
<path d="M137.352 487L133.374 472.455H135.164L138.204 484.301H138.346L141.443 472.455H143.431L146.528 484.301H146.67L149.71 472.455H151.499L147.522 487H145.704L142.494 475.409H142.38L139.17 487H137.352ZM156.883 487.227C155.898 487.227 155.034 486.993 154.291 486.524C153.552 486.055 152.974 485.4 152.558 484.557C152.146 483.714 151.94 482.729 151.94 481.602C151.94 480.466 152.146 479.474 152.558 478.626C152.974 477.779 153.552 477.121 154.291 476.652C155.034 476.183 155.898 475.949 156.883 475.949C157.868 475.949 158.729 476.183 159.468 476.652C160.212 477.121 160.789 477.779 161.201 478.626C161.618 479.474 161.826 480.466 161.826 481.602C161.826 482.729 161.618 483.714 161.201 484.557C160.789 485.4 160.212 486.055 159.468 486.524C158.729 486.993 157.868 487.227 156.883 487.227ZM156.883 485.722C157.631 485.722 158.247 485.53 158.729 485.146C159.212 484.763 159.57 484.259 159.802 483.634C160.034 483.009 160.15 482.331 160.15 481.602C160.15 480.873 160.034 480.194 159.802 479.564C159.57 478.934 159.212 478.425 158.729 478.037C158.247 477.649 157.631 477.455 156.883 477.455C156.135 477.455 155.519 477.649 155.036 478.037C154.553 478.425 154.196 478.934 153.964 479.564C153.732 480.194 153.616 480.873 153.616 481.602C153.616 482.331 153.732 483.009 153.964 483.634C154.196 484.259 154.553 484.763 155.036 485.146C155.519 485.53 156.135 485.722 156.883 485.722ZM164.385 487V476.091H166.004V477.739H166.118C166.316 477.199 166.676 476.761 167.197 476.425C167.718 476.089 168.305 475.92 168.959 475.92C169.082 475.92 169.236 475.923 169.42 475.928C169.605 475.932 169.745 475.939 169.839 475.949V477.653C169.782 477.639 169.652 477.618 169.449 477.589C169.25 477.556 169.039 477.54 168.816 477.54C168.286 477.54 167.813 477.651 167.396 477.874C166.984 478.091 166.657 478.394 166.416 478.783C166.179 479.166 166.061 479.604 166.061 480.097V487H164.385ZM173.389 483.023L173.36 480.949H173.701L178.474 476.091H180.548L175.462 481.233H175.32L173.389 483.023ZM171.826 487V472.455H173.502V487H171.826ZM178.758 487L174.497 481.602L175.69 480.438L180.889 487H178.758Z" fill="black"/>
<path d="M134.357 523V511.364H135.766V521.75H141.176V523H134.357ZM143.176 523V514.273H144.516V523H143.176ZM143.857 512.818C143.596 512.818 143.371 512.729 143.181 512.551C142.996 512.373 142.903 512.159 142.903 511.909C142.903 511.659 142.996 511.445 143.181 511.267C143.371 511.089 143.596 511 143.857 511C144.119 511 144.342 511.089 144.528 511.267C144.717 511.445 144.812 511.659 144.812 511.909C144.812 512.159 144.717 512.373 144.528 512.551C144.342 512.729 144.119 512.818 143.857 512.818ZM150.495 526.455C149.847 526.455 149.291 526.371 148.825 526.205C148.359 526.042 147.97 525.826 147.66 525.557C147.353 525.292 147.109 525.008 146.927 524.705L147.995 523.955C148.116 524.114 148.27 524.295 148.455 524.5C148.641 524.708 148.895 524.888 149.217 525.04C149.542 525.195 149.969 525.273 150.495 525.273C151.2 525.273 151.781 525.102 152.239 524.761C152.698 524.42 152.927 523.886 152.927 523.159V521.386H152.813C152.715 521.545 152.575 521.742 152.393 521.977C152.215 522.208 151.957 522.415 151.62 522.597C151.287 522.775 150.836 522.864 150.268 522.864C149.563 522.864 148.931 522.697 148.37 522.364C147.813 522.03 147.372 521.545 147.046 520.909C146.724 520.273 146.563 519.5 146.563 518.591C146.563 517.697 146.72 516.919 147.035 516.256C147.349 515.589 147.787 515.074 148.347 514.71C148.908 514.343 149.556 514.159 150.291 514.159C150.859 514.159 151.31 514.254 151.643 514.443C151.98 514.629 152.238 514.841 152.416 515.08C152.597 515.314 152.738 515.508 152.836 515.659H152.972V514.273H154.268V523.25C154.268 524 154.097 524.61 153.756 525.08C153.419 525.553 152.965 525.9 152.393 526.119C151.825 526.343 151.192 526.455 150.495 526.455ZM150.45 521.659C150.988 521.659 151.442 521.536 151.813 521.29C152.185 521.044 152.467 520.689 152.66 520.227C152.853 519.765 152.95 519.212 152.95 518.568C152.95 517.939 152.855 517.384 152.666 516.903C152.476 516.422 152.196 516.045 151.825 515.773C151.453 515.5 150.995 515.364 150.45 515.364C149.881 515.364 149.408 515.508 149.029 515.795C148.654 516.083 148.372 516.47 148.183 516.955C147.997 517.439 147.904 517.977 147.904 518.568C147.904 519.174 147.999 519.71 148.188 520.176C148.381 520.638 148.666 521.002 149.041 521.267C149.419 521.528 149.889 521.659 150.45 521.659ZM158.063 517.75V523H156.722V511.364H158.063V515.636H158.177C158.381 515.186 158.688 514.828 159.097 514.562C159.51 514.294 160.06 514.159 160.745 514.159C161.34 514.159 161.861 514.278 162.308 514.517C162.755 514.752 163.101 515.114 163.347 515.602C163.597 516.087 163.722 516.705 163.722 517.455V523H162.381V517.545C162.381 516.852 162.202 516.316 161.842 515.938C161.486 515.555 160.991 515.364 160.359 515.364C159.919 515.364 159.525 515.456 159.177 515.642C158.832 515.828 158.56 516.098 158.359 516.455C158.162 516.811 158.063 517.242 158.063 517.75ZM169.971 514.273V515.409H165.448V514.273H169.971ZM166.766 512.182H168.107V520.5C168.107 520.879 168.162 521.163 168.272 521.352C168.386 521.538 168.53 521.663 168.704 521.727C168.882 521.788 169.069 521.818 169.266 521.818C169.414 521.818 169.535 521.811 169.63 521.795C169.725 521.777 169.801 521.761 169.857 521.75L170.13 522.955C170.039 522.989 169.912 523.023 169.749 523.057C169.587 523.095 169.38 523.114 169.13 523.114C168.751 523.114 168.38 523.032 168.016 522.869C167.657 522.706 167.357 522.458 167.119 522.125C166.884 521.792 166.766 521.371 166.766 520.864V512.182ZM178.014 516.227L176.809 516.568C176.733 516.367 176.622 516.172 176.474 515.983C176.33 515.79 176.133 515.631 175.883 515.506C175.633 515.381 175.313 515.318 174.923 515.318C174.389 515.318 173.944 515.441 173.587 515.688C173.235 515.93 173.059 516.239 173.059 516.614C173.059 516.947 173.18 517.21 173.423 517.403C173.665 517.597 174.044 517.758 174.559 517.886L175.854 518.205C176.635 518.394 177.216 518.684 177.599 519.074C177.981 519.46 178.173 519.958 178.173 520.568C178.173 521.068 178.029 521.515 177.741 521.909C177.457 522.303 177.059 522.614 176.548 522.841C176.036 523.068 175.442 523.182 174.764 523.182C173.873 523.182 173.137 522.989 172.553 522.602C171.97 522.216 171.601 521.652 171.445 520.909L172.718 520.591C172.839 521.061 173.069 521.413 173.406 521.648C173.747 521.883 174.192 522 174.741 522C175.366 522 175.862 521.867 176.229 521.602C176.601 521.333 176.786 521.011 176.786 520.636C176.786 520.333 176.68 520.08 176.468 519.875C176.256 519.667 175.93 519.511 175.491 519.409L174.036 519.068C173.237 518.879 172.65 518.585 172.275 518.188C171.904 517.786 171.718 517.284 171.718 516.682C171.718 516.189 171.856 515.754 172.133 515.375C172.413 514.996 172.794 514.699 173.275 514.483C173.76 514.267 174.309 514.159 174.923 514.159C175.786 514.159 176.464 514.348 176.957 514.727C177.453 515.106 177.805 515.606 178.014 516.227ZM182.191 521.409L182.1 522.023C182.036 522.455 181.937 522.917 181.805 523.409C181.676 523.902 181.542 524.366 181.401 524.801C181.261 525.237 181.146 525.583 181.055 525.841H180.032C180.081 525.598 180.146 525.278 180.225 524.881C180.305 524.483 180.384 524.038 180.464 523.545C180.547 523.057 180.615 522.557 180.668 522.045L180.737 521.409H182.191ZM198.721 515H197.312C197.229 514.595 197.083 514.239 196.874 513.932C196.67 513.625 196.42 513.367 196.124 513.159C195.833 512.947 195.509 512.788 195.153 512.682C194.797 512.576 194.426 512.523 194.039 512.523C193.335 512.523 192.696 512.701 192.124 513.057C191.556 513.413 191.104 513.938 190.766 514.631C190.433 515.324 190.266 516.174 190.266 517.182C190.266 518.189 190.433 519.04 190.766 519.733C191.104 520.426 191.556 520.951 192.124 521.307C192.696 521.663 193.335 521.841 194.039 521.841C194.426 521.841 194.797 521.788 195.153 521.682C195.509 521.576 195.833 521.419 196.124 521.21C196.42 520.998 196.67 520.739 196.874 520.432C197.083 520.121 197.229 519.765 197.312 519.364H198.721C198.615 519.958 198.422 520.491 198.141 520.96C197.861 521.43 197.513 521.83 197.096 522.159C196.679 522.485 196.212 522.733 195.693 522.903C195.177 523.074 194.626 523.159 194.039 523.159C193.047 523.159 192.164 522.917 191.391 522.432C190.619 521.947 190.011 521.258 189.568 520.364C189.124 519.47 188.903 518.409 188.903 517.182C188.903 515.955 189.124 514.894 189.568 514C190.011 513.106 190.619 512.417 191.391 511.932C192.164 511.447 193.047 511.205 194.039 511.205C194.626 511.205 195.177 511.29 195.693 511.46C196.212 511.631 196.679 511.881 197.096 512.21C197.513 512.536 197.861 512.934 198.141 513.403C198.422 513.869 198.615 514.402 198.721 515ZM204.362 523.182C203.574 523.182 202.882 522.994 202.288 522.619C201.697 522.244 201.235 521.72 200.901 521.045C200.572 520.371 200.407 519.583 200.407 518.682C200.407 517.773 200.572 516.979 200.901 516.301C201.235 515.623 201.697 515.097 202.288 514.722C202.882 514.347 203.574 514.159 204.362 514.159C205.149 514.159 205.839 514.347 206.43 514.722C207.024 515.097 207.487 515.623 207.816 516.301C208.149 516.979 208.316 517.773 208.316 518.682C208.316 519.583 208.149 520.371 207.816 521.045C207.487 521.72 207.024 522.244 206.43 522.619C205.839 522.994 205.149 523.182 204.362 523.182ZM204.362 521.977C204.96 521.977 205.453 521.824 205.839 521.517C206.225 521.21 206.511 520.807 206.697 520.307C206.882 519.807 206.975 519.265 206.975 518.682C206.975 518.098 206.882 517.555 206.697 517.051C206.511 516.547 206.225 516.14 205.839 515.83C205.453 515.519 204.96 515.364 204.362 515.364C203.763 515.364 203.271 515.519 202.884 515.83C202.498 516.14 202.212 516.547 202.026 517.051C201.841 517.555 201.748 518.098 201.748 518.682C201.748 519.265 201.841 519.807 202.026 520.307C202.212 520.807 202.498 521.21 202.884 521.517C203.271 521.824 203.763 521.977 204.362 521.977ZM214.249 514.273V515.409H209.545V514.273H214.249ZM210.954 523V513.068C210.954 512.568 211.071 512.152 211.306 511.818C211.541 511.485 211.846 511.235 212.221 511.068C212.596 510.902 212.992 510.818 213.408 510.818C213.738 510.818 214.007 510.845 214.215 510.898C214.424 510.951 214.579 511 214.681 511.045L214.295 512.205C214.227 512.182 214.132 512.153 214.011 512.119C213.893 512.085 213.738 512.068 213.545 512.068C213.102 512.068 212.782 512.18 212.585 512.403C212.391 512.627 212.295 512.955 212.295 513.386V523H210.954ZM220.015 514.273V515.409H215.31V514.273H220.015ZM216.72 523V513.068C216.72 512.568 216.837 512.152 217.072 511.818C217.307 511.485 217.612 511.235 217.987 511.068C218.362 510.902 218.757 510.818 219.174 510.818C219.504 510.818 219.773 510.845 219.981 510.898C220.189 510.951 220.345 511 220.447 511.045L220.06 512.205C219.992 512.182 219.898 512.153 219.776 512.119C219.659 512.085 219.504 512.068 219.31 512.068C218.867 512.068 218.547 512.18 218.35 512.403C218.157 512.627 218.06 512.955 218.06 513.386V523H216.72ZM225.194 523.182C224.353 523.182 223.628 522.996 223.018 522.625C222.412 522.25 221.944 521.727 221.614 521.057C221.289 520.383 221.126 519.598 221.126 518.705C221.126 517.811 221.289 517.023 221.614 516.341C221.944 515.655 222.402 515.121 222.989 514.739C223.58 514.352 224.27 514.159 225.058 514.159C225.512 514.159 225.961 514.235 226.404 514.386C226.847 514.538 227.251 514.784 227.614 515.125C227.978 515.462 228.268 515.909 228.484 516.466C228.7 517.023 228.808 517.708 228.808 518.523V519.091H222.08V517.932H227.444C227.444 517.439 227.345 517 227.149 516.614C226.955 516.227 226.679 515.922 226.319 515.699C225.963 515.475 225.542 515.364 225.058 515.364C224.524 515.364 224.061 515.496 223.671 515.761C223.285 516.023 222.988 516.364 222.779 516.784C222.571 517.205 222.467 517.655 222.467 518.136V518.909C222.467 519.568 222.58 520.127 222.808 520.585C223.039 521.04 223.359 521.386 223.768 521.625C224.177 521.86 224.652 521.977 225.194 521.977C225.546 521.977 225.864 521.928 226.149 521.83C226.436 521.727 226.685 521.576 226.893 521.375C227.101 521.17 227.262 520.917 227.376 520.614L228.671 520.977C228.535 521.417 228.306 521.803 227.984 522.136C227.662 522.466 227.264 522.723 226.791 522.909C226.317 523.091 225.785 523.182 225.194 523.182ZM234.506 523.182C233.666 523.182 232.94 522.996 232.33 522.625C231.724 522.25 231.256 521.727 230.927 521.057C230.601 520.383 230.438 519.598 230.438 518.705C230.438 517.811 230.601 517.023 230.927 516.341C231.256 515.655 231.715 515.121 232.302 514.739C232.893 514.352 233.582 514.159 234.37 514.159C234.825 514.159 235.274 514.235 235.717 514.386C236.16 514.538 236.563 514.784 236.927 515.125C237.291 515.462 237.58 515.909 237.796 516.466C238.012 517.023 238.12 517.708 238.12 518.523V519.091H231.393V517.932H236.756C236.756 517.439 236.658 517 236.461 516.614C236.268 516.227 235.991 515.922 235.631 515.699C235.275 515.475 234.855 515.364 234.37 515.364C233.836 515.364 233.374 515.496 232.984 515.761C232.597 516.023 232.3 516.364 232.092 516.784C231.883 517.205 231.779 517.655 231.779 518.136V518.909C231.779 519.568 231.893 520.127 232.12 520.585C232.351 521.04 232.671 521.386 233.08 521.625C233.489 521.86 233.965 521.977 234.506 521.977C234.859 521.977 235.177 521.928 235.461 521.83C235.749 521.727 235.997 521.576 236.205 521.375C236.414 521.17 236.575 520.917 236.688 520.614L237.984 520.977C237.847 521.417 237.618 521.803 237.296 522.136C236.974 522.466 236.577 522.723 236.103 522.909C235.63 523.091 235.097 523.182 234.506 523.182ZM244.66 523V514.273H245.955V515.636H246.069C246.251 515.17 246.544 514.809 246.95 514.551C247.355 514.29 247.842 514.159 248.41 514.159C248.986 514.159 249.465 514.29 249.847 514.551C250.234 514.809 250.535 515.17 250.751 515.636H250.842C251.065 515.186 251.4 514.828 251.847 514.562C252.294 514.294 252.83 514.159 253.455 514.159C254.236 514.159 254.874 514.403 255.37 514.892C255.866 515.377 256.114 516.133 256.114 517.159V523H254.774V517.159C254.774 516.515 254.597 516.055 254.245 515.778C253.893 515.502 253.478 515.364 253.001 515.364C252.387 515.364 251.912 515.549 251.575 515.92C251.238 516.288 251.069 516.754 251.069 517.318V523H249.705V517.023C249.705 516.527 249.544 516.127 249.222 515.824C248.9 515.517 248.486 515.364 247.978 515.364C247.63 515.364 247.304 515.456 247.001 515.642C246.702 515.828 246.459 516.085 246.274 516.415C246.092 516.741 246.001 517.117 246.001 517.545V523H244.66ZM261.134 523.205C260.581 523.205 260.079 523.1 259.629 522.892C259.178 522.68 258.82 522.375 258.555 521.977C258.29 521.576 258.157 521.091 258.157 520.523C258.157 520.023 258.256 519.617 258.453 519.307C258.649 518.992 258.913 518.746 259.242 518.568C259.572 518.39 259.935 518.258 260.333 518.17C260.735 518.08 261.138 518.008 261.543 517.955C262.074 517.886 262.504 517.835 262.833 517.801C263.167 517.763 263.409 517.701 263.56 517.614C263.716 517.527 263.793 517.375 263.793 517.159V517.114C263.793 516.553 263.64 516.117 263.333 515.807C263.03 515.496 262.57 515.341 261.953 515.341C261.312 515.341 260.81 515.481 260.447 515.761C260.083 516.042 259.828 516.341 259.68 516.659L258.407 516.205C258.634 515.674 258.937 515.261 259.316 514.966C259.699 514.667 260.115 514.458 260.566 514.341C261.021 514.22 261.468 514.159 261.907 514.159C262.187 514.159 262.509 514.193 262.873 514.261C263.24 514.326 263.595 514.46 263.935 514.665C264.28 514.869 264.566 515.178 264.793 515.591C265.021 516.004 265.134 516.557 265.134 517.25V523H263.793V521.818H263.725C263.634 522.008 263.483 522.21 263.271 522.426C263.059 522.642 262.776 522.826 262.424 522.977C262.072 523.129 261.642 523.205 261.134 523.205ZM261.339 522C261.869 522 262.316 521.896 262.68 521.688C263.047 521.479 263.324 521.21 263.509 520.881C263.699 520.551 263.793 520.205 263.793 519.841V518.614C263.737 518.682 263.612 518.744 263.418 518.801C263.229 518.854 263.009 518.902 262.759 518.943C262.513 518.981 262.273 519.015 262.038 519.045C261.807 519.072 261.619 519.095 261.475 519.114C261.127 519.159 260.801 519.233 260.498 519.335C260.199 519.434 259.956 519.583 259.771 519.784C259.589 519.981 259.498 520.25 259.498 520.591C259.498 521.057 259.67 521.409 260.015 521.648C260.363 521.883 260.805 522 261.339 522ZM268.832 519.818L268.809 518.159H269.082L272.9 514.273H274.559L270.491 518.386H270.377L268.832 519.818ZM267.582 523V511.364H268.923V523H267.582ZM273.127 523L269.718 518.682L270.673 517.75L274.832 523H273.127ZM279.585 523.182C278.744 523.182 278.018 522.996 277.408 522.625C276.802 522.25 276.335 521.727 276.005 521.057C275.679 520.383 275.516 519.598 275.516 518.705C275.516 517.811 275.679 517.023 276.005 516.341C276.335 515.655 276.793 515.121 277.38 514.739C277.971 514.352 278.66 514.159 279.448 514.159C279.903 514.159 280.352 514.235 280.795 514.386C281.238 514.538 281.641 514.784 282.005 515.125C282.369 515.462 282.658 515.909 282.874 516.466C283.09 517.023 283.198 517.708 283.198 518.523V519.091H276.471V517.932H281.835C281.835 517.439 281.736 517 281.539 516.614C281.346 516.227 281.069 515.922 280.71 515.699C280.354 515.475 279.933 515.364 279.448 515.364C278.914 515.364 278.452 515.496 278.062 515.761C277.676 516.023 277.378 516.364 277.17 516.784C276.961 517.205 276.857 517.655 276.857 518.136V518.909C276.857 519.568 276.971 520.127 277.198 520.585C277.429 521.04 277.749 521.386 278.158 521.625C278.568 521.86 279.043 521.977 279.585 521.977C279.937 521.977 280.255 521.928 280.539 521.83C280.827 521.727 281.075 521.576 281.283 521.375C281.492 521.17 281.653 520.917 281.766 520.614L283.062 520.977C282.926 521.417 282.696 521.803 282.374 522.136C282.052 522.466 281.655 522.723 281.181 522.909C280.708 523.091 280.176 523.182 279.585 523.182ZM285.238 523V514.273H286.533V515.591H286.624C286.783 515.159 287.071 514.809 287.488 514.54C287.905 514.271 288.374 514.136 288.897 514.136C288.996 514.136 289.119 514.138 289.266 514.142C289.414 514.146 289.526 514.152 289.602 514.159V515.523C289.556 515.511 289.452 515.494 289.289 515.472C289.13 515.445 288.962 515.432 288.783 515.432C288.359 515.432 287.98 515.521 287.647 515.699C287.318 515.873 287.056 516.116 286.863 516.426C286.674 516.733 286.579 517.083 286.579 517.477V523H285.238Z" fill="#A4A4A4"/>
<mask id="path-7-inside-2_216_276" fill="white">
<path d="M0 156H428V294H0V156Z"/>
</mask>
<path d="M0 156H428V294H0V156Z" fill="white"/>
<path d="M0 157H428V155H0V157ZM428 293H0V295H428V293Z" fill="#E7E7E7" mask="url(#path-7-inside-2_216_276)"/>
<rect x="26.8229" y="188" width="75" height="73" rx="10" fill="#0072BB"/>
<path d="M50.6017 242V209.8H56.0517V223.8H71.5517V209.8H77.0017V242H71.5517V228H56.0517V242H50.6017Z" fill="white"/>
<path d="M134.71 214V199.455H136.471V205.932H144.227V199.455H145.988V214H144.227V207.494H136.471V214H134.71ZM153.719 214.227C152.734 214.227 151.87 213.993 151.127 213.524C150.388 213.055 149.81 212.4 149.394 211.557C148.982 210.714 148.776 209.729 148.776 208.602C148.776 207.466 148.982 206.474 149.394 205.626C149.81 204.779 150.388 204.121 151.127 203.652C151.87 203.183 152.734 202.949 153.719 202.949C154.704 202.949 155.565 203.183 156.304 203.652C157.047 204.121 157.625 204.779 158.037 205.626C158.454 206.474 158.662 207.466 158.662 208.602C158.662 209.729 158.454 210.714 158.037 211.557C157.625 212.4 157.047 213.055 156.304 213.524C155.565 213.993 154.704 214.227 153.719 214.227ZM153.719 212.722C154.467 212.722 155.082 212.53 155.565 212.146C156.048 211.763 156.406 211.259 156.638 210.634C156.87 210.009 156.986 209.331 156.986 208.602C156.986 207.873 156.87 207.194 156.638 206.564C156.406 205.934 156.048 205.425 155.565 205.037C155.082 204.649 154.467 204.455 153.719 204.455C152.971 204.455 152.355 204.649 151.872 205.037C151.389 205.425 151.032 205.934 150.8 206.564C150.568 207.194 150.452 207.873 150.452 208.602C150.452 209.331 150.568 210.009 150.8 210.634C151.032 211.259 151.389 211.763 151.872 212.146C152.355 212.53 152.971 212.722 153.719 212.722ZM161.221 214V203.091H162.84V204.795H162.982C163.209 204.213 163.576 203.761 164.083 203.439C164.589 203.112 165.198 202.949 165.908 202.949C166.628 202.949 167.227 203.112 167.705 203.439C168.188 203.761 168.564 204.213 168.834 204.795H168.948C169.227 204.232 169.646 203.785 170.205 203.453C170.764 203.117 171.434 202.949 172.215 202.949C173.19 202.949 173.988 203.254 174.608 203.865C175.229 204.471 175.539 205.416 175.539 206.699V214H173.863V206.699C173.863 205.894 173.642 205.319 173.202 204.973C172.762 204.627 172.243 204.455 171.647 204.455C170.88 204.455 170.285 204.687 169.864 205.151C169.443 205.61 169.232 206.192 169.232 206.898V214H167.527V206.528C167.527 205.908 167.326 205.409 166.924 205.03C166.521 204.646 166.003 204.455 165.368 204.455C164.933 204.455 164.526 204.571 164.147 204.803C163.773 205.035 163.47 205.357 163.238 205.768C163.01 206.176 162.897 206.647 162.897 207.182V214H161.221ZM183.177 214.227C182.126 214.227 181.219 213.995 180.457 213.531C179.7 213.062 179.115 212.409 178.703 211.571C178.296 210.728 178.092 209.748 178.092 208.631C178.092 207.513 178.296 206.528 178.703 205.676C179.115 204.819 179.688 204.152 180.422 203.673C181.16 203.19 182.022 202.949 183.007 202.949C183.575 202.949 184.136 203.044 184.69 203.233C185.244 203.422 185.748 203.73 186.203 204.156C186.657 204.578 187.02 205.136 187.29 205.832C187.559 206.528 187.694 207.385 187.694 208.403V209.114H179.285V207.665H185.99C185.99 207.049 185.867 206.5 185.62 206.017C185.379 205.534 185.033 205.153 184.584 204.874C184.138 204.594 183.613 204.455 183.007 204.455C182.339 204.455 181.762 204.62 181.274 204.952C180.791 205.278 180.419 205.705 180.159 206.23C179.898 206.756 179.768 207.319 179.768 207.92V208.886C179.768 209.71 179.91 210.409 180.194 210.982C180.483 211.55 180.883 211.983 181.395 212.281C181.906 212.575 182.5 212.722 183.177 212.722C183.618 212.722 184.015 212.66 184.37 212.537C184.73 212.409 185.04 212.22 185.301 211.969C185.561 211.713 185.763 211.396 185.905 211.017L187.524 211.472C187.353 212.021 187.067 212.504 186.665 212.92C186.262 213.332 185.765 213.654 185.173 213.886C184.581 214.114 183.916 214.227 183.177 214.227Z" fill="black"/>
<path d="M134.357 250V238.364H138.289C139.198 238.364 139.944 238.519 140.528 238.83C141.111 239.136 141.543 239.559 141.823 240.097C142.104 240.634 142.244 241.246 142.244 241.932C142.244 242.617 142.104 243.225 141.823 243.756C141.543 244.286 141.113 244.703 140.533 245.006C139.954 245.305 139.213 245.455 138.312 245.455H135.13V244.182H138.266C138.888 244.182 139.388 244.091 139.766 243.909C140.149 243.727 140.426 243.47 140.596 243.136C140.77 242.799 140.857 242.398 140.857 241.932C140.857 241.466 140.77 241.059 140.596 240.71C140.422 240.362 140.143 240.093 139.761 239.903C139.378 239.71 138.872 239.614 138.244 239.614H135.766V250H134.357ZM139.835 244.773L142.698 250H141.062L138.244 244.773H139.835ZM147.975 250.182C147.134 250.182 146.409 249.996 145.799 249.625C145.193 249.25 144.725 248.727 144.396 248.057C144.07 247.383 143.907 246.598 143.907 245.705C143.907 244.811 144.07 244.023 144.396 243.341C144.725 242.655 145.184 242.121 145.771 241.739C146.362 241.352 147.051 241.159 147.839 241.159C148.293 241.159 148.742 241.235 149.185 241.386C149.629 241.538 150.032 241.784 150.396 242.125C150.759 242.462 151.049 242.909 151.265 243.466C151.481 244.023 151.589 244.708 151.589 245.523V246.091H144.862V244.932H150.225C150.225 244.439 150.127 244 149.93 243.614C149.737 243.227 149.46 242.922 149.1 242.699C148.744 242.475 148.324 242.364 147.839 242.364C147.305 242.364 146.843 242.496 146.453 242.761C146.066 243.023 145.769 243.364 145.56 243.784C145.352 244.205 145.248 244.655 145.248 245.136V245.909C145.248 246.568 145.362 247.127 145.589 247.585C145.82 248.04 146.14 248.386 146.549 248.625C146.958 248.86 147.434 248.977 147.975 248.977C148.328 248.977 148.646 248.928 148.93 248.83C149.218 248.727 149.466 248.576 149.674 248.375C149.882 248.17 150.043 247.917 150.157 247.614L151.453 247.977C151.316 248.417 151.087 248.803 150.765 249.136C150.443 249.466 150.045 249.723 149.572 249.909C149.098 250.091 148.566 250.182 147.975 250.182ZM157.515 241.273V242.409H152.81V241.273H157.515ZM154.22 250V240.068C154.22 239.568 154.337 239.152 154.572 238.818C154.807 238.485 155.112 238.235 155.487 238.068C155.862 237.902 156.257 237.818 156.674 237.818C157.004 237.818 157.273 237.845 157.481 237.898C157.689 237.951 157.845 238 157.947 238.045L157.56 239.205C157.492 239.182 157.398 239.153 157.276 239.119C157.159 239.085 157.004 239.068 156.81 239.068C156.367 239.068 156.047 239.18 155.85 239.403C155.657 239.627 155.56 239.955 155.56 240.386V250H154.22ZM159.394 250V241.273H160.69V242.591H160.781C160.94 242.159 161.228 241.809 161.644 241.54C162.061 241.271 162.531 241.136 163.053 241.136C163.152 241.136 163.275 241.138 163.423 241.142C163.57 241.146 163.682 241.152 163.758 241.159V242.523C163.712 242.511 163.608 242.494 163.445 242.472C163.286 242.445 163.118 242.432 162.94 242.432C162.515 242.432 162.137 242.521 161.803 242.699C161.474 242.873 161.212 243.116 161.019 243.426C160.83 243.733 160.735 244.083 160.735 244.477V250H159.394ZM165.347 250V241.273H166.688V250H165.347ZM166.029 239.818C165.768 239.818 165.542 239.729 165.353 239.551C165.167 239.373 165.075 239.159 165.075 238.909C165.075 238.659 165.167 238.445 165.353 238.267C165.542 238.089 165.768 238 166.029 238C166.291 238 166.514 238.089 166.7 238.267C166.889 238.445 166.984 238.659 166.984 238.909C166.984 239.159 166.889 239.373 166.7 239.551C166.514 239.729 166.291 239.818 166.029 239.818ZM172.667 253.455C172.019 253.455 171.462 253.371 170.997 253.205C170.531 253.042 170.142 252.826 169.832 252.557C169.525 252.292 169.281 252.008 169.099 251.705L170.167 250.955C170.288 251.114 170.442 251.295 170.627 251.5C170.813 251.708 171.067 251.888 171.389 252.04C171.714 252.195 172.14 252.273 172.667 252.273C173.372 252.273 173.953 252.102 174.411 251.761C174.87 251.42 175.099 250.886 175.099 250.159V248.386H174.985C174.887 248.545 174.747 248.742 174.565 248.977C174.387 249.208 174.129 249.415 173.792 249.597C173.459 249.775 173.008 249.864 172.44 249.864C171.735 249.864 171.103 249.697 170.542 249.364C169.985 249.03 169.544 248.545 169.218 247.909C168.896 247.273 168.735 246.5 168.735 245.591C168.735 244.697 168.892 243.919 169.207 243.256C169.521 242.589 169.959 242.074 170.519 241.71C171.08 241.343 171.728 241.159 172.462 241.159C173.031 241.159 173.481 241.254 173.815 241.443C174.152 241.629 174.409 241.841 174.587 242.08C174.769 242.314 174.909 242.508 175.008 242.659H175.144V241.273H176.44V250.25C176.44 251 176.269 251.61 175.928 252.08C175.591 252.553 175.137 252.9 174.565 253.119C173.997 253.343 173.364 253.455 172.667 253.455ZM172.622 248.659C173.159 248.659 173.614 248.536 173.985 248.29C174.356 248.044 174.639 247.689 174.832 247.227C175.025 246.765 175.122 246.212 175.122 245.568C175.122 244.939 175.027 244.384 174.837 243.903C174.648 243.422 174.368 243.045 173.997 242.773C173.625 242.5 173.167 242.364 172.622 242.364C172.053 242.364 171.58 242.508 171.201 242.795C170.826 243.083 170.544 243.47 170.354 243.955C170.169 244.439 170.076 244.977 170.076 245.568C170.076 246.174 170.171 246.71 170.36 247.176C170.553 247.638 170.837 248.002 171.212 248.267C171.591 248.528 172.061 248.659 172.622 248.659ZM182.553 250.182C181.712 250.182 180.987 249.996 180.377 249.625C179.771 249.25 179.303 248.727 178.974 248.057C178.648 247.383 178.485 246.598 178.485 245.705C178.485 244.811 178.648 244.023 178.974 243.341C179.303 242.655 179.762 242.121 180.349 241.739C180.94 241.352 181.629 241.159 182.417 241.159C182.872 241.159 183.32 241.235 183.764 241.386C184.207 241.538 184.61 241.784 184.974 242.125C185.337 242.462 185.627 242.909 185.843 243.466C186.059 244.023 186.167 244.708 186.167 245.523V246.091H179.44V244.932H184.803C184.803 244.439 184.705 244 184.508 243.614C184.315 243.227 184.038 242.922 183.678 242.699C183.322 242.475 182.902 242.364 182.417 242.364C181.883 242.364 181.421 242.496 181.031 242.761C180.644 243.023 180.347 243.364 180.139 243.784C179.93 244.205 179.826 244.655 179.826 245.136V245.909C179.826 246.568 179.94 247.127 180.167 247.585C180.398 248.04 180.718 248.386 181.127 248.625C181.536 248.86 182.012 248.977 182.553 248.977C182.906 248.977 183.224 248.928 183.508 248.83C183.796 248.727 184.044 248.576 184.252 248.375C184.461 248.17 184.622 247.917 184.735 247.614L186.031 247.977C185.894 248.417 185.665 248.803 185.343 249.136C185.021 249.466 184.623 249.723 184.15 249.909C183.676 250.091 183.144 250.182 182.553 250.182ZM188.207 250V241.273H189.502V242.591H189.593C189.752 242.159 190.04 241.809 190.457 241.54C190.873 241.271 191.343 241.136 191.866 241.136C191.964 241.136 192.087 241.138 192.235 241.142C192.383 241.146 192.495 241.152 192.57 241.159V242.523C192.525 242.511 192.421 242.494 192.258 242.472C192.099 242.445 191.93 242.432 191.752 242.432C191.328 242.432 190.949 242.521 190.616 242.699C190.286 242.873 190.025 243.116 189.832 243.426C189.642 243.733 189.548 244.083 189.548 244.477V250H188.207ZM196.728 250.205C196.175 250.205 195.673 250.1 195.222 249.892C194.772 249.68 194.414 249.375 194.149 248.977C193.883 248.576 193.751 248.091 193.751 247.523C193.751 247.023 193.849 246.617 194.046 246.307C194.243 245.992 194.506 245.746 194.836 245.568C195.166 245.39 195.529 245.258 195.927 245.17C196.328 245.08 196.732 245.008 197.137 244.955C197.667 244.886 198.097 244.835 198.427 244.801C198.76 244.763 199.003 244.701 199.154 244.614C199.31 244.527 199.387 244.375 199.387 244.159V244.114C199.387 243.553 199.234 243.117 198.927 242.807C198.624 242.496 198.164 242.341 197.546 242.341C196.906 242.341 196.404 242.481 196.041 242.761C195.677 243.042 195.421 243.341 195.274 243.659L194.001 243.205C194.228 242.674 194.531 242.261 194.91 241.966C195.292 241.667 195.709 241.458 196.16 241.341C196.614 241.22 197.061 241.159 197.501 241.159C197.781 241.159 198.103 241.193 198.467 241.261C198.834 241.326 199.188 241.46 199.529 241.665C199.874 241.869 200.16 242.178 200.387 242.591C200.614 243.004 200.728 243.557 200.728 244.25V250H199.387V248.818H199.319C199.228 249.008 199.077 249.21 198.864 249.426C198.652 249.642 198.37 249.826 198.018 249.977C197.666 250.129 197.236 250.205 196.728 250.205ZM196.933 249C197.463 249 197.91 248.896 198.274 248.688C198.641 248.479 198.917 248.21 199.103 247.881C199.292 247.551 199.387 247.205 199.387 246.841V245.614C199.33 245.682 199.205 245.744 199.012 245.801C198.823 245.854 198.603 245.902 198.353 245.943C198.107 245.981 197.866 246.015 197.631 246.045C197.4 246.072 197.213 246.095 197.069 246.114C196.72 246.159 196.395 246.233 196.092 246.335C195.792 246.434 195.55 246.583 195.364 246.784C195.183 246.981 195.092 247.25 195.092 247.591C195.092 248.057 195.264 248.409 195.609 248.648C195.957 248.883 196.399 249 196.933 249ZM206.971 241.273V242.409H202.448V241.273H206.971ZM203.766 239.182H205.107V247.5C205.107 247.879 205.162 248.163 205.272 248.352C205.386 248.538 205.53 248.663 205.704 248.727C205.882 248.788 206.069 248.818 206.266 248.818C206.414 248.818 206.535 248.811 206.63 248.795C206.725 248.777 206.801 248.761 206.857 248.75L207.13 249.955C207.039 249.989 206.912 250.023 206.749 250.057C206.587 250.095 206.38 250.114 206.13 250.114C205.751 250.114 205.38 250.032 205.016 249.869C204.657 249.706 204.357 249.458 204.119 249.125C203.884 248.792 203.766 248.371 203.766 247.864V239.182ZM212.44 250.182C211.652 250.182 210.961 249.994 210.366 249.619C209.775 249.244 209.313 248.72 208.979 248.045C208.65 247.371 208.485 246.583 208.485 245.682C208.485 244.773 208.65 243.979 208.979 243.301C209.313 242.623 209.775 242.097 210.366 241.722C210.961 241.347 211.652 241.159 212.44 241.159C213.228 241.159 213.917 241.347 214.508 241.722C215.103 242.097 215.565 242.623 215.894 243.301C216.228 243.979 216.394 244.773 216.394 245.682C216.394 246.583 216.228 247.371 215.894 248.045C215.565 248.72 215.103 249.244 214.508 249.619C213.917 249.994 213.228 250.182 212.44 250.182ZM212.44 248.977C213.038 248.977 213.531 248.824 213.917 248.517C214.303 248.21 214.589 247.807 214.775 247.307C214.961 246.807 215.053 246.265 215.053 245.682C215.053 245.098 214.961 244.555 214.775 244.051C214.589 243.547 214.303 243.14 213.917 242.83C213.531 242.519 213.038 242.364 212.44 242.364C211.841 242.364 211.349 242.519 210.962 242.83C210.576 243.14 210.29 243.547 210.104 244.051C209.919 244.555 209.826 245.098 209.826 245.682C209.826 246.265 209.919 246.807 210.104 247.307C210.29 247.807 210.576 248.21 210.962 248.517C211.349 248.824 211.841 248.977 212.44 248.977ZM218.441 250V241.273H219.737V242.591H219.828C219.987 242.159 220.274 241.809 220.691 241.54C221.108 241.271 221.578 241.136 222.1 241.136C222.199 241.136 222.322 241.138 222.47 241.142C222.617 241.146 222.729 241.152 222.805 241.159V242.523C222.759 242.511 222.655 242.494 222.492 242.472C222.333 242.445 222.165 242.432 221.987 242.432C221.562 242.432 221.184 242.521 220.85 242.699C220.521 242.873 220.259 243.116 220.066 243.426C219.877 243.733 219.782 244.083 219.782 244.477V250H218.441ZM225.394 248.409L225.303 249.023C225.239 249.455 225.14 249.917 225.008 250.409C224.879 250.902 224.745 251.366 224.604 251.801C224.464 252.237 224.349 252.583 224.258 252.841H223.235C223.284 252.598 223.349 252.278 223.428 251.881C223.508 251.483 223.587 251.038 223.667 250.545C223.75 250.057 223.819 249.557 223.872 249.045L223.94 248.409H225.394ZM231.924 239.614V238.364H240.651V239.614H236.992V250H235.583V239.614H231.924ZM243.303 238.364L246.758 248.159H246.894L250.349 238.364H251.826L247.553 250H246.099L241.826 238.364H243.303ZM253.91 248.409L253.819 249.023C253.755 249.455 253.656 249.917 253.524 250.409C253.395 250.902 253.26 251.366 253.12 251.801C252.98 252.237 252.864 252.583 252.774 252.841H251.751C251.8 252.598 251.864 252.278 251.944 251.881C252.024 251.483 252.103 251.038 252.183 250.545C252.266 250.057 252.334 249.557 252.387 249.045L252.455 248.409H253.91ZM261.076 250V238.364H262.485V248.75H267.894V250H261.076ZM269.894 250V241.273H271.235V250H269.894ZM270.576 239.818C270.315 239.818 270.089 239.729 269.9 239.551C269.714 239.373 269.622 239.159 269.622 238.909C269.622 238.659 269.714 238.445 269.9 238.267C270.089 238.089 270.315 238 270.576 238C270.837 238 271.061 238.089 271.247 238.267C271.436 238.445 271.531 238.659 271.531 238.909C271.531 239.159 271.436 239.373 271.247 239.551C271.061 239.729 270.837 239.818 270.576 239.818ZM277.214 253.455C276.566 253.455 276.009 253.371 275.543 253.205C275.078 253.042 274.689 252.826 274.379 252.557C274.072 252.292 273.828 252.008 273.646 251.705L274.714 250.955C274.835 251.114 274.988 251.295 275.174 251.5C275.36 251.708 275.613 251.888 275.935 252.04C276.261 252.195 276.687 252.273 277.214 252.273C277.918 252.273 278.5 252.102 278.958 251.761C279.417 251.42 279.646 250.886 279.646 250.159V248.386H279.532C279.434 248.545 279.293 248.742 279.112 248.977C278.934 249.208 278.676 249.415 278.339 249.597C278.006 249.775 277.555 249.864 276.987 249.864C276.282 249.864 275.649 249.697 275.089 249.364C274.532 249.03 274.091 248.545 273.765 247.909C273.443 247.273 273.282 246.5 273.282 245.591C273.282 244.697 273.439 243.919 273.754 243.256C274.068 242.589 274.506 242.074 275.066 241.71C275.627 241.343 276.274 241.159 277.009 241.159C277.578 241.159 278.028 241.254 278.362 241.443C278.699 241.629 278.956 241.841 279.134 242.08C279.316 242.314 279.456 242.508 279.555 242.659H279.691V241.273H280.987V250.25C280.987 251 280.816 251.61 280.475 252.08C280.138 252.553 279.684 252.9 279.112 253.119C278.543 253.343 277.911 253.455 277.214 253.455ZM277.168 248.659C277.706 248.659 278.161 248.536 278.532 248.29C278.903 248.044 279.185 247.689 279.379 247.227C279.572 246.765 279.668 246.212 279.668 245.568C279.668 244.939 279.574 244.384 279.384 243.903C279.195 243.422 278.915 243.045 278.543 242.773C278.172 242.5 277.714 242.364 277.168 242.364C276.6 242.364 276.127 242.508 275.748 242.795C275.373 243.083 275.091 243.47 274.901 243.955C274.716 244.439 274.623 244.977 274.623 245.568C274.623 246.174 274.718 246.71 274.907 247.176C275.1 247.638 275.384 248.002 275.759 248.267C276.138 248.528 276.608 248.659 277.168 248.659ZM284.782 244.75V250H283.441V238.364H284.782V242.636H284.896C285.1 242.186 285.407 241.828 285.816 241.562C286.229 241.294 286.778 241.159 287.464 241.159C288.059 241.159 288.579 241.278 289.026 241.517C289.473 241.752 289.82 242.114 290.066 242.602C290.316 243.087 290.441 243.705 290.441 244.455V250H289.1V244.545C289.1 243.852 288.92 243.316 288.56 242.938C288.204 242.555 287.71 242.364 287.078 242.364C286.638 242.364 286.244 242.456 285.896 242.642C285.551 242.828 285.278 243.098 285.078 243.455C284.881 243.811 284.782 244.242 284.782 244.75ZM296.69 241.273V242.409H292.167V241.273H296.69ZM293.485 239.182H294.826V247.5C294.826 247.879 294.881 248.163 294.991 248.352C295.104 248.538 295.248 248.663 295.423 248.727C295.601 248.788 295.788 248.818 295.985 248.818C296.133 248.818 296.254 248.811 296.349 248.795C296.444 248.777 296.519 248.761 296.576 248.75L296.849 249.955C296.758 249.989 296.631 250.023 296.468 250.057C296.305 250.095 296.099 250.114 295.849 250.114C295.47 250.114 295.099 250.032 294.735 249.869C294.375 249.706 294.076 249.458 293.837 249.125C293.603 248.792 293.485 248.371 293.485 247.864V239.182ZM304.732 243.227L303.528 243.568C303.452 243.367 303.34 243.172 303.193 242.983C303.049 242.79 302.852 242.631 302.602 242.506C302.352 242.381 302.032 242.318 301.641 242.318C301.107 242.318 300.662 242.441 300.306 242.688C299.954 242.93 299.778 243.239 299.778 243.614C299.778 243.947 299.899 244.21 300.141 244.403C300.384 244.597 300.763 244.758 301.278 244.886L302.573 245.205C303.354 245.394 303.935 245.684 304.318 246.074C304.7 246.46 304.891 246.958 304.891 247.568C304.891 248.068 304.747 248.515 304.46 248.909C304.176 249.303 303.778 249.614 303.266 249.841C302.755 250.068 302.16 250.182 301.482 250.182C300.592 250.182 299.855 249.989 299.272 249.602C298.689 249.216 298.319 248.652 298.164 247.909L299.437 247.591C299.558 248.061 299.787 248.413 300.124 248.648C300.465 248.883 300.91 249 301.46 249C302.085 249 302.581 248.867 302.948 248.602C303.319 248.333 303.505 248.011 303.505 247.636C303.505 247.333 303.399 247.08 303.187 246.875C302.975 246.667 302.649 246.511 302.21 246.409L300.755 246.068C299.956 245.879 299.369 245.585 298.994 245.188C298.622 244.786 298.437 244.284 298.437 243.682C298.437 243.189 298.575 242.754 298.852 242.375C299.132 241.996 299.513 241.699 299.994 241.483C300.479 241.267 301.028 241.159 301.641 241.159C302.505 241.159 303.183 241.348 303.676 241.727C304.172 242.106 304.524 242.606 304.732 243.227ZM308.91 248.409L308.819 249.023C308.755 249.455 308.656 249.917 308.524 250.409C308.395 250.902 308.26 251.366 308.12 251.801C307.98 252.237 307.864 252.583 307.774 252.841H306.751C306.8 252.598 306.864 252.278 306.944 251.881C307.024 251.483 307.103 251.038 307.183 250.545C307.266 250.057 307.334 249.557 307.387 249.045L307.455 248.409H308.91ZM318.19 250L315.008 238.364H316.44L318.872 247.841H318.985L321.462 238.364H323.053L325.531 247.841H325.644L328.076 238.364H329.508L326.326 250H324.872L322.303 240.727H322.212L319.644 250H318.19ZM332.837 250.205C332.284 250.205 331.783 250.1 331.332 249.892C330.881 249.68 330.523 249.375 330.258 248.977C329.993 248.576 329.86 248.091 329.86 247.523C329.86 247.023 329.959 246.617 330.156 246.307C330.353 245.992 330.616 245.746 330.945 245.568C331.275 245.39 331.639 245.258 332.036 245.17C332.438 245.08 332.841 245.008 333.247 244.955C333.777 244.886 334.207 244.835 334.536 244.801C334.87 244.763 335.112 244.701 335.264 244.614C335.419 244.527 335.497 244.375 335.497 244.159V244.114C335.497 243.553 335.343 243.117 335.036 242.807C334.733 242.496 334.273 242.341 333.656 242.341C333.015 242.341 332.514 242.481 332.15 242.761C331.786 243.042 331.531 243.341 331.383 243.659L330.11 243.205C330.337 242.674 330.64 242.261 331.019 241.966C331.402 241.667 331.819 241.458 332.269 241.341C332.724 241.22 333.171 241.159 333.61 241.159C333.89 241.159 334.212 241.193 334.576 241.261C334.944 241.326 335.298 241.46 335.639 241.665C335.983 241.869 336.269 242.178 336.497 242.591C336.724 243.004 336.837 243.557 336.837 244.25V250H335.497V248.818H335.428C335.337 249.008 335.186 249.21 334.974 249.426C334.762 249.642 334.479 249.826 334.127 249.977C333.775 250.129 333.345 250.205 332.837 250.205ZM333.042 249C333.572 249 334.019 248.896 334.383 248.688C334.75 248.479 335.027 248.21 335.212 247.881C335.402 247.551 335.497 247.205 335.497 246.841V245.614C335.44 245.682 335.315 245.744 335.122 245.801C334.932 245.854 334.712 245.902 334.462 245.943C334.216 245.981 333.976 246.015 333.741 246.045C333.51 246.072 333.322 246.095 333.178 246.114C332.83 246.159 332.504 246.233 332.201 246.335C331.902 246.434 331.659 246.583 331.474 246.784C331.292 246.981 331.201 247.25 331.201 247.591C331.201 248.057 331.373 248.409 331.718 248.648C332.067 248.883 332.508 249 333.042 249ZM345.467 243.227L344.262 243.568C344.186 243.367 344.075 243.172 343.927 242.983C343.783 242.79 343.586 242.631 343.336 242.506C343.086 242.381 342.766 242.318 342.376 242.318C341.842 242.318 341.397 242.441 341.041 242.688C340.688 242.93 340.512 243.239 340.512 243.614C340.512 243.947 340.633 244.21 340.876 244.403C341.118 244.597 341.497 244.758 342.012 244.886L343.308 245.205C344.088 245.394 344.669 245.684 345.052 246.074C345.435 246.46 345.626 246.958 345.626 247.568C345.626 248.068 345.482 248.515 345.194 248.909C344.91 249.303 344.512 249.614 344.001 249.841C343.489 250.068 342.895 250.182 342.217 250.182C341.327 250.182 340.59 249.989 340.006 249.602C339.423 249.216 339.054 248.652 338.899 247.909L340.171 247.591C340.292 248.061 340.522 248.413 340.859 248.648C341.2 248.883 341.645 249 342.194 249C342.819 249 343.315 248.867 343.683 248.602C344.054 248.333 344.239 248.011 344.239 247.636C344.239 247.333 344.133 247.08 343.921 246.875C343.709 246.667 343.383 246.511 342.944 246.409L341.489 246.068C340.69 245.879 340.103 245.585 339.728 245.188C339.357 244.786 339.171 244.284 339.171 243.682C339.171 243.189 339.31 242.754 339.586 242.375C339.866 241.996 340.247 241.699 340.728 241.483C341.213 241.267 341.762 241.159 342.376 241.159C343.239 241.159 343.917 241.348 344.41 241.727C344.906 242.106 345.258 242.606 345.467 243.227ZM348.985 244.75V250H347.644V238.364H348.985V242.636H349.099C349.303 242.186 349.61 241.828 350.019 241.562C350.432 241.294 350.981 241.159 351.667 241.159C352.262 241.159 352.783 241.278 353.229 241.517C353.676 241.752 354.023 242.114 354.269 242.602C354.519 243.087 354.644 243.705 354.644 244.455V250H353.303V244.545C353.303 243.852 353.123 243.316 352.764 242.938C352.408 242.555 351.913 242.364 351.281 242.364C350.841 242.364 350.447 242.456 350.099 242.642C349.754 242.828 349.481 243.098 349.281 243.455C349.084 243.811 348.985 244.242 348.985 244.75ZM360.756 250.182C359.916 250.182 359.19 249.996 358.58 249.625C357.974 249.25 357.506 248.727 357.177 248.057C356.851 247.383 356.688 246.598 356.688 245.705C356.688 244.811 356.851 244.023 357.177 243.341C357.506 242.655 357.965 242.121 358.552 241.739C359.143 241.352 359.832 241.159 360.62 241.159C361.075 241.159 361.524 241.235 361.967 241.386C362.41 241.538 362.813 241.784 363.177 242.125C363.541 242.462 363.83 242.909 364.046 243.466C364.262 244.023 364.37 244.708 364.37 245.523V246.091H357.643V244.932H363.006C363.006 244.439 362.908 244 362.711 243.614C362.518 243.227 362.241 242.922 361.881 242.699C361.525 242.475 361.105 242.364 360.62 242.364C360.086 242.364 359.624 242.496 359.234 242.761C358.847 243.023 358.55 243.364 358.342 243.784C358.133 244.205 358.029 244.655 358.029 245.136V245.909C358.029 246.568 358.143 247.127 358.37 247.585C358.601 248.04 358.921 248.386 359.33 248.625C359.739 248.86 360.215 248.977 360.756 248.977C361.109 248.977 361.427 248.928 361.711 248.83C361.999 248.727 362.247 248.576 362.455 248.375C362.664 248.17 362.825 247.917 362.938 247.614L364.234 247.977C364.097 248.417 363.868 248.803 363.546 249.136C363.224 249.466 362.827 249.723 362.353 249.909C361.88 250.091 361.347 250.182 360.756 250.182ZM366.41 250V241.273H367.705V242.591H367.796C367.955 242.159 368.243 241.809 368.66 241.54C369.077 241.271 369.546 241.136 370.069 241.136C370.167 241.136 370.291 241.138 370.438 241.142C370.586 241.146 370.698 241.152 370.774 241.159V242.523C370.728 242.511 370.624 242.494 370.461 242.472C370.302 242.445 370.133 242.432 369.955 242.432C369.531 242.432 369.152 242.521 368.819 242.699C368.489 242.873 368.228 243.116 368.035 243.426C367.845 243.733 367.751 244.083 367.751 244.477V250H366.41ZM372.34 250.091C372.06 250.091 371.819 249.991 371.619 249.79C371.418 249.589 371.318 249.348 371.318 249.068C371.318 248.788 371.418 248.547 371.619 248.347C371.819 248.146 372.06 248.045 372.34 248.045C372.621 248.045 372.861 248.146 373.062 248.347C373.263 248.547 373.363 248.788 373.363 249.068C373.363 249.254 373.316 249.424 373.221 249.58C373.13 249.735 373.007 249.86 372.852 249.955C372.7 250.045 372.53 250.091 372.34 250.091ZM376.747 250.091C376.466 250.091 376.226 249.991 376.025 249.79C375.824 249.589 375.724 249.348 375.724 249.068C375.724 248.788 375.824 248.547 376.025 248.347C376.226 248.146 376.466 248.045 376.747 248.045C377.027 248.045 377.267 248.146 377.468 248.347C377.669 248.547 377.769 248.788 377.769 249.068C377.769 249.254 377.722 249.424 377.627 249.58C377.536 249.735 377.413 249.86 377.258 249.955C377.106 250.045 376.936 250.091 376.747 250.091ZM381.153 250.091C380.872 250.091 380.632 249.991 380.431 249.79C380.23 249.589 380.13 249.348 380.13 249.068C380.13 248.788 380.23 248.547 380.431 248.347C380.632 248.146 380.872 248.045 381.153 248.045C381.433 248.045 381.674 248.146 381.874 248.347C382.075 248.547 382.176 248.788 382.176 249.068C382.176 249.254 382.128 249.424 382.033 249.58C381.943 249.735 381.819 249.86 381.664 249.955C381.513 250.045 381.342 250.091 381.153 250.091Z" fill="#A4A4A4"/>
<mask id="path-13-inside-3_216_276" fill="white">
<path d="M0 292H428V430H0V292Z"/>
</mask>
<path d="M0 292H428V430H0V292Z" fill="white"/>
<path d="M0 293H428V291H0V293ZM428 429H0V431H428V429Z" fill="#E7E7E7" mask="url(#path-13-inside-3_216_276)"/>
<rect x="26.8229" y="324" width="75" height="73" rx="10" fill="#FFBA49"/>
<path d="M63.9846 378.5C58.8846 378.5 55.0679 377.167 52.5346 374.5C50.0013 371.8 48.7346 367.633 48.7346 362C48.7346 356.133 50.0013 351.883 52.5346 349.25C55.0679 346.617 58.8846 345.3 63.9846 345.3C69.1179 345.3 72.9346 346.617 75.4346 349.25C77.9679 351.883 79.2346 356.133 79.2346 362C79.2346 367.633 77.9679 371.8 75.4346 374.5C72.9346 377.167 69.1179 378.5 63.9846 378.5ZM63.9846 373.9C67.3513 373.9 69.8179 372.983 71.3846 371.15C72.9846 369.283 73.7846 366.233 73.7846 362C73.7846 357.533 72.9846 354.417 71.3846 352.65C69.8179 350.85 67.3513 349.95 63.9846 349.95C60.6513 349.95 58.1846 350.85 56.5846 352.65C55.0179 354.417 54.2346 357.533 54.2346 362C54.2346 366.233 55.0179 369.283 56.5846 371.15C58.1846 372.983 60.6513 373.9 63.9846 373.9Z" fill="white"/>
<path d="M146.982 342.727C146.982 344.261 146.705 345.587 146.151 346.705C145.597 347.822 144.837 348.684 143.872 349.29C142.906 349.896 141.802 350.199 140.562 350.199C139.321 350.199 138.218 349.896 137.252 349.29C136.286 348.684 135.526 347.822 134.972 346.705C134.418 345.587 134.141 344.261 134.141 342.727C134.141 341.193 134.418 339.867 134.972 338.75C135.526 337.633 136.286 336.771 137.252 336.165C138.218 335.559 139.321 335.256 140.562 335.256C141.802 335.256 142.906 335.559 143.872 336.165C144.837 336.771 145.597 337.633 146.151 338.75C146.705 339.867 146.982 341.193 146.982 342.727ZM145.278 342.727C145.278 341.468 145.067 340.405 144.646 339.538C144.229 338.672 143.663 338.016 142.948 337.571C142.238 337.126 141.443 336.903 140.562 336.903C139.681 336.903 138.883 337.126 138.168 337.571C137.458 338.016 136.892 338.672 136.471 339.538C136.054 340.405 135.846 341.468 135.846 342.727C135.846 343.987 136.054 345.05 136.471 345.916C136.892 346.783 137.458 347.438 138.168 347.884C138.883 348.329 139.681 348.551 140.562 348.551C141.443 348.551 142.238 348.329 142.948 347.884C143.663 347.438 144.229 346.783 144.646 345.916C145.067 345.05 145.278 343.987 145.278 342.727ZM154.575 339.091V340.511H148.694V339.091H154.575ZM150.455 350V337.585C150.455 336.96 150.602 336.439 150.896 336.023C151.189 335.606 151.57 335.294 152.039 335.085C152.508 334.877 153.003 334.773 153.524 334.773C153.935 334.773 154.272 334.806 154.532 334.872C154.792 334.938 154.987 335 155.114 335.057L154.631 336.506C154.546 336.477 154.428 336.442 154.276 336.399C154.13 336.357 153.935 336.335 153.694 336.335C153.14 336.335 152.74 336.475 152.494 336.754C152.252 337.034 152.131 337.443 152.131 337.983V350H150.455ZM161.782 339.091V340.511H155.901V339.091H161.782ZM157.662 350V337.585C157.662 336.96 157.809 336.439 158.103 336.023C158.396 335.606 158.777 335.294 159.246 335.085C159.715 334.877 160.21 334.773 160.731 334.773C161.142 334.773 161.479 334.806 161.739 334.872C161.999 334.938 162.194 335 162.321 335.057L161.839 336.506C161.753 336.477 161.635 336.442 161.483 336.399C161.337 336.357 161.142 336.335 160.901 336.335C160.347 336.335 159.947 336.475 159.701 336.754C159.459 337.034 159.339 337.443 159.339 337.983V350H157.662ZM164.131 350V339.091H165.807V350H164.131ZM164.983 337.273C164.656 337.273 164.375 337.161 164.138 336.939C163.906 336.716 163.79 336.449 163.79 336.136C163.79 335.824 163.906 335.556 164.138 335.334C164.375 335.111 164.656 335 164.983 335C165.31 335 165.589 335.111 165.821 335.334C166.058 335.556 166.176 335.824 166.176 336.136C166.176 336.449 166.058 336.716 165.821 336.939C165.589 337.161 165.31 337.273 164.983 337.273ZM173.309 350.227C172.286 350.227 171.405 349.986 170.667 349.503C169.928 349.02 169.36 348.355 168.962 347.507C168.564 346.66 168.366 345.691 168.366 344.602C168.366 343.494 168.569 342.517 168.976 341.669C169.388 340.817 169.961 340.152 170.695 339.673C171.434 339.19 172.295 338.949 173.28 338.949C174.047 338.949 174.739 339.091 175.354 339.375C175.97 339.659 176.474 340.057 176.867 340.568C177.26 341.08 177.504 341.676 177.598 342.358H175.922C175.794 341.861 175.51 341.42 175.07 341.037C174.634 340.649 174.047 340.455 173.309 340.455C172.655 340.455 172.082 340.625 171.59 340.966C171.102 341.302 170.721 341.778 170.446 342.393C170.177 343.004 170.042 343.722 170.042 344.545C170.042 345.388 170.174 346.122 170.439 346.747C170.709 347.372 171.088 347.857 171.576 348.203C172.068 348.549 172.646 348.722 173.309 348.722C173.744 348.722 174.14 348.646 174.495 348.494C174.85 348.343 175.151 348.125 175.397 347.841C175.643 347.557 175.818 347.216 175.922 346.818H177.598C177.504 347.462 177.269 348.042 176.895 348.558C176.526 349.07 176.036 349.477 175.425 349.78C174.819 350.078 174.114 350.227 173.309 350.227ZM184.623 350.227C183.571 350.227 182.665 349.995 181.902 349.531C181.145 349.062 180.56 348.409 180.148 347.571C179.741 346.728 179.537 345.748 179.537 344.631C179.537 343.513 179.741 342.528 180.148 341.676C180.56 340.819 181.133 340.152 181.867 339.673C182.606 339.19 183.467 338.949 184.452 338.949C185.02 338.949 185.581 339.044 186.135 339.233C186.689 339.422 187.194 339.73 187.648 340.156C188.103 340.578 188.465 341.136 188.735 341.832C189.005 342.528 189.14 343.385 189.14 344.403V345.114H180.731V343.665H187.435C187.435 343.049 187.312 342.5 187.066 342.017C186.824 341.534 186.479 341.153 186.029 340.874C185.584 340.594 185.058 340.455 184.452 340.455C183.785 340.455 183.207 340.62 182.719 340.952C182.236 341.278 181.865 341.705 181.604 342.23C181.344 342.756 181.214 343.319 181.214 343.92V344.886C181.214 345.71 181.356 346.409 181.64 346.982C181.928 347.55 182.329 347.983 182.84 348.281C183.351 348.575 183.946 348.722 184.623 348.722C185.063 348.722 185.461 348.66 185.816 348.537C186.176 348.409 186.486 348.22 186.746 347.969C187.007 347.713 187.208 347.396 187.35 347.017L188.969 347.472C188.799 348.021 188.512 348.504 188.11 348.92C187.707 349.332 187.21 349.654 186.618 349.886C186.026 350.114 185.361 350.227 184.623 350.227Z" fill="black"/>
<path d="M134.357 386V374.364H135.766V384.75H141.176V386H134.357ZM145.744 386.205C145.191 386.205 144.689 386.1 144.238 385.892C143.787 385.68 143.429 385.375 143.164 384.977C142.899 384.576 142.766 384.091 142.766 383.523C142.766 383.023 142.865 382.617 143.062 382.307C143.259 381.992 143.522 381.746 143.852 381.568C144.181 381.39 144.545 381.258 144.943 381.17C145.344 381.08 145.747 381.008 146.153 380.955C146.683 380.886 147.113 380.835 147.443 380.801C147.776 380.763 148.018 380.701 148.17 380.614C148.325 380.527 148.403 380.375 148.403 380.159V380.114C148.403 379.553 148.249 379.117 147.943 378.807C147.64 378.496 147.179 378.341 146.562 378.341C145.922 378.341 145.42 378.481 145.056 378.761C144.693 379.042 144.437 379.341 144.289 379.659L143.016 379.205C143.244 378.674 143.547 378.261 143.926 377.966C144.308 377.667 144.725 377.458 145.176 377.341C145.63 377.22 146.077 377.159 146.516 377.159C146.797 377.159 147.119 377.193 147.482 377.261C147.85 377.326 148.204 377.46 148.545 377.665C148.89 377.869 149.176 378.178 149.403 378.591C149.63 379.004 149.744 379.557 149.744 380.25V386H148.403V384.818H148.335C148.244 385.008 148.092 385.21 147.88 385.426C147.668 385.642 147.386 385.826 147.033 385.977C146.681 386.129 146.251 386.205 145.744 386.205ZM145.948 385C146.479 385 146.926 384.896 147.289 384.688C147.657 384.479 147.933 384.21 148.119 383.881C148.308 383.551 148.403 383.205 148.403 382.841V381.614C148.346 381.682 148.221 381.744 148.028 381.801C147.838 381.854 147.619 381.902 147.369 381.943C147.122 381.981 146.882 382.015 146.647 382.045C146.416 382.072 146.229 382.095 146.085 382.114C145.736 382.159 145.41 382.233 145.107 382.335C144.808 382.434 144.566 382.583 144.38 382.784C144.198 382.981 144.107 383.25 144.107 383.591C144.107 384.057 144.28 384.409 144.624 384.648C144.973 384.883 145.414 385 145.948 385ZM152.191 389.273V377.273H153.487V378.659H153.646C153.744 378.508 153.881 378.314 154.055 378.08C154.233 377.841 154.487 377.629 154.816 377.443C155.149 377.254 155.6 377.159 156.168 377.159C156.903 377.159 157.551 377.343 158.112 377.71C158.672 378.078 159.11 378.598 159.424 379.273C159.738 379.947 159.896 380.742 159.896 381.659C159.896 382.583 159.738 383.384 159.424 384.062C159.11 384.737 158.674 385.259 158.117 385.631C157.56 385.998 156.918 386.182 156.191 386.182C155.631 386.182 155.182 386.089 154.845 385.903C154.507 385.714 154.248 385.5 154.066 385.261C153.884 385.019 153.744 384.818 153.646 384.659H153.532V389.273H152.191ZM153.509 381.636C153.509 382.295 153.606 382.877 153.799 383.381C153.992 383.881 154.274 384.273 154.646 384.557C155.017 384.837 155.471 384.977 156.009 384.977C156.57 384.977 157.038 384.83 157.413 384.534C157.792 384.235 158.076 383.833 158.265 383.33C158.458 382.822 158.555 382.258 158.555 381.636C158.555 381.023 158.46 380.47 158.271 379.977C158.085 379.481 157.803 379.089 157.424 378.801C157.049 378.509 156.578 378.364 156.009 378.364C155.464 378.364 155.006 378.502 154.634 378.778C154.263 379.051 153.983 379.434 153.793 379.926C153.604 380.415 153.509 380.985 153.509 381.636ZM165.737 377.273V378.409H161.214V377.273H165.737ZM162.532 375.182H163.873V383.5C163.873 383.879 163.928 384.163 164.038 384.352C164.151 384.538 164.295 384.663 164.47 384.727C164.648 384.788 164.835 384.818 165.032 384.818C165.18 384.818 165.301 384.811 165.396 384.795C165.49 384.777 165.566 384.761 165.623 384.75L165.896 385.955C165.805 385.989 165.678 386.023 165.515 386.057C165.352 386.095 165.146 386.114 164.896 386.114C164.517 386.114 164.146 386.032 163.782 385.869C163.422 385.706 163.123 385.458 162.884 385.125C162.649 384.792 162.532 384.371 162.532 383.864V375.182ZM171.205 386.182C170.417 386.182 169.726 385.994 169.131 385.619C168.541 385.244 168.078 384.72 167.745 384.045C167.416 383.371 167.251 382.583 167.251 381.682C167.251 380.773 167.416 379.979 167.745 379.301C168.078 378.623 168.541 378.097 169.131 377.722C169.726 377.347 170.417 377.159 171.205 377.159C171.993 377.159 172.683 377.347 173.274 377.722C173.868 378.097 174.33 378.623 174.66 379.301C174.993 379.979 175.16 380.773 175.16 381.682C175.16 382.583 174.993 383.371 174.66 384.045C174.33 384.72 173.868 385.244 173.274 385.619C172.683 385.994 171.993 386.182 171.205 386.182ZM171.205 384.977C171.804 384.977 172.296 384.824 172.683 384.517C173.069 384.21 173.355 383.807 173.541 383.307C173.726 382.807 173.819 382.265 173.819 381.682C173.819 381.098 173.726 380.555 173.541 380.051C173.355 379.547 173.069 379.14 172.683 378.83C172.296 378.519 171.804 378.364 171.205 378.364C170.607 378.364 170.114 378.519 169.728 378.83C169.342 379.14 169.056 379.547 168.87 380.051C168.685 380.555 168.592 381.098 168.592 381.682C168.592 382.265 168.685 382.807 168.87 383.307C169.056 383.807 169.342 384.21 169.728 384.517C170.114 384.824 170.607 384.977 171.205 384.977ZM177.207 389.273V377.273H178.502V378.659H178.661C178.76 378.508 178.896 378.314 179.07 378.08C179.248 377.841 179.502 377.629 179.832 377.443C180.165 377.254 180.616 377.159 181.184 377.159C181.919 377.159 182.567 377.343 183.127 377.71C183.688 378.078 184.125 378.598 184.44 379.273C184.754 379.947 184.911 380.742 184.911 381.659C184.911 382.583 184.754 383.384 184.44 384.062C184.125 384.737 183.69 385.259 183.133 385.631C182.576 385.998 181.934 386.182 181.207 386.182C180.646 386.182 180.197 386.089 179.86 385.903C179.523 385.714 179.264 385.5 179.082 385.261C178.9 385.019 178.76 384.818 178.661 384.659H178.548V389.273H177.207ZM178.525 381.636C178.525 382.295 178.622 382.877 178.815 383.381C179.008 383.881 179.29 384.273 179.661 384.557C180.033 384.837 180.487 384.977 181.025 384.977C181.586 384.977 182.053 384.83 182.428 384.534C182.807 384.235 183.091 383.833 183.281 383.33C183.474 382.822 183.57 382.258 183.57 381.636C183.57 381.023 183.476 380.47 183.286 379.977C183.101 379.481 182.819 379.089 182.44 378.801C182.065 378.509 181.593 378.364 181.025 378.364C180.479 378.364 180.021 378.502 179.65 378.778C179.279 379.051 178.998 379.434 178.809 379.926C178.62 380.415 178.525 380.985 178.525 381.636ZM188.957 384.409L188.866 385.023C188.801 385.455 188.703 385.917 188.57 386.409C188.442 386.902 188.307 387.366 188.167 387.801C188.027 388.237 187.911 388.583 187.82 388.841H186.798C186.847 388.598 186.911 388.278 186.991 387.881C187.07 387.483 187.15 387.038 187.229 386.545C187.313 386.057 187.381 385.557 187.434 385.045L187.502 384.409H188.957ZM205.487 378H204.078C203.994 377.595 203.848 377.239 203.64 376.932C203.435 376.625 203.185 376.367 202.89 376.159C202.598 375.947 202.274 375.788 201.918 375.682C201.562 375.576 201.191 375.523 200.805 375.523C200.1 375.523 199.462 375.701 198.89 376.057C198.322 376.413 197.869 376.938 197.532 377.631C197.199 378.324 197.032 379.174 197.032 380.182C197.032 381.189 197.199 382.04 197.532 382.733C197.869 383.426 198.322 383.951 198.89 384.307C199.462 384.663 200.1 384.841 200.805 384.841C201.191 384.841 201.562 384.788 201.918 384.682C202.274 384.576 202.598 384.419 202.89 384.21C203.185 383.998 203.435 383.739 203.64 383.432C203.848 383.121 203.994 382.765 204.078 382.364H205.487C205.381 382.958 205.187 383.491 204.907 383.96C204.627 384.43 204.278 384.83 203.862 385.159C203.445 385.485 202.977 385.733 202.458 385.903C201.943 386.074 201.392 386.159 200.805 386.159C199.812 386.159 198.93 385.917 198.157 385.432C197.384 384.947 196.776 384.258 196.333 383.364C195.89 382.47 195.668 381.409 195.668 380.182C195.668 378.955 195.89 377.894 196.333 377C196.776 376.106 197.384 375.417 198.157 374.932C198.93 374.447 199.812 374.205 200.805 374.205C201.392 374.205 201.943 374.29 202.458 374.46C202.977 374.631 203.445 374.881 203.862 375.21C204.278 375.536 204.627 375.934 204.907 376.403C205.187 376.869 205.381 377.402 205.487 378ZM208.923 380.75V386H207.582V374.364H208.923V378.636H209.036C209.241 378.186 209.548 377.828 209.957 377.562C210.37 377.294 210.919 377.159 211.604 377.159C212.199 377.159 212.72 377.278 213.167 377.517C213.614 377.752 213.961 378.114 214.207 378.602C214.457 379.087 214.582 379.705 214.582 380.455V386H213.241V380.545C213.241 379.852 213.061 379.316 212.701 378.938C212.345 378.555 211.851 378.364 211.218 378.364C210.779 378.364 210.385 378.456 210.036 378.642C209.692 378.828 209.419 379.098 209.218 379.455C209.021 379.811 208.923 380.242 208.923 380.75ZM219.603 386.205C219.05 386.205 218.548 386.1 218.097 385.892C217.647 385.68 217.289 385.375 217.024 384.977C216.758 384.576 216.626 384.091 216.626 383.523C216.626 383.023 216.724 382.617 216.921 382.307C217.118 381.992 217.381 381.746 217.711 381.568C218.041 381.39 218.404 381.258 218.802 381.17C219.203 381.08 219.607 381.008 220.012 380.955C220.542 380.886 220.972 380.835 221.302 380.801C221.635 380.763 221.878 380.701 222.029 380.614C222.185 380.527 222.262 380.375 222.262 380.159V380.114C222.262 379.553 222.109 379.117 221.802 378.807C221.499 378.496 221.039 378.341 220.421 378.341C219.781 378.341 219.279 378.481 218.916 378.761C218.552 379.042 218.296 379.341 218.149 379.659L216.876 379.205C217.103 378.674 217.406 378.261 217.785 377.966C218.167 377.667 218.584 377.458 219.035 377.341C219.489 377.22 219.936 377.159 220.376 377.159C220.656 377.159 220.978 377.193 221.342 377.261C221.709 377.326 222.063 377.46 222.404 377.665C222.749 377.869 223.035 378.178 223.262 378.591C223.489 379.004 223.603 379.557 223.603 380.25V386H222.262V384.818H222.194C222.103 385.008 221.952 385.21 221.739 385.426C221.527 385.642 221.245 385.826 220.893 385.977C220.541 386.129 220.111 386.205 219.603 386.205ZM219.808 385C220.338 385 220.785 384.896 221.149 384.688C221.516 384.479 221.792 384.21 221.978 383.881C222.167 383.551 222.262 383.205 222.262 382.841V381.614C222.205 381.682 222.08 381.744 221.887 381.801C221.698 381.854 221.478 381.902 221.228 381.943C220.982 381.981 220.741 382.015 220.506 382.045C220.275 382.072 220.088 382.095 219.944 382.114C219.595 382.159 219.27 382.233 218.967 382.335C218.667 382.434 218.425 382.583 218.239 382.784C218.058 382.981 217.967 383.25 217.967 383.591C217.967 384.057 218.139 384.409 218.484 384.648C218.832 384.883 219.274 385 219.808 385ZM226.051 386V377.273H227.346V378.591H227.437C227.596 378.159 227.884 377.809 228.301 377.54C228.717 377.271 229.187 377.136 229.71 377.136C229.808 377.136 229.931 377.138 230.079 377.142C230.227 377.146 230.338 377.152 230.414 377.159V378.523C230.369 378.511 230.265 378.494 230.102 378.472C229.943 378.445 229.774 378.432 229.596 378.432C229.172 378.432 228.793 378.521 228.46 378.699C228.13 378.873 227.869 379.116 227.676 379.426C227.486 379.733 227.391 380.083 227.391 380.477V386H226.051ZM235.261 389.455C234.613 389.455 234.056 389.371 233.59 389.205C233.124 389.042 232.736 388.826 232.426 388.557C232.119 388.292 231.874 388.008 231.693 387.705L232.761 386.955C232.882 387.114 233.035 387.295 233.221 387.5C233.407 387.708 233.66 387.888 233.982 388.04C234.308 388.195 234.734 388.273 235.261 388.273C235.965 388.273 236.547 388.102 237.005 387.761C237.463 387.42 237.693 386.886 237.693 386.159V384.386H237.579C237.48 384.545 237.34 384.742 237.158 384.977C236.98 385.208 236.723 385.415 236.386 385.597C236.052 385.775 235.602 385.864 235.033 385.864C234.329 385.864 233.696 385.697 233.136 385.364C232.579 385.03 232.138 384.545 231.812 383.909C231.49 383.273 231.329 382.5 231.329 381.591C231.329 380.697 231.486 379.919 231.801 379.256C232.115 378.589 232.552 378.074 233.113 377.71C233.674 377.343 234.321 377.159 235.056 377.159C235.624 377.159 236.075 377.254 236.408 377.443C236.746 377.629 237.003 377.841 237.181 378.08C237.363 378.314 237.503 378.508 237.602 378.659H237.738V377.273H239.033V386.25C239.033 387 238.863 387.61 238.522 388.08C238.185 388.553 237.73 388.9 237.158 389.119C236.59 389.343 235.958 389.455 235.261 389.455ZM235.215 384.659C235.753 384.659 236.208 384.536 236.579 384.29C236.95 384.044 237.232 383.689 237.426 383.227C237.619 382.765 237.715 382.212 237.715 381.568C237.715 380.939 237.621 380.384 237.431 379.903C237.242 379.422 236.962 379.045 236.59 378.773C236.219 378.5 235.761 378.364 235.215 378.364C234.647 378.364 234.174 378.508 233.795 378.795C233.42 379.083 233.138 379.47 232.948 379.955C232.763 380.439 232.67 380.977 232.67 381.568C232.67 382.174 232.765 382.71 232.954 383.176C233.147 383.638 233.431 384.002 233.806 384.267C234.185 384.528 234.655 384.659 235.215 384.659ZM245.147 386.182C244.306 386.182 243.581 385.996 242.971 385.625C242.365 385.25 241.897 384.727 241.568 384.057C241.242 383.383 241.079 382.598 241.079 381.705C241.079 380.811 241.242 380.023 241.568 379.341C241.897 378.655 242.355 378.121 242.943 377.739C243.533 377.352 244.223 377.159 245.011 377.159C245.465 377.159 245.914 377.235 246.357 377.386C246.801 377.538 247.204 377.784 247.568 378.125C247.931 378.462 248.221 378.909 248.437 379.466C248.653 380.023 248.761 380.708 248.761 381.523V382.091H242.033V380.932H247.397C247.397 380.439 247.299 380 247.102 379.614C246.908 379.227 246.632 378.922 246.272 378.699C245.916 378.475 245.496 378.364 245.011 378.364C244.477 378.364 244.015 378.496 243.624 378.761C243.238 379.023 242.941 379.364 242.732 379.784C242.524 380.205 242.42 380.655 242.42 381.136V381.909C242.42 382.568 242.533 383.127 242.761 383.585C242.992 384.04 243.312 384.386 243.721 384.625C244.13 384.86 244.605 384.977 245.147 384.977C245.499 384.977 245.818 384.928 246.102 384.83C246.39 384.727 246.638 384.576 246.846 384.375C247.054 384.17 247.215 383.917 247.329 383.614L248.624 383.977C248.488 384.417 248.259 384.803 247.937 385.136C247.615 385.466 247.217 385.723 246.744 385.909C246.27 386.091 245.738 386.182 245.147 386.182ZM250.801 386V377.273H252.096V378.591H252.187C252.346 378.159 252.634 377.809 253.051 377.54C253.467 377.271 253.937 377.136 254.46 377.136C254.558 377.136 254.681 377.138 254.829 377.142C254.977 377.146 255.088 377.152 255.164 377.159V378.523C255.119 378.511 255.015 378.494 254.852 378.472C254.693 378.445 254.524 378.432 254.346 378.432C253.922 378.432 253.543 378.521 253.21 378.699C252.88 378.873 252.619 379.116 252.426 379.426C252.236 379.733 252.141 380.083 252.141 380.477V386H250.801Z" fill="#A4A4A4"/>
<path d="M83.0636 98.6161L82.3776 107.728C81.4628 108.275 80.6751 107.5 80.3956 107.044L75.4409 98.6161H83.0636Z" fill="#1D4F91"/>
<path d="M83.0636 98.6161H89.9241C89.0348 97.0251 87.0274 93.54 86.1127 92.3279C85.198 91.1157 85.1726 91.4526 85.198 91.7556C85.2996 93.2204 85.2894 96.3281 85.0455 97.1766C84.8016 98.0252 83.6226 98.4898 83.0636 98.6161Z" fill="#0B6EBF"/>
<path d="M91.2962 100.999L89.9241 98.6161H82.9874L82.3014 107.763C84.9693 106.252 90.4577 103.105 91.0675 102.613C91.6773 102.121 91.4741 101.332 91.2962 100.999Z" fill="#1D559E"/>
<line x1="83.1986" y1="98.6273" x2="82.4363" y2="107.775" stroke="#557CB1" stroke-width="0.27095"/>
<line x1="83.3228" y1="98.4806" x2="89.8783" y2="98.4806" stroke="#557CB1" stroke-width="0.27095"/>
<path d="M76.9034 91.2003L84.4514 96.3503C84.4675 97.4158 83.4029 97.7107 82.8686 97.725L73.0921 97.8018L76.9034 91.2003Z" fill="#E28A27"/>
<path d="M76.9034 91.2003L80.3337 85.2589C78.5112 85.2336 74.4894 85.2295 72.9822 85.4156C71.4751 85.6016 71.7541 85.7921 72.0293 85.9216C73.3486 86.566 76.0349 88.1286 76.6478 88.7641C77.2607 89.3997 77.0736 90.653 76.9034 91.2003Z" fill="#F09A2A"/>
<path d="M83.0834 85.2621L80.3337 85.259L76.8654 91.2663L84.4441 96.4341C84.4689 93.3677 84.4882 87.0414 84.367 86.2673C84.2459 85.4932 83.4608 85.2746 83.0834 85.2621Z" fill="#F09A2A"/>
<line x1="76.9807" y1="91.089" x2="84.5214" y2="96.3228" stroke="#F3AF51" stroke-width="0.27095"/>
<line x1="76.9157" y1="90.9081" x2="80.1935" y2="85.2308" stroke="#F3AF51" stroke-width="0.27095"/>
<path d="M67.2369 93.0394L75.4709 89.0777C76.4017 89.5965 76.1248 90.6659 75.87 91.1357L71.0483 99.6409L67.2369 93.0394Z" fill="#1D4F91"/>
<path d="M67.2369 93.0394L63.8066 87.098C62.8735 88.6637 60.859 92.1446 60.2666 93.5429C59.6741 94.9412 59.9786 94.7947 60.2284 94.6212C61.446 93.8008 64.1425 92.2557 64.9993 92.0427C65.8561 91.8297 66.848 92.6184 67.2369 93.0394Z" fill="#0B6EBF"/>
<path d="M65.1843 84.7183L63.8067 87.098L67.275 93.1054L75.5398 89.1259C72.8966 87.5712 67.4275 84.3914 66.6966 84.1092C65.9656 83.8271 65.3838 84.3977 65.1843 84.7183Z" fill="#1D559E"/>
<line x1="67.1791" y1="92.9168" x2="75.4821" y2="89.0033" stroke="#557CB1" stroke-width="0.27095"/>
<line x1="66.99" y1="92.8826" x2="63.7122" y2="87.2054" stroke="#557CB1" stroke-width="0.27095"/>
<path d="M63.883 102.142L64.569 93.0301C65.4837 92.4834 66.2714 93.2579 66.5509 93.7135L71.5057 102.142H63.883Z" fill="#F09A2A"/>
<path d="M63.883 102.142H57.0225C57.9118 103.733 59.9191 107.218 60.8339 108.43C61.7486 109.642 61.774 109.305 61.7486 109.002C61.647 107.538 61.6571 104.43 61.9011 103.581C62.145 102.733 63.324 102.268 63.883 102.142Z" fill="#E28A27"/>
<path d="M55.6504 99.7589L57.0225 102.142H63.9592L64.6452 92.9945C61.9773 94.5063 56.4889 97.6528 55.8791 98.1447C55.2693 98.6367 55.4725 99.4258 55.6504 99.7589Z" fill="#F09A2A"/>
<line x1="63.748" y1="102.131" x2="64.5102" y2="92.9833" stroke="#F3AF51" stroke-width="0.27095"/>
<line x1="63.6238" y1="102.277" x2="57.0682" y2="102.277" stroke="#F3AF51" stroke-width="0.27095"/>
<path d="M70.1692 109.582L62.6213 104.432C62.6052 103.366 63.6697 103.071 64.204 103.057L73.9806 102.98L70.1692 109.582Z" fill="#1D4F91"/>
<path d="M70.1692 109.582L66.739 115.523C68.5615 115.548 72.5833 115.553 74.0904 115.367C75.5976 115.18 75.3185 114.99 75.0434 114.86C73.7241 114.216 71.0378 112.653 70.4249 112.018C69.812 111.382 69.9991 110.129 70.1692 109.582Z" fill="#0B6EBF"/>
<path d="M63.9893 115.52L66.739 115.523L70.2073 109.516L62.6286 104.348C62.6038 107.414 62.5845 113.741 62.7057 114.515C62.8268 115.289 63.6119 115.507 63.9893 115.52Z" fill="#1D559E"/>
<line x1="70.092" y1="109.693" x2="62.5513" y2="104.459" stroke="#557CB1" stroke-width="0.27095"/>
<line x1="70.1569" y1="109.874" x2="66.8792" y2="115.551" stroke="#557CB1" stroke-width="0.27095"/>
<path d="M79.8358 107.743L71.6018 111.704C70.6709 111.186 70.9478 110.116 71.2026 109.646L76.0244 101.141L79.8358 107.743Z" fill="#E28A27"/>
<path d="M79.8358 107.743L83.266 113.684C84.1992 112.118 86.2137 108.638 86.8061 107.239C87.3985 105.841 87.094 105.987 86.8443 106.161C85.6266 106.981 82.9302 108.526 82.0734 108.739C81.2165 108.952 80.2246 108.164 79.8358 107.743Z" fill="#F09A2A"/>
<path d="M81.8884 116.064L83.266 113.684L79.7976 107.677L71.5328 111.656C74.176 113.211 79.6451 116.391 80.3761 116.673C81.107 116.955 81.6888 116.384 81.8884 116.064Z" fill="#F09A2A"/>
<line x1="79.8935" y1="107.865" x2="71.5906" y2="111.779" stroke="#F3AF51" stroke-width="0.27095"/>
<line x1="80.0827" y1="107.899" x2="83.3605" y2="113.577" stroke="#F3AF51" stroke-width="0.27095"/>
<path d="M42.5829 117.488C38.5187 117.488 35.251 116.967 32.7799 115.927V111.245C34.178 111.765 35.6737 112.188 37.2669 112.513C38.8926 112.838 40.502 113.001 42.0952 113.001C44.5988 113.001 46.4683 112.708 47.7039 112.123C48.9719 111.538 49.6059 110.367 49.6059 108.611C49.6059 107.538 49.3458 106.677 48.8256 106.027C48.3054 105.376 47.4437 104.824 46.2407 104.368C45.0377 103.881 43.3795 103.377 41.2661 102.856C37.8846 101.979 35.5111 100.873 34.1455 99.54C32.7799 98.1744 32.0972 96.3049 32.0972 93.9313C32.0972 91.1677 33.1051 89.0055 35.1209 87.4448C37.1368 85.8841 40.1444 85.1038 44.1436 85.1038C45.9644 85.1038 47.6713 85.2339 49.2645 85.494C50.8902 85.7541 52.1583 86.0467 53.0687 86.3718V91.0539C50.5976 90.1109 47.8664 89.6395 44.8751 89.6395C42.5341 89.6395 40.7134 89.9484 39.4128 90.5661C38.1122 91.1839 37.462 92.3056 37.462 93.9313C37.462 94.8742 37.6896 95.6383 38.1447 96.2236C38.5999 96.8088 39.3803 97.3128 40.4858 97.7355C41.6237 98.1582 43.1844 98.6296 45.1678 99.1498C47.7364 99.8001 49.7197 100.58 51.1178 101.491C52.5484 102.369 53.5401 103.409 54.0929 104.612C54.6781 105.783 54.9707 107.116 54.9707 108.611C54.9707 111.375 53.9465 113.554 51.8982 115.147C49.8498 116.707 46.7447 117.488 42.5829 117.488ZM93.8457 117V85.5915H99.1618V112.903H115.256V117H93.8457ZM118.543 117L130.541 85.5915H136.491L148.391 117H142.928L139.807 108.904H127.175L124.054 117H118.543ZM128.004 104.807H138.929L133.467 90.4198L128.004 104.807ZM153.619 117V85.5915H168.055C171.566 85.5915 174.119 86.5019 175.712 88.3227C177.338 90.1109 178.151 92.5495 178.151 95.6383C178.151 97.8493 177.598 99.7351 176.492 101.296C175.387 102.856 173.794 103.946 171.713 104.563C172.298 104.986 172.753 105.441 173.078 105.929C173.403 106.417 173.729 107.067 174.054 107.88L178.004 117H172.542L168.689 108.221C168.331 107.376 167.892 106.774 167.372 106.417C166.884 106.059 166.039 105.88 164.836 105.88H158.935V117H153.619ZM158.935 101.588H166.641C168.559 101.588 170.071 101.117 171.176 100.174C172.282 99.2311 172.834 97.7192 172.834 95.6383C172.834 91.7041 170.932 89.737 167.128 89.737H158.935V101.588Z" fill="#FFBA49"/>
<path d="M208.36 100.629C208.36 106.879 202.979 112.141 196.092 112.141C189.206 112.141 183.825 106.879 183.825 100.629C183.825 94.3794 189.206 89.1169 196.092 89.1169C202.979 89.1169 208.36 94.3794 208.36 100.629Z" stroke="#FFBA49" stroke-width="4.3352"/>
<line x1="196.684" y1="76.0056" x2="196.684" y2="84.5174" stroke="#F09A2A" stroke-width="0.541899"/>
<line x1="196.684" y1="117.349" x2="196.684" y2="125.86" stroke="#F09A2A" stroke-width="0.541899"/>
<line y1="-0.27095" x2="8.74996" y2="-0.27095" transform="matrix(-0.725844 -0.687859 0.725844 -0.687859 180.309 87.4962)" stroke="#F09A2A" stroke-width="0.541899"/>
<line y1="-0.27095" x2="8.74996" y2="-0.27095" transform="matrix(-0.725844 -0.687859 0.725844 -0.687859 218.161 120.327)" stroke="#F09A2A" stroke-width="0.541899"/>
<line y1="-0.27095" x2="8.74996" y2="-0.27095" transform="matrix(0.725844 -0.687859 0.725844 0.687859 211.81 87.4962)" stroke="#F09A2A" stroke-width="0.541899"/>
<line x1="215.018" y1="100.054" x2="224" y2="100.054" stroke="#F09A2A" stroke-width="0.541899"/>
<path d="M396.724 108.151L393.594 105.021V100.875C393.59 98.0096 392.524 95.2474 390.602 93.1223C388.68 90.9973 386.038 89.6605 383.188 89.3703V87H380.875V89.3703C378.024 89.6605 375.383 90.9973 373.46 93.1223C371.538 95.2474 370.472 98.0096 370.469 100.875V105.021L367.339 108.151C367.122 108.368 367 108.662 367 108.969V112.438C367 112.744 367.122 113.038 367.339 113.255C367.555 113.472 367.85 113.594 368.156 113.594H376.25V114.492C376.225 115.959 376.742 117.384 377.702 118.493C378.662 119.602 379.998 120.318 381.453 120.503C382.257 120.583 383.069 120.494 383.836 120.241C384.603 119.988 385.309 119.578 385.908 119.036C386.507 118.494 386.986 117.833 387.314 117.094C387.642 116.356 387.812 115.558 387.812 114.75V113.594H395.906C396.213 113.594 396.507 113.472 396.724 113.255C396.941 113.038 397.062 112.744 397.062 112.438V108.969C397.062 108.662 396.941 108.368 396.724 108.151ZM385.5 114.75C385.5 115.67 385.135 116.552 384.484 117.203C383.834 117.853 382.951 118.219 382.031 118.219C381.111 118.219 380.229 117.853 379.578 117.203C378.928 116.552 378.562 115.67 378.562 114.75V113.594H385.5V114.75ZM394.75 111.281H369.312V109.447L372.442 106.317C372.659 106.101 372.781 105.807 372.781 105.5V100.875C372.781 98.4217 373.756 96.069 375.491 94.3343C377.225 92.5996 379.578 91.625 382.031 91.625C384.485 91.625 386.837 92.5996 388.572 94.3343C390.307 96.069 391.281 98.4217 391.281 100.875V105.5C391.281 105.807 391.403 106.101 391.62 106.317L394.75 109.447V111.281Z" fill="#557CB1"/>
</svg>
