<svg width="428" height="926" viewBox="0 0 428 926" fill="none" xmlns="http://www.w3.org/2000/svg">
<rect width="428" height="926" fill="white"/>
<path d="M71.25 880H66.7614V865.455H71.4489C72.8598 865.455 74.0672 865.746 75.071 866.328C76.0748 866.906 76.8442 867.737 77.3793 868.821C77.9143 869.901 78.1818 871.193 78.1818 872.699C78.1818 874.214 77.9119 875.518 77.3722 876.612C76.8324 877.701 76.0464 878.539 75.0142 879.126C73.982 879.709 72.7273 880 71.25 880ZM68.5227 878.438H71.1364C72.339 878.438 73.3357 878.205 74.1264 877.741C74.9171 877.277 75.5066 876.617 75.8949 875.76C76.2831 874.903 76.4773 873.883 76.4773 872.699C76.4773 871.525 76.2855 870.514 75.902 869.666C75.5185 868.814 74.9455 868.161 74.1832 867.706C73.4209 867.247 72.4716 867.017 71.3352 867.017H68.5227V878.438ZM85.3409 880.227C84.3561 880.227 83.492 879.993 82.7486 879.524C82.0099 879.055 81.4323 878.4 81.0156 877.557C80.6037 876.714 80.3977 875.729 80.3977 874.602C80.3977 873.466 80.6037 872.474 81.0156 871.626C81.4323 870.779 82.0099 870.121 82.7486 869.652C83.492 869.183 84.3561 868.949 85.3409 868.949C86.3258 868.949 87.1875 869.183 87.9261 869.652C88.6695 870.121 89.2472 870.779 89.6591 871.626C90.0758 872.474 90.2841 873.466 90.2841 874.602C90.2841 875.729 90.0758 876.714 89.6591 877.557C89.2472 878.4 88.6695 879.055 87.9261 879.524C87.1875 879.993 86.3258 880.227 85.3409 880.227ZM85.3409 878.722C86.089 878.722 86.7045 878.53 87.1875 878.146C87.6705 877.763 88.0279 877.259 88.2599 876.634C88.492 876.009 88.608 875.331 88.608 874.602C88.608 873.873 88.492 873.194 88.2599 872.564C88.0279 871.934 87.6705 871.425 87.1875 871.037C86.7045 870.649 86.089 870.455 85.3409 870.455C84.5928 870.455 83.9773 870.649 83.4943 871.037C83.0114 871.425 82.6539 871.934 82.4219 872.564C82.1899 873.194 82.0739 873.873 82.0739 874.602C82.0739 875.331 82.1899 876.009 82.4219 876.634C82.6539 877.259 83.0114 877.763 83.4943 878.146C83.9773 878.53 84.5928 878.722 85.3409 878.722ZM94.5188 873.438V880H92.8427V869.091H94.462V870.795H94.604C94.8597 870.241 95.248 869.796 95.7688 869.46C96.2897 869.119 96.962 868.949 97.7859 868.949C98.5245 868.949 99.1708 869.1 99.7248 869.403C100.279 869.702 100.71 870.156 101.017 870.767C101.325 871.373 101.479 872.14 101.479 873.068V880H99.8029V873.182C99.8029 872.325 99.5804 871.657 99.1353 871.179C98.6902 870.696 98.0794 870.455 97.3029 870.455C96.7679 870.455 96.2897 870.571 95.8683 870.803C95.4516 871.035 95.1225 871.373 94.881 871.818C94.6396 872.263 94.5188 872.803 94.5188 873.438ZM106.019 865.455V866.733C106.019 867.121 105.948 867.536 105.806 867.976C105.669 868.411 105.465 868.835 105.195 869.247C104.93 869.654 104.608 870.009 104.229 870.312L103.32 869.574C103.619 869.148 103.877 868.705 104.094 868.246C104.317 867.782 104.428 867.287 104.428 866.761V865.455H106.019ZM113.271 869.091V870.511H107.617V869.091H113.271ZM109.265 866.477H110.941V876.875C110.941 877.348 111.01 877.704 111.147 877.94C111.289 878.172 111.469 878.329 111.687 878.409C111.909 878.485 112.144 878.523 112.39 878.523C112.575 878.523 112.726 878.513 112.844 878.494C112.963 878.471 113.058 878.452 113.129 878.438L113.469 879.943C113.356 879.986 113.197 880.028 112.994 880.071C112.79 880.118 112.532 880.142 112.219 880.142C111.746 880.142 111.282 880.04 110.827 879.837C110.378 879.633 110.004 879.323 109.705 878.906C109.412 878.49 109.265 877.964 109.265 877.33V866.477ZM123.093 873.438V880H121.417V865.455H123.093V870.795H123.235C123.491 870.232 123.874 869.785 124.386 869.453C124.902 869.117 125.588 868.949 126.445 868.949C127.189 868.949 127.84 869.098 128.398 869.396C128.957 869.69 129.39 870.142 129.698 870.753C130.011 871.359 130.167 872.131 130.167 873.068V880H128.491V873.182C128.491 872.315 128.266 871.645 127.816 871.172C127.371 870.694 126.753 870.455 125.962 870.455C125.413 870.455 124.921 870.571 124.485 870.803C124.054 871.035 123.713 871.373 123.462 871.818C123.216 872.263 123.093 872.803 123.093 873.438ZM136.444 880.256C135.752 880.256 135.125 880.125 134.561 879.865C133.998 879.6 133.551 879.219 133.219 878.722C132.888 878.22 132.722 877.614 132.722 876.903C132.722 876.278 132.845 875.772 133.091 875.384C133.337 874.991 133.667 874.683 134.078 874.46C134.49 874.238 134.945 874.072 135.442 873.963C135.944 873.849 136.448 873.759 136.955 873.693C137.618 873.608 138.155 873.544 138.567 873.501C138.984 873.454 139.287 873.376 139.476 873.267C139.67 873.158 139.767 872.969 139.767 872.699V872.642C139.767 871.941 139.576 871.397 139.192 871.009C138.813 870.62 138.238 870.426 137.466 870.426C136.666 870.426 136.039 870.601 135.584 870.952C135.13 871.302 134.81 871.676 134.625 872.074L133.034 871.506C133.319 870.843 133.697 870.327 134.171 869.957C134.649 869.583 135.17 869.323 135.733 869.176C136.301 869.025 136.86 868.949 137.409 868.949C137.76 868.949 138.162 868.991 138.617 869.077C139.076 869.157 139.519 869.325 139.945 869.581C140.376 869.837 140.733 870.223 141.017 870.739C141.301 871.255 141.444 871.946 141.444 872.812V880H139.767V878.523H139.682C139.569 878.759 139.379 879.013 139.114 879.283C138.849 879.553 138.496 879.782 138.056 879.972C137.615 880.161 137.078 880.256 136.444 880.256ZM136.699 878.75C137.362 878.75 137.921 878.62 138.375 878.359C138.835 878.099 139.18 877.763 139.412 877.351C139.649 876.939 139.767 876.506 139.767 876.051V874.517C139.696 874.602 139.54 874.68 139.299 874.751C139.062 874.818 138.787 874.877 138.475 874.929C138.167 874.976 137.866 875.019 137.573 875.057C137.284 875.09 137.05 875.118 136.87 875.142C136.434 875.199 136.027 875.291 135.648 875.419C135.274 875.542 134.971 875.729 134.739 875.98C134.512 876.226 134.398 876.562 134.398 876.989C134.398 877.571 134.614 878.011 135.044 878.31C135.48 878.603 136.032 878.75 136.699 878.75ZM153.033 869.091L148.999 880H147.294L143.26 869.091H145.078L148.089 877.784H148.203L151.214 869.091H153.033ZM159.428 880.227C158.377 880.227 157.47 879.995 156.708 879.531C155.951 879.062 155.366 878.409 154.954 877.571C154.547 876.728 154.343 875.748 154.343 874.631C154.343 873.513 154.547 872.528 154.954 871.676C155.366 870.819 155.939 870.152 156.673 869.673C157.411 869.19 158.273 868.949 159.258 868.949C159.826 868.949 160.387 869.044 160.941 869.233C161.495 869.422 161.999 869.73 162.454 870.156C162.908 870.578 163.271 871.136 163.54 871.832C163.81 872.528 163.945 873.385 163.945 874.403V875.114H155.536V873.665H162.241C162.241 873.049 162.118 872.5 161.871 872.017C161.63 871.534 161.284 871.153 160.835 870.874C160.389 870.594 159.864 870.455 159.258 870.455C158.59 870.455 158.013 870.62 157.525 870.952C157.042 871.278 156.67 871.705 156.41 872.23C156.149 872.756 156.019 873.319 156.019 873.92V874.886C156.019 875.71 156.161 876.409 156.445 876.982C156.734 877.55 157.134 877.983 157.646 878.281C158.157 878.575 158.751 878.722 159.428 878.722C159.869 878.722 160.266 878.66 160.621 878.537C160.981 878.409 161.291 878.22 161.552 877.969C161.812 877.713 162.013 877.396 162.156 877.017L163.775 877.472C163.604 878.021 163.318 878.504 162.915 878.92C162.513 879.332 162.016 879.654 161.424 879.886C160.832 880.114 160.167 880.227 159.428 880.227ZM175.33 880.256C174.639 880.256 174.012 880.125 173.448 879.865C172.885 879.6 172.437 879.219 172.106 878.722C171.774 878.22 171.609 877.614 171.609 876.903C171.609 876.278 171.732 875.772 171.978 875.384C172.224 874.991 172.553 874.683 172.965 874.46C173.377 874.238 173.832 874.072 174.329 873.963C174.831 873.849 175.335 873.759 175.842 873.693C176.504 873.608 177.042 873.544 177.454 873.501C177.871 873.454 178.174 873.376 178.363 873.267C178.557 873.158 178.654 872.969 178.654 872.699V872.642C178.654 871.941 178.462 871.397 178.079 871.009C177.7 870.62 177.125 870.426 176.353 870.426C175.553 870.426 174.925 870.601 174.471 870.952C174.016 871.302 173.697 871.676 173.512 872.074L171.921 871.506C172.205 870.843 172.584 870.327 173.058 869.957C173.536 869.583 174.057 869.323 174.62 869.176C175.188 869.025 175.747 868.949 176.296 868.949C176.647 868.949 177.049 868.991 177.504 869.077C177.963 869.157 178.406 869.325 178.832 869.581C179.263 869.837 179.62 870.223 179.904 870.739C180.188 871.255 180.33 871.946 180.33 872.812V880H178.654V878.523H178.569C178.455 878.759 178.266 879.013 178.001 879.283C177.736 879.553 177.383 879.782 176.942 879.972C176.502 880.161 175.965 880.256 175.33 880.256ZM175.586 878.75C176.249 878.75 176.808 878.62 177.262 878.359C177.721 878.099 178.067 877.763 178.299 877.351C178.536 876.939 178.654 876.506 178.654 876.051V874.517C178.583 874.602 178.427 874.68 178.185 874.751C177.949 874.818 177.674 874.877 177.362 874.929C177.054 874.976 176.753 875.019 176.46 875.057C176.171 875.09 175.936 875.118 175.756 875.142C175.321 875.199 174.914 875.291 174.535 875.419C174.161 875.542 173.858 875.729 173.626 875.98C173.398 876.226 173.285 876.562 173.285 876.989C173.285 877.571 173.5 878.011 173.931 878.31C174.367 878.603 174.918 878.75 175.586 878.75ZM185.066 873.438V880H183.39V869.091H185.009V870.795H185.151C185.407 870.241 185.795 869.796 186.316 869.46C186.837 869.119 187.509 868.949 188.333 868.949C189.071 868.949 189.718 869.1 190.272 869.403C190.826 869.702 191.257 870.156 191.564 870.767C191.872 871.373 192.026 872.14 192.026 873.068V880H190.35V873.182C190.35 872.325 190.127 871.657 189.682 871.179C189.237 870.696 188.626 870.455 187.85 870.455C187.315 870.455 186.837 870.571 186.415 870.803C185.998 871.035 185.669 871.373 185.428 871.818C185.186 872.263 185.066 872.803 185.066 873.438ZM203.924 880.256C203.233 880.256 202.605 880.125 202.042 879.865C201.478 879.6 201.031 879.219 200.7 878.722C200.368 878.22 200.202 877.614 200.202 876.903C200.202 876.278 200.326 875.772 200.572 875.384C200.818 874.991 201.147 874.683 201.559 874.46C201.971 874.238 202.425 874.072 202.923 873.963C203.424 873.849 203.929 873.759 204.435 873.693C205.098 873.608 205.636 873.544 206.048 873.501C206.464 873.454 206.767 873.376 206.957 873.267C207.151 873.158 207.248 872.969 207.248 872.699V872.642C207.248 871.941 207.056 871.397 206.673 871.009C206.294 870.62 205.719 870.426 204.947 870.426C204.147 870.426 203.519 870.601 203.065 870.952C202.61 871.302 202.29 871.676 202.106 872.074L200.515 871.506C200.799 870.843 201.178 870.327 201.651 869.957C202.129 869.583 202.65 869.323 203.214 869.176C203.782 869.025 204.341 868.949 204.89 868.949C205.24 868.949 205.643 868.991 206.097 869.077C206.557 869.157 206.999 869.325 207.425 869.581C207.856 869.837 208.214 870.223 208.498 870.739C208.782 871.255 208.924 871.946 208.924 872.812V880H207.248V878.523H207.163C207.049 878.759 206.86 879.013 206.594 879.283C206.329 879.553 205.977 879.782 205.536 879.972C205.096 880.161 204.558 880.256 203.924 880.256ZM204.18 878.75C204.843 878.75 205.401 878.62 205.856 878.359C206.315 878.099 206.661 877.763 206.893 877.351C207.129 876.939 207.248 876.506 207.248 876.051V874.517C207.177 874.602 207.021 874.68 206.779 874.751C206.542 874.818 206.268 874.877 205.955 874.929C205.647 874.976 205.347 875.019 205.053 875.057C204.764 875.09 204.53 875.118 204.35 875.142C203.915 875.199 203.507 875.291 203.129 875.419C202.754 875.542 202.451 875.729 202.219 875.98C201.992 876.226 201.879 876.562 201.879 876.989C201.879 877.571 202.094 878.011 202.525 878.31C202.96 878.603 203.512 878.75 204.18 878.75ZM216.415 880.227C215.392 880.227 214.512 879.986 213.773 879.503C213.034 879.02 212.466 878.355 212.069 877.507C211.671 876.66 211.472 875.691 211.472 874.602C211.472 873.494 211.676 872.517 212.083 871.669C212.495 870.817 213.068 870.152 213.801 869.673C214.54 869.19 215.402 868.949 216.387 868.949C217.154 868.949 217.845 869.091 218.461 869.375C219.076 869.659 219.58 870.057 219.973 870.568C220.366 871.08 220.61 871.676 220.705 872.358H219.029C218.901 871.861 218.617 871.42 218.176 871.037C217.741 870.649 217.154 870.455 216.415 870.455C215.762 870.455 215.189 870.625 214.696 870.966C214.209 871.302 213.828 871.778 213.553 872.393C213.283 873.004 213.148 873.722 213.148 874.545C213.148 875.388 213.281 876.122 213.546 876.747C213.816 877.372 214.194 877.857 214.682 878.203C215.175 878.549 215.752 878.722 216.415 878.722C216.851 878.722 217.246 878.646 217.601 878.494C217.956 878.343 218.257 878.125 218.503 877.841C218.749 877.557 218.925 877.216 219.029 876.818H220.705C220.61 877.462 220.376 878.042 220.002 878.558C219.632 879.07 219.142 879.477 218.532 879.78C217.926 880.078 217.22 880.227 216.415 880.227ZM227.587 880.227C226.564 880.227 225.684 879.986 224.945 879.503C224.206 879.02 223.638 878.355 223.24 877.507C222.843 876.66 222.644 875.691 222.644 874.602C222.644 873.494 222.847 872.517 223.255 871.669C223.667 870.817 224.239 870.152 224.973 869.673C225.712 869.19 226.574 868.949 227.559 868.949C228.326 868.949 229.017 869.091 229.632 869.375C230.248 869.659 230.752 870.057 231.145 870.568C231.538 871.08 231.782 871.676 231.877 872.358H230.201C230.073 871.861 229.789 871.42 229.348 871.037C228.913 870.649 228.326 870.455 227.587 870.455C226.934 870.455 226.361 870.625 225.868 870.966C225.381 871.302 224.999 871.778 224.725 872.393C224.455 873.004 224.32 873.722 224.32 874.545C224.32 875.388 224.453 876.122 224.718 876.747C224.988 877.372 225.366 877.857 225.854 878.203C226.346 878.549 226.924 878.722 227.587 878.722C228.023 878.722 228.418 878.646 228.773 878.494C229.128 878.343 229.429 878.125 229.675 877.841C229.921 877.557 230.096 877.216 230.201 876.818H231.877C231.782 877.462 231.548 878.042 231.174 878.558C230.804 879.07 230.314 879.477 229.703 879.78C229.097 880.078 228.392 880.227 227.587 880.227ZM238.759 880.227C237.774 880.227 236.91 879.993 236.167 879.524C235.428 879.055 234.85 878.4 234.434 877.557C234.022 876.714 233.816 875.729 233.816 874.602C233.816 873.466 234.022 872.474 234.434 871.626C234.85 870.779 235.428 870.121 236.167 869.652C236.91 869.183 237.774 868.949 238.759 868.949C239.744 868.949 240.605 869.183 241.344 869.652C242.087 870.121 242.665 870.779 243.077 871.626C243.494 872.474 243.702 873.466 243.702 874.602C243.702 875.729 243.494 876.714 243.077 877.557C242.665 878.4 242.087 879.055 241.344 879.524C240.605 879.993 239.744 880.227 238.759 880.227ZM238.759 878.722C239.507 878.722 240.123 878.53 240.605 878.146C241.088 877.763 241.446 877.259 241.678 876.634C241.91 876.009 242.026 875.331 242.026 874.602C242.026 873.873 241.91 873.194 241.678 872.564C241.446 871.934 241.088 871.425 240.605 871.037C240.123 870.649 239.507 870.455 238.759 870.455C238.011 870.455 237.395 870.649 236.912 871.037C236.429 871.425 236.072 871.934 235.84 872.564C235.608 873.194 235.492 873.873 235.492 874.602C235.492 875.331 235.608 876.009 235.84 876.634C236.072 877.259 236.429 877.763 236.912 878.146C237.395 878.53 238.011 878.722 238.759 878.722ZM253.136 875.54V869.091H254.812V880H253.136V878.153H253.022C252.766 878.707 252.369 879.179 251.829 879.567C251.289 879.95 250.607 880.142 249.783 880.142C249.102 880.142 248.496 879.993 247.965 879.695C247.435 879.392 247.018 878.937 246.715 878.331C246.412 877.72 246.261 876.951 246.261 876.023V869.091H247.937V875.909C247.937 876.705 248.159 877.339 248.604 877.812C249.054 878.286 249.627 878.523 250.323 878.523C250.74 878.523 251.164 878.416 251.594 878.203C252.03 877.99 252.395 877.663 252.688 877.223C252.987 876.783 253.136 876.222 253.136 875.54ZM259.558 873.438V880H257.882V869.091H259.501V870.795H259.643C259.899 870.241 260.287 869.796 260.808 869.46C261.329 869.119 262.001 868.949 262.825 868.949C263.564 868.949 264.21 869.1 264.764 869.403C265.318 869.702 265.749 870.156 266.056 870.767C266.364 871.373 266.518 872.14 266.518 873.068V880H264.842V873.182C264.842 872.325 264.619 871.657 264.174 871.179C263.729 870.696 263.118 870.455 262.342 870.455C261.807 870.455 261.329 870.571 260.907 870.803C260.491 871.035 260.162 871.373 259.92 871.818C259.679 872.263 259.558 872.803 259.558 873.438ZM274.325 869.091V870.511H268.672V869.091H274.325ZM270.32 866.477H271.996V876.875C271.996 877.348 272.064 877.704 272.202 877.94C272.344 878.172 272.524 878.329 272.741 878.409C272.964 878.485 273.198 878.523 273.445 878.523C273.629 878.523 273.781 878.513 273.899 878.494C274.018 878.471 274.112 878.452 274.183 878.438L274.524 879.943C274.411 879.986 274.252 880.028 274.048 880.071C273.845 880.118 273.587 880.142 273.274 880.142C272.801 880.142 272.337 880.04 271.882 879.837C271.432 879.633 271.058 879.323 270.76 878.906C270.466 878.49 270.32 877.964 270.32 877.33V866.477ZM279.034 875.909V875.824C279.044 874.92 279.138 874.2 279.318 873.665C279.498 873.13 279.754 872.696 280.085 872.365C280.417 872.034 280.814 871.728 281.278 871.449C281.558 871.278 281.809 871.077 282.031 870.845C282.254 870.608 282.429 870.336 282.557 870.028C282.689 869.721 282.756 869.38 282.756 869.006C282.756 868.542 282.647 868.139 282.429 867.798C282.211 867.457 281.92 867.195 281.555 867.01C281.191 866.825 280.786 866.733 280.341 866.733C279.953 866.733 279.579 866.813 279.219 866.974C278.859 867.135 278.558 867.389 278.317 867.734C278.075 868.08 277.936 868.532 277.898 869.091H276.108C276.146 868.286 276.354 867.597 276.733 867.024C277.116 866.451 277.621 866.013 278.246 865.71C278.875 865.407 279.574 865.256 280.341 865.256C281.174 865.256 281.899 865.421 282.514 865.753C283.134 866.084 283.613 866.539 283.949 867.116C284.29 867.694 284.46 868.352 284.46 869.091C284.46 869.612 284.38 870.083 284.219 870.504C284.062 870.926 283.835 871.302 283.537 871.634C283.243 871.965 282.888 872.259 282.472 872.514C282.055 872.775 281.721 873.049 281.47 873.338C281.219 873.622 281.037 873.961 280.923 874.354C280.81 874.747 280.748 875.237 280.739 875.824V875.909H279.034ZM279.943 880.114C279.593 880.114 279.292 879.988 279.041 879.737C278.79 879.486 278.665 879.186 278.665 878.835C278.665 878.485 278.79 878.184 279.041 877.933C279.292 877.682 279.593 877.557 279.943 877.557C280.294 877.557 280.594 877.682 280.845 877.933C281.096 878.184 281.222 878.485 281.222 878.835C281.222 879.067 281.162 879.28 281.044 879.474C280.93 879.669 280.777 879.825 280.582 879.943C280.393 880.057 280.18 880.114 279.943 880.114Z" fill="black"/>
<path d="M300.79 869.091C300.705 868.371 300.359 867.812 299.753 867.415C299.147 867.017 298.404 866.818 297.523 866.818C296.879 866.818 296.316 866.922 295.833 867.131C295.355 867.339 294.98 867.625 294.711 867.99C294.445 868.355 294.313 868.769 294.313 869.233C294.313 869.621 294.405 869.955 294.59 870.234C294.779 870.509 295.021 870.739 295.314 870.923C295.608 871.103 295.916 871.252 296.238 871.371C296.56 871.484 296.855 871.577 297.125 871.648L298.603 872.045C298.981 872.145 299.403 872.282 299.867 872.457C300.336 872.633 300.783 872.872 301.209 873.175C301.64 873.473 301.995 873.857 302.275 874.325C302.554 874.794 302.694 875.369 302.694 876.051C302.694 876.837 302.488 877.547 302.076 878.182C301.668 878.816 301.072 879.321 300.286 879.695C299.505 880.069 298.555 880.256 297.438 880.256C296.396 880.256 295.494 880.088 294.732 879.751C293.974 879.415 293.378 878.946 292.942 878.345C292.511 877.744 292.267 877.045 292.211 876.25H294.029C294.076 876.799 294.261 877.254 294.583 877.614C294.909 877.969 295.321 878.234 295.819 878.409C296.32 878.58 296.86 878.665 297.438 878.665C298.11 878.665 298.714 878.556 299.249 878.338C299.784 878.116 300.208 877.808 300.52 877.415C300.833 877.017 300.989 876.553 300.989 876.023C300.989 875.54 300.854 875.147 300.584 874.844C300.314 874.541 299.959 874.295 299.519 874.105C299.078 873.916 298.603 873.75 298.091 873.608L296.301 873.097C295.165 872.77 294.266 872.304 293.603 871.697C292.94 871.091 292.608 870.298 292.608 869.318C292.608 868.504 292.828 867.794 293.269 867.188C293.714 866.577 294.31 866.103 295.059 865.767C295.811 865.426 296.652 865.256 297.58 865.256C298.517 865.256 299.351 865.424 300.08 865.76C300.809 866.091 301.387 866.546 301.813 867.124C302.244 867.701 302.471 868.357 302.495 869.091H300.79ZM305.362 880V869.091H307.038V880H305.362ZM306.214 867.273C305.888 867.273 305.606 867.161 305.369 866.939C305.137 866.716 305.021 866.449 305.021 866.136C305.021 865.824 305.137 865.556 305.369 865.334C305.606 865.111 305.888 865 306.214 865C306.541 865 306.821 865.111 307.053 865.334C307.289 865.556 307.408 865.824 307.408 866.136C307.408 866.449 307.289 866.716 307.053 866.939C306.821 867.161 306.541 867.273 306.214 867.273ZM314.512 884.318C313.702 884.318 313.006 884.214 312.424 884.006C311.841 883.802 311.356 883.532 310.968 883.196C310.584 882.865 310.279 882.509 310.051 882.131L311.387 881.193C311.538 881.392 311.73 881.619 311.962 881.875C312.194 882.135 312.511 882.36 312.914 882.55C313.321 882.744 313.854 882.841 314.512 882.841C315.392 882.841 316.119 882.628 316.692 882.202C317.265 881.776 317.551 881.108 317.551 880.199V877.983H317.409C317.286 878.182 317.111 878.428 316.884 878.722C316.661 879.01 316.339 879.268 315.918 879.496C315.501 879.718 314.938 879.83 314.228 879.83C313.347 879.83 312.556 879.621 311.855 879.205C311.159 878.788 310.608 878.182 310.201 877.386C309.798 876.591 309.597 875.625 309.597 874.489C309.597 873.371 309.793 872.398 310.186 871.57C310.579 870.736 311.126 870.092 311.827 869.638C312.528 869.179 313.337 868.949 314.256 868.949C314.966 868.949 315.53 869.067 315.946 869.304C316.368 869.536 316.69 869.801 316.912 870.099C317.14 870.393 317.315 870.634 317.438 870.824H317.608V869.091H319.228V880.312C319.228 881.25 319.015 882.012 318.588 882.599C318.167 883.191 317.599 883.625 316.884 883.899C316.174 884.179 315.383 884.318 314.512 884.318ZM314.455 878.324C315.127 878.324 315.695 878.17 316.159 877.862C316.623 877.554 316.976 877.112 317.218 876.534C317.459 875.956 317.58 875.265 317.58 874.46C317.58 873.674 317.462 872.981 317.225 872.379C316.988 871.778 316.638 871.307 316.174 870.966C315.71 870.625 315.137 870.455 314.455 870.455C313.745 870.455 313.153 870.634 312.679 870.994C312.211 871.354 311.858 871.837 311.621 872.443C311.389 873.049 311.273 873.722 311.273 874.46C311.273 875.218 311.391 875.888 311.628 876.47C311.87 877.048 312.225 877.502 312.694 877.834C313.167 878.161 313.754 878.324 314.455 878.324ZM323.972 873.438V880H322.296V869.091H323.915V870.795H324.057C324.313 870.241 324.701 869.796 325.222 869.46C325.743 869.119 326.415 868.949 327.239 868.949C327.978 868.949 328.624 869.1 329.178 869.403C329.732 869.702 330.163 870.156 330.471 870.767C330.778 871.373 330.932 872.14 330.932 873.068V880H329.256V873.182C329.256 872.325 329.033 871.657 328.588 871.179C328.143 870.696 327.533 870.455 326.756 870.455C326.221 870.455 325.743 870.571 325.321 870.803C324.905 871.035 324.576 871.373 324.334 871.818C324.093 872.263 323.972 872.803 323.972 873.438ZM346.495 875.54V869.091H348.171V880H346.495V878.153H346.381C346.126 878.707 345.728 879.179 345.188 879.567C344.648 879.95 343.967 880.142 343.143 880.142C342.461 880.142 341.855 879.993 341.325 879.695C340.794 879.392 340.378 878.937 340.075 878.331C339.772 877.72 339.62 876.951 339.62 876.023V869.091H341.296V875.909C341.296 876.705 341.519 877.339 341.964 877.812C342.414 878.286 342.987 878.523 343.683 878.523C344.099 878.523 344.523 878.416 344.954 878.203C345.389 877.99 345.754 877.663 346.048 877.223C346.346 876.783 346.495 876.222 346.495 875.54ZM351.241 884.091V869.091H352.86V870.824H353.059C353.182 870.634 353.353 870.393 353.571 870.099C353.793 869.801 354.11 869.536 354.522 869.304C354.939 869.067 355.502 868.949 356.213 868.949C357.131 868.949 357.941 869.179 358.642 869.638C359.342 870.097 359.889 870.748 360.282 871.591C360.675 872.434 360.872 873.428 360.872 874.574C360.872 875.729 360.675 876.731 360.282 877.578C359.889 878.421 359.345 879.074 358.649 879.538C357.953 879.998 357.15 880.227 356.241 880.227C355.54 880.227 354.979 880.111 354.558 879.879C354.136 879.643 353.812 879.375 353.585 879.077C353.358 878.774 353.182 878.523 353.059 878.324H352.917V884.091H351.241ZM352.889 874.545C352.889 875.369 353.01 876.096 353.251 876.726C353.493 877.351 353.845 877.841 354.309 878.196C354.773 878.546 355.342 878.722 356.014 878.722C356.715 878.722 357.299 878.537 357.768 878.168C358.242 877.794 358.597 877.292 358.833 876.662C359.075 876.027 359.196 875.322 359.196 874.545C359.196 873.778 359.077 873.087 358.841 872.472C358.609 871.851 358.256 871.361 357.782 871.001C357.314 870.637 356.724 870.455 356.014 870.455C355.332 870.455 354.759 870.627 354.295 870.973C353.831 871.314 353.481 871.792 353.244 872.408C353.007 873.018 352.889 873.731 352.889 874.545Z" fill="#0072BB"/>
<rect x="31.5" y="360.5" width="365" height="59" rx="14.5" fill="white" stroke="#C1C1C1"/>
<path d="M52.63 396V381.455H61.4084V383.017H54.3913V387.932H60.9538V389.494H54.3913V394.438H61.522V396H52.63ZM64.3558 396V385.091H65.9751V386.795H66.1172C66.3444 386.213 66.7114 385.761 67.218 385.439C67.7247 385.112 68.3331 384.949 69.0433 384.949C69.763 384.949 70.362 385.112 70.8402 385.439C71.3231 385.761 71.6996 386.213 71.9694 386.795H72.0831C72.3624 386.232 72.7815 385.785 73.3402 385.453C73.8989 385.117 74.5689 384.949 75.3501 384.949C76.3255 384.949 77.1233 385.254 77.7436 385.865C78.3639 386.471 78.674 387.416 78.674 388.699V396H76.9979V388.699C76.9979 387.894 76.7777 387.319 76.3373 386.973C75.897 386.627 75.3785 386.455 74.7819 386.455C74.0149 386.455 73.4207 386.687 72.9993 387.151C72.5779 387.61 72.3672 388.192 72.3672 388.898V396H70.6626V388.528C70.6626 387.908 70.4614 387.409 70.0589 387.03C69.6565 386.646 69.138 386.455 68.5035 386.455C68.0679 386.455 67.6607 386.571 67.2819 386.803C66.9079 387.035 66.6049 387.357 66.3729 387.768C66.1456 388.176 66.0319 388.647 66.0319 389.182V396H64.3558ZM84.9488 396.256C84.2576 396.256 83.6302 396.125 83.0667 395.865C82.5033 395.6 82.0559 395.219 81.7244 394.722C81.393 394.22 81.2273 393.614 81.2273 392.903C81.2273 392.278 81.3504 391.772 81.5966 391.384C81.8428 390.991 82.1719 390.683 82.5838 390.46C82.9957 390.238 83.4503 390.072 83.9474 389.963C84.4493 389.849 84.9536 389.759 85.4602 389.693C86.1231 389.608 86.6605 389.544 87.0724 389.501C87.4891 389.454 87.7921 389.376 87.9815 389.267C88.1756 389.158 88.2727 388.969 88.2727 388.699V388.642C88.2727 387.941 88.0809 387.397 87.6974 387.009C87.3186 386.62 86.7434 386.426 85.9716 386.426C85.1714 386.426 84.544 386.601 84.0895 386.952C83.6349 387.302 83.3153 387.676 83.1307 388.074L81.5398 387.506C81.8238 386.843 82.2026 386.327 82.6761 385.957C83.1543 385.583 83.6752 385.323 84.2386 385.176C84.8068 385.025 85.3655 384.949 85.9148 384.949C86.2651 384.949 86.6676 384.991 87.1221 385.077C87.5814 385.157 88.0241 385.325 88.4503 385.581C88.8811 385.837 89.2386 386.223 89.5227 386.739C89.8068 387.255 89.9488 387.946 89.9488 388.812V396H88.2727V394.523H88.1875C88.0738 394.759 87.8845 395.013 87.6193 395.283C87.3542 395.553 87.0014 395.782 86.5611 395.972C86.1207 396.161 85.5833 396.256 84.9488 396.256ZM85.2045 394.75C85.8674 394.75 86.4261 394.62 86.8807 394.359C87.3399 394.099 87.6856 393.763 87.9176 393.351C88.1543 392.939 88.2727 392.506 88.2727 392.051V390.517C88.2017 390.602 88.0454 390.68 87.804 390.751C87.5672 390.818 87.2926 390.877 86.9801 390.929C86.6723 390.976 86.3717 391.019 86.0781 391.057C85.7893 391.09 85.5549 391.118 85.375 391.142C84.9394 391.199 84.5322 391.291 84.1534 391.419C83.7793 391.542 83.4763 391.729 83.2443 391.98C83.017 392.226 82.9034 392.562 82.9034 392.989C82.9034 393.571 83.1188 394.011 83.5497 394.31C83.9853 394.603 84.5369 394.75 85.2045 394.75ZM93.0082 396V385.091H94.6843V396H93.0082ZM93.8604 383.273C93.5337 383.273 93.252 383.161 93.0153 382.939C92.7832 382.716 92.6672 382.449 92.6672 382.136C92.6672 381.824 92.7832 381.556 93.0153 381.334C93.252 381.111 93.5337 381 93.8604 381C94.1871 381 94.4665 381.111 94.6985 381.334C94.9352 381.556 95.0536 381.824 95.0536 382.136C95.0536 382.449 94.9352 382.716 94.6985 382.939C94.4665 383.161 94.1871 383.273 93.8604 383.273ZM99.4304 381.455V396H97.7542V381.455H99.4304Z" fill="#888888"/>
<rect x="31.5" y="454.5" width="365" height="59" rx="14.5" fill="white" stroke="#C1C1C1"/>
<path d="M52.63 490V475.455H57.5447C58.6858 475.455 59.6186 475.661 60.343 476.072C61.0722 476.48 61.612 477.031 61.9623 477.727C62.3127 478.423 62.4879 479.2 62.4879 480.057C62.4879 480.914 62.3127 481.693 61.9623 482.393C61.6167 483.094 61.0817 483.653 60.3572 484.07C59.6328 484.482 58.7048 484.688 57.5731 484.688H54.0504V483.125H57.5163C58.2976 483.125 58.9249 482.99 59.3984 482.72C59.8719 482.45 60.2152 482.086 60.4283 481.626C60.6461 481.162 60.755 480.639 60.755 480.057C60.755 479.474 60.6461 478.954 60.4283 478.494C60.2152 478.035 59.8695 477.675 59.3913 477.415C58.9131 477.15 58.2786 477.017 57.4879 477.017H54.3913V490H52.63ZM68.3082 490.256C67.6169 490.256 66.9896 490.125 66.4261 489.865C65.8627 489.6 65.4152 489.219 65.0838 488.722C64.7524 488.22 64.5866 487.614 64.5866 486.903C64.5866 486.278 64.7097 485.772 64.9559 485.384C65.2022 484.991 65.5312 484.683 65.9432 484.46C66.3551 484.238 66.8096 484.072 67.3068 483.963C67.8087 483.849 68.313 483.759 68.8196 483.693C69.4825 483.608 70.0199 483.544 70.4318 483.501C70.8485 483.454 71.1515 483.376 71.3409 483.267C71.535 483.158 71.6321 482.969 71.6321 482.699V482.642C71.6321 481.941 71.4403 481.397 71.0568 481.009C70.678 480.62 70.1027 480.426 69.3309 480.426C68.5308 480.426 67.9034 480.601 67.4488 480.952C66.9943 481.302 66.6747 481.676 66.49 482.074L64.8991 481.506C65.1832 480.843 65.562 480.327 66.0355 479.957C66.5137 479.583 67.0345 479.323 67.598 479.176C68.1662 479.025 68.7249 478.949 69.2741 478.949C69.6245 478.949 70.027 478.991 70.4815 479.077C70.9408 479.157 71.3835 479.325 71.8096 479.581C72.2405 479.837 72.598 480.223 72.8821 480.739C73.1662 481.255 73.3082 481.946 73.3082 482.812V490H71.6321V488.523H71.5469C71.4332 488.759 71.2438 489.013 70.9787 489.283C70.7135 489.553 70.3608 489.782 69.9204 489.972C69.4801 490.161 68.9427 490.256 68.3082 490.256ZM68.5639 488.75C69.2268 488.75 69.7855 488.62 70.24 488.359C70.6993 488.099 71.045 487.763 71.277 487.351C71.5137 486.939 71.6321 486.506 71.6321 486.051V484.517C71.5611 484.602 71.4048 484.68 71.1633 484.751C70.9266 484.818 70.652 484.877 70.3395 484.929C70.0317 484.976 69.731 485.019 69.4375 485.057C69.1487 485.09 68.9143 485.118 68.7344 485.142C68.2988 485.199 67.8916 485.291 67.5128 485.419C67.1387 485.542 66.8357 485.729 66.6037 485.98C66.3764 486.226 66.2628 486.562 66.2628 486.989C66.2628 487.571 66.4782 488.011 66.9091 488.31C67.3447 488.603 67.8963 488.75 68.5639 488.75ZM84.0948 481.534L82.5891 481.96C82.4944 481.709 82.3547 481.465 82.1701 481.229C81.9902 480.987 81.7439 480.788 81.4314 480.632C81.1189 480.476 80.7189 480.398 80.2312 480.398C79.5635 480.398 79.0072 480.552 78.5621 480.859C78.1218 481.162 77.9016 481.548 77.9016 482.017C77.9016 482.434 78.0531 482.763 78.3562 483.004C78.6592 483.246 79.1327 483.447 79.7766 483.608L81.3959 484.006C82.3713 484.242 83.0981 484.605 83.5763 485.092C84.0546 485.575 84.2937 486.198 84.2937 486.96C84.2937 487.585 84.1137 488.144 83.7539 488.636C83.3988 489.129 82.9016 489.517 82.2624 489.801C81.6232 490.085 80.8798 490.227 80.0323 490.227C78.9196 490.227 77.9987 489.986 77.2695 489.503C76.5403 489.02 76.0787 488.314 75.8846 487.386L77.4755 486.989C77.627 487.576 77.9135 488.016 78.3349 488.31C78.761 488.603 79.3173 488.75 80.0039 488.75C80.7851 488.75 81.4054 488.584 81.8647 488.253C82.3287 487.917 82.5607 487.514 82.5607 487.045C82.5607 486.667 82.4281 486.349 82.163 486.094C81.8978 485.833 81.4906 485.639 80.9414 485.511L79.1232 485.085C78.1242 484.848 77.3903 484.482 76.9215 483.984C76.4575 483.482 76.2255 482.855 76.2255 482.102C76.2255 481.487 76.3983 480.942 76.7439 480.469C77.0943 479.995 77.5702 479.624 78.1715 479.354C78.7776 479.084 79.4641 478.949 80.2312 478.949C81.3107 478.949 82.1582 479.186 82.7738 479.659C83.394 480.133 83.8344 480.758 84.0948 481.534ZM94.544 481.534L93.0383 481.96C92.9436 481.709 92.804 481.465 92.6193 481.229C92.4394 480.987 92.1932 480.788 91.8807 480.632C91.5682 480.476 91.1681 480.398 90.6804 480.398C90.0128 480.398 89.4564 480.552 89.0113 480.859C88.571 481.162 88.3508 481.548 88.3508 482.017C88.3508 482.434 88.5024 482.763 88.8054 483.004C89.1084 483.246 89.5819 483.447 90.2258 483.608L91.8452 484.006C92.8205 484.242 93.5473 484.605 94.0256 485.092C94.5038 485.575 94.7429 486.198 94.7429 486.96C94.7429 487.585 94.563 488.144 94.2031 488.636C93.848 489.129 93.3508 489.517 92.7116 489.801C92.0724 490.085 91.3291 490.227 90.4815 490.227C89.3688 490.227 88.4479 489.986 87.7187 489.503C86.9896 489.02 86.5279 488.314 86.3338 487.386L87.9247 486.989C88.0762 487.576 88.3627 488.016 88.7841 488.31C89.2102 488.603 89.7666 488.75 90.4531 488.75C91.2344 488.75 91.8546 488.584 92.3139 488.253C92.7779 487.917 93.0099 487.514 93.0099 487.045C93.0099 486.667 92.8774 486.349 92.6122 486.094C92.347 485.833 91.9399 485.639 91.3906 485.511L89.5724 485.085C88.5734 484.848 87.8395 484.482 87.3707 483.984C86.9067 483.482 86.6747 482.855 86.6747 482.102C86.6747 481.487 86.8475 480.942 87.1932 480.469C87.5435 479.995 88.0194 479.624 88.6207 479.354C89.2268 479.084 89.9133 478.949 90.6804 478.949C91.7599 478.949 92.6075 479.186 93.223 479.659C93.8433 480.133 94.2836 480.758 94.544 481.534ZM99.7376 490L96.4137 479.091H98.1751L100.533 487.443H100.647L102.976 479.091H104.766L107.067 487.415H107.181L109.539 479.091H111.3L107.976 490H106.328L103.942 481.619H103.772L101.385 490H99.7376ZM117.577 490.227C116.592 490.227 115.728 489.993 114.984 489.524C114.246 489.055 113.668 488.4 113.251 487.557C112.839 486.714 112.634 485.729 112.634 484.602C112.634 483.466 112.839 482.474 113.251 481.626C113.668 480.779 114.246 480.121 114.984 479.652C115.728 479.183 116.592 478.949 117.577 478.949C118.562 478.949 119.423 479.183 120.162 479.652C120.905 480.121 121.483 480.779 121.895 481.626C122.312 482.474 122.52 483.466 122.52 484.602C122.52 485.729 122.312 486.714 121.895 487.557C121.483 488.4 120.905 489.055 120.162 489.524C119.423 489.993 118.562 490.227 117.577 490.227ZM117.577 488.722C118.325 488.722 118.94 488.53 119.423 488.146C119.906 487.763 120.264 487.259 120.496 486.634C120.728 486.009 120.844 485.331 120.844 484.602C120.844 483.873 120.728 483.194 120.496 482.564C120.264 481.934 119.906 481.425 119.423 481.037C118.94 480.649 118.325 480.455 117.577 480.455C116.829 480.455 116.213 480.649 115.73 481.037C115.247 481.425 114.89 481.934 114.658 482.564C114.426 483.194 114.31 483.873 114.31 484.602C114.31 485.331 114.426 486.009 114.658 486.634C114.89 487.259 115.247 487.763 115.73 488.146C116.213 488.53 116.829 488.722 117.577 488.722ZM125.078 490V479.091H126.698V480.739H126.811C127.01 480.199 127.37 479.761 127.891 479.425C128.412 479.089 128.999 478.92 129.652 478.92C129.775 478.92 129.929 478.923 130.114 478.928C130.299 478.932 130.438 478.939 130.533 478.949V480.653C130.476 480.639 130.346 480.618 130.142 480.589C129.944 480.556 129.733 480.54 129.51 480.54C128.98 480.54 128.506 480.651 128.09 480.874C127.678 481.091 127.351 481.394 127.11 481.783C126.873 482.166 126.755 482.604 126.755 483.097V490H125.078ZM136.307 490.227C135.398 490.227 134.596 489.998 133.899 489.538C133.203 489.074 132.659 488.421 132.266 487.578C131.873 486.731 131.676 485.729 131.676 484.574C131.676 483.428 131.873 482.434 132.266 481.591C132.659 480.748 133.206 480.097 133.907 479.638C134.607 479.179 135.417 478.949 136.336 478.949C137.046 478.949 137.607 479.067 138.019 479.304C138.435 479.536 138.753 479.801 138.971 480.099C139.193 480.393 139.366 480.634 139.489 480.824H139.631V475.455H141.307V490H139.688V488.324H139.489C139.366 488.523 139.191 488.774 138.963 489.077C138.736 489.375 138.412 489.643 137.99 489.879C137.569 490.111 137.008 490.227 136.307 490.227ZM136.534 488.722C137.207 488.722 137.775 488.546 138.239 488.196C138.703 487.841 139.056 487.351 139.297 486.726C139.539 486.096 139.659 485.369 139.659 484.545C139.659 483.731 139.541 483.018 139.304 482.408C139.068 481.792 138.717 481.314 138.253 480.973C137.789 480.627 137.216 480.455 136.534 480.455C135.824 480.455 135.232 480.637 134.759 481.001C134.29 481.361 133.937 481.851 133.701 482.472C133.469 483.087 133.353 483.778 133.353 484.545C133.353 485.322 133.471 486.027 133.708 486.662C133.949 487.292 134.304 487.794 134.773 488.168C135.247 488.537 135.834 488.722 136.534 488.722Z" fill="#888888"/>
<rect x="31" y="600" width="366" height="60" rx="15" fill="#0072BB"/>
<path d="M175.105 638V620.545H178.795V634.957H186.278V638H175.105ZM204.082 629.273C204.082 631.176 203.721 632.795 203 634.131C202.284 635.466 201.307 636.486 200.068 637.19C198.835 637.889 197.449 638.239 195.909 638.239C194.358 638.239 192.966 637.886 191.733 637.182C190.5 636.477 189.525 635.457 188.81 634.122C188.094 632.787 187.736 631.17 187.736 629.273C187.736 627.369 188.094 625.75 188.81 624.415C189.525 623.08 190.5 622.062 191.733 621.364C192.966 620.659 194.358 620.307 195.909 620.307C197.449 620.307 198.835 620.659 200.068 621.364C201.307 622.062 202.284 623.08 203 624.415C203.721 625.75 204.082 627.369 204.082 629.273ZM200.341 629.273C200.341 628.04 200.156 627 199.787 626.153C199.423 625.307 198.909 624.665 198.244 624.227C197.579 623.79 196.801 623.571 195.909 623.571C195.017 623.571 194.238 623.79 193.574 624.227C192.909 624.665 192.392 625.307 192.023 626.153C191.659 627 191.477 628.04 191.477 629.273C191.477 630.506 191.659 631.545 192.023 632.392C192.392 633.239 192.909 633.881 193.574 634.318C194.238 634.756 195.017 634.974 195.909 634.974C196.801 634.974 197.579 634.756 198.244 634.318C198.909 633.881 199.423 633.239 199.787 632.392C200.156 631.545 200.341 630.506 200.341 629.273ZM218.39 626.188C218.27 625.773 218.103 625.406 217.887 625.088C217.671 624.764 217.407 624.491 217.094 624.27C216.787 624.043 216.435 623.869 216.037 623.75C215.645 623.631 215.211 623.571 214.734 623.571C213.841 623.571 213.057 623.793 212.381 624.236C211.711 624.679 211.188 625.324 210.813 626.17C210.438 627.011 210.251 628.04 210.251 629.256C210.251 630.472 210.435 631.506 210.805 632.358C211.174 633.21 211.697 633.861 212.373 634.31C213.049 634.753 213.847 634.974 214.768 634.974C215.603 634.974 216.316 634.827 216.907 634.531C217.503 634.23 217.958 633.807 218.27 633.261C218.589 632.716 218.748 632.071 218.748 631.327L219.498 631.438H214.998V628.659H222.302V630.858C222.302 632.392 221.978 633.71 221.33 634.812C220.682 635.909 219.79 636.756 218.654 637.352C217.518 637.943 216.216 638.239 214.751 638.239C213.114 638.239 211.677 637.878 210.438 637.156C209.199 636.429 208.234 635.398 207.54 634.062C206.853 632.722 206.509 631.131 206.509 629.29C206.509 627.875 206.714 626.614 207.123 625.506C207.537 624.392 208.117 623.449 208.861 622.676C209.606 621.903 210.472 621.315 211.461 620.912C212.449 620.509 213.52 620.307 214.674 620.307C215.662 620.307 216.583 620.452 217.435 620.741C218.287 621.026 219.043 621.429 219.702 621.952C220.367 622.474 220.91 623.097 221.33 623.818C221.751 624.534 222.02 625.324 222.14 626.188H218.39ZM234.319 620.545V638H230.628V620.545H234.319ZM251.954 620.545V638H248.767L241.173 627.014H241.045V638H237.355V620.545H240.594L248.128 631.523H248.281V620.545H251.954Z" fill="white"/>
<path d="M263.482 153.981L260.26 196.849C255.963 199.421 252.264 195.777 250.951 193.634L227.679 153.981H263.482Z" fill="#1D4F91"/>
<path d="M263.482 153.981H295.704C291.527 146.496 282.099 130.099 277.803 124.396C273.507 118.693 273.387 120.278 273.507 121.704C273.984 128.595 273.936 143.216 272.791 147.208C271.645 151.201 266.107 153.387 263.482 153.981Z" fill="#0B6EBF"/>
<path d="M302.149 165.192L295.705 153.981H263.124L259.902 197.016C272.433 189.904 298.211 175.101 301.075 172.786C303.939 170.472 302.985 166.759 302.149 165.192Z" fill="#1D559E"/>
<line y1="-0.25" x2="43.1844" y2="-0.25" transform="matrix(-0.0829065 0.996557 -0.996534 -0.0831847 263.482 153.981)" stroke="#557CB1" stroke-width="0.5"/>
<line x1="264.699" y1="153.731" x2="295.489" y2="153.731" stroke="#557CB1" stroke-width="0.5"/>
<path d="M234.549 119.091L270 143.32C270.076 148.333 265.076 149.721 262.566 149.788L216.648 150.149L234.549 119.091Z" fill="#E28A27"/>
<path d="M234.549 119.091L250.66 91.1387C242.1 91.0196 223.211 91.0002 216.132 91.8757C209.053 92.7511 210.364 93.6472 211.656 94.2565C217.853 97.288 230.47 104.64 233.348 107.63C236.227 110.62 235.348 116.517 234.549 119.091Z" fill="#F0AE2C"/>
<path d="M263.575 91.1537L250.661 91.1388L234.37 119.402L269.966 143.715C270.083 129.288 270.173 99.5247 269.604 95.8828C269.035 92.2408 265.348 91.2126 263.575 91.1537Z" fill="#F09A2A"/>
<line y1="-0.25" x2="43.1306" y2="-0.25" transform="matrix(0.82116 0.570911 -0.569474 0.821862 234.549 119.091)" stroke="#F3AF51" stroke-width="0.5"/>
<line y1="-0.25" x2="30.8293" y2="-0.25" transform="matrix(0.499368 -0.86639 0.86566 0.500633 235.158 118.035)" stroke="#F3AF51" stroke-width="0.5"/>
<path d="M189.146 127.744L227.82 109.105C232.192 111.546 230.891 116.578 229.695 118.788L207.048 158.803L189.146 127.744Z" fill="#1D4F91"/>
<path d="M189.147 127.744L173.036 99.7912C168.653 107.157 159.191 123.534 156.409 130.113C153.626 136.691 155.056 136.002 156.229 135.186C161.948 131.326 174.613 124.057 178.638 123.055C182.662 122.053 187.321 125.763 189.147 127.744Z" fill="#0B6EBF"/>
<path d="M179.506 88.5955L173.035 99.7915L189.325 128.055L228.144 109.332C215.729 102.018 190.042 87.0574 186.609 85.73C183.175 84.4026 180.443 87.0872 179.506 88.5955Z" fill="#1D559E"/>
<line y1="-0.25" x2="43.1306" y2="-0.25" transform="matrix(0.90417 -0.42689 0.425817 0.904943 189.146 127.744)" stroke="#557CB1" stroke-width="0.5"/>
<line y1="-0.25" x2="30.8293" y2="-0.25" transform="matrix(-0.499368 -0.86639 0.86566 -0.500633 188.538 126.688)" stroke="#557CB1" stroke-width="0.5"/>
<path d="M173.394 170.568L176.616 127.7C180.913 125.128 184.612 128.772 185.925 130.915L209.197 170.568H173.394Z" fill="#F0AE2C"/>
<path d="M173.394 170.568H141.172C145.349 178.054 154.777 194.45 159.073 200.153C163.369 205.856 163.489 204.271 163.369 202.845C162.892 195.954 162.94 181.333 164.085 177.341C165.231 173.349 170.769 171.162 173.394 170.568Z" fill="#E28A27"/>
<path d="M134.727 159.357L141.171 170.568H173.752L176.974 127.533C164.443 134.645 138.665 149.448 135.801 151.763C132.937 154.077 133.891 157.79 134.727 159.357Z" fill="#F09A2A"/>
<line y1="-0.25" x2="43.1844" y2="-0.25" transform="matrix(0.0829065 -0.996557 0.996534 0.0831847 173.394 170.568)" stroke="#F3AF51" stroke-width="0.5"/>
<line x1="172.177" y1="170.818" x2="141.387" y2="170.818" stroke="#F3AF51" stroke-width="0.5"/>
<path d="M202.92 205.572L167.468 181.343C167.393 176.33 172.393 174.942 174.902 174.875L220.821 174.514L202.92 205.572Z" fill="#1D4F91"/>
<path d="M202.919 205.572L186.808 233.524C195.368 233.643 214.258 233.663 221.336 232.787C228.415 231.912 227.105 231.016 225.812 230.406C219.616 227.375 206.999 220.023 204.12 217.033C201.241 214.043 202.12 208.146 202.919 205.572Z" fill="#0B6EBF"/>
<path d="M173.893 233.509L186.808 233.524L203.099 205.261L167.502 180.948C167.386 195.375 167.296 225.138 167.864 228.78C168.433 232.422 172.121 233.45 173.893 233.509Z" fill="#1D559E"/>
<line y1="-0.25" x2="43.1306" y2="-0.25" transform="matrix(-0.82116 -0.570911 0.569474 -0.821862 202.92 205.572)" stroke="#557CB1" stroke-width="0.5"/>
<line y1="-0.25" x2="30.8293" y2="-0.25" transform="matrix(-0.499368 0.86639 -0.86566 -0.500633 202.311 206.628)" stroke="#557CB1" stroke-width="0.5"/>
<path d="M248.322 196.919L209.648 215.558C205.276 213.117 206.577 208.086 207.774 205.875L230.42 165.861L248.322 196.919Z" fill="#E28A27"/>
<path d="M248.321 196.919L264.433 224.872C268.816 217.506 278.277 201.129 281.06 194.55C283.842 187.972 282.412 188.661 281.239 189.477C275.52 193.337 262.855 200.606 258.831 201.608C254.807 202.61 250.148 198.9 248.321 196.919Z" fill="#F0AE2C"/>
<path d="M257.962 236.068L264.433 224.872L248.142 196.608L209.324 215.331C221.739 222.645 247.426 237.606 250.859 238.933C254.292 240.26 257.025 237.576 257.962 236.068Z" fill="#F09A2A"/>
<line y1="-0.25" x2="43.1306" y2="-0.25" transform="matrix(-0.90417 0.42689 -0.425817 -0.904943 248.322 196.919)" stroke="#F3AF51" stroke-width="0.5"/>
<line y1="-0.25" x2="30.8293" y2="-0.25" transform="matrix(0.499368 0.86639 -0.86566 0.500633 248.93 197.975)" stroke="#F3AF51" stroke-width="0.5"/>
<path d="M136.32 284.543C132.987 284.543 130.307 284.116 128.28 283.263V279.423C129.427 279.849 130.653 280.196 131.96 280.463C133.293 280.729 134.613 280.863 135.92 280.863C137.973 280.863 139.507 280.623 140.52 280.143C141.56 279.663 142.08 278.703 142.08 277.263C142.08 276.383 141.867 275.676 141.44 275.143C141.013 274.609 140.307 274.156 139.32 273.783C138.333 273.383 136.973 272.969 135.24 272.543C132.467 271.823 130.52 270.916 129.4 269.823C128.28 268.703 127.72 267.169 127.72 265.223C127.72 262.956 128.547 261.183 130.2 259.903C131.853 258.623 134.32 257.983 137.6 257.983C139.093 257.983 140.493 258.089 141.8 258.303C143.133 258.516 144.173 258.756 144.92 259.023V262.863C142.893 262.089 140.653 261.703 138.2 261.703C136.28 261.703 134.787 261.956 133.72 262.463C132.653 262.969 132.12 263.889 132.12 265.223C132.12 265.996 132.307 266.623 132.68 267.103C133.053 267.583 133.693 267.996 134.6 268.343C135.533 268.689 136.813 269.076 138.44 269.503C140.547 270.036 142.173 270.676 143.32 271.423C144.493 272.143 145.307 272.996 145.76 273.983C146.24 274.943 146.48 276.036 146.48 277.263C146.48 279.529 145.64 281.316 143.96 282.623C142.28 283.903 139.733 284.543 136.32 284.543ZM162.108 284.543C158.028 284.543 154.974 283.476 152.948 281.343C150.921 279.183 149.908 275.849 149.908 271.343C149.908 266.649 150.921 263.249 152.948 261.143C154.974 259.036 158.028 257.983 162.108 257.983C166.214 257.983 169.268 259.036 171.268 261.143C173.294 263.249 174.308 266.649 174.308 271.343C174.308 275.849 173.294 279.183 171.268 281.343C169.268 283.476 166.214 284.543 162.108 284.543ZM162.108 280.863C164.801 280.863 166.774 280.129 168.028 278.663C169.308 277.169 169.948 274.729 169.948 271.343C169.948 267.769 169.308 265.276 168.028 263.863C166.774 262.423 164.801 261.703 162.108 261.703C159.441 261.703 157.468 262.423 156.188 263.863C154.934 265.276 154.308 267.769 154.308 271.343C154.308 274.729 154.934 277.169 156.188 278.663C157.468 280.129 159.441 280.863 162.108 280.863ZM178.559 284.143V258.383H182.919V280.783H196.119V284.143H178.559ZM198.815 284.143L208.655 258.383H213.535L223.295 284.143H218.815L216.255 277.503H205.895L203.335 284.143H198.815ZM206.575 274.143H215.535L211.055 262.343L206.575 274.143ZM227.583 284.143V258.383H239.423C242.303 258.383 244.396 259.129 245.703 260.623C247.036 262.089 247.703 264.089 247.703 266.623C247.703 268.436 247.249 269.983 246.343 271.263C245.436 272.543 244.129 273.436 242.423 273.943C242.903 274.289 243.276 274.663 243.543 275.063C243.809 275.463 244.076 275.996 244.343 276.663L247.583 284.143H243.103L239.943 276.943C239.649 276.249 239.289 275.756 238.863 275.463C238.463 275.169 237.769 275.023 236.783 275.023H231.943V284.143H227.583ZM231.943 271.503H238.263C239.836 271.503 241.076 271.116 241.983 270.343C242.889 269.569 243.343 268.329 243.343 266.623C243.343 263.396 241.783 261.783 238.663 261.783H231.943V271.503Z" fill="#F09A2A"/>
<path d="M280.925 271.446C280.925 277.825 275.447 283.172 268.467 283.172C261.486 283.172 256.008 277.825 256.008 271.446C256.008 265.068 261.486 259.721 268.467 259.721C275.447 259.721 280.925 265.068 280.925 271.446Z" stroke="#F09A2A" stroke-width="4"/>
<line x1="269.288" y1="246.741" x2="269.288" y2="255.281" stroke="#F09A2A"/>
<line x1="269.288" y1="288.222" x2="269.288" y2="296.762" stroke="#F09A2A"/>
<line y1="-0.5" x2="8.77131" y2="-0.5" transform="matrix(-0.725265 -0.68847 0.725265 -0.68847 252.658 258.27)" stroke="#F09A2A"/>
<line y1="-0.5" x2="8.77131" y2="-0.5" transform="matrix(-0.725265 -0.68847 0.725265 -0.68847 290.572 291.211)" stroke="#F09A2A"/>
<line y1="-0.5" x2="8.77131" y2="-0.5" transform="matrix(0.725265 -0.68847 0.725265 0.68847 284.211 258.27)" stroke="#F09A2A"/>
<line x1="287.423" y1="270.642" x2="296.42" y2="270.642" stroke="#F09A2A"/>
</svg>
