<svg width="428" height="926" viewBox="0 0 428 926" fill="none" xmlns="http://www.w3.org/2000/svg">
<rect width="428" height="926" fill="white"/>
<rect x="31.5" y="329.5" width="365" height="59" rx="14.5" fill="white" stroke="#C1C1C1"/>
<path d="M52.6299 365V350.455H61.4083V352.017H54.3913V356.932H60.9538V358.494H54.3913V363.438H61.522V365H52.6299ZM64.3558 365V354.091H65.9751V355.795H66.1172C66.3444 355.213 66.7114 354.761 67.218 354.439C67.7246 354.112 68.3331 353.949 69.0433 353.949C69.763 353.949 70.3619 354.112 70.8402 354.439C71.3231 354.761 71.6995 355.213 71.9694 355.795H72.0831C72.3624 355.232 72.7815 354.785 73.3402 354.453C73.8989 354.117 74.5689 353.949 75.3501 353.949C76.3255 353.949 77.1233 354.254 77.7436 354.865C78.3638 355.471 78.674 356.416 78.674 357.699V365H76.9978V357.699C76.9978 356.894 76.7777 356.319 76.3373 355.973C75.897 355.627 75.3785 355.455 74.7819 355.455C74.0149 355.455 73.4207 355.687 72.9993 356.151C72.5779 356.61 72.3672 357.192 72.3672 357.898V365H70.6626V357.528C70.6626 356.908 70.4614 356.409 70.0589 356.03C69.6565 355.646 69.138 355.455 68.5035 355.455C68.0679 355.455 67.6607 355.571 67.2819 355.803C66.9079 356.035 66.6048 356.357 66.3728 356.768C66.1456 357.176 66.0319 357.647 66.0319 358.182V365H64.3558ZM84.9488 365.256C84.2575 365.256 83.6302 365.125 83.0667 364.865C82.5033 364.6 82.0558 364.219 81.7244 363.722C81.393 363.22 81.2272 362.614 81.2272 361.903C81.2272 361.278 81.3503 360.772 81.5966 360.384C81.8428 359.991 82.1718 359.683 82.5838 359.46C82.9957 359.238 83.4503 359.072 83.9474 358.963C84.4493 358.849 84.9536 358.759 85.4602 358.693C86.1231 358.608 86.6605 358.544 87.0724 358.501C87.4891 358.454 87.7921 358.376 87.9815 358.267C88.1756 358.158 88.2727 357.969 88.2727 357.699V357.642C88.2727 356.941 88.0809 356.397 87.6974 356.009C87.3186 355.62 86.7433 355.426 85.9716 355.426C85.1714 355.426 84.544 355.601 84.0895 355.952C83.6349 356.302 83.3153 356.676 83.1307 357.074L81.5397 356.506C81.8238 355.843 82.2026 355.327 82.6761 354.957C83.1543 354.583 83.6752 354.323 84.2386 354.176C84.8068 354.025 85.3655 353.949 85.9147 353.949C86.2651 353.949 86.6676 353.991 87.1221 354.077C87.5814 354.157 88.0241 354.325 88.4503 354.581C88.8811 354.837 89.2386 355.223 89.5227 355.739C89.8068 356.255 89.9488 356.946 89.9488 357.812V365H88.2727V363.523H88.1875C88.0738 363.759 87.8844 364.013 87.6193 364.283C87.3541 364.553 87.0014 364.782 86.561 364.972C86.1207 365.161 85.5833 365.256 84.9488 365.256ZM85.2045 363.75C85.8674 363.75 86.4261 363.62 86.8807 363.359C87.3399 363.099 87.6856 362.763 87.9176 362.351C88.1543 361.939 88.2727 361.506 88.2727 361.051V359.517C88.2017 359.602 88.0454 359.68 87.8039 359.751C87.5672 359.818 87.2926 359.877 86.9801 359.929C86.6723 359.976 86.3717 360.019 86.0781 360.057C85.7893 360.09 85.5549 360.118 85.375 360.142C84.9394 360.199 84.5322 360.291 84.1534 360.419C83.7793 360.542 83.4763 360.729 83.2443 360.98C83.017 361.226 82.9034 361.562 82.9034 361.989C82.9034 362.571 83.1188 363.011 83.5497 363.31C83.9853 363.603 84.5369 363.75 85.2045 363.75ZM93.0081 365V354.091H94.6843V365H93.0081ZM93.8604 352.273C93.5337 352.273 93.252 352.161 93.0152 351.939C92.7832 351.716 92.6672 351.449 92.6672 351.136C92.6672 350.824 92.7832 350.556 93.0152 350.334C93.252 350.111 93.5337 350 93.8604 350C94.1871 350 94.4665 350.111 94.6985 350.334C94.9352 350.556 95.0536 350.824 95.0536 351.136C95.0536 351.449 94.9352 351.716 94.6985 351.939C94.4665 352.161 94.1871 352.273 93.8604 352.273ZM99.4304 350.455V365H97.7542V350.455H99.4304Z" fill="#888888"/>
<rect x="31.5" y="423.5" width="365" height="59" rx="14.5" fill="white" stroke="#C1C1C1"/>
<path d="M52.6299 459V444.455H57.5447C58.6858 444.455 59.6186 444.661 60.343 445.072C61.0722 445.48 61.6119 446.031 61.9623 446.727C62.3127 447.423 62.4879 448.2 62.4879 449.057C62.4879 449.914 62.3127 450.693 61.9623 451.393C61.6167 452.094 61.0816 452.653 60.3572 453.07C59.6328 453.482 58.7048 453.688 57.5731 453.688H54.0504V452.125H57.5163C58.2976 452.125 58.9249 451.99 59.3984 451.72C59.8719 451.45 60.2152 451.086 60.4282 450.626C60.646 450.162 60.7549 449.639 60.7549 449.057C60.7549 448.474 60.646 447.954 60.4282 447.494C60.2152 447.035 59.8695 446.675 59.3913 446.415C58.9131 446.15 58.2786 446.017 57.4879 446.017H54.3913V459H52.6299ZM68.3082 459.256C67.6169 459.256 66.9896 459.125 66.4261 458.865C65.8627 458.6 65.4152 458.219 65.0838 457.722C64.7523 457.22 64.5866 456.614 64.5866 455.903C64.5866 455.278 64.7097 454.772 64.9559 454.384C65.2021 453.991 65.5312 453.683 65.9431 453.46C66.3551 453.238 66.8096 453.072 67.3068 452.963C67.8087 452.849 68.3129 452.759 68.8196 452.693C69.4824 452.608 70.0199 452.544 70.4318 452.501C70.8485 452.454 71.1515 452.376 71.3409 452.267C71.535 452.158 71.6321 451.969 71.6321 451.699V451.642C71.6321 450.941 71.4403 450.397 71.0568 450.009C70.678 449.62 70.1027 449.426 69.3309 449.426C68.5307 449.426 67.9034 449.601 67.4488 449.952C66.9943 450.302 66.6747 450.676 66.49 451.074L64.8991 450.506C65.1832 449.843 65.562 449.327 66.0355 448.957C66.5137 448.583 67.0345 448.323 67.598 448.176C68.1662 448.025 68.7249 447.949 69.2741 447.949C69.6245 447.949 70.027 447.991 70.4815 448.077C70.9408 448.157 71.3835 448.325 71.8096 448.581C72.2405 448.837 72.598 449.223 72.8821 449.739C73.1662 450.255 73.3082 450.946 73.3082 451.812V459H71.6321V457.523H71.5468C71.4332 457.759 71.2438 458.013 70.9787 458.283C70.7135 458.553 70.3608 458.782 69.9204 458.972C69.4801 459.161 68.9427 459.256 68.3082 459.256ZM68.5639 457.75C69.2268 457.75 69.7855 457.62 70.24 457.359C70.6993 457.099 71.0449 456.763 71.277 456.351C71.5137 455.939 71.6321 455.506 71.6321 455.051V453.517C71.561 453.602 71.4048 453.68 71.1633 453.751C70.9266 453.818 70.652 453.877 70.3395 453.929C70.0317 453.976 69.731 454.019 69.4375 454.057C69.1486 454.09 68.9143 454.118 68.7343 454.142C68.2987 454.199 67.8915 454.291 67.5128 454.419C67.1387 454.542 66.8357 454.729 66.6037 454.98C66.3764 455.226 66.2628 455.562 66.2628 455.989C66.2628 456.571 66.4782 457.011 66.9091 457.31C67.3447 457.603 67.8963 457.75 68.5639 457.75ZM84.0948 450.534L82.5891 450.96C82.4944 450.709 82.3547 450.465 82.1701 450.229C81.9901 449.987 81.7439 449.788 81.4314 449.632C81.1189 449.476 80.7188 449.398 80.2311 449.398C79.5635 449.398 79.0072 449.552 78.5621 449.859C78.1218 450.162 77.9016 450.548 77.9016 451.017C77.9016 451.434 78.0531 451.763 78.3561 452.004C78.6592 452.246 79.1327 452.447 79.7766 452.608L81.3959 453.006C82.3713 453.242 83.0981 453.605 83.5763 454.092C84.0545 454.575 84.2936 455.198 84.2936 455.96C84.2936 456.585 84.1137 457.144 83.7539 457.636C83.3988 458.129 82.9016 458.517 82.2624 458.801C81.6232 459.085 80.8798 459.227 80.0323 459.227C78.9196 459.227 77.9987 458.986 77.2695 458.503C76.5403 458.02 76.0787 457.314 75.8846 456.386L77.4755 455.989C77.627 456.576 77.9134 457.016 78.3348 457.31C78.761 457.603 79.3173 457.75 80.0039 457.75C80.7851 457.75 81.4054 457.584 81.8647 457.253C82.3287 456.917 82.5607 456.514 82.5607 456.045C82.5607 455.667 82.4281 455.349 82.163 455.094C81.8978 454.833 81.4906 454.639 80.9414 454.511L79.1232 454.085C78.1241 453.848 77.3902 453.482 76.9215 452.984C76.4575 452.482 76.2255 451.855 76.2255 451.102C76.2255 450.487 76.3983 449.942 76.7439 449.469C77.0943 448.995 77.5702 448.624 78.1715 448.354C78.7775 448.084 79.4641 447.949 80.2311 447.949C81.3107 447.949 82.1582 448.186 82.7738 448.659C83.394 449.133 83.8344 449.758 84.0948 450.534ZM94.544 450.534L93.0383 450.96C92.9436 450.709 92.8039 450.465 92.6193 450.229C92.4394 449.987 92.1932 449.788 91.8807 449.632C91.5682 449.476 91.1681 449.398 90.6804 449.398C90.0128 449.398 89.4564 449.552 89.0113 449.859C88.571 450.162 88.3508 450.548 88.3508 451.017C88.3508 451.434 88.5023 451.763 88.8054 452.004C89.1084 452.246 89.5819 452.447 90.2258 452.608L91.8451 453.006C92.8205 453.242 93.5473 453.605 94.0255 454.092C94.5038 454.575 94.7429 455.198 94.7429 455.96C94.7429 456.585 94.5629 457.144 94.2031 457.636C93.848 458.129 93.3508 458.517 92.7116 458.801C92.0724 459.085 91.329 459.227 90.4815 459.227C89.3688 459.227 88.4479 458.986 87.7187 458.503C86.9896 458.02 86.5279 457.314 86.3338 456.386L87.9247 455.989C88.0762 456.576 88.3627 457.016 88.7841 457.31C89.2102 457.603 89.7665 457.75 90.4531 457.75C91.2343 457.75 91.8546 457.584 92.3139 457.253C92.7779 456.917 93.0099 456.514 93.0099 456.045C93.0099 455.667 92.8773 455.349 92.6122 455.094C92.347 454.833 91.9398 454.639 91.3906 454.511L89.5724 454.085C88.5734 453.848 87.8395 453.482 87.3707 452.984C86.9067 452.482 86.6747 451.855 86.6747 451.102C86.6747 450.487 86.8475 449.942 87.1931 449.469C87.5435 448.995 88.0194 448.624 88.6207 448.354C89.2268 448.084 89.9133 447.949 90.6804 447.949C91.7599 447.949 92.6074 448.186 93.223 448.659C93.8432 449.133 94.2836 449.758 94.544 450.534ZM99.7375 459L96.4137 448.091H98.175L100.533 456.443H100.647L102.976 448.091H104.766L107.067 456.415H107.181L109.539 448.091H111.3L107.976 459H106.328L103.942 450.619H103.772L101.385 459H99.7375ZM117.577 459.227C116.592 459.227 115.728 458.993 114.984 458.524C114.246 458.055 113.668 457.4 113.251 456.557C112.839 455.714 112.633 454.729 112.633 453.602C112.633 452.466 112.839 451.474 113.251 450.626C113.668 449.779 114.246 449.121 114.984 448.652C115.728 448.183 116.592 447.949 117.577 447.949C118.562 447.949 119.423 448.183 120.162 448.652C120.905 449.121 121.483 449.779 121.895 450.626C122.312 451.474 122.52 452.466 122.52 453.602C122.52 454.729 122.312 455.714 121.895 456.557C121.483 457.4 120.905 458.055 120.162 458.524C119.423 458.993 118.562 459.227 117.577 459.227ZM117.577 457.722C118.325 457.722 118.94 457.53 119.423 457.146C119.906 456.763 120.264 456.259 120.496 455.634C120.728 455.009 120.844 454.331 120.844 453.602C120.844 452.873 120.728 452.194 120.496 451.564C120.264 450.934 119.906 450.425 119.423 450.037C118.94 449.649 118.325 449.455 117.577 449.455C116.829 449.455 116.213 449.649 115.73 450.037C115.247 450.425 114.89 450.934 114.658 451.564C114.426 452.194 114.31 452.873 114.31 453.602C114.31 454.331 114.426 455.009 114.658 455.634C114.89 456.259 115.247 456.763 115.73 457.146C116.213 457.53 116.829 457.722 117.577 457.722ZM125.078 459V448.091H126.698V449.739H126.811C127.01 449.199 127.37 448.761 127.891 448.425C128.412 448.089 128.999 447.92 129.652 447.92C129.775 447.92 129.929 447.923 130.114 447.928C130.299 447.932 130.438 447.939 130.533 447.949V449.653C130.476 449.639 130.346 449.618 130.142 449.589C129.944 449.556 129.733 449.54 129.51 449.54C128.98 449.54 128.506 449.651 128.09 449.874C127.678 450.091 127.351 450.394 127.11 450.783C126.873 451.166 126.755 451.604 126.755 452.097V459H125.078ZM136.307 459.227C135.398 459.227 134.595 458.998 133.899 458.538C133.203 458.074 132.659 457.421 132.266 456.578C131.873 455.731 131.676 454.729 131.676 453.574C131.676 452.428 131.873 451.434 132.266 450.591C132.659 449.748 133.206 449.097 133.907 448.638C134.607 448.179 135.417 447.949 136.336 447.949C137.046 447.949 137.607 448.067 138.019 448.304C138.435 448.536 138.753 448.801 138.97 449.099C139.193 449.393 139.366 449.634 139.489 449.824H139.631V444.455H141.307V459H139.688V457.324H139.489C139.366 457.523 139.191 457.774 138.963 458.077C138.736 458.375 138.412 458.643 137.99 458.879C137.569 459.111 137.008 459.227 136.307 459.227ZM136.534 457.722C137.207 457.722 137.775 457.546 138.239 457.196C138.703 456.841 139.056 456.351 139.297 455.726C139.539 455.096 139.659 454.369 139.659 453.545C139.659 452.731 139.541 452.018 139.304 451.408C139.068 450.792 138.717 450.314 138.253 449.973C137.789 449.627 137.216 449.455 136.534 449.455C135.824 449.455 135.232 449.637 134.759 450.001C134.29 450.361 133.937 450.851 133.701 451.472C133.469 452.087 133.353 452.778 133.353 453.545C133.353 454.322 133.471 455.027 133.708 455.662C133.949 456.292 134.304 456.794 134.773 457.168C135.247 457.537 135.834 457.722 136.534 457.722Z" fill="#888888"/>
<rect x="31.5" y="611.5" width="365" height="59" rx="14.5" fill="white" stroke="#C1C1C1"/>
<path d="M64.3345 637H62.5731C62.469 636.493 62.2867 636.048 62.0262 635.665C61.7706 635.281 61.4581 634.959 61.0887 634.699C60.7242 634.434 60.3193 634.235 59.8743 634.102C59.4292 633.97 58.9652 633.903 58.4822 633.903C57.6015 633.903 56.8037 634.126 56.0887 634.571C55.3785 635.016 54.8127 635.672 54.3913 636.538C53.9746 637.405 53.7663 638.468 53.7663 639.727C53.7663 640.987 53.9746 642.05 54.3913 642.916C54.8127 643.783 55.3785 644.438 56.0887 644.884C56.8037 645.329 57.6015 645.551 58.4822 645.551C58.9652 645.551 59.4292 645.485 59.8743 645.352C60.3193 645.22 60.7242 645.023 61.0887 644.763C61.4581 644.498 61.7706 644.173 62.0262 643.79C62.2867 643.402 62.469 642.956 62.5731 642.455H64.3345C64.2019 643.198 63.9604 643.863 63.6101 644.45C63.2597 645.037 62.8241 645.537 62.3032 645.949C61.7824 646.356 61.1976 646.666 60.549 646.879C59.905 647.092 59.2161 647.199 58.4822 647.199C57.2417 647.199 56.1385 646.896 55.1726 646.29C54.2066 645.684 53.4467 644.822 52.8927 643.705C52.3387 642.587 52.0618 641.261 52.0618 639.727C52.0618 638.193 52.3387 636.867 52.8927 635.75C53.4467 634.633 54.2066 633.771 55.1726 633.165C56.1385 632.559 57.2417 632.256 58.4822 632.256C59.2161 632.256 59.905 632.362 60.549 632.575C61.1976 632.788 61.7824 633.101 62.3032 633.513C62.8241 633.92 63.2597 634.417 63.6101 635.004C63.9604 635.587 64.2019 636.252 64.3345 637ZM71.3853 647.227C70.4004 647.227 69.5363 646.993 68.7929 646.524C68.0543 646.055 67.4766 645.4 67.06 644.557C66.6481 643.714 66.4421 642.729 66.4421 641.602C66.4421 640.466 66.6481 639.474 67.06 638.626C67.4766 637.779 68.0543 637.121 68.7929 636.652C69.5363 636.183 70.4004 635.949 71.3853 635.949C72.3701 635.949 73.2319 636.183 73.9705 636.652C74.7139 637.121 75.2915 637.779 75.7034 638.626C76.1201 639.474 76.3284 640.466 76.3284 641.602C76.3284 642.729 76.1201 643.714 75.7034 644.557C75.2915 645.4 74.7139 646.055 73.9705 646.524C73.2319 646.993 72.3701 647.227 71.3853 647.227ZM71.3853 645.722C72.1334 645.722 72.7489 645.53 73.2319 645.146C73.7148 644.763 74.0723 644.259 74.3043 643.634C74.5363 643.009 74.6523 642.331 74.6523 641.602C74.6523 640.873 74.5363 640.194 74.3043 639.564C74.0723 638.934 73.7148 638.425 73.2319 638.037C72.7489 637.649 72.1334 637.455 71.3853 637.455C70.6372 637.455 70.0216 637.649 69.5387 638.037C69.0557 638.425 68.6982 638.934 68.4662 639.564C68.2342 640.194 68.1182 640.873 68.1182 641.602C68.1182 642.331 68.2342 643.009 68.4662 643.634C68.6982 644.259 69.0557 644.763 69.5387 645.146C70.0216 645.53 70.6372 645.722 71.3853 645.722ZM80.5632 640.438V647H78.887V636.091H80.5064V637.795H80.6484C80.9041 637.241 81.2923 636.796 81.8132 636.46C82.334 636.119 83.0064 635.949 83.8302 635.949C84.5689 635.949 85.2152 636.1 85.7691 636.403C86.3231 636.702 86.754 637.156 87.0618 637.767C87.3695 638.373 87.5234 639.14 87.5234 640.068V647H85.8473V640.182C85.8473 639.325 85.6247 638.657 85.1797 638.179C84.7346 637.696 84.1238 637.455 83.3473 637.455C82.8122 637.455 82.334 637.571 81.9126 637.803C81.4959 638.035 81.1669 638.373 80.9254 638.818C80.6839 639.263 80.5632 639.803 80.5632 640.438ZM92.2624 640.438V647H90.5863V636.091H92.2056V637.795H92.3476C92.6033 637.241 92.9916 636.796 93.5124 636.46C94.0332 636.119 94.7056 635.949 95.5294 635.949C96.2681 635.949 96.9144 636.1 97.4684 636.403C98.0223 636.702 98.4532 637.156 98.761 637.767C99.0687 638.373 99.2226 639.14 99.2226 640.068V647H97.5465V640.182C97.5465 639.325 97.324 638.657 96.8789 638.179C96.4338 637.696 95.823 637.455 95.0465 637.455C94.5115 637.455 94.0332 637.571 93.6118 637.803C93.1952 638.035 92.8661 638.373 92.6246 638.818C92.3831 639.263 92.2624 639.803 92.2624 640.438ZM106.859 647.227C105.808 647.227 104.901 646.995 104.139 646.531C103.382 646.062 102.797 645.409 102.385 644.571C101.978 643.728 101.774 642.748 101.774 641.631C101.774 640.513 101.978 639.528 102.385 638.676C102.797 637.819 103.37 637.152 104.104 636.673C104.842 636.19 105.704 635.949 106.689 635.949C107.257 635.949 107.818 636.044 108.372 636.233C108.926 636.422 109.43 636.73 109.885 637.156C110.339 637.578 110.702 638.136 110.972 638.832C111.241 639.528 111.376 640.385 111.376 641.403V642.114H102.967V640.665H109.672C109.672 640.049 109.549 639.5 109.303 639.017C109.061 638.534 108.715 638.153 108.266 637.874C107.821 637.594 107.295 637.455 106.689 637.455C106.021 637.455 105.444 637.62 104.956 637.952C104.473 638.278 104.101 638.705 103.841 639.23C103.58 639.756 103.45 640.319 103.45 640.92V641.886C103.45 642.71 103.592 643.409 103.876 643.982C104.165 644.55 104.565 644.983 105.077 645.281C105.588 645.575 106.182 645.722 106.859 645.722C107.3 645.722 107.697 645.66 108.053 645.537C108.412 645.409 108.723 645.22 108.983 644.969C109.243 644.713 109.445 644.396 109.587 644.017L111.206 644.472C111.035 645.021 110.749 645.504 110.347 645.92C109.944 646.332 109.447 646.654 108.855 646.886C108.263 647.114 107.598 647.227 106.859 647.227ZM118.358 647.227C117.335 647.227 116.455 646.986 115.716 646.503C114.977 646.02 114.409 645.355 114.011 644.507C113.614 643.66 113.415 642.691 113.415 641.602C113.415 640.494 113.618 639.517 114.026 638.669C114.437 637.817 115.01 637.152 115.744 636.673C116.483 636.19 117.345 635.949 118.33 635.949C119.097 635.949 119.788 636.091 120.403 636.375C121.019 636.659 121.523 637.057 121.916 637.568C122.309 638.08 122.553 638.676 122.648 639.358H120.972C120.844 638.861 120.56 638.42 120.119 638.037C119.684 637.649 119.097 637.455 118.358 637.455C117.705 637.455 117.132 637.625 116.639 637.966C116.151 638.302 115.77 638.778 115.496 639.393C115.226 640.004 115.091 640.722 115.091 641.545C115.091 642.388 115.223 643.122 115.489 643.747C115.758 644.372 116.137 644.857 116.625 645.203C117.117 645.549 117.695 645.722 118.358 645.722C118.794 645.722 119.189 645.646 119.544 645.494C119.899 645.343 120.2 645.125 120.446 644.841C120.692 644.557 120.867 644.216 120.972 643.818H122.648C122.553 644.462 122.319 645.042 121.945 645.558C121.575 646.07 121.085 646.477 120.474 646.78C119.868 647.078 119.163 647.227 118.358 647.227ZM129.842 636.091V637.511H124.189V636.091H129.842ZM125.837 633.477H127.513V643.875C127.513 644.348 127.581 644.704 127.719 644.94C127.861 645.172 128.041 645.329 128.258 645.409C128.481 645.485 128.715 645.523 128.962 645.523C129.146 645.523 129.298 645.513 129.416 645.494C129.535 645.471 129.629 645.452 129.7 645.438L130.041 646.943C129.928 646.986 129.769 647.028 129.565 647.071C129.362 647.118 129.104 647.142 128.791 647.142C128.318 647.142 127.854 647.04 127.399 646.837C126.949 646.633 126.575 646.323 126.277 645.906C125.983 645.49 125.837 644.964 125.837 644.33V633.477ZM132.364 647V636.091H134.04V647H132.364ZM133.216 634.273C132.889 634.273 132.607 634.161 132.371 633.939C132.139 633.716 132.023 633.449 132.023 633.136C132.023 632.824 132.139 632.556 132.371 632.334C132.607 632.111 132.889 632 133.216 632C133.543 632 133.822 632.111 134.054 632.334C134.291 632.556 134.409 632.824 134.409 633.136C134.409 633.449 134.291 633.716 134.054 633.939C133.822 634.161 133.543 634.273 133.216 634.273ZM141.542 647.227C140.557 647.227 139.693 646.993 138.949 646.524C138.211 646.055 137.633 645.4 137.216 644.557C136.804 643.714 136.598 642.729 136.598 641.602C136.598 640.466 136.804 639.474 137.216 638.626C137.633 637.779 138.211 637.121 138.949 636.652C139.693 636.183 140.557 635.949 141.542 635.949C142.526 635.949 143.388 636.183 144.127 636.652C144.87 637.121 145.448 637.779 145.86 638.626C146.276 639.474 146.485 640.466 146.485 641.602C146.485 642.729 146.276 643.714 145.86 644.557C145.448 645.4 144.87 646.055 144.127 646.524C143.388 646.993 142.526 647.227 141.542 647.227ZM141.542 645.722C142.29 645.722 142.905 645.53 143.388 645.146C143.871 644.763 144.229 644.259 144.461 643.634C144.693 643.009 144.809 642.331 144.809 641.602C144.809 640.873 144.693 640.194 144.461 639.564C144.229 638.934 143.871 638.425 143.388 638.037C142.905 637.649 142.29 637.455 141.542 637.455C140.793 637.455 140.178 637.649 139.695 638.037C139.212 638.425 138.854 638.934 138.622 639.564C138.39 640.194 138.274 640.873 138.274 641.602C138.274 642.331 138.39 643.009 138.622 643.634C138.854 644.259 139.212 644.763 139.695 645.146C140.178 645.53 140.793 645.722 141.542 645.722ZM150.719 640.438V647H149.043V636.091H150.663V637.795H150.805C151.06 637.241 151.449 636.796 151.969 636.46C152.49 636.119 153.163 635.949 153.986 635.949C154.725 635.949 155.371 636.1 155.925 636.403C156.479 636.702 156.91 637.156 157.218 637.767C157.526 638.373 157.68 639.14 157.68 640.068V647H156.004V640.182C156.004 639.325 155.781 638.657 155.336 638.179C154.891 637.696 154.28 637.455 153.504 637.455C152.968 637.455 152.49 637.571 152.069 637.803C151.652 638.035 151.323 638.373 151.082 638.818C150.84 639.263 150.719 639.803 150.719 640.438Z" fill="#888888"/>
<rect x="31.5" y="517.5" width="365" height="59" rx="14.5" fill="white" stroke="#C1C1C1"/>
<path d="M52.6299 553V538.455H57.5447C58.6858 538.455 59.6186 538.661 60.343 539.072C61.0722 539.48 61.6119 540.031 61.9623 540.727C62.3127 541.423 62.4879 542.2 62.4879 543.057C62.4879 543.914 62.3127 544.693 61.9623 545.393C61.6167 546.094 61.0816 546.653 60.3572 547.07C59.6328 547.482 58.7048 547.688 57.5731 547.688H54.0504V546.125H57.5163C58.2976 546.125 58.9249 545.99 59.3984 545.72C59.8719 545.45 60.2152 545.086 60.4282 544.626C60.646 544.162 60.7549 543.639 60.7549 543.057C60.7549 542.474 60.646 541.954 60.4282 541.494C60.2152 541.035 59.8695 540.675 59.3913 540.415C58.9131 540.15 58.2786 540.017 57.4879 540.017H54.3913V553H52.6299ZM68.3082 553.256C67.6169 553.256 66.9896 553.125 66.4261 552.865C65.8627 552.6 65.4152 552.219 65.0838 551.722C64.7523 551.22 64.5866 550.614 64.5866 549.903C64.5866 549.278 64.7097 548.772 64.9559 548.384C65.2021 547.991 65.5312 547.683 65.9431 547.46C66.3551 547.238 66.8096 547.072 67.3068 546.963C67.8087 546.849 68.3129 546.759 68.8196 546.693C69.4824 546.608 70.0199 546.544 70.4318 546.501C70.8485 546.454 71.1515 546.376 71.3409 546.267C71.535 546.158 71.6321 545.969 71.6321 545.699V545.642C71.6321 544.941 71.4403 544.397 71.0568 544.009C70.678 543.62 70.1027 543.426 69.3309 543.426C68.5307 543.426 67.9034 543.601 67.4488 543.952C66.9943 544.302 66.6747 544.676 66.49 545.074L64.8991 544.506C65.1832 543.843 65.562 543.327 66.0355 542.957C66.5137 542.583 67.0345 542.323 67.598 542.176C68.1662 542.025 68.7249 541.949 69.2741 541.949C69.6245 541.949 70.027 541.991 70.4815 542.077C70.9408 542.157 71.3835 542.325 71.8096 542.581C72.2405 542.837 72.598 543.223 72.8821 543.739C73.1662 544.255 73.3082 544.946 73.3082 545.812V553H71.6321V551.523H71.5468C71.4332 551.759 71.2438 552.013 70.9787 552.283C70.7135 552.553 70.3608 552.782 69.9204 552.972C69.4801 553.161 68.9427 553.256 68.3082 553.256ZM68.5639 551.75C69.2268 551.75 69.7855 551.62 70.24 551.359C70.6993 551.099 71.0449 550.763 71.277 550.351C71.5137 549.939 71.6321 549.506 71.6321 549.051V547.517C71.561 547.602 71.4048 547.68 71.1633 547.751C70.9266 547.818 70.652 547.877 70.3395 547.929C70.0317 547.976 69.731 548.019 69.4375 548.057C69.1486 548.09 68.9143 548.118 68.7343 548.142C68.2987 548.199 67.8915 548.291 67.5128 548.419C67.1387 548.542 66.8357 548.729 66.6037 548.98C66.3764 549.226 66.2628 549.562 66.2628 549.989C66.2628 550.571 66.4782 551.011 66.9091 551.31C67.3447 551.603 67.8963 551.75 68.5639 551.75ZM84.0948 544.534L82.5891 544.96C82.4944 544.709 82.3547 544.465 82.1701 544.229C81.9901 543.987 81.7439 543.788 81.4314 543.632C81.1189 543.476 80.7188 543.398 80.2311 543.398C79.5635 543.398 79.0072 543.552 78.5621 543.859C78.1218 544.162 77.9016 544.548 77.9016 545.017C77.9016 545.434 78.0531 545.763 78.3561 546.004C78.6592 546.246 79.1327 546.447 79.7766 546.608L81.3959 547.006C82.3713 547.242 83.0981 547.605 83.5763 548.092C84.0545 548.575 84.2936 549.198 84.2936 549.96C84.2936 550.585 84.1137 551.144 83.7539 551.636C83.3988 552.129 82.9016 552.517 82.2624 552.801C81.6232 553.085 80.8798 553.227 80.0323 553.227C78.9196 553.227 77.9987 552.986 77.2695 552.503C76.5403 552.02 76.0787 551.314 75.8846 550.386L77.4755 549.989C77.627 550.576 77.9134 551.016 78.3348 551.31C78.761 551.603 79.3173 551.75 80.0039 551.75C80.7851 551.75 81.4054 551.584 81.8647 551.253C82.3287 550.917 82.5607 550.514 82.5607 550.045C82.5607 549.667 82.4281 549.349 82.163 549.094C81.8978 548.833 81.4906 548.639 80.9414 548.511L79.1232 548.085C78.1241 547.848 77.3902 547.482 76.9215 546.984C76.4575 546.482 76.2255 545.855 76.2255 545.102C76.2255 544.487 76.3983 543.942 76.7439 543.469C77.0943 542.995 77.5702 542.624 78.1715 542.354C78.7775 542.084 79.4641 541.949 80.2311 541.949C81.3107 541.949 82.1582 542.186 82.7738 542.659C83.394 543.133 83.8344 543.758 84.0948 544.534ZM94.544 544.534L93.0383 544.96C92.9436 544.709 92.8039 544.465 92.6193 544.229C92.4394 543.987 92.1932 543.788 91.8807 543.632C91.5682 543.476 91.1681 543.398 90.6804 543.398C90.0128 543.398 89.4564 543.552 89.0113 543.859C88.571 544.162 88.3508 544.548 88.3508 545.017C88.3508 545.434 88.5023 545.763 88.8054 546.004C89.1084 546.246 89.5819 546.447 90.2258 546.608L91.8451 547.006C92.8205 547.242 93.5473 547.605 94.0255 548.092C94.5038 548.575 94.7429 549.198 94.7429 549.96C94.7429 550.585 94.5629 551.144 94.2031 551.636C93.848 552.129 93.3508 552.517 92.7116 552.801C92.0724 553.085 91.329 553.227 90.4815 553.227C89.3688 553.227 88.4479 552.986 87.7187 552.503C86.9896 552.02 86.5279 551.314 86.3338 550.386L87.9247 549.989C88.0762 550.576 88.3627 551.016 88.7841 551.31C89.2102 551.603 89.7665 551.75 90.4531 551.75C91.2343 551.75 91.8546 551.584 92.3139 551.253C92.7779 550.917 93.0099 550.514 93.0099 550.045C93.0099 549.667 92.8773 549.349 92.6122 549.094C92.347 548.833 91.9398 548.639 91.3906 548.511L89.5724 548.085C88.5734 547.848 87.8395 547.482 87.3707 546.984C86.9067 546.482 86.6747 545.855 86.6747 545.102C86.6747 544.487 86.8475 543.942 87.1931 543.469C87.5435 542.995 88.0194 542.624 88.6207 542.354C89.2268 542.084 89.9133 541.949 90.6804 541.949C91.7599 541.949 92.6074 542.186 93.223 542.659C93.8432 543.133 94.2836 543.758 94.544 544.534ZM99.7375 553L96.4137 542.091H98.175L100.533 550.443H100.647L102.976 542.091H104.766L107.067 550.415H107.181L109.539 542.091H111.3L107.976 553H106.328L103.942 544.619H103.772L101.385 553H99.7375ZM117.577 553.227C116.592 553.227 115.728 552.993 114.984 552.524C114.246 552.055 113.668 551.4 113.251 550.557C112.839 549.714 112.633 548.729 112.633 547.602C112.633 546.466 112.839 545.474 113.251 544.626C113.668 543.779 114.246 543.121 114.984 542.652C115.728 542.183 116.592 541.949 117.577 541.949C118.562 541.949 119.423 542.183 120.162 542.652C120.905 543.121 121.483 543.779 121.895 544.626C122.312 545.474 122.52 546.466 122.52 547.602C122.52 548.729 122.312 549.714 121.895 550.557C121.483 551.4 120.905 552.055 120.162 552.524C119.423 552.993 118.562 553.227 117.577 553.227ZM117.577 551.722C118.325 551.722 118.94 551.53 119.423 551.146C119.906 550.763 120.264 550.259 120.496 549.634C120.728 549.009 120.844 548.331 120.844 547.602C120.844 546.873 120.728 546.194 120.496 545.564C120.264 544.934 119.906 544.425 119.423 544.037C118.94 543.649 118.325 543.455 117.577 543.455C116.829 543.455 116.213 543.649 115.73 544.037C115.247 544.425 114.89 544.934 114.658 545.564C114.426 546.194 114.31 546.873 114.31 547.602C114.31 548.331 114.426 549.009 114.658 549.634C114.89 550.259 115.247 550.763 115.73 551.146C116.213 551.53 116.829 551.722 117.577 551.722ZM125.078 553V542.091H126.698V543.739H126.811C127.01 543.199 127.37 542.761 127.891 542.425C128.412 542.089 128.999 541.92 129.652 541.92C129.775 541.92 129.929 541.923 130.114 541.928C130.299 541.932 130.438 541.939 130.533 541.949V543.653C130.476 543.639 130.346 543.618 130.142 543.589C129.944 543.556 129.733 543.54 129.51 543.54C128.98 543.54 128.506 543.651 128.09 543.874C127.678 544.091 127.351 544.394 127.11 544.783C126.873 545.166 126.755 545.604 126.755 546.097V553H125.078ZM136.307 553.227C135.398 553.227 134.595 552.998 133.899 552.538C133.203 552.074 132.659 551.421 132.266 550.578C131.873 549.731 131.676 548.729 131.676 547.574C131.676 546.428 131.873 545.434 132.266 544.591C132.659 543.748 133.206 543.097 133.907 542.638C134.607 542.179 135.417 541.949 136.336 541.949C137.046 541.949 137.607 542.067 138.019 542.304C138.435 542.536 138.753 542.801 138.97 543.099C139.193 543.393 139.366 543.634 139.489 543.824H139.631V538.455H141.307V553H139.688V551.324H139.489C139.366 551.523 139.191 551.774 138.963 552.077C138.736 552.375 138.412 552.643 137.99 552.879C137.569 553.111 137.008 553.227 136.307 553.227ZM136.534 551.722C137.207 551.722 137.775 551.546 138.239 551.196C138.703 550.841 139.056 550.351 139.297 549.726C139.539 549.096 139.659 548.369 139.659 547.545C139.659 546.731 139.541 546.018 139.304 545.408C139.068 544.792 138.717 544.314 138.253 543.973C137.789 543.627 137.216 543.455 136.534 543.455C135.824 543.455 135.232 543.637 134.759 544.001C134.29 544.361 133.937 544.851 133.701 545.472C133.469 546.087 133.353 546.778 133.353 547.545C133.353 548.322 133.471 549.027 133.708 549.662C133.949 550.292 134.304 550.794 134.773 551.168C135.247 551.537 135.834 551.722 136.534 551.722ZM162.167 543H160.405C160.301 542.493 160.119 542.048 159.858 541.665C159.603 541.281 159.29 540.959 158.921 540.699C158.556 540.434 158.151 540.235 157.706 540.102C157.261 539.97 156.797 539.903 156.314 539.903C155.434 539.903 154.636 540.126 153.921 540.571C153.211 541.016 152.645 541.672 152.223 542.538C151.807 543.405 151.598 544.468 151.598 545.727C151.598 546.987 151.807 548.05 152.223 548.916C152.645 549.783 153.211 550.438 153.921 550.884C154.636 551.329 155.434 551.551 156.314 551.551C156.797 551.551 157.261 551.485 157.706 551.352C158.151 551.22 158.556 551.023 158.921 550.763C159.29 550.498 159.603 550.173 159.858 549.79C160.119 549.402 160.301 548.956 160.405 548.455H162.167C162.034 549.198 161.792 549.863 161.442 550.45C161.092 551.037 160.656 551.537 160.135 551.949C159.614 552.356 159.03 552.666 158.381 552.879C157.737 553.092 157.048 553.199 156.314 553.199C155.074 553.199 153.97 552.896 153.005 552.29C152.039 551.684 151.279 550.822 150.725 549.705C150.171 548.587 149.894 547.261 149.894 545.727C149.894 544.193 150.171 542.867 150.725 541.75C151.279 540.633 152.039 539.771 153.005 539.165C153.97 538.559 155.074 538.256 156.314 538.256C157.048 538.256 157.737 538.362 158.381 538.575C159.03 538.788 159.614 539.101 160.135 539.513C160.656 539.92 161.092 540.417 161.442 541.004C161.792 541.587 162.034 542.252 162.167 543ZM169.217 553.227C168.232 553.227 167.368 552.993 166.625 552.524C165.886 552.055 165.309 551.4 164.892 550.557C164.48 549.714 164.274 548.729 164.274 547.602C164.274 546.466 164.48 545.474 164.892 544.626C165.309 543.779 165.886 543.121 166.625 542.652C167.368 542.183 168.232 541.949 169.217 541.949C170.202 541.949 171.064 542.183 171.803 542.652C172.546 543.121 173.124 543.779 173.535 544.626C173.952 545.474 174.16 546.466 174.16 547.602C174.16 548.729 173.952 549.714 173.535 550.557C173.124 551.4 172.546 552.055 171.803 552.524C171.064 552.993 170.202 553.227 169.217 553.227ZM169.217 551.722C169.965 551.722 170.581 551.53 171.064 551.146C171.547 550.763 171.904 550.259 172.136 549.634C172.368 549.009 172.484 548.331 172.484 547.602C172.484 546.873 172.368 546.194 172.136 545.564C171.904 544.934 171.547 544.425 171.064 544.037C170.581 543.649 169.965 543.455 169.217 543.455C168.469 543.455 167.854 543.649 167.371 544.037C166.888 544.425 166.53 544.934 166.298 545.564C166.066 546.194 165.95 546.873 165.95 547.602C165.95 548.331 166.066 549.009 166.298 549.634C166.53 550.259 166.888 550.763 167.371 551.146C167.854 551.53 168.469 551.722 169.217 551.722ZM178.395 546.438V553H176.719V542.091H178.338V543.795H178.48C178.736 543.241 179.124 542.796 179.645 542.46C180.166 542.119 180.838 541.949 181.662 541.949C182.401 541.949 183.047 542.1 183.601 542.403C184.155 542.702 184.586 543.156 184.894 543.767C185.202 544.373 185.355 545.14 185.355 546.068V553H183.679V546.182C183.679 545.325 183.457 544.657 183.012 544.179C182.567 543.696 181.956 543.455 181.179 543.455C180.644 543.455 180.166 543.571 179.745 543.803C179.328 544.035 178.999 544.373 178.757 544.818C178.516 545.263 178.395 545.803 178.395 546.438ZM193.276 542.091V543.511H187.396V542.091H193.276ZM189.157 553V540.585C189.157 539.96 189.304 539.439 189.597 539.023C189.891 538.606 190.272 538.294 190.741 538.085C191.209 537.877 191.704 537.773 192.225 537.773C192.637 537.773 192.973 537.806 193.234 537.872C193.494 537.938 193.688 538 193.816 538.057L193.333 539.506C193.248 539.477 193.129 539.442 192.978 539.399C192.831 539.357 192.637 539.335 192.396 539.335C191.842 539.335 191.441 539.475 191.195 539.754C190.954 540.034 190.833 540.443 190.833 540.983V553H189.157ZM195.625 553V542.091H197.301V553H195.625ZM196.478 540.273C196.151 540.273 195.869 540.161 195.632 539.939C195.4 539.716 195.284 539.449 195.284 539.136C195.284 538.824 195.4 538.556 195.632 538.334C195.869 538.111 196.151 538 196.478 538C196.804 538 197.084 538.111 197.316 538.334C197.552 538.556 197.671 538.824 197.671 539.136C197.671 539.449 197.552 539.716 197.316 539.939C197.084 540.161 196.804 540.273 196.478 540.273ZM200.371 553V542.091H201.991V543.739H202.104C202.303 543.199 202.663 542.761 203.184 542.425C203.705 542.089 204.292 541.92 204.945 541.92C205.068 541.92 205.222 541.923 205.407 541.928C205.592 541.932 205.731 541.939 205.826 541.949V543.653C205.769 543.639 205.639 543.618 205.435 543.589C205.236 543.556 205.026 543.54 204.803 543.54C204.273 543.54 203.799 543.651 203.383 543.874C202.971 544.091 202.644 544.394 202.403 544.783C202.166 545.166 202.048 545.604 202.048 546.097V553H200.371ZM207.813 553V542.091H209.432V543.795H209.574C209.801 543.213 210.168 542.761 210.675 542.439C211.182 542.112 211.79 541.949 212.5 541.949C213.22 541.949 213.819 542.112 214.297 542.439C214.78 542.761 215.157 543.213 215.426 543.795H215.54C215.819 543.232 216.238 542.785 216.797 542.453C217.356 542.117 218.026 541.949 218.807 541.949C219.783 541.949 220.58 542.254 221.201 542.865C221.821 543.471 222.131 544.416 222.131 545.699V553H220.455V545.699C220.455 544.894 220.235 544.319 219.794 543.973C219.354 543.627 218.836 543.455 218.239 543.455C217.472 543.455 216.878 543.687 216.456 544.151C216.035 544.61 215.824 545.192 215.824 545.898V553H214.12V545.528C214.12 544.908 213.918 544.409 213.516 544.03C213.113 543.646 212.595 543.455 211.961 543.455C211.525 543.455 211.118 543.571 210.739 543.803C210.365 544.035 210.062 544.357 209.83 544.768C209.603 545.176 209.489 545.647 209.489 546.182V553H207.813ZM228.406 553.256C227.715 553.256 227.087 553.125 226.524 552.865C225.96 552.6 225.513 552.219 225.181 551.722C224.85 551.22 224.684 550.614 224.684 549.903C224.684 549.278 224.807 548.772 225.054 548.384C225.3 547.991 225.629 547.683 226.041 547.46C226.453 547.238 226.907 547.072 227.404 546.963C227.906 546.849 228.411 546.759 228.917 546.693C229.58 546.608 230.118 546.544 230.529 546.501C230.946 546.454 231.249 546.376 231.439 546.267C231.633 546.158 231.73 545.969 231.73 545.699V545.642C231.73 544.941 231.538 544.397 231.154 544.009C230.776 543.62 230.2 543.426 229.429 543.426C228.628 543.426 228.001 543.601 227.546 543.952C227.092 544.302 226.772 544.676 226.588 545.074L224.997 544.506C225.281 543.843 225.66 543.327 226.133 542.957C226.611 542.583 227.132 542.323 227.696 542.176C228.264 542.025 228.823 541.949 229.372 541.949C229.722 541.949 230.125 541.991 230.579 542.077C231.038 542.157 231.481 542.325 231.907 542.581C232.338 542.837 232.696 543.223 232.98 543.739C233.264 544.255 233.406 544.946 233.406 545.812V553H231.73V551.523H231.644C231.531 551.759 231.341 552.013 231.076 552.283C230.811 552.553 230.458 552.782 230.018 552.972C229.578 553.161 229.04 553.256 228.406 553.256ZM228.662 551.75C229.324 551.75 229.883 551.62 230.338 551.359C230.797 551.099 231.143 550.763 231.375 550.351C231.611 549.939 231.73 549.506 231.73 549.051V547.517C231.659 547.602 231.502 547.68 231.261 547.751C231.024 547.818 230.75 547.877 230.437 547.929C230.129 547.976 229.829 548.019 229.535 548.057C229.246 548.09 229.012 548.118 228.832 548.142C228.396 548.199 227.989 548.291 227.61 548.419C227.236 548.542 226.933 548.729 226.701 548.98C226.474 549.226 226.36 549.562 226.36 549.989C226.36 550.571 226.576 551.011 227.007 551.31C227.442 551.603 227.994 551.75 228.662 551.75ZM241.209 542.091V543.511H235.556V542.091H241.209ZM237.204 539.477H238.88V549.875C238.88 550.348 238.949 550.704 239.086 550.94C239.228 551.172 239.408 551.329 239.626 551.409C239.848 551.485 240.083 551.523 240.329 551.523C240.513 551.523 240.665 551.513 240.783 551.494C240.902 551.471 240.996 551.452 241.067 551.438L241.408 552.943C241.295 552.986 241.136 553.028 240.932 553.071C240.729 553.118 240.471 553.142 240.158 553.142C239.685 553.142 239.221 553.04 238.766 552.837C238.316 552.633 237.942 552.323 237.644 551.906C237.351 551.49 237.204 550.964 237.204 550.33V539.477ZM243.731 553V542.091H245.407V553H243.731ZM244.583 540.273C244.256 540.273 243.975 540.161 243.738 539.939C243.506 539.716 243.39 539.449 243.39 539.136C243.39 538.824 243.506 538.556 243.738 538.334C243.975 538.111 244.256 538 244.583 538C244.91 538 245.189 538.111 245.421 538.334C245.658 538.556 245.776 538.824 245.776 539.136C245.776 539.449 245.658 539.716 245.421 539.939C245.189 540.161 244.91 540.273 244.583 540.273ZM252.909 553.227C251.924 553.227 251.06 552.993 250.316 552.524C249.578 552.055 249 551.4 248.583 550.557C248.171 549.714 247.966 548.729 247.966 547.602C247.966 546.466 248.171 545.474 248.583 544.626C249 543.779 249.578 543.121 250.316 542.652C251.06 542.183 251.924 541.949 252.909 541.949C253.894 541.949 254.755 542.183 255.494 542.652C256.237 543.121 256.815 543.779 257.227 544.626C257.644 545.474 257.852 546.466 257.852 547.602C257.852 548.729 257.644 549.714 257.227 550.557C256.815 551.4 256.237 552.055 255.494 552.524C254.755 552.993 253.894 553.227 252.909 553.227ZM252.909 551.722C253.657 551.722 254.272 551.53 254.755 551.146C255.238 550.763 255.596 550.259 255.828 549.634C256.06 549.009 256.176 548.331 256.176 547.602C256.176 546.873 256.06 546.194 255.828 545.564C255.596 544.934 255.238 544.425 254.755 544.037C254.272 543.649 253.657 543.455 252.909 543.455C252.161 543.455 251.545 543.649 251.062 544.037C250.579 544.425 250.222 544.934 249.99 545.564C249.758 546.194 249.642 546.873 249.642 547.602C249.642 548.331 249.758 549.009 249.99 549.634C250.222 550.259 250.579 550.763 251.062 551.146C251.545 551.53 252.161 551.722 252.909 551.722ZM262.087 546.438V553H260.41V542.091H262.03V543.795H262.172C262.428 543.241 262.816 542.796 263.337 542.46C263.857 542.119 264.53 541.949 265.354 541.949C266.092 541.949 266.739 542.1 267.293 542.403C267.847 542.702 268.277 543.156 268.585 543.767C268.893 544.373 269.047 545.14 269.047 546.068V553H267.371V546.182C267.371 545.325 267.148 544.657 266.703 544.179C266.258 543.696 265.647 543.455 264.871 543.455C264.336 543.455 263.857 543.571 263.436 543.803C263.019 544.035 262.69 544.373 262.449 544.818C262.207 545.263 262.087 545.803 262.087 546.438Z" fill="#888888"/>
<rect x="31" y="737" width="366" height="60" rx="15" fill="#0072BB"/>
<path d="M176.542 762.565C176.474 761.878 176.182 761.344 175.665 760.963C175.148 760.582 174.446 760.392 173.56 760.392C172.957 760.392 172.449 760.477 172.034 760.648C171.619 760.812 171.301 761.043 171.079 761.338C170.863 761.634 170.756 761.969 170.756 762.344C170.744 762.656 170.81 762.929 170.952 763.162C171.099 763.395 171.301 763.597 171.557 763.767C171.812 763.932 172.108 764.077 172.443 764.202C172.778 764.321 173.136 764.423 173.517 764.509L175.085 764.884C175.846 765.054 176.545 765.281 177.182 765.565C177.818 765.849 178.369 766.199 178.835 766.614C179.301 767.028 179.662 767.517 179.917 768.08C180.179 768.642 180.312 769.287 180.318 770.014C180.312 771.082 180.04 772.009 179.5 772.793C178.966 773.571 178.193 774.176 177.182 774.608C176.176 775.034 174.963 775.247 173.542 775.247C172.133 775.247 170.906 775.031 169.861 774.599C168.821 774.168 168.008 773.528 167.423 772.682C166.844 771.83 166.54 770.776 166.511 769.52H170.082C170.122 770.105 170.29 770.594 170.585 770.986C170.886 771.372 171.287 771.665 171.787 771.864C172.292 772.057 172.863 772.153 173.5 772.153C174.125 772.153 174.667 772.062 175.128 771.881C175.594 771.699 175.954 771.446 176.21 771.122C176.466 770.798 176.594 770.426 176.594 770.006C176.594 769.614 176.477 769.284 176.244 769.017C176.017 768.75 175.682 768.523 175.238 768.335C174.801 768.148 174.264 767.977 173.628 767.824L171.727 767.347C170.256 766.989 169.094 766.429 168.241 765.668C167.389 764.906 166.966 763.881 166.971 762.591C166.966 761.534 167.247 760.611 167.815 759.821C168.389 759.031 169.176 758.415 170.176 757.972C171.176 757.528 172.312 757.307 173.585 757.307C174.881 757.307 176.011 757.528 176.977 757.972C177.949 758.415 178.704 759.031 179.244 759.821C179.784 760.611 180.062 761.526 180.079 762.565H176.542ZM186.491 757.545V775H182.8V757.545H186.491ZM201.101 763.188C200.981 762.773 200.814 762.406 200.598 762.088C200.382 761.764 200.118 761.491 199.805 761.27C199.498 761.043 199.146 760.869 198.748 760.75C198.356 760.631 197.922 760.571 197.444 760.571C196.552 760.571 195.768 760.793 195.092 761.236C194.422 761.679 193.899 762.324 193.524 763.17C193.149 764.011 192.962 765.04 192.962 766.256C192.962 767.472 193.146 768.506 193.515 769.358C193.885 770.21 194.408 770.861 195.084 771.31C195.76 771.753 196.558 771.974 197.479 771.974C198.314 771.974 199.027 771.827 199.618 771.531C200.214 771.23 200.669 770.807 200.981 770.261C201.3 769.716 201.459 769.071 201.459 768.327L202.209 768.438H197.709V765.659H205.013V767.858C205.013 769.392 204.689 770.71 204.041 771.812C203.393 772.909 202.501 773.756 201.365 774.352C200.229 774.943 198.927 775.239 197.462 775.239C195.825 775.239 194.388 774.878 193.149 774.156C191.91 773.429 190.944 772.398 190.251 771.062C189.564 769.722 189.22 768.131 189.22 766.29C189.22 764.875 189.425 763.614 189.834 762.506C190.248 761.392 190.828 760.449 191.572 759.676C192.317 758.903 193.183 758.315 194.172 757.912C195.16 757.509 196.231 757.307 197.385 757.307C198.373 757.307 199.294 757.452 200.146 757.741C200.998 758.026 201.754 758.429 202.413 758.952C203.078 759.474 203.621 760.097 204.041 760.818C204.462 761.534 204.731 762.324 204.851 763.188H201.101ZM222.384 757.545V775H219.197L211.603 764.014H211.475V775H207.785V757.545H211.023L218.557 768.523H218.711V757.545H222.384ZM241.769 757.545H245.459V768.881C245.459 770.153 245.155 771.267 244.547 772.222C243.945 773.176 243.101 773.92 242.016 774.455C240.931 774.983 239.667 775.247 238.224 775.247C236.775 775.247 235.508 774.983 234.422 774.455C233.337 773.92 232.493 773.176 231.891 772.222C231.289 771.267 230.988 770.153 230.988 768.881V757.545H234.678V768.565C234.678 769.23 234.823 769.821 235.113 770.338C235.408 770.855 235.823 771.261 236.357 771.557C236.891 771.852 237.513 772 238.224 772C238.939 772 239.562 771.852 240.09 771.557C240.624 771.261 241.036 770.855 241.326 770.338C241.621 769.821 241.769 769.23 241.769 768.565V757.545ZM248.496 775V757.545H255.382C256.706 757.545 257.834 757.798 258.765 758.304C259.697 758.804 260.408 759.5 260.896 760.392C261.39 761.278 261.638 762.301 261.638 763.46C261.638 764.619 261.388 765.642 260.888 766.528C260.388 767.415 259.663 768.105 258.714 768.599C257.771 769.094 256.629 769.341 255.288 769.341H250.899V766.384H254.692C255.402 766.384 255.987 766.261 256.447 766.017C256.913 765.767 257.26 765.423 257.487 764.986C257.72 764.543 257.837 764.034 257.837 763.46C257.837 762.881 257.72 762.375 257.487 761.943C257.26 761.506 256.913 761.168 256.447 760.929C255.981 760.685 255.39 760.562 254.675 760.562H252.186V775H248.496Z" fill="white"/>
<path d="M59.8033 880H57.9567L63.2976 865.455H65.1158L70.4567 880H68.6101L64.2635 867.756H64.1499L59.8033 880ZM60.4851 874.318H67.9283V875.881H60.4851V874.318ZM74.1712 865.455V880H72.495V865.455H74.1712ZM77.2411 880V869.091H78.8604V870.739H78.9741C79.1729 870.199 79.5328 869.761 80.0536 869.425C80.5745 869.089 81.1616 868.92 81.815 868.92C81.9381 868.92 82.092 868.923 82.2766 868.928C82.4613 868.932 82.601 868.939 82.6957 868.949V870.653C82.6388 870.639 82.5086 870.618 82.305 870.589C82.1062 870.556 81.8955 870.54 81.6729 870.54C81.1426 870.54 80.6692 870.651 80.2525 870.874C79.8406 871.091 79.5138 871.394 79.2724 871.783C79.0356 872.166 78.9173 872.604 78.9173 873.097V880H77.2411ZM88.9244 880.227C87.8732 880.227 86.9665 879.995 86.2042 879.531C85.4466 879.062 84.8619 878.409 84.4499 877.571C84.0427 876.728 83.8391 875.748 83.8391 874.631C83.8391 873.513 84.0427 872.528 84.4499 871.676C84.8619 870.819 85.4348 870.152 86.1687 869.673C86.9073 869.19 87.7691 868.949 88.7539 868.949C89.3221 868.949 89.8832 869.044 90.4371 869.233C90.9911 869.422 91.4954 869.73 91.9499 870.156C92.4045 870.578 92.7667 871.136 93.0366 871.832C93.3065 872.528 93.4414 873.385 93.4414 874.403V875.114H85.0323V873.665H91.7369C91.7369 873.049 91.6138 872.5 91.3675 872.017C91.1261 871.534 90.7804 871.153 90.3306 870.874C89.8855 870.594 89.36 870.455 88.7539 870.455C88.0863 870.455 87.5086 870.62 87.021 870.952C86.538 871.278 86.1663 871.705 85.9059 872.23C85.6455 872.756 85.5153 873.319 85.5153 873.92V874.886C85.5153 875.71 85.6573 876.409 85.9414 876.982C86.2302 877.55 86.6303 877.983 87.1417 878.281C87.6531 878.575 88.2473 878.722 88.9244 878.722C89.3647 878.722 89.7624 878.66 90.1175 878.537C90.4774 878.409 90.7875 878.22 91.0479 877.969C91.3084 877.713 91.5096 877.396 91.6516 877.017L93.271 877.472C93.1005 878.021 92.814 878.504 92.4116 878.92C92.0091 879.332 91.512 879.654 90.9201 879.886C90.3282 880.114 89.663 880.227 88.9244 880.227ZM99.2013 880.256C98.5101 880.256 97.8827 880.125 97.3192 879.865C96.7558 879.6 96.3084 879.219 95.9769 878.722C95.6455 878.22 95.4798 877.614 95.4798 876.903C95.4798 876.278 95.6029 875.772 95.8491 875.384C96.0953 874.991 96.4244 874.683 96.8363 874.46C97.2482 874.238 97.7028 874.072 98.1999 873.963C98.7018 873.849 99.2061 873.759 99.7127 873.693C100.376 873.608 100.913 873.544 101.325 873.501C101.742 873.454 102.045 873.376 102.234 873.267C102.428 873.158 102.525 872.969 102.525 872.699V872.642C102.525 871.941 102.333 871.397 101.95 871.009C101.571 870.62 100.996 870.426 100.224 870.426C99.4239 870.426 98.7965 870.601 98.342 870.952C97.8874 871.302 97.5678 871.676 97.3832 872.074L95.7923 871.506C96.0763 870.843 96.4551 870.327 96.9286 869.957C97.4068 869.583 97.9277 869.323 98.4911 869.176C99.0593 869.025 99.618 868.949 100.167 868.949C100.518 868.949 100.92 868.991 101.375 869.077C101.834 869.157 102.277 869.325 102.703 869.581C103.134 869.837 103.491 870.223 103.775 870.739C104.059 871.255 104.201 871.946 104.201 872.812V880H102.525V878.523H102.44C102.326 878.759 102.137 879.013 101.872 879.283C101.607 879.553 101.254 879.782 100.814 879.972C100.373 880.161 99.8358 880.256 99.2013 880.256ZM99.457 878.75C100.12 878.75 100.679 878.62 101.133 878.359C101.592 878.099 101.938 877.763 102.17 877.351C102.407 876.939 102.525 876.506 102.525 876.051V874.517C102.454 874.602 102.298 874.68 102.056 874.751C101.82 874.818 101.545 874.877 101.233 874.929C100.925 874.976 100.624 875.019 100.331 875.057C100.042 875.09 99.8074 875.118 99.6275 875.142C99.1919 875.199 98.7847 875.291 98.4059 875.419C98.0318 875.542 97.7288 875.729 97.4968 875.98C97.2695 876.226 97.1559 876.562 97.1559 876.989C97.1559 877.571 97.3713 878.011 97.8022 878.31C98.2378 878.603 98.7894 878.75 99.457 878.75ZM111.38 880.227C110.471 880.227 109.668 879.998 108.972 879.538C108.276 879.074 107.732 878.421 107.339 877.578C106.946 876.731 106.749 875.729 106.749 874.574C106.749 873.428 106.946 872.434 107.339 871.591C107.732 870.748 108.279 870.097 108.979 869.638C109.68 869.179 110.49 868.949 111.408 868.949C112.119 868.949 112.68 869.067 113.092 869.304C113.508 869.536 113.826 869.801 114.043 870.099C114.266 870.393 114.439 870.634 114.562 870.824H114.704V865.455H116.38V880H114.761V878.324H114.562C114.439 878.523 114.263 878.774 114.036 879.077C113.809 879.375 113.485 879.643 113.063 879.879C112.642 880.111 112.081 880.227 111.38 880.227ZM111.607 878.722C112.28 878.722 112.848 878.546 113.312 878.196C113.776 877.841 114.129 877.351 114.37 876.726C114.612 876.096 114.732 875.369 114.732 874.545C114.732 873.731 114.614 873.018 114.377 872.408C114.14 871.792 113.79 871.314 113.326 870.973C112.862 870.627 112.289 870.455 111.607 870.455C110.897 870.455 110.305 870.637 109.832 871.001C109.363 871.361 109.01 871.851 108.773 872.472C108.541 873.087 108.425 873.778 108.425 874.545C108.425 875.322 108.544 876.027 108.781 876.662C109.022 877.292 109.377 877.794 109.846 878.168C110.319 878.537 110.906 878.722 111.607 878.722ZM120.762 884.091C120.478 884.091 120.225 884.067 120.002 884.02C119.78 883.977 119.626 883.935 119.54 883.892L119.967 882.415C120.374 882.519 120.734 882.557 121.046 882.528C121.359 882.5 121.636 882.36 121.877 882.109C122.123 881.863 122.348 881.463 122.552 880.909L122.864 880.057L118.83 869.091H120.648L123.66 877.784H123.773L126.785 869.091H128.603L123.972 881.591C123.764 882.154 123.506 882.621 123.198 882.99C122.89 883.364 122.533 883.641 122.126 883.821C121.723 884.001 121.269 884.091 120.762 884.091ZM138.116 873.438V880H136.44V865.455H138.116V870.795H138.259C138.514 870.232 138.898 869.785 139.409 869.453C139.925 869.117 140.612 868.949 141.469 868.949C142.212 868.949 142.863 869.098 143.422 869.396C143.981 869.69 144.414 870.142 144.722 870.753C145.034 871.359 145.19 872.131 145.19 873.068V880H143.514V873.182C143.514 872.315 143.289 871.645 142.839 871.172C142.394 870.694 141.777 870.455 140.986 870.455C140.437 870.455 139.944 870.571 139.509 870.803C139.078 871.035 138.737 871.373 138.486 871.818C138.24 872.263 138.116 872.803 138.116 873.438ZM151.467 880.256C150.776 880.256 150.148 880.125 149.585 879.865C149.021 879.6 148.574 879.219 148.243 878.722C147.911 878.22 147.745 877.614 147.745 876.903C147.745 876.278 147.868 875.772 148.115 875.384C148.361 874.991 148.69 874.683 149.102 874.46C149.514 874.238 149.968 874.072 150.466 873.963C150.967 873.849 151.472 873.759 151.978 873.693C152.641 873.608 153.179 873.544 153.591 873.501C154.007 873.454 154.31 873.376 154.5 873.267C154.694 873.158 154.791 872.969 154.791 872.699V872.642C154.791 871.941 154.599 871.397 154.216 871.009C153.837 870.62 153.261 870.426 152.49 870.426C151.69 870.426 151.062 870.601 150.608 870.952C150.153 871.302 149.833 871.676 149.649 872.074L148.058 871.506C148.342 870.843 148.721 870.327 149.194 869.957C149.672 869.583 150.193 869.323 150.757 869.176C151.325 869.025 151.884 868.949 152.433 868.949C152.783 868.949 153.186 868.991 153.64 869.077C154.1 869.157 154.542 869.325 154.968 869.581C155.399 869.837 155.757 870.223 156.041 870.739C156.325 871.255 156.467 871.946 156.467 872.812V880H154.791V878.523H154.706C154.592 878.759 154.403 879.013 154.137 879.283C153.872 879.553 153.52 879.782 153.079 879.972C152.639 880.161 152.101 880.256 151.467 880.256ZM151.723 878.75C152.386 878.75 152.944 878.62 153.399 878.359C153.858 878.099 154.204 877.763 154.436 877.351C154.672 876.939 154.791 876.506 154.791 876.051V874.517C154.72 874.602 154.564 874.68 154.322 874.751C154.085 874.818 153.811 874.877 153.498 874.929C153.19 874.976 152.89 875.019 152.596 875.057C152.307 875.09 152.073 875.118 151.893 875.142C151.458 875.199 151.05 875.291 150.672 875.419C150.297 875.542 149.994 875.729 149.762 875.98C149.535 876.226 149.422 876.562 149.422 876.989C149.422 877.571 149.637 878.011 150.068 878.31C150.503 878.603 151.055 878.75 151.723 878.75ZM168.056 869.091L164.022 880H162.317L158.283 869.091H160.102L163.113 877.784H163.227L166.238 869.091H168.056ZM174.452 880.227C173.401 880.227 172.494 879.995 171.732 879.531C170.974 879.062 170.389 878.409 169.977 877.571C169.57 876.728 169.366 875.748 169.366 874.631C169.366 873.513 169.57 872.528 169.977 871.676C170.389 870.819 170.962 870.152 171.696 869.673C172.435 869.19 173.296 868.949 174.281 868.949C174.849 868.949 175.411 869.044 175.964 869.233C176.518 869.422 177.023 869.73 177.477 870.156C177.932 870.578 178.294 871.136 178.564 871.832C178.834 872.528 178.969 873.385 178.969 874.403V875.114H170.56V873.665H177.264C177.264 873.049 177.141 872.5 176.895 872.017C176.653 871.534 176.308 871.153 175.858 870.874C175.413 870.594 174.887 870.455 174.281 870.455C173.614 870.455 173.036 870.62 172.548 870.952C172.065 871.278 171.694 871.705 171.433 872.23C171.173 872.756 171.043 873.319 171.043 873.92V874.886C171.043 875.71 171.185 876.409 171.469 876.982C171.758 877.55 172.158 877.983 172.669 878.281C173.18 878.575 173.775 878.722 174.452 878.722C174.892 878.722 175.29 878.66 175.645 878.537C176.005 878.409 176.315 878.22 176.575 877.969C176.836 877.713 177.037 877.396 177.179 877.017L178.798 877.472C178.628 878.021 178.341 878.504 177.939 878.92C177.536 879.332 177.039 879.654 176.447 879.886C175.856 880.114 175.19 880.227 174.452 880.227ZM190.354 880.256C189.662 880.256 189.035 880.125 188.472 879.865C187.908 879.6 187.461 879.219 187.129 878.722C186.798 878.22 186.632 877.614 186.632 876.903C186.632 876.278 186.755 875.772 187.001 875.384C187.248 874.991 187.577 874.683 187.989 874.46C188.401 874.238 188.855 874.072 189.352 873.963C189.854 873.849 190.358 873.759 190.865 873.693C191.528 873.608 192.065 873.544 192.477 873.501C192.894 873.454 193.197 873.376 193.386 873.267C193.58 873.158 193.678 872.969 193.678 872.699V872.642C193.678 871.941 193.486 871.397 193.102 871.009C192.723 870.62 192.148 870.426 191.376 870.426C190.576 870.426 189.949 870.601 189.494 870.952C189.04 871.302 188.72 871.676 188.536 872.074L186.945 871.506C187.229 870.843 187.607 870.327 188.081 869.957C188.559 869.583 189.08 869.323 189.643 869.176C190.212 869.025 190.77 868.949 191.32 868.949C191.67 868.949 192.072 868.991 192.527 869.077C192.986 869.157 193.429 869.325 193.855 869.581C194.286 869.837 194.643 870.223 194.928 870.739C195.212 871.255 195.354 871.946 195.354 872.812V880H193.678V878.523H193.592C193.479 878.759 193.289 879.013 193.024 879.283C192.759 879.553 192.406 879.782 191.966 879.972C191.526 880.161 190.988 880.256 190.354 880.256ZM190.609 878.75C191.272 878.75 191.831 878.62 192.286 878.359C192.745 878.099 193.09 877.763 193.322 877.351C193.559 876.939 193.678 876.506 193.678 876.051V874.517C193.607 874.602 193.45 874.68 193.209 874.751C192.972 874.818 192.697 874.877 192.385 874.929C192.077 874.976 191.777 875.019 191.483 875.057C191.194 875.09 190.96 875.118 190.78 875.142C190.344 875.199 189.937 875.291 189.558 875.419C189.184 875.542 188.881 875.729 188.649 875.98C188.422 876.226 188.308 876.562 188.308 876.989C188.308 877.571 188.524 878.011 188.955 878.31C189.39 878.603 189.942 878.75 190.609 878.75ZM200.089 873.438V880H198.413V869.091H200.032V870.795H200.174C200.43 870.241 200.818 869.796 201.339 869.46C201.86 869.119 202.532 868.949 203.356 868.949C204.095 868.949 204.741 869.1 205.295 869.403C205.849 869.702 206.28 870.156 206.588 870.767C206.895 871.373 207.049 872.14 207.049 873.068V880H205.373V873.182C205.373 872.325 205.151 871.657 204.706 871.179C204.261 870.696 203.65 870.455 202.873 870.455C202.338 870.455 201.86 870.571 201.439 870.803C201.022 871.035 200.693 871.373 200.451 871.818C200.21 872.263 200.089 872.803 200.089 873.438ZM218.947 880.256C218.256 880.256 217.629 880.125 217.065 879.865C216.502 879.6 216.054 879.219 215.723 878.722C215.392 878.22 215.226 877.614 215.226 876.903C215.226 876.278 215.349 875.772 215.595 875.384C215.841 874.991 216.17 874.683 216.582 874.46C216.994 874.238 217.449 874.072 217.946 873.963C218.448 873.849 218.952 873.759 219.459 873.693C220.122 873.608 220.659 873.544 221.071 873.501C221.488 873.454 221.791 873.376 221.98 873.267C222.174 873.158 222.271 872.969 222.271 872.699V872.642C222.271 871.941 222.08 871.397 221.696 871.009C221.317 870.62 220.742 870.426 219.97 870.426C219.17 870.426 218.543 870.601 218.088 870.952C217.634 871.302 217.314 871.676 217.129 872.074L215.538 871.506C215.822 870.843 216.201 870.327 216.675 869.957C217.153 869.583 217.674 869.323 218.237 869.176C218.805 869.025 219.364 868.949 219.913 868.949C220.264 868.949 220.666 868.991 221.121 869.077C221.58 869.157 222.023 869.325 222.449 869.581C222.88 869.837 223.237 870.223 223.521 870.739C223.805 871.255 223.947 871.946 223.947 872.812V880H222.271V878.523H222.186C222.072 878.759 221.883 879.013 221.618 879.283C221.353 879.553 221 879.782 220.56 879.972C220.119 880.161 219.582 880.256 218.947 880.256ZM219.203 878.75C219.866 878.75 220.425 878.62 220.879 878.359C221.339 878.099 221.684 877.763 221.916 877.351C222.153 876.939 222.271 876.506 222.271 876.051V874.517C222.2 874.602 222.044 874.68 221.803 874.751C221.566 874.818 221.291 874.877 220.979 874.929C220.671 874.976 220.37 875.019 220.077 875.057C219.788 875.09 219.554 875.118 219.374 875.142C218.938 875.199 218.531 875.291 218.152 875.419C217.778 875.542 217.475 875.729 217.243 875.98C217.016 876.226 216.902 876.562 216.902 876.989C216.902 877.571 217.117 878.011 217.548 878.31C217.984 878.603 218.536 878.75 219.203 878.75ZM231.439 880.227C230.416 880.227 229.535 879.986 228.797 879.503C228.058 879.02 227.49 878.355 227.092 877.507C226.694 876.66 226.495 875.691 226.495 874.602C226.495 873.494 226.699 872.517 227.106 871.669C227.518 870.817 228.091 870.152 228.825 869.673C229.564 869.19 230.425 868.949 231.41 868.949C232.177 868.949 232.868 869.091 233.484 869.375C234.1 869.659 234.604 870.057 234.997 870.568C235.39 871.08 235.634 871.676 235.728 872.358H234.052C233.924 871.861 233.64 871.42 233.2 871.037C232.764 870.649 232.177 870.455 231.439 870.455C230.785 870.455 230.212 870.625 229.72 870.966C229.232 871.302 228.851 871.778 228.576 872.393C228.306 873.004 228.172 873.722 228.172 874.545C228.172 875.388 228.304 876.122 228.569 876.747C228.839 877.372 229.218 877.857 229.706 878.203C230.198 878.549 230.776 878.722 231.439 878.722C231.874 878.722 232.27 878.646 232.625 878.494C232.98 878.343 233.28 878.125 233.527 877.841C233.773 877.557 233.948 877.216 234.052 876.818H235.728C235.634 877.462 235.399 878.042 235.025 878.558C234.656 879.07 234.166 879.477 233.555 879.78C232.949 880.078 232.243 880.227 231.439 880.227ZM242.61 880.227C241.588 880.227 240.707 879.986 239.968 879.503C239.23 879.02 238.662 878.355 238.264 877.507C237.866 876.66 237.667 875.691 237.667 874.602C237.667 873.494 237.871 872.517 238.278 871.669C238.69 870.817 239.263 870.152 239.997 869.673C240.735 869.19 241.597 868.949 242.582 868.949C243.349 868.949 244.04 869.091 244.656 869.375C245.271 869.659 245.776 870.057 246.169 870.568C246.562 871.08 246.806 871.676 246.9 872.358H245.224C245.096 871.861 244.812 871.42 244.372 871.037C243.936 870.649 243.349 870.455 242.61 870.455C241.957 870.455 241.384 870.625 240.892 870.966C240.404 871.302 240.023 871.778 239.748 872.393C239.478 873.004 239.343 873.722 239.343 874.545C239.343 875.388 239.476 876.122 239.741 876.747C240.011 877.372 240.39 877.857 240.877 878.203C241.37 878.549 241.948 878.722 242.61 878.722C243.046 878.722 243.441 878.646 243.797 878.494C244.152 878.343 244.452 878.125 244.699 877.841C244.945 877.557 245.12 877.216 245.224 876.818H246.9C246.806 877.462 246.571 878.042 246.197 878.558C245.828 879.07 245.338 879.477 244.727 879.78C244.121 880.078 243.415 880.227 242.61 880.227ZM253.782 880.227C252.797 880.227 251.933 879.993 251.19 879.524C250.451 879.055 249.874 878.4 249.457 877.557C249.045 876.714 248.839 875.729 248.839 874.602C248.839 873.466 249.045 872.474 249.457 871.626C249.874 870.779 250.451 870.121 251.19 869.652C251.933 869.183 252.797 868.949 253.782 868.949C254.767 868.949 255.629 869.183 256.368 869.652C257.111 870.121 257.689 870.779 258.1 871.626C258.517 872.474 258.725 873.466 258.725 874.602C258.725 875.729 258.517 876.714 258.1 877.557C257.689 878.4 257.111 879.055 256.368 879.524C255.629 879.993 254.767 880.227 253.782 880.227ZM253.782 878.722C254.53 878.722 255.146 878.53 255.629 878.146C256.112 877.763 256.469 877.259 256.701 876.634C256.933 876.009 257.049 875.331 257.049 874.602C257.049 873.873 256.933 873.194 256.701 872.564C256.469 871.934 256.112 871.425 255.629 871.037C255.146 870.649 254.53 870.455 253.782 870.455C253.034 870.455 252.419 870.649 251.936 871.037C251.453 871.425 251.095 871.934 250.863 872.564C250.631 873.194 250.515 873.873 250.515 874.602C250.515 875.331 250.631 876.009 250.863 876.634C251.095 877.259 251.453 877.763 251.936 878.146C252.419 878.53 253.034 878.722 253.782 878.722ZM268.159 875.54V869.091H269.835V880H268.159V878.153H268.045C267.79 878.707 267.392 879.179 266.852 879.567C266.313 879.95 265.631 880.142 264.807 880.142C264.125 880.142 263.519 879.993 262.989 879.695C262.458 879.392 262.042 878.937 261.739 878.331C261.436 877.72 261.284 876.951 261.284 876.023V869.091H262.96V875.909C262.96 876.705 263.183 877.339 263.628 877.812C264.078 878.286 264.651 878.523 265.347 878.523C265.763 878.523 266.187 878.416 266.618 878.203C267.054 877.99 267.418 877.663 267.712 877.223C268.01 876.783 268.159 876.222 268.159 875.54ZM274.581 873.438V880H272.905V869.091H274.525V870.795H274.667C274.922 870.241 275.31 869.796 275.831 869.46C276.352 869.119 277.025 868.949 277.848 868.949C278.587 868.949 279.233 869.1 279.787 869.403C280.341 869.702 280.772 870.156 281.08 870.767C281.388 871.373 281.542 872.14 281.542 873.068V880H279.865V873.182C279.865 872.325 279.643 871.657 279.198 871.179C278.753 870.696 278.142 870.455 277.365 870.455C276.83 870.455 276.352 870.571 275.931 870.803C275.514 871.035 275.185 871.373 274.944 871.818C274.702 872.263 274.581 872.803 274.581 873.438ZM289.349 869.091V870.511H283.695V869.091H289.349ZM285.343 866.477H287.019V876.875C287.019 877.348 287.088 877.704 287.225 877.94C287.367 878.172 287.547 878.329 287.765 878.409C287.987 878.485 288.222 878.523 288.468 878.523C288.653 878.523 288.804 878.513 288.923 878.494C289.041 878.471 289.136 878.452 289.207 878.438L289.548 879.943C289.434 879.986 289.275 880.028 289.072 880.071C288.868 880.118 288.61 880.142 288.298 880.142C287.824 880.142 287.36 880.04 286.906 879.837C286.456 879.633 286.082 879.323 285.783 878.906C285.49 878.49 285.343 877.964 285.343 877.33V866.477ZM294.058 875.909V875.824C294.067 874.92 294.162 874.2 294.342 873.665C294.522 873.13 294.777 872.696 295.109 872.365C295.44 872.034 295.838 871.728 296.302 871.449C296.581 871.278 296.832 871.077 297.055 870.845C297.277 870.608 297.452 870.336 297.58 870.028C297.713 869.721 297.779 869.38 297.779 869.006C297.779 868.542 297.67 868.139 297.452 867.798C297.235 867.457 296.943 867.195 296.579 867.01C296.214 866.825 295.809 866.733 295.364 866.733C294.976 866.733 294.602 866.813 294.242 866.974C293.882 867.135 293.582 867.389 293.34 867.734C293.099 868.08 292.959 868.532 292.921 869.091H291.131C291.169 868.286 291.378 867.597 291.756 867.024C292.14 866.451 292.644 866.013 293.269 865.71C293.899 865.407 294.597 865.256 295.364 865.256C296.198 865.256 296.922 865.421 297.538 865.753C298.158 866.084 298.636 866.539 298.972 867.116C299.313 867.694 299.484 868.352 299.484 869.091C299.484 869.612 299.403 870.083 299.242 870.504C299.086 870.926 298.859 871.302 298.56 871.634C298.267 871.965 297.912 872.259 297.495 872.514C297.078 872.775 296.745 873.049 296.494 873.338C296.243 873.622 296.06 873.961 295.947 874.354C295.833 874.747 295.772 875.237 295.762 875.824V875.909H294.058ZM294.967 880.114C294.616 880.114 294.316 879.988 294.065 879.737C293.814 879.486 293.688 879.186 293.688 878.835C293.688 878.485 293.814 878.184 294.065 877.933C294.316 877.682 294.616 877.557 294.967 877.557C295.317 877.557 295.618 877.682 295.869 877.933C296.12 878.184 296.245 878.485 296.245 878.835C296.245 879.067 296.186 879.28 296.067 879.474C295.954 879.669 295.8 879.825 295.606 879.943C295.416 880.057 295.203 880.114 294.967 880.114Z" fill="black"/>
<path d="M315.814 869.091C315.728 868.371 315.383 867.812 314.777 867.415C314.171 867.017 313.427 866.818 312.547 866.818C311.903 866.818 311.339 866.922 310.856 867.131C310.378 867.339 310.004 867.625 309.734 867.99C309.469 868.355 309.336 868.769 309.336 869.233C309.336 869.621 309.429 869.955 309.613 870.234C309.803 870.509 310.044 870.739 310.338 870.923C310.631 871.103 310.939 871.252 311.261 871.371C311.583 871.484 311.879 871.577 312.149 871.648L313.626 872.045C314.005 872.145 314.426 872.282 314.89 872.457C315.359 872.633 315.806 872.872 316.233 873.175C316.663 873.473 317.019 873.857 317.298 874.325C317.577 874.794 317.717 875.369 317.717 876.051C317.717 876.837 317.511 877.547 317.099 878.182C316.692 878.816 316.095 879.321 315.309 879.695C314.528 880.069 313.579 880.256 312.461 880.256C311.42 880.256 310.518 880.088 309.755 879.751C308.998 879.415 308.401 878.946 307.966 878.345C307.535 877.744 307.291 877.045 307.234 876.25H309.052C309.1 876.799 309.284 877.254 309.606 877.614C309.933 877.969 310.345 878.234 310.842 878.409C311.344 878.58 311.884 878.665 312.461 878.665C313.134 878.665 313.737 878.556 314.272 878.338C314.807 878.116 315.231 877.808 315.544 877.415C315.856 877.017 316.012 876.553 316.012 876.023C316.012 875.54 315.877 875.147 315.608 874.844C315.338 874.541 314.983 874.295 314.542 874.105C314.102 873.916 313.626 873.75 313.115 873.608L311.325 873.097C310.189 872.77 309.289 872.304 308.626 871.697C307.963 871.091 307.632 870.298 307.632 869.318C307.632 868.504 307.852 867.794 308.292 867.188C308.737 866.577 309.334 866.103 310.082 865.767C310.835 865.426 311.675 865.256 312.603 865.256C313.541 865.256 314.374 865.424 315.103 865.76C315.833 866.091 316.41 866.546 316.836 867.124C317.267 867.701 317.494 868.357 317.518 869.091H315.814ZM320.386 880V869.091H322.062V880H320.386ZM321.238 867.273C320.911 867.273 320.629 867.161 320.393 866.939C320.161 866.716 320.045 866.449 320.045 866.136C320.045 865.824 320.161 865.556 320.393 865.334C320.629 865.111 320.911 865 321.238 865C321.565 865 321.844 865.111 322.076 865.334C322.313 865.556 322.431 865.824 322.431 866.136C322.431 866.449 322.313 866.716 322.076 866.939C321.844 867.161 321.565 867.273 321.238 867.273ZM329.535 884.318C328.725 884.318 328.029 884.214 327.447 884.006C326.865 883.802 326.379 883.532 325.991 883.196C325.608 882.865 325.302 882.509 325.075 882.131L326.41 881.193C326.562 881.392 326.753 881.619 326.985 881.875C327.217 882.135 327.535 882.36 327.937 882.55C328.344 882.744 328.877 882.841 329.535 882.841C330.416 882.841 331.143 882.628 331.716 882.202C332.288 881.776 332.575 881.108 332.575 880.199V877.983H332.433C332.31 878.182 332.135 878.428 331.907 878.722C331.685 879.01 331.363 879.268 330.941 879.496C330.525 879.718 329.961 879.83 329.251 879.83C328.37 879.83 327.58 879.621 326.879 879.205C326.183 878.788 325.631 878.182 325.224 877.386C324.822 876.591 324.62 875.625 324.62 874.489C324.62 873.371 324.817 872.398 325.21 871.57C325.603 870.736 326.15 870.092 326.85 869.638C327.551 869.179 328.361 868.949 329.279 868.949C329.99 868.949 330.553 869.067 330.97 869.304C331.391 869.536 331.713 869.801 331.936 870.099C332.163 870.393 332.338 870.634 332.461 870.824H332.632V869.091H334.251V880.312C334.251 881.25 334.038 882.012 333.612 882.599C333.19 883.191 332.622 883.625 331.907 883.899C331.197 884.179 330.406 884.318 329.535 884.318ZM329.478 878.324C330.151 878.324 330.719 878.17 331.183 877.862C331.647 877.554 332 877.112 332.241 876.534C332.483 875.956 332.603 875.265 332.603 874.46C332.603 873.674 332.485 872.981 332.248 872.379C332.011 871.778 331.661 871.307 331.197 870.966C330.733 870.625 330.16 870.455 329.478 870.455C328.768 870.455 328.176 870.634 327.703 870.994C327.234 871.354 326.881 871.837 326.645 872.443C326.413 873.049 326.297 873.722 326.297 874.46C326.297 875.218 326.415 875.888 326.652 876.47C326.893 877.048 327.248 877.502 327.717 877.834C328.19 878.161 328.778 878.324 329.478 878.324ZM338.995 873.438V880H337.319V869.091H338.939V870.795H339.081C339.336 870.241 339.725 869.796 340.245 869.46C340.766 869.119 341.439 868.949 342.262 868.949C343.001 868.949 343.647 869.1 344.201 869.403C344.755 869.702 345.186 870.156 345.494 870.767C345.802 871.373 345.956 872.14 345.956 873.068V880H344.279V873.182C344.279 872.325 344.057 871.657 343.612 871.179C343.167 870.696 342.556 870.455 341.779 870.455C341.244 870.455 340.766 870.571 340.345 870.803C339.928 871.035 339.599 871.373 339.358 871.818C339.116 872.263 338.995 872.803 338.995 873.438ZM354.643 880V869.091H356.32V880H354.643ZM355.496 867.273C355.169 867.273 354.887 867.161 354.651 866.939C354.419 866.716 354.303 866.449 354.303 866.136C354.303 865.824 354.419 865.556 354.651 865.334C354.887 865.111 355.169 865 355.496 865C355.822 865 356.102 865.111 356.334 865.334C356.571 865.556 356.689 865.824 356.689 866.136C356.689 866.449 356.571 866.716 356.334 866.939C356.102 867.161 355.822 867.273 355.496 867.273ZM361.066 873.438V880H359.39V869.091H361.009V870.795H361.151C361.407 870.241 361.795 869.796 362.316 869.46C362.837 869.119 363.509 868.949 364.333 868.949C365.071 868.949 365.718 869.1 366.272 869.403C366.826 869.702 367.257 870.156 367.564 870.767C367.872 871.373 368.026 872.14 368.026 873.068V880H366.35V873.182C366.35 872.325 366.127 871.657 365.682 871.179C365.237 870.696 364.626 870.455 363.85 870.455C363.315 870.455 362.837 870.571 362.415 870.803C361.998 871.035 361.669 871.373 361.428 871.818C361.186 872.263 361.066 872.803 361.066 873.438Z" fill="#0072BB"/>
<path d="M250.717 141.994L247.977 178.387C244.323 180.571 241.177 177.477 240.061 175.658L220.271 141.994H250.717Z" fill="#1D4F91"/>
<path d="M250.717 141.994H278.118C274.566 135.639 266.549 121.72 262.895 116.878C259.242 112.036 259.14 113.382 259.242 114.592C259.648 120.443 259.607 132.855 258.633 136.244C257.659 139.634 252.95 141.49 250.717 141.994Z" fill="#0B6EBF"/>
<path d="M283.599 151.511L278.118 141.994H250.412L247.672 178.529C258.328 172.491 280.25 159.924 282.685 157.959C285.121 155.994 284.309 152.842 283.599 151.511Z" fill="#1D559E"/>
<line x1="250.966" y1="142.015" x2="247.921" y2="178.55" stroke="#557CB1" stroke-width="0.5"/>
<line x1="251.752" y1="141.744" x2="277.936" y2="141.744" stroke="#557CB1" stroke-width="0.5"/>
<path d="M226.112 112.374L256.26 132.944C256.324 137.2 252.072 138.378 249.938 138.435L210.889 138.741L226.112 112.374Z" fill="#E28A27"/>
<path d="M226.112 112.374L239.813 88.6438C232.534 88.5426 216.47 88.5261 210.45 89.2694C204.431 90.0126 205.545 90.7733 206.644 91.2906C211.914 93.8642 222.643 100.106 225.091 102.644C227.539 105.182 226.792 110.188 226.112 112.374Z" fill="#F0AE2C"/>
<path d="M250.796 88.6565L239.813 88.6438L225.96 112.638L256.23 133.279C256.329 121.031 256.406 95.7631 255.923 92.6712C255.439 89.5794 252.303 88.7065 250.796 88.6565Z" fill="#F09A2A"/>
<line x1="226.255" y1="112.169" x2="256.373" y2="133.073" stroke="#F3AF51" stroke-width="0.5"/>
<line x1="226.413" y1="111.353" x2="239.505" y2="88.677" stroke="#F3AF51" stroke-width="0.5"/>
<path d="M187.503 119.72L220.39 103.896C224.108 105.969 223.002 110.24 221.985 112.116L202.726 146.087L187.503 119.72Z" fill="#1D4F91"/>
<path d="M187.503 119.72L173.802 95.9894C170.075 102.243 162.029 116.146 159.663 121.731C157.296 127.316 158.512 126.731 159.51 126.038C164.374 122.761 175.144 116.59 178.566 115.739C181.988 114.888 185.95 118.038 187.503 119.72Z" fill="#0B6EBF"/>
<path d="M179.304 86.4845L173.802 95.9894L187.655 119.984L220.666 104.089C210.109 97.8794 188.264 85.1787 185.345 84.0518C182.425 82.9249 180.101 85.204 179.304 86.4845Z" fill="#1D559E"/>
<line x1="187.396" y1="119.494" x2="220.559" y2="103.863" stroke="#557CB1" stroke-width="0.5"/>
<line x1="186.769" y1="118.948" x2="173.677" y2="96.2726" stroke="#557CB1" stroke-width="0.5"/>
<path d="M174.107 156.076L176.847 119.683C180.501 117.499 183.647 120.593 184.763 122.412L204.553 156.076H174.107Z" fill="#F0AE2C"/>
<path d="M174.107 156.076H146.705C150.257 162.431 158.275 176.35 161.928 181.192C165.582 186.034 165.683 184.688 165.582 183.478C165.176 177.627 165.217 165.215 166.191 161.826C167.165 158.436 171.874 156.58 174.107 156.076Z" fill="#E28A27"/>
<path d="M141.225 146.558L146.705 156.076H174.411L177.151 119.541C166.495 125.579 144.574 138.146 142.138 140.111C139.703 142.076 140.515 145.228 141.225 146.558Z" fill="#F09A2A"/>
<line x1="173.858" y1="156.055" x2="176.902" y2="119.52" stroke="#F3AF51" stroke-width="0.5"/>
<line x1="173.072" y1="156.326" x2="146.888" y2="156.326" stroke="#F3AF51" stroke-width="0.5"/>
<path d="M199.215 185.792L169.067 165.223C169.003 160.967 173.255 159.789 175.389 159.732L214.438 159.425L199.215 185.792Z" fill="#1D4F91"/>
<path d="M199.215 185.792L185.514 209.523C192.793 209.624 208.857 209.641 214.877 208.897C220.896 208.154 219.782 207.393 218.683 206.876C213.413 204.302 202.684 198.061 200.236 195.523C197.788 192.984 198.535 187.978 199.215 185.792Z" fill="#0B6EBF"/>
<path d="M174.531 209.51L185.514 209.523L199.367 185.529L169.097 164.888C168.998 177.136 168.921 202.404 169.404 205.495C169.888 208.587 173.024 209.46 174.531 209.51Z" fill="#1D559E"/>
<line x1="199.072" y1="185.998" x2="168.954" y2="165.093" stroke="#557CB1" stroke-width="0.5"/>
<line x1="198.914" y1="186.814" x2="185.822" y2="209.49" stroke="#557CB1" stroke-width="0.5"/>
<path d="M237.824 178.447L204.937 194.27C201.219 192.198 202.325 187.927 203.343 186.05L222.601 152.08L237.824 178.447Z" fill="#E28A27"/>
<path d="M237.824 178.447L251.525 202.177C255.252 195.924 263.298 182.021 265.665 176.436C268.031 170.851 266.815 171.436 265.817 172.129C260.954 175.406 250.184 181.577 246.762 182.428C243.339 183.278 239.378 180.128 237.824 178.447Z" fill="#F0AE2C"/>
<path d="M246.023 211.682L251.525 202.177L237.672 178.183L204.662 194.078C215.219 200.287 237.063 212.988 239.983 214.115C242.902 215.242 245.226 212.963 246.023 211.682Z" fill="#F09A2A"/>
<line x1="237.931" y1="178.673" x2="204.768" y2="194.304" stroke="#F3AF51" stroke-width="0.5"/>
<line x1="238.558" y1="179.218" x2="251.65" y2="201.894" stroke="#F3AF51" stroke-width="0.5"/>
<path d="M148.288 255.502C145.288 255.502 142.876 255.118 141.052 254.35V250.894C142.084 251.278 143.188 251.59 144.364 251.83C145.564 252.07 146.752 252.19 147.928 252.19C149.776 252.19 151.156 251.974 152.068 251.542C153.004 251.11 153.472 250.246 153.472 248.95C153.472 248.158 153.28 247.522 152.896 247.042C152.512 246.562 151.876 246.154 150.988 245.818C150.1 245.458 148.876 245.086 147.316 244.702C144.82 244.054 143.068 243.238 142.06 242.254C141.052 241.246 140.548 239.866 140.548 238.114C140.548 236.074 141.292 234.478 142.78 233.326C144.268 232.174 146.488 231.598 149.44 231.598C150.784 231.598 152.044 231.694 153.22 231.886C154.42 232.078 155.356 232.294 156.028 232.534V235.99C154.204 235.294 152.188 234.946 149.98 234.946C148.252 234.946 146.908 235.174 145.948 235.63C144.988 236.086 144.508 236.914 144.508 238.114C144.508 238.81 144.676 239.374 145.012 239.806C145.348 240.238 145.924 240.61 146.74 240.922C147.58 241.234 148.732 241.582 150.196 241.966C152.092 242.446 153.556 243.022 154.588 243.694C155.644 244.342 156.376 245.11 156.784 245.998C157.216 246.862 157.432 247.846 157.432 248.95C157.432 250.99 156.676 252.598 155.164 253.774C153.652 254.926 151.36 255.502 148.288 255.502ZM171.497 255.502C167.825 255.502 165.077 254.542 163.253 252.622C161.429 250.678 160.517 247.678 160.517 243.622C160.517 239.398 161.429 236.338 163.253 234.442C165.077 232.546 167.825 231.598 171.497 231.598C175.193 231.598 177.941 232.546 179.741 234.442C181.565 236.338 182.477 239.398 182.477 243.622C182.477 247.678 181.565 250.678 179.741 252.622C177.941 254.542 175.193 255.502 171.497 255.502ZM171.497 252.19C173.921 252.19 175.697 251.53 176.825 250.21C177.977 248.866 178.553 246.67 178.553 243.622C178.553 240.406 177.977 238.162 176.825 236.89C175.697 235.594 173.921 234.946 171.497 234.946C169.097 234.946 167.321 235.594 166.169 236.89C165.041 238.162 164.477 240.406 164.477 243.622C164.477 246.67 165.041 248.866 166.169 250.21C167.321 251.53 169.097 252.19 171.497 252.19ZM186.303 255.142V231.958H190.227V252.118H202.107V255.142H186.303ZM204.533 255.142L213.389 231.958H217.781L226.565 255.142H222.533L220.229 249.166H210.905L208.601 255.142H204.533ZM211.517 246.142H219.581L215.549 235.522L211.517 246.142ZM230.424 255.142V231.958H241.08C243.672 231.958 245.556 232.63 246.732 233.974C247.932 235.294 248.532 237.094 248.532 239.374C248.532 241.006 248.124 242.398 247.308 243.55C246.492 244.702 245.316 245.506 243.78 245.962C244.212 246.274 244.548 246.61 244.788 246.97C245.028 247.33 245.268 247.81 245.508 248.41L248.424 255.142H244.392L241.548 248.662C241.284 248.038 240.96 247.594 240.576 247.33C240.216 247.066 239.592 246.934 238.704 246.934H234.348V255.142H230.424ZM234.348 243.766H240.036C241.452 243.766 242.568 243.418 243.384 242.722C244.2 242.026 244.608 240.91 244.608 239.374C244.608 236.47 243.204 235.018 240.396 235.018H234.348V243.766Z" fill="url(#paint0_linear_118_220)"/>
<path d="M275.596 243.974C275.596 249.355 270.964 253.876 265.05 253.876C259.136 253.876 254.505 249.355 254.505 243.974C254.505 238.592 259.136 234.072 265.05 234.072C270.964 234.072 275.596 238.592 275.596 243.974Z" stroke="#F09A2A" stroke-width="3.5"/>
<line x1="265.823" y1="223" x2="265.823" y2="230.25" stroke="#F09A2A"/>
<line x1="265.823" y1="258.215" x2="265.823" y2="265.465" stroke="#F09A2A"/>
<line y1="-0.5" x2="7.45308" y2="-0.5" transform="matrix(-0.725844 -0.687859 0.725844 -0.687859 251.607 232.787)" stroke="#F09A2A"/>
<line y1="-0.5" x2="7.45308" y2="-0.5" transform="matrix(-0.725844 -0.687859 0.725844 -0.687859 283.848 260.753)" stroke="#F09A2A"/>
<line y1="-0.5" x2="7.45308" y2="-0.5" transform="matrix(0.725844 -0.687859 0.725844 0.687859 278.439 232.787)" stroke="#F09A2A"/>
<line x1="281.171" y1="243.215" x2="288.822" y2="243.215" stroke="#F09A2A"/>
<defs>
<linearGradient id="paint0_linear_118_220" x1="245" y1="244" x2="139" y2="244.37" gradientUnits="userSpaceOnUse">
<stop offset="0.0521287" stop-color="#F09A2A"/>
<stop offset="1" stop-color="#0072BB"/>
</linearGradient>
</defs>
</svg>
